<?xml version="1.0" standalone="no"?>
<!DOCTYPE svg PUBLIC "-//W3C//DTD SVG 1.1//EN" "http://www.w3.org/Graphics/SVG/1.1/DTD/svg11.dtd" >
<svg>
<metadata>
Created by FontForge 20090914 at Sat May 20 14:29:00 2017
 By www-data
</metadata>
<defs>
<font id="SkodaPro-Bold" horiz-adv-x="778" >
  <font-face 
    font-family="Skoda Pro"
    font-weight="600"
    font-stretch="normal"
    units-per-em="2048"
    panose-1="2 0 0 0 0 0 0 0 0 0"
    ascent="1638"
    descent="-410"
    x-height="1071"
    cap-height="1475"
    bbox="-953 -478.004 2737 1920"
    underline-thickness="102"
    underline-position="-103"
    unicode-range="U+000D-U+FB02"
  />
<missing-glyph horiz-adv-x="1022" 
 />
    <glyph glyph-name=".notdef" horiz-adv-x="1022" 
 />
    <glyph glyph-name="uni000D" unicode="&#xd;" horiz-adv-x="508" 
 />
    <glyph glyph-name="space" unicode=" " horiz-adv-x="508" 
 />
    <glyph glyph-name="exclam" unicode="!" horiz-adv-x="579" 
d="M156 18v263.998c0 12.667 6 19.334 18 20.001l220 30c12 0.666992 18 -4.66602 18 -15.999v-298c0 -12 -6 -18 -18 -18h-220c-12 0 -18 6 -18 18zM156 1457c0 12.667 6 19.332 18 19.999l233 31c12 0.666992 18 -4.66602 18 -15.999l-16 -920c0 -12 -6 -18 -18 -18h-201
c-12 0 -18 6 -18 18z" />
    <glyph glyph-name="quotedbl" unicode="&#x22;" horiz-adv-x="889" 
d="M122 953v503.999c0 11.333 6 18 18 20l210 23c12 0.666992 18 -4.66602 18 -15.999v-531c0 -12 -6 -18 -18 -18h-210c-12 0 -18 6 -18 18zM522 952.999v503.999c0 11.333 6 18 18 20l210 23c12 0.666992 18 -4.66602 18 -15.999v-531c0 -12 -6 -18 -18 -18h-210
c-12 0 -18 6 -18 18z" />
    <glyph glyph-name="numbersign" unicode="#" horiz-adv-x="1489" 
d="M69 334l18 210c0.666992 12 7 18 19 18h221l56 353h-212c-12 0 -17.667 6 -17 18l16 207c0.666992 12 7 18 19 18h233l48 299c1.33301 7.33301 3.5 12.166 6.5 14.499s7.83301 3.5 14.5 3.5h219c12 0 17 -6 15 -18l-48 -299h269l48 299
c1.33301 7.33301 3.5 12.166 6.5 14.499s7.83301 3.5 14.5 3.5h219c12 0 17 -6 15 -18l-48 -299h202c12 0 17.667 -6 17 -18l-17 -207c-0.666992 -12 -7 -18 -19 -18h-222l-56 -353h213c12 0 17.667 -6 17 -18l-17 -210c-0.666992 -12 -7 -18 -19 -18h-234l-47 -298
c-1.33301 -7.33301 -3.5 -12.166 -6.5 -14.499s-7.83301 -3.5 -14.5 -3.5h-219c-12 0 -17 6 -15 18l47 298h-269l-47 -298c-1.33301 -7.33301 -3.5 -12.166 -6.5 -14.499s-7.83301 -3.5 -14.5 -3.5h-219c-12 0 -17 6 -15 18l47 298h-201c-12 0 -17.667 6 -17 18zM582 562
h269l56 353h-269z" />
    <glyph glyph-name="dollar" unicode="$" horiz-adv-x="1158" 
d="M76 1093c0 60 7.83496 112.332 23.502 156.999s40 82.334 73 113.001s75.167 54.834 126.5 72.501s112.666 30.167 183.999 37.5v214c0 12 6 18 18 18h169c12 0 18 -6 18 -18v-206c56.667 -1.33301 111.667 -4.33301 165 -9s101.666 -10.667 144.999 -18
c12 -2 17 -9 15 -21l-32 -178c-2 -12 -9 -17.667 -21 -17c-45.333 4 -89.666 7.16699 -132.999 9.5s-90 4.16602 -140 5.49902l-5 -420l66 -17c72 -19.333 130 -42.5 174 -69.5s78.167 -57.667 102.5 -92s40.5 -72.5 48.5 -114.5s12 -88 12 -138
c0 -60.667 -7 -114.167 -21 -160.5s-36.667 -85.833 -68 -118.5s-72.333 -58.834 -123 -78.501s-112.334 -33.5 -185.001 -41.5v-215c0 -12 -6 -18 -18 -18h-169c-12 0 -18 6 -18 18v206c-60.667 0.666992 -120.667 3.33398 -180 8.00098s-114 11.667 -164 21
c-12 2.66699 -17 9.66699 -15 21l36 185c2 12 9 17 21 15c49.333 -8 98.5 -13.5 147.5 -16.5s100.5 -4.83301 154.5 -5.5l5 433l-74 22c-69.333 20.667 -125.833 44 -169.5 70s-78 55.5 -103 88.5s-42.167 70.667 -51.5 113s-14 90.5 -14 144.5zM298.002 1087
c0 -28 2.66797 -52.001 8.00098 -72.001s15.166 -37.667 29.499 -53s34.333 -29.166 60 -41.499s58.5 -24.833 98.5 -37.5v367c-39.333 -3.33301 -71.5 -8.5 -96.5 -15.5s-45 -17 -60 -30s-25.333 -29.167 -31 -48.5s-8.5 -42.333 -8.5 -69zM679.003 227.998
c40 4 72.001 10.499 96.001 19.499s42.167 20.5 54.5 34.5s20.5 31 24.5 51s6 43 6 69c0 24.667 -2.16699 46.167 -6.5 64.5s-13 34.833 -26 49.5s-31.333 28.334 -55 41.001s-54.834 26 -93.501 40v-369z" />
    <glyph glyph-name="percent" unicode="%" horiz-adv-x="2011" 
d="M77 987l-0.00195312 119c0 76 8.83301 139.333 26.5 190s42.5 91.334 74.5 122.001s70.333 52.334 115 65.001s94 19 148 19s103.167 -6.33301 147.5 -19s82.333 -34.334 114 -65.001s56.167 -71.334 73.5 -122.001s26 -114 26 -190v-119
c0 -75.333 -8.66699 -138.333 -26 -189s-41.666 -91.5 -72.999 -122.5s-69.166 -53 -113.499 -66s-93.833 -19.5 -148.5 -19.5c-54 0 -103.333 6.5 -148 19.5s-83 35 -115 66s-56.833 71.833 -74.5 122.5s-26.5 113.667 -26.5 189zM293.998 984
c0 -66.667 12.5029 -114.333 37.5029 -143s61.5 -43 109.5 -43c46 0 81.667 14.333 107 43s38 76.667 38 144v124c0 34.667 -3.33301 63.834 -10 87.501s-16.334 42.667 -29.001 57s-27.834 24.666 -45.501 30.999s-37.834 9.5 -60.501 9.5c-24 0 -45 -3.16699 -63 -9.5
s-33.333 -16.666 -46 -30.999s-22.167 -33.333 -28.5 -57s-9.5 -52.834 -9.5 -87.501v-125zM456.001 16.001l815 1443c3.33301 6 6.83301 10.167 10.5 12.5s9.16699 3.5 16.5 3.5h242c12 0 15 -5.33301 9 -16l-815 -1443c-3.33301 -6 -6.83301 -10.167 -10.5 -12.5
s-9.16699 -3.5 -16.5 -3.5h-242c-12 0 -15 5.33301 -9 16zM1208 370.001l-0.000976562 119c0 76 8.66699 139.5 26 190.5s42 91.667 74 122s70.333 52 115 65s94 19.5 148 19.5s103.333 -6.5 148 -19.5s82.834 -34.667 114.501 -65s56.167 -71 73.5 -122
s26 -114.5 26 -190.5v-119c0 -75.333 -8.66699 -138.333 -26 -189s-41.666 -91.5 -72.999 -122.5s-69.333 -53.167 -114 -66.5s-94.334 -20 -149.001 -20c-54 0 -103.167 6.66699 -147.5 20s-82.5 35.5 -114.5 66.5s-56.833 71.833 -74.5 122.5s-26.5 113.667 -26.5 189z
M1425 367.001c0 -66.667 12.498 -114.166 37.498 -142.499s61.167 -42.5 108.5 -42.5c46.667 0 82.667 14.167 108 42.5s38 76.166 38 143.499v123c0 35.333 -3.33301 64.833 -10 88.5s-16.334 42.667 -29.001 57s-28 24.5 -46 30.5s-38.333 9 -61 9
c-23.333 0 -44.166 -3 -62.499 -9s-33.666 -16.167 -45.999 -30.5s-21.666 -33.333 -27.999 -57s-9.5 -53.167 -9.5 -88.5v-124z" />
    <glyph glyph-name="ampersand" unicode="&#x26;" horiz-adv-x="1485" 
d="M77 391c0 70.667 4.33398 129.334 13.001 176.001s24.167 86.5 46.5 119.5s53 62.167 92 87.5s88.5 52.333 148.5 81c-22.667 30 -42 58.333 -58 85s-29 53 -39 79s-17.333 52.833 -22 80.5s-7 57.5 -7 89.5c0 59.333 9.5 109 28.5 149s45.833 72.167 80.5 96.5
s76.5 41.666 125.5 51.999s103.833 15.5 164.5 15.5c60 0 114.5 -5.16699 163.5 -15.5s91.167 -27.666 126.5 -51.999s62.666 -56.5 81.999 -96.5s29 -89.667 29 -149c0 -52 -3.83301 -96.5 -11.5 -133.5s-22.334 -70.667 -44.001 -101s-52 -59 -91 -86
s-89.833 -56.167 -152.5 -87.5l258 -294c36 42.667 67.333 88.667 94 138s48 101.333 64 156c3.33301 11.333 11 17 23 17h218c12 0 16.667 -6 14 -18c-22.667 -92.667 -55 -179.5 -97 -260.5s-92.333 -154.833 -151 -221.5l250 -284c7.33301 -9.33301 5.33301 -14 -6 -14
h-282c-7.33301 0 -13 1 -17 3s-8.33301 5.66699 -13 11l-109 124c-74.667 -52.667 -155.334 -93.5 -242.001 -122.5s-177.667 -43.5 -273 -43.5c-57.333 0 -110.666 4.33301 -159.999 13s-92.166 27.5 -128.499 56.5s-65 71.167 -86 126.5s-31.5 129.666 -31.5 222.999z
M349.001 414c0 -41.333 3.83398 -74.3311 11.501 -98.998s18.667 -43.334 33 -56.001s31.5 -20.834 51.5 -24.501s42.667 -5.5 68 -5.5c55.333 0 109.666 8.5 162.999 25.5s105 41.5 155 73.5l-302 345c-37.333 -18.667 -67.833 -36 -91.5 -52s-42 -33.333 -55 -52
s-21.833 -40.167 -26.5 -64.5s-7 -54.5 -7 -90.5zM496.002 1177c0 -21.333 2.33203 -41.332 6.99902 -59.999s11.334 -36.834 20.001 -54.501s19.334 -35.167 32.001 -52.5s27 -35.333 43 -54c47.333 22 84.833 41 112.5 57s48.5 31.833 62.5 47.5s23 32.5 27 50.5
s6 40 6 66c0 21.333 -2.5 39.666 -7.5 54.999s-13.5 27.833 -25.5 37.5s-27.833 16.834 -47.5 21.501s-43.834 7 -72.501 7c-30 0 -55 -2.33301 -75 -7s-36 -11.834 -48 -21.501s-20.667 -22.167 -26 -37.5s-8 -33.666 -8 -54.999z" />
    <glyph glyph-name="quotesingle" unicode="'" horiz-adv-x="490" 
d="M122 953v503.999c0 11.333 6 18 18 20l210 23c12 0.666992 18 -4.66602 18 -15.999v-531c0 -12 -6 -18 -18 -18h-210c-12 0 -18 6 -18 18z" />
    <glyph glyph-name="parenleft" unicode="(" horiz-adv-x="649" 
d="M102 499v88.001c0 80.667 4.83301 160.667 14.5 240s23.834 156.333 42.501 231s41.5 145.834 68.5 213.501s57.833 130.5 92.5 188.5c3.33301 5.33301 6.83301 9.16602 10.5 11.499s9.16699 3.5 16.5 3.5h234c12 0 15 -5 9 -15c-36 -62.667 -67.667 -130.167 -95 -202.5
s-50.166 -147.166 -68.499 -224.499s-32 -155.666 -41 -234.999s-13.5 -157 -13.5 -233v-45c0 -76 4.5 -153.667 13.5 -233s22.667 -157.5 41 -234.5s41.166 -151.667 68.499 -224s59 -139.833 95 -202.5c6 -10 3 -15 -9 -15h-234c-7.33301 0 -12.833 1.16699 -16.5 3.5
s-7.16699 6.16602 -10.5 11.499c-34.667 58 -65.5 120.833 -92.5 188.5s-49.833 138.667 -68.5 213s-32.834 151.166 -42.501 230.499s-14.5 159.666 -14.5 240.999z" />
    <glyph glyph-name="parenright" unicode=")" horiz-adv-x="649" 
d="M59 -374c36 62.667 67.667 130.166 95 202.499s50.166 147 68.499 224s32 155.167 41 234.5s13.5 157 13.5 233v45c0 76 -4.5 153.667 -13.5 233s-22.667 157.666 -41 234.999s-41.166 152.166 -68.499 224.499s-59 139.833 -95 202.5c-6 10 -3 15 9 15h234
c7.33301 0 12.833 -1.16699 16.5 -3.5s7.16699 -6.16602 10.5 -11.499c34.667 -58 65.5 -120.833 92.5 -188.5s49.833 -138.834 68.5 -213.501s32.834 -151.667 42.501 -231s14.5 -159.333 14.5 -240v-88c0 -81.333 -4.83301 -161.666 -14.5 -240.999
s-23.834 -156.166 -42.501 -230.499s-41.5 -145.333 -68.5 -213s-57.833 -130.5 -92.5 -188.5c-3.33301 -5.33301 -6.83301 -9.16602 -10.5 -11.499s-9.16699 -3.5 -16.5 -3.5h-234c-12 0 -15 5 -9 15z" />
    <glyph glyph-name="asterisk" unicode="*" horiz-adv-x="990" 
d="M88 1019c-6 10.667 -3.66699 19 7 25l205 118l-205 119c-10.667 6 -13 14.333 -7 25l78 137c6 10.667 14.333 13 25 7l207 -119v236c0 12 6 18 18 18h158c12 0 18 -6 18 -18v-237l207 120c10.667 6 19 3.66699 25 -7l79 -137c6 -10.667 3.66699 -19 -7 -25l-206 -119
l206 -118c10.667 -6 13 -14.333 7 -25l-79 -137c-6 -10.667 -14.333 -13 -25 -7l-207 119v-237c0 -12 -6 -18 -18 -18h-158c-12 0 -18 6 -18 18v237l-207 -119c-10.667 -6 -19 -3.66699 -25 7z" />
    <glyph glyph-name="plus" unicode="+" horiz-adv-x="1086" 
d="M79 673v208c0 12 6 18 18 18h324v327c0 12 6 18 18 18h208c12 0 18 -6 18 -18v-327h324c12 0 18 -6 18 -18v-208c0 -12 -6 -18 -18 -18h-324v-322c0 -12 -6 -18 -18 -18h-208c-12 0 -18 6 -18 18v322h-324c-12 0 -18 6 -18 18z" />
    <glyph glyph-name="comma" unicode="," horiz-adv-x="537" 
d="M65 -236l74 517.999c1.33301 7.33301 3.33301 12.333 6 15s7.66699 4.33398 15 5.00098l254 30c12 1.33301 16.667 -3.66699 14 -15l-141 -554c-1.33301 -6.66699 -3.5 -11.167 -6.5 -13.5s-8.16699 -3.5 -15.5 -3.5h-185c-12 0 -17 6 -15 18z" />
    <glyph glyph-name="hyphen" unicode="-" horiz-adv-x="780" 
d="M136 475v208c0 12 6 18 18 18h472c12 0 18 -6 18 -18v-208c0 -12 -6 -18 -18 -18h-472c-12 0 -18 6 -18 18z" />
    <glyph glyph-name="period" unicode="." horiz-adv-x="511" 
d="M124 18v263.998c0 12.667 6 19.334 18 20.001l220 30c12 0.666992 18 -4.66602 18 -15.999v-298c0 -12 -6 -18 -18 -18h-220c-12 0 -18 6 -18 18z" />
    <glyph glyph-name="slash" unicode="/" horiz-adv-x="837" 
d="M68 17l433 1522c2 6.66699 4.5 11.167 7.5 13.5s8.16699 3.5 15.5 3.5h242c12.667 0 17 -5.66699 13 -17l-434 -1522c-2 -6.66699 -4.5 -11.167 -7.5 -13.5s-8.16699 -3.5 -15.5 -3.5h-241c-12.667 0 -17 5.66699 -13 17z" />
    <glyph glyph-name="zero" unicode="0" horiz-adv-x="1304" 
d="M125 601l-0.000976562 273c0 90.667 5.16699 169 15.5 235s25.833 122.333 46.5 169s45.834 84.5 75.501 113.5s64.167 51.667 103.5 68s82.833 27.5 130.5 33.5s99.5 9 155.5 9c56.667 0 109 -3 157 -9s91.5 -17.167 130.5 -33.5s73.333 -39 103 -68
s54.667 -66.833 75 -113.5s35.666 -103 45.999 -169s15.5 -144.333 15.5 -235v-273c0 -90.667 -5.16699 -169.167 -15.5 -235.5s-25.5 -122.833 -45.5 -169.5s-45 -84.5 -75 -113.5s-64.333 -51.667 -103 -68s-82 -27.5 -130 -33.5s-100.333 -9 -157 -9
c-56 0 -107.833 3 -155.5 9s-91 17.167 -130 33.5s-73.667 39 -104 68s-55.666 66.833 -75.999 113.5s-35.833 103.167 -46.5 169.5s-16 144.833 -16 235.5zM389.999 613c0 -81.333 5.33203 -146.999 15.999 -196.999s26.834 -88.833 48.501 -116.5s49 -46.334 82 -56.001
s71.833 -14.5 116.5 -14.5s83.334 4.83301 116.001 14.5s59.834 28.334 81.501 56.001s37.834 66.667 48.501 117s16 116.166 16 197.499v249c0 81.333 -5.33301 147 -16 197s-27 88.833 -49 116.5s-49.5 46.167 -82.5 55.5s-71.5 14 -115.5 14
c-44.667 0 -83.334 -4.66699 -116.001 -14s-59.834 -27.833 -81.501 -55.5s-37.834 -66.5 -48.501 -116.5s-16 -115.667 -16 -197v-250z" />
    <glyph glyph-name="one" unicode="1" horiz-adv-x="817" 
d="M21 1381c-2 12 3 19.333 15 22l330 68c5.33301 1.33301 11.333 2.33301 18 3s12.667 1 18 1h229c12 0 18 -6 18 -18v-1439c0 -12 -6 -18 -18 -18h-229c-12 0 -18 6 -18 18v1207l-309 -65c-12 -2.66699 -19 2 -21 14z" />
    <glyph glyph-name="two" unicode="2" horiz-adv-x="1134" 
d="M94 18l0.00195312 128.002c0 71.333 5.33301 133.166 16 185.499s28 100 52 143s55.5 83.667 94.5 122s87.167 79.166 144.5 122.499l209 157c22 16.667 41.667 32.5 59 47.5s31.666 30.5 42.999 46.5s20 33 26 51s9 38 9 60c0 30 -4.66699 55.333 -14 76
s-24.5 37.5 -45.5 50.5s-49 22.5 -84 28.5s-77.833 9 -128.5 9c-18 0 -39 -0.333008 -63 -1s-49.5 -2 -76.5 -4s-55.167 -4.5 -84.5 -7.5s-58 -6.83301 -86 -11.5c-12 -2 -19 3 -21 15l-34 203c-1.33301 7.33301 -1 12.5 1 15.5s6.33301 5.5 13 7.5
c31.333 8 63.666 14.5 96.999 19.5s66.5 9 99.5 12s64.833 5.16699 95.5 6.5s58.667 2 84 2c104.667 0 191.167 -9 259.5 -27s122.5 -44 162.5 -78s68 -75.167 84 -123.5s24 -102.5 24 -162.5c0 -45.333 -4.66699 -86.333 -14 -123s-23.5 -71 -42.5 -103
s-43 -62.833 -72 -92.5s-63.167 -60.167 -102.5 -91.5l-161 -127c-50.667 -40 -91.5 -73.833 -122.5 -101.5s-54.833 -53.167 -71.5 -76.5s-27.667 -46.333 -33 -69s-8 -48.667 -8 -78h596c12 0 18 -6 18 -18v-213c0 -12 -6 -18 -18 -18h-887c-12 0 -18 6 -18 18z" />
    <glyph glyph-name="three" unicode="3" horiz-adv-x="1137" 
d="M104 23l11.9971 212c0.666992 11.333 7 16.666 19 15.999c58 -7.33301 114.333 -12.166 169 -14.499s106 -3.5 154 -3.5c49.333 0 92.166 3.33301 128.499 10s66.333 17.667 90 33s41.334 35.666 53.001 60.999s17.5 56.666 17.5 93.999v31
c0 24.667 -3.33301 48.667 -10 72s-18.667 44 -36 62s-40.666 32.5 -69.999 43.5s-66.333 16.5 -111 16.5h-263c-12 0 -18 6 -18 18v207c0 12 6 18 18 18h256c47.333 0 86.166 4.66699 116.499 14s54.166 21.833 71.499 37.5s29.333 33.167 36 52.5s10 39 10 59v21
c0 59.333 -25 100.833 -75 124.5s-121.333 35.5 -214 35.5c-54 0 -106.5 -1.66699 -157.5 -5s-104.5 -7.66602 -160.5 -12.999c-12 -2 -18.333 3.33301 -19 16l-13 212c-0.666992 12 5 19 17 21c46.667 7.33301 100.167 13.833 160.5 19.5s123.5 8.5 189.5 8.5
c86 0 162.5 -6.66699 229.5 -20s123.667 -34.666 170 -63.999s81.5 -68 105.5 -116s36 -106.333 36 -175v-27c0 -76.667 -20.167 -142.834 -60.5 -198.501s-102.166 -95.167 -185.499 -118.5c40.667 -13.333 76.334 -31.5 107.001 -54.5s56.334 -49.5 77.001 -79.5
s36.167 -62.833 46.5 -98.5s15.5 -72.5 15.5 -110.5v-37c0 -84 -11.833 -153.667 -35.5 -209s-58.334 -99.5 -104.001 -132.5s-101.5 -56.167 -167.5 -69.5s-141.333 -20 -226 -20c-68 0 -133.333 2.83301 -196 8.5s-118 12.834 -166 21.501
c-7.33301 1.33301 -12.166 3.33301 -14.499 6s-3.16602 7.66699 -2.49902 15z" />
    <glyph glyph-name="four" unicode="4" horiz-adv-x="1236" 
d="M50 323v227.001c0 12 3.66699 23 11 33l634 877c4 5.33301 8 9.16602 12 11.499s9.66699 3.5 17 3.5h260c12 0 18 -6 18 -18v-932h149c12 0 18 -6 18 -18v-184c0 -12 -6 -18 -18 -18h-149v-287c0 -12 -6 -18 -18 -18h-229c-12 0 -18 6 -18 18v287h-669
c-12 0 -18 6 -18 18zM317 525.001h420v589h-16l-404 -576v-13z" />
    <glyph glyph-name="five" unicode="5" horiz-adv-x="1128" 
d="M87 36l35 207.001c2 12 9 17 21 15c26 -4 52.833 -7.83301 80.5 -11.5s55 -6.83398 82 -9.50098s52.333 -4.66699 76 -6s44.5 -2 62.5 -2c58 0 107 5 147 15s72.333 24.667 97 44s42.5 43.166 53.5 71.499s16.5 60.833 16.5 97.5v24c0 40.667 -5.66699 76 -17 106
s-30.166 54.667 -56.499 74s-61 33.666 -104 42.999s-95.833 14 -158.5 14c-20.667 0 -43.834 -0.833008 -69.501 -2.5s-51 -3.66699 -76 -6s-48.333 -4.83301 -70 -7.5s-38.5 -4.66699 -50.5 -6c-12 -0.666992 -18 4.66602 -18 15.999v162
c0 5.33301 0.166992 11.333 0.5 18s0.833008 12.667 1.5 18l56 547c2 12 8.66699 18 20 18h785c12 0 17 -6 15 -18l-38 -213c-1.33301 -7.33301 -3.33301 -12.166 -6 -14.499s-7.66699 -3.5 -15 -3.5h-538l-29 -293l11 1c7.33301 0.666992 15.666 1.33398 24.999 2.00098
l28 2c9.33301 0.666992 16.333 1 21 1c86.667 0 164 -7.83301 232 -23.5s125.5 -41.5 172.5 -77.5s83 -83.167 108 -141.5s37.5 -130.166 37.5 -215.499v-24c0 -86.667 -12.667 -160.667 -38 -222s-62.166 -111.5 -110.499 -150.5s-108 -67.5 -179 -85.5
s-152.167 -27 -243.5 -27c-66.667 0 -129.167 3.5 -187.5 10.5s-113.5 17.167 -165.5 30.5c-6.66699 2 -11 4.5 -13 7.5s-2.33301 8.16699 -1 15.5z" />
    <glyph glyph-name="six" unicode="6" horiz-adv-x="1239" 
d="M116 616l0.00292969 201.994c0 126 13.167 232.5 39.5 319.5s65.666 157.5 117.999 211.5s117.833 93 196.5 117s170 36 274 36c48.667 0 99.667 -3 153 -9s107.333 -16 162 -30c6.66699 -2 11 -4.5 13 -7.5s2.33301 -8.16699 1 -15.5l-36 -200c-2 -12 -9 -17 -21 -15
c-21.333 4 -43.833 7.33301 -67.5 10s-47.334 4.83398 -71.001 6.50098s-46.834 2.83398 -69.501 3.50098s-43.334 1 -62.001 1c-60.667 0 -113.167 -4.83301 -157.5 -14.5s-81.166 -27 -110.499 -52s-51.833 -59.167 -67.5 -102.5s-24.834 -98.333 -27.501 -165
c38.667 6.66699 80.667 12.834 126 18.501s94 8.5 146 8.5c70.667 0 136.667 -7.33301 198 -22s114.5 -39.167 159.5 -73.5s80.333 -79.666 106 -135.999s38.5 -126.166 38.5 -209.499v-20c0 -77.333 -11 -147.166 -33 -209.499s-54.833 -115.5 -98.5 -159.5
s-98 -77.833 -163 -101.5s-140.5 -35.5 -226.5 -35.5c-79.333 0 -151 10.833 -215 32.5s-118.667 57.667 -164 108s-80.166 116.5 -104.499 198.5s-36.5 183.667 -36.5 305zM382.003 615.994c0 -80 5.66602 -145.171 16.999 -195.504s28 -89.666 50 -117.999
s49.167 -47.666 81.5 -57.999s69.5 -15.5 111.5 -15.5c80.667 0 142.334 19.167 185.001 57.5s64 99.5 64 183.5v21c0 42 -6.33301 76.833 -19 104.5s-30.667 49.834 -54 66.501s-51.333 28.5 -84 35.5s-69 10.5 -109 10.5c-18 0 -37.333 -0.666992 -58 -2
s-41.5 -3.16602 -62.5 -5.49902s-42 -5 -63 -8l-59.5 -8.5v-68z" />
    <glyph glyph-name="seven" unicode="7" horiz-adv-x="1067" 
d="M42 1457c-0.666992 12 4.66406 18 15.9971 18h954c12 0 18 -6 18 -18v-212c0 -12.667 -2.66699 -24 -8 -34l-583 -1195c-3.33301 -6 -6.66602 -10.167 -9.99902 -12.5s-8.66602 -3.5 -15.999 -3.5h-272c-11.333 -0 -14.666 5.33301 -9.99902 16l621 1210h-668
c-11.333 0 -18 6 -20 18z" />
    <glyph glyph-name="eight" unicode="8" horiz-adv-x="1281" 
d="M104 397l0.00488281 44c0 26.667 4.5 55.667 13.5 87s23.167 62 42.5 92s44.166 57.833 74.499 83.5s67.166 46.167 110.499 61.5c-35.333 13.333 -65.333 31.5 -90 54.5s-44.5 48.833 -59.5 77.5s-25.833 59 -32.5 91s-10 63.667 -10 95v29
c0 70.667 10.833 130.834 32.5 180.501s53.167 90 94.5 121s92.333 53.5 153 67.5s130 21 208 21s147.167 -7 207.5 -21s111.166 -36.5 152.499 -67.5s72.833 -71.333 94.5 -121s32.5 -109.834 32.5 -180.501v-29c0 -31.333 -3.33301 -63 -10 -95s-17.5 -62.333 -32.5 -91
s-34.667 -54.5 -59 -77.5s-54.166 -41.167 -89.499 -54.5c42.667 -15.333 79.167 -35.833 109.5 -61.5s55.166 -53.5 74.499 -83.5s33.5 -60.667 42.5 -92s13.5 -60.333 13.5 -87v-44c0 -82.667 -12.833 -151.334 -38.5 -206.001s-61.834 -98.167 -108.501 -130.5
s-103 -55.166 -169 -68.499s-139.333 -20 -220 -20c-81.333 0 -155 6.66699 -221 20s-122.333 36.166 -169 68.499s-82.834 75.833 -108.501 130.5s-38.5 123.334 -38.5 206.001zM363.005 419c0 -38 5.1748 -70.333 15.5078 -97s26.666 -48.167 48.999 -64.5
s51.166 -28.333 86.499 -36s77.666 -11.5 126.999 -11.5s91.5 3.83301 126.5 11.5s63.667 19.667 86 36s38.666 37.833 48.999 64.5s15.5 59 15.5 97v30c0 14 -2.83301 32 -8.5 54s-16.834 43.167 -33.501 63.5s-40.334 37.833 -71.001 52.5s-71.334 22 -122.001 22h-84
c-50.667 0 -91.334 -7.33301 -122.001 -22s-54.5 -32.167 -71.5 -52.5s-28.333 -41.5 -34 -63.5s-8.5 -40 -8.5 -54v-30zM398.013 1068c0 -19.333 2.33203 -39.666 6.99902 -60.999s14.334 -40.833 29.001 -58.5s35 -32.334 61 -44.001s60.667 -17.5 104 -17.5h84
c42.667 0 77 5.83301 103 17.5s46.167 26.334 60.5 44.001s24 37.167 29 58.5s7.5 41.666 7.5 60.999v15c0 33.333 -4.33301 61.5 -13 84.5s-22.5 41.833 -41.5 56.5s-44 25.167 -75 31.5s-68.5 9.5 -112.5 9.5s-81.5 -3.16699 -112.5 -9.5s-56.167 -16.833 -75.5 -31.5
s-33.333 -33.5 -42 -56.5s-13 -51.167 -13 -84.5v-15z" />
    <glyph glyph-name="nine" unicode="9" horiz-adv-x="1243" 
d="M88 980l0.000976562 19.998c0 78 10.167 148 30.5 210s51.666 114.667 93.999 158s96 76.5 161 99.5s142.167 34.5 231.5 34.5c78.667 0 150.167 -10.667 214.5 -32s119.5 -57 165.5 -107s81.5 -116 106.5 -198s37.5 -183.333 37.5 -304v-177
c0 -131.333 -13.167 -242.333 -39.5 -333s-65.666 -164 -117.999 -220s-117.833 -96.5 -196.5 -121.5s-170 -37.5 -274 -37.5c-50.667 0 -103.834 3.33301 -159.501 10s-112.167 17 -169.5 31c-6.66699 2 -11 4.5 -13 7.5s-2.33301 8.16699 -1 15.5l34 206
c2 12 9 16.667 21 14c22.667 -4.66699 46.667 -8.66699 72 -12s50.5 -6.16602 75.5 -8.49902s49.333 -4 73 -5s45.5 -1.5 65.5 -1.5c58 0 108.5 4.66699 151.5 14s79.333 26.333 109 51s52.667 58 69 100s26.833 95.667 31.5 161
c-39.333 -7.33301 -81.5 -13.666 -126.5 -18.999s-92.833 -8 -143.5 -8c-75.333 0 -143.833 7.5 -205.5 22.5s-114.5 40 -158.5 75s-78 81.5 -102 139.5s-36 129.667 -36 215zM354.001 986.998c0 -44 5.50098 -80.499 16.501 -109.499s27.667 -52.167 50 -69.5
s50.166 -29.666 83.499 -36.999s72 -11 116 -11c36 0 75.833 1.66699 119.5 5s84.834 7.33301 123.501 12v91c0 80 -6 144.667 -18 194s-29.5 87.666 -52.5 114.999s-50.833 45.666 -83.5 54.999s-69.334 14 -110.001 14c-86 0 -148.333 -18.667 -187 -56
s-58 -98.333 -58 -183v-20z" />
    <glyph glyph-name="colon" unicode=":" horiz-adv-x="557" 
d="M148 18v263.998c0 12.667 6 19.334 18 20.001l220 30c12 0.666992 18 -4.66602 18 -15.999v-298c0 -12 -6 -18 -18 -18h-220c-12 0 -18 6 -18 18zM148 693.998v263.998c0 12.667 6 19.334 18 20.001l220 30c12 0.666992 18 -4.66602 18 -15.999v-298
c0 -12 -6 -18 -18 -18h-220c-12 0 -18 6 -18 18z" />
    <glyph glyph-name="semicolon" unicode=";" horiz-adv-x="585" 
d="M102 -236l74 517.999c1.33301 7.33301 3.33301 12.333 6 15s7.66699 4.33398 15 5.00098l254 30c12 1.33301 16.667 -3.66699 14 -15l-141 -554c-1.33301 -6.66699 -3.5 -11.167 -6.5 -13.5s-8.16699 -3.5 -15.5 -3.5h-185c-12 0 -17 6 -15 18zM179 693.999v263.998
c0 12.667 6 19.334 18 20.001l220 30c12 0.666992 18 -4.66602 18 -15.999v-298c0 -12 -6 -18 -18 -18h-220c-12 0 -18 6 -18 18z" />
    <glyph glyph-name="less" unicode="&#x3c;" horiz-adv-x="971" 
d="M68 649v217c0 7.33301 1.16699 12.833 3.5 16.5s6.16602 7.16699 11.499 10.5l696 411c9.33301 6 16 3.33301 20 -8l58 -214c3.33301 -11.333 -0.333984 -20 -11.001 -26l-549 -299l549 -299c10.667 -6 14.334 -14.667 11.001 -26l-58 -214
c-4 -11.333 -10.667 -14 -20 -8l-696 412c-5.33301 3.33301 -9.16602 6.83301 -11.499 10.5s-3.5 9.16699 -3.5 16.5z" />
    <glyph glyph-name="equal" unicode="=" horiz-adv-x="1193" 
d="M147 437v207c0 12 6 18 18 18h863c12 0 18 -6 18 -18v-207c0 -12 -6 -18 -18 -18h-863c-12 0 -18 6 -18 18zM147 956v207c0 12 6 18 18 18h863c12 0 18 -6 18 -18v-207c0 -12 -6 -18 -18 -18h-863c-12 0 -18 6 -18 18z" />
    <glyph glyph-name="greater" unicode="&#x3e;" horiz-adv-x="971" 
d="M114 432c-3.33301 11.333 0.333984 20 11.001 26l549 299l-549 299c-10.667 6 -14.334 14.667 -11.001 26l58 214c4 11.333 10.667 14 20 8l696 -411c5.33301 -3.33301 9.16602 -6.83301 11.499 -10.5s3.5 -9.16699 3.5 -16.5v-217
c0 -7.33301 -1.16699 -12.833 -3.5 -16.5s-6.16602 -7.16699 -11.499 -10.5l-696 -412c-9.33301 -6 -16 -3.33301 -20 8z" />
    <glyph glyph-name="question" unicode="?" horiz-adv-x="916" 
d="M67 1443c-2 11.333 2.66602 18.6758 13.999 22.0088c44.667 12.667 95.167 22 151.5 28s113.833 9 172.5 9c68 0 129.333 -5.33301 184 -16s101.167 -27.834 139.5 -51.501s68 -54.5 89 -92.5s31.5 -84.667 31.5 -140v-17c0 -32 -3.16699 -61.333 -9.5 -88
s-16.5 -52.834 -30.5 -78.501s-32.167 -52 -54.5 -79s-49.166 -56.5 -80.499 -88.5l-85 -88c-24 -24.667 -42.667 -45.334 -56 -62.001s-23.5 -33.167 -30.5 -49.5s-11.333 -34.5 -13 -54.5s-2.5 -45.667 -2.5 -77v-35c0 -12 -6 -18 -18 -18h-209
c-7.33301 0 -12.333 1.16699 -15 3.5s-4.66699 7.16602 -6 14.499c-2 11.333 -4 26.166 -6 44.499s-3 37.166 -3 56.499c0 25.333 1.33301 49.166 4 71.499s8.5 44.666 17.5 66.999s22 45.333 39 69s39.833 49.5 68.5 77.5l75 70l55.5 55.5
c15.667 16.333 28.5 31.833 38.5 46.5s17.333 29.167 22 43.5s7 30.166 7 47.499c0 39.333 -15.833 67.666 -47.5 84.999s-82.5 26 -152.5 26c-37.333 0 -74.5 -1.66699 -111.5 -5s-78.167 -8.66602 -123.5 -15.999c-12 -2 -19 3 -21 15zM235.999 18.0098v263.998
c0 12.667 6 19.334 18 20.001l220 30c12 0.666992 18 -4.66602 18 -15.999v-298c0 -12 -6 -18 -18 -18h-220c-12 0 -18 6 -18 18z" />
    <glyph glyph-name="at" unicode="@" horiz-adv-x="1860" 
d="M97 541l14.0078 141.997c14 133.333 45.667 249.5 95 348.5s114.166 181.167 194.499 246.5s174.833 114.166 283.5 146.499s229.334 48.5 362.001 48.5c129.333 0 240 -15.667 332 -47s167.167 -76 225.5 -134s101 -128.333 128 -211s40.5 -175.334 40.5 -278.001
c0 -101.333 -9.83301 -190.333 -29.5 -267s-47.834 -143 -84.501 -199s-81.667 -102.667 -135 -140s-113.5 -67 -180.5 -89s-140.667 -37.667 -221 -47s-166.166 -14 -257.499 -14c-70 0 -128.333 7.33301 -175 22s-83.167 39 -109.5 73s-43.5 79 -51.5 135
s-8 125.667 0 209l13 129c8.66699 82 22 150.833 40 206.5s44 100.5 78 134.5s77.167 58.333 129.5 73s117.166 22 194.499 22c52 0 105.667 -3 161 -9s109 -13.667 161 -23c12 -2 17.667 -9 17 -21l-37 -693c40.667 14 76.167 33.333 106.5 58s55.666 56.834 75.999 96.501
s35.5 87.667 45.5 144s15 123.5 15 201.5c0 72.667 -8.33301 137.167 -25 193.5s-44.834 103.666 -84.501 141.999s-92 67.333 -157 87s-145.833 29.5 -242.5 29.5c-53.333 0 -105.5 -3.5 -156.5 -10.5s-99.5 -19 -145.5 -36s-89 -40 -129 -69
s-75.833 -65.167 -107.5 -108.5s-58.5 -94.666 -80.5 -153.999s-38.333 -128.333 -49 -207l-17 -133c-8.66699 -66.667 -12.834 -130 -12.501 -190s6.66602 -115.667 18.999 -167s31.833 -97.666 58.5 -138.999s62.5 -76.666 107.5 -105.999s100.167 -52.166 165.5 -68.499
s142.666 -24.833 231.999 -25.5c11.333 0 16.666 -6 15.999 -18l-20 -181c-1.33301 -7.33301 -3.33301 -12.166 -6 -14.499s-7.33398 -3.5 -14.001 -3.5c-165.333 1.33301 -301.833 22.666 -409.5 63.999s-191.5 100.833 -251.5 178.5s-98.833 172.834 -116.5 285.501
s-19.5 241.667 -5.5 387zM766.508 387.497c1 -32.333 7.16895 -57.332 18.502 -74.999s28.666 -29.5 51.999 -35.5s54.666 -9 93.999 -9c42 0 79.667 3 113 9l28 550c-19.333 2.66699 -38.833 4.83398 -58.5 6.50098s-39.167 2.5 -58.5 2.5
c-32 0 -58.167 -4.16699 -78.5 -12.5s-36.833 -22.333 -49.5 -42s-22.667 -45.834 -30 -78.501s-13.333 -73.334 -18 -122.001l-6 -66c-5.33301 -52.667 -7.5 -95.167 -6.5 -127.5z" />
    <glyph glyph-name="A" unicode="A" horiz-adv-x="1343" 
d="M15 17l467 1441c2.66699 6.66699 5.5 11.167 8.5 13.5s8.16699 3.5 15.5 3.5h330c7.33301 0 12.5 -1.16699 15.5 -3.5s5.83301 -6.83301 8.5 -13.5l469 -1441c0.666992 -2.66699 1 -5 1 -7c0 -6.66699 -4.33301 -10 -13 -10h-256c-7.33301 0 -12.5 1.16699 -15.5 3.5
s-5.5 6.83301 -7.5 13.5l-87 283h-562l-86 -283c-2 -6.66699 -4.5 -11.167 -7.5 -13.5s-8.16699 -3.5 -15.5 -3.5h-253c-8.66699 -0 -13 3.33301 -13 10c0 2 0.333008 4.33301 1 7zM463 540h415l-208 677z" />
    <glyph glyph-name="B" unicode="B" horiz-adv-x="1342" 
d="M166 15l-0.00292969 1442c0 12 6 18.333 18 19c26 2 55 4 87 6s65 3.66699 99 5s68 2.33301 102 3s66.333 1 97 1c110 0 203.833 -5.5 281.5 -16.5s140.834 -30.167 189.501 -57.5s84.167 -64.666 106.5 -111.999s33.5 -107.333 33.5 -180v-11
c0 -66.667 -13 -122.834 -39 -168.501s-60 -81.5 -102 -107.5c30.667 -14 59 -32 85 -54s48.333 -48.167 67 -78.5s33.334 -64.833 44.001 -103.5s16 -82 16 -130v-41c0 -66 -6.66699 -123 -20 -171s-33.166 -88.667 -59.499 -122s-59 -60.166 -98 -80.499
s-83.833 -36.166 -134.5 -47.499s-107.334 -19 -170.001 -23s-130.667 -6 -204 -6c-24 0 -51.167 0.333008 -81.5 1s-62.166 1.66699 -95.499 3s-67.5 2.83301 -102.5 4.5s-68.833 3.83398 -101.5 6.50098c-12 0.666992 -18 7 -18 19zM431.997 224.997
c13.333 -1.33301 27.998 -2.33203 43.998 -2.99902s32.167 -1.16699 48.5 -1.5l48 -1c15.667 -0.333008 29.834 -0.5 42.501 -0.5c68 0 125.5 2 172.5 6s85.167 13 114.5 27s50.5 34.333 63.5 61s19.5 63 19.5 109v32c0 38.667 -5.16699 70.667 -15.5 96
s-25 45.166 -44 59.499s-42.167 24.333 -69.5 30s-57.666 8.5 -90.999 8.5h-333v-423zM431.995 880.998l286.001 0.000976562c61.333 0 109.166 14 143.499 42s51.5 74.333 51.5 139v14c0 40 -6.33301 71.833 -19 95.5s-31.334 41.5 -56.001 53.5s-55.167 19.833 -91.5 23.5
s-78.166 5.5 -125.499 5.5c-35.333 0 -67.833 -0.333008 -97.5 -1s-60.167 -2.33398 -91.5 -5.00098v-367z" />
    <glyph glyph-name="C" unicode="C" horiz-adv-x="1197" 
d="M110 665v146.997c0 130.667 14.333 240.167 43 328.5s70.167 159.333 124.5 213s121 91.834 200 114.501s168.5 34 268.5 34c34 0 67.833 -1 101.5 -3s65.834 -5 96.501 -9s59.667 -8.83301 87 -14.5s51.666 -11.834 72.999 -18.501c11.333 -3.33301 16 -11 14 -23
l-33 -201c-2 -12 -9 -16.667 -21 -14c-50 10 -101.167 17 -153.5 21s-103.833 6 -154.5 6c-61.333 0 -115.5 -6.83301 -162.5 -20.5s-86.5 -37 -118.5 -70s-56.333 -76.667 -73 -131s-25 -121.833 -25 -202.5v-167c0 -81.333 8.16699 -149.333 24.5 -204
s40.5 -98.5 72.5 -131.5s71.667 -56.333 119 -70s101.666 -20.5 162.999 -20.5c58 0 113.5 1.83301 166.5 5.5s104.167 8.83398 153.5 15.501c12 2 19 -3 21 -15l29 -205c0.666992 -2.66699 1 -5.33398 1 -8.00098c0 -4 -0.666992 -6.66699 -2 -8
c-2 -2.66699 -6.33301 -5 -13 -7c-22 -5.33301 -47 -10.166 -75 -14.499s-57.667 -8 -89 -11s-64.166 -5.33301 -98.499 -7s-68.833 -2.5 -103.5 -2.5c-100 0 -189.5 11.333 -268.5 34s-145.667 60.834 -200 114.501s-95.833 124.834 -124.5 213.501s-43 199 -43 331z" />
    <glyph glyph-name="D" unicode="D" horiz-adv-x="1416" 
d="M167 18l0.00195312 1439c0 12 6 18.333 18 19c26.667 2 56.167 3.83301 88.5 5.5s64.333 3 96 4s62 1.83301 91 2.5s53.5 1 73.5 1c77.333 0 150.166 -3.16699 218.499 -9.5s131.333 -18.5 189 -36.5s109.334 -43 155.001 -75s84.334 -73.833 116.001 -125.5
s56 -114.167 73 -187.5s25.5 -160 25.5 -260v-113c0 -100 -8.5 -186.833 -25.5 -260.5s-41.333 -136.334 -73 -188.001s-70.334 -93.667 -116.001 -126s-97.334 -57.666 -155.001 -75.999s-120.667 -30.833 -189 -37.5s-141.166 -10 -218.499 -10
c-22.667 0 -48.167 0.333008 -76.5 1s-57.833 1.5 -88.5 2.5s-61.834 2.33301 -93.501 4s-61.834 3.83398 -90.501 6.50098c-12 0.666992 -18 7.33398 -18 20.001zM432.002 228.998c10.667 -1.33301 23.8369 -2.49805 39.5039 -3.49805s31.5 -1.83301 47.5 -2.5
s31.5 -1.16699 46.5 -1.5s27.833 -0.5 38.5 -0.5c74 0 138.667 6 194 18s101.166 34.667 137.499 68s63.666 79.666 81.999 138.999s27.5 136.666 27.5 231.999v119c0 94.667 -9.5 171.5 -28.5 230.5s-47.5 105.167 -85.5 138.5s-85.5 56 -142.5 68s-123.5 18 -199.5 18
c-10.667 0 -22.834 -0.166992 -36.501 -0.5l-42 -1c-14.333 -0.333008 -28.333 -1 -42 -2s-25.834 -2.16699 -36.501 -3.5v-1016z" />
    <glyph glyph-name="E" unicode="E" horiz-adv-x="1202" 
d="M168 18v1439c0 12 6 18 18 18h894c12 0 18 -6 18 -18v-216c0 -12 -6 -18 -18 -18h-646v-334h519c12 0 18 -6 18 -18v-215c0 -12 -6 -18 -18 -18h-519v-386h646c12 0 18 -6 18 -18v-216c0 -12 -6 -18 -18 -18h-894c-12 0 -18 6 -18 18z" />
    <glyph glyph-name="F" unicode="F" horiz-adv-x="1141" 
d="M168 18v1439c0 12 6 18 18 18h897c12 0 18 -6 18 -18v-216c0 -12 -6 -18 -18 -18h-649v-339h507c12 0 18 -6 18 -18v-216c0 -12 -6 -18 -18 -18h-507v-614c0 -12 -6 -18 -18 -18h-230c-12 0 -18 6 -18 18z" />
    <glyph glyph-name="G" unicode="G" horiz-adv-x="1308" 
d="M110 665l0.00195312 146.996c0 130.667 14 240.167 42 328.5s69.333 159.333 124 213s122.167 91.834 202.5 114.501s172.833 34 277.5 34c31.333 0 63.666 -1 96.999 -3s66 -5 98 -9s62.333 -8.83301 91 -14.5s54 -12.167 76 -19.5c11.333 -3.33301 16 -11 14 -23
l-34 -200c-2 -12 -9 -17 -21 -15c-50.667 8.66699 -102.167 15 -154.5 19s-104.5 6 -156.5 6c-66 0 -123.333 -6.66699 -172 -20s-89 -36.333 -121 -69s-55.833 -76 -71.5 -130s-23.5 -121.333 -23.5 -202v-167c0 -81.333 7.33301 -149.166 22 -203.499
s37 -97.666 67 -129.999s68.167 -55.166 114.5 -68.499s101.166 -20 164.499 -20c34 0 65.667 0.666992 95 2s57.666 3.66602 84.999 6.99902v332l-223 9c-12 0.666992 -18 7 -18 19v186c0 12 6 18 18 18h468c12 0 18 -6 18 -18l1 -43v-687
c0 -12.667 -5.66699 -20.667 -17 -24c-35.333 -12.667 -71.166 -23 -107.499 -31s-72.5 -14.333 -108.5 -19s-71.5 -7.83398 -106.5 -9.50098s-68.5 -2.5 -100.5 -2.5c-104 0 -195.833 11.333 -275.5 34s-146.5 60.834 -200.5 114.501s-94.833 124.834 -122.5 213.501
s-41.5 199 -41.5 331z" />
    <glyph glyph-name="H" unicode="H" horiz-adv-x="1482" 
d="M168 18v1439c0 12 6 18 18 18h230c12 0 18 -6 18 -18v-568h616v568c0 12 6 18 18 18h228c12 0 18 -6 18 -18v-1439c0 -12 -6 -18 -18 -18h-228c-12 0 -18 6 -18 18v619h-616v-619c0 -12 -6 -18 -18 -18h-230c-12 0 -18 6 -18 18z" />
    <glyph glyph-name="I" unicode="I" horiz-adv-x="602" 
d="M168 18v1439c0 12 6 18 18 18h230c12 0 18 -6 18 -18v-1439c0 -12 -6 -18 -18 -18h-230c-12 0 -18 6 -18 18z" />
    <glyph glyph-name="J" unicode="J" horiz-adv-x="601" 
d="M-94 -322l29.998 202.001c2 12 9 17 21 15c15.333 -2 29.666 -3.16699 42.999 -3.5s26.333 -0.5 39 -0.5c20.667 0 39 1.66699 55 5s29.333 9.83301 40 19.5s18.834 23.167 24.501 40.5s8.5 39.666 8.5 66.999v1434c0 12 6 18 18 18h230c12 0 18 -6 18 -18v-1457
c0 -54 -5.66699 -103 -17 -147s-30.666 -81.833 -57.999 -113.5s-63.833 -56 -109.5 -73s-102.5 -25.5 -170.5 -25.5c-25.333 0 -52.166 1.5 -80.499 4.5s-53.833 6.83301 -76.5 11.5c-12 2.66699 -17 9.66699 -15 21z" />
    <glyph glyph-name="K" unicode="K" horiz-adv-x="1300" 
d="M168 18v1439c0 12 6 18 18 18h230c12 0 18 -6 18 -18v-560l484 564c4.66699 5.33301 9 9 13 11s9.66699 3 17 3h320c11.333 0 13.333 -4.33301 6 -13l-559 -626l588 -821c2 -3.33301 3 -6.33301 3 -9c0 -4 -3.66699 -6 -11 -6h-316c-7.33301 0 -12.833 1.16699 -16.5 3.5
s-7.5 6.16602 -11.5 11.499l-429 615l-88 -88v-524c0 -12 -6 -18 -18 -18h-230c-12 0 -18 6 -18 18z" />
    <glyph glyph-name="L" unicode="L" horiz-adv-x="1054" 
d="M168 18v1439c0 12 6 18 18 18h230c12 0 18 -6 18 -18v-1205h569c12 0 18 -6 18 -18v-216c0 -12 -6 -18 -18 -18h-817c-12 0 -18 6 -18 18z" />
    <glyph glyph-name="M" unicode="M" horiz-adv-x="1696" 
d="M168 18v1439c0 12 6 18 18 18h276c7.33301 0 12.833 -1.16699 16.5 -3.5s7.16699 -6.5 10.5 -12.5l314 -557c6 -10 11.667 -20.5 17 -31.5l14 -30l10 -23c2.66699 -6.33301 4.33398 -10.166 5.00098 -11.499c0 0.666992 1.33301 4 4 10l10 22.5l14 30.5
c5.33301 11.333 11 22.666 17 33.999l313 556c3.33301 6 6.83301 10.167 10.5 12.5s9.16699 3.5 16.5 3.5h277c12 0 18 -6 18 -18v-1439c0 -12 -6 -18 -18 -18h-230c-12 0 -18 6 -18 18l-2 1067c-0.666992 0 -1.83398 -2.33301 -3.50098 -7s-4 -10.5 -7 -17.5l-10.5 -24
c-4 -9 -8.33301 -17.833 -13 -26.5l-273 -510c-3.33301 -6 -6.83301 -10.167 -10.5 -12.5s-9.16699 -3.5 -16.5 -3.5h-157c-7.33301 0 -12.833 1.16699 -16.5 3.5s-7.16699 6.5 -10.5 12.5l-270 501c-5.33301 10.667 -10.166 21 -14.499 31l-11.5 27
c-3.33301 8 -5.83301 14.333 -7.5 19s-2.83398 7 -3.50098 7l-2 -1067c0 -12 -6 -18 -18 -18h-230c-12 0 -18 6 -18 18z" />
    <glyph glyph-name="N" unicode="N" horiz-adv-x="1484" 
d="M168 18l0.000976562 1439c0 12 6 18 18 18h257c7.33301 0 12.833 -1.16699 16.5 -3.5s7.16699 -6.5 10.5 -12.5l526 -895c17.333 -29.333 30.5 -53.833 39.5 -73.5s14.167 -29.5 15.5 -29.5l1 996c0 12 6 18 18 18h229c12 0 18 -6 18 -18v-1439c0 -12 -6 -18 -18 -18
h-257c-7.33301 0 -12.833 1.16699 -16.5 3.5s-7.16699 6.5 -10.5 12.5l-523 890c-19.333 32 -33.333 58.167 -42 78.5s-13.334 30.5 -14.001 30.5l-2 -997c0 -12 -6 -18 -18 -18h-230c-12 0 -18 6 -18 18z" />
    <glyph glyph-name="O" unicode="O" horiz-adv-x="1441" 
d="M113 665v147.001c0 130.667 13.5 240.167 40.5 328.5s66.5 159.166 118.5 212.499s115.667 91.5 191 114.5s161.333 34.5 258 34.5s182.834 -11.333 258.501 -34s139.167 -60.834 190.5 -114.501s90.5 -124.834 117.5 -213.501s40.5 -198.667 40.5 -330v-147
c0 -131.333 -13.5 -241.166 -40.5 -329.499s-66.167 -159.333 -117.5 -213s-114.833 -91.834 -190.5 -114.501s-161.834 -34 -258.501 -34s-182.667 11.333 -258 34s-139 60.834 -191 114.501s-91.5 124.834 -118.5 213.501s-40.5 199 -40.5 331zM379 655.001
c0 -80 7.33301 -146.833 22 -200.5s36.5 -96.5 65.5 -128.5s64.667 -54.833 107 -68.5s91.5 -20.5 147.5 -20.5c55.333 0 104.333 6.83301 147 20.5s78.5 36.5 107.5 68.5s50.833 74.833 65.5 128.5s22 120.5 22 200.5v165c0 80 -7.33301 146.833 -22 200.5
s-36.5 96.5 -65.5 128.5s-64.833 54.833 -107.5 68.5s-91.667 20.5 -147 20.5c-56 0 -105.167 -6.66699 -147.5 -20s-78 -36 -107 -68s-50.833 -74.667 -65.5 -128s-22 -120 -22 -200v-167z" />
    <glyph glyph-name="P" unicode="P" horiz-adv-x="1332" 
d="M168 18l0.00390625 1442c0 12 6 18.333 18 19c34 2 70.167 3.66699 108.5 5s76.166 2.5 113.499 3.5s73.166 1.83301 107.499 2.5s64.166 1 89.499 1c128.667 0 235 -6.66699 319 -20s150.833 -36.5 200.5 -69.5s84.5 -77.667 104.5 -134s30 -127.5 30 -213.5v-103
c0 -86.667 -10 -158.167 -30 -214.5s-54.833 -101 -104.5 -134s-116.5 -56 -200.5 -69s-190.333 -19.5 -319 -19.5c-12.667 0 -27.334 0.166992 -44.001 0.5l-50 1c-16.667 0.333008 -32.167 0.666016 -46.5 0.999023s-24.833 0.833008 -31.5 1.5v-500c0 -12 -6 -18 -18 -18
h-229c-12 0 -18 6 -18 18zM433.004 758.001c10.667 -1.33301 23.666 -2.33301 38.999 -3l47.5 -2c16.333 -0.666992 32.333 -1.16699 48 -1.5s29.5 -0.5 41.5 -0.5c76 0 138.667 2.66699 188 8s88.5 16 117.5 32s49.167 38.5 60.5 67.5s17 66.833 17 113.5v61
c0 46.667 -5.66699 84.5 -17 113.5s-31.5 51.5 -60.5 67.5s-68.167 26.667 -117.5 32s-112 8 -188 8c-12 0 -25.833 -0.166992 -41.5 -0.5s-31.667 -0.833008 -48 -1.5s-32.166 -1.5 -47.499 -2.5l-39 -2.5v-489z" />
    <glyph glyph-name="Q" unicode="Q" horiz-adv-x="1442" 
d="M113 665l-0.00195312 147.001c0 130.667 13.5 240.167 40.5 328.5s66.5 159.166 118.5 212.499s115.667 91.5 191 114.5s161.333 34.5 258 34.5s182.834 -11.333 258.501 -34s139.167 -60.834 190.5 -114.501s90.5 -124.834 117.5 -213.501s40.5 -198.667 40.5 -330v-147
c0 -96 -7.33301 -180.333 -22 -253s-36 -135.5 -64 -188.5s-62.667 -96.667 -104 -131s-88.666 -60.833 -141.999 -79.5l240 -385c6.66699 -10 4 -15 -8 -15h-278c-7.33301 0 -12.833 1.16699 -16.5 3.5s-7.16699 6.5 -10.5 12.5l-187 346
c-2.66699 0 -5.16699 -0.166992 -7.5 -0.5s-4.83301 -0.5 -7.5 -0.5c-96.667 0 -182.667 11.333 -258 34s-139 60.834 -191 114.501s-91.5 124.834 -118.5 213.501s-40.5 199 -40.5 331zM378.998 655.001c0 -80 7.33301 -146.833 22 -200.5s36.5 -96.5 65.5 -128.5
s64.667 -54.833 107 -68.5s91.5 -20.5 147.5 -20.5c55.333 0 104.333 6.83301 147 20.5s78.5 36.5 107.5 68.5s50.833 74.833 65.5 128.5s22 120.5 22 200.5v165c0 80 -7.33301 146.833 -22 200.5s-36.5 96.5 -65.5 128.5s-64.833 54.833 -107.5 68.5
s-91.667 20.5 -147 20.5c-56 0 -105.167 -6.66699 -147.5 -20s-78 -36 -107 -68s-50.833 -74.667 -65.5 -128s-22 -120 -22 -200v-167z" />
    <glyph glyph-name="R" unicode="R" horiz-adv-x="1376" 
d="M167 18l-0.00195312 1439c0 12 6 18.333 18 19c75.333 5.33301 148 8.83301 218 10.5s139.333 2.5 208 2.5c128.667 0 235.334 -5.83301 320.001 -17.5s152.167 -33 202.5 -64s85.666 -74 105.999 -129s30.5 -125.5 30.5 -211.5v-118c0 -76.667 -8 -141 -24 -193
s-44.333 -94 -85 -126c-43.333 -34 -105 -59 -185 -75l28.5 -44.5l31.5 -52.5l253 -442c2 -3.33301 3 -6.33301 3 -9c0 -4.66699 -4 -7 -12 -7h-273c-7.33301 0 -12.666 1.16699 -15.999 3.5s-6.66602 6.5 -9.99902 12.5l-267 515c-12.667 -0.666992 -25.5 -1 -38.5 -1
h-39.5c-32.667 0 -64.667 0.5 -96 1.5s-67 2.83301 -107 5.5v-519c0 -12 -6 -18 -18 -18h-230c-12 0 -18 6 -18 18zM432.998 774c30 -2.66699 62.832 -4.5 98.499 -5.5s69.167 -1.5 100.5 -1.5c72 0 132 2.16699 180 6.5s86.167 13.833 114.5 28.5s48.333 36 60 64
s17.5 65.667 17.5 113v64c0 48 -6 86 -18 114s-32.5 49 -61.5 63s-67.667 22.833 -116 26.5s-109.166 5.5 -182.499 5.5c-15.333 0 -32 -0.166992 -50 -0.5l-53 -1c-17.333 -0.333008 -33.833 -1 -49.5 -2s-29.167 -2.16699 -40.5 -3.5v-471z" />
    <glyph glyph-name="S" unicode="S" horiz-adv-x="1206" 
d="M88 1107c0 72.667 11.3369 134.165 34.0039 184.498s58 91.166 106 122.499s109.333 53.833 184 67.5s164 20.5 268 20.5c66 0 129.833 -3.16699 191.5 -9.5s117.5 -16.166 167.5 -29.499c11.333 -3.33301 16 -10.666 14 -21.999l-37 -192c-2 -12 -9 -17 -21 -15
c-24 3.33301 -49.167 6.33301 -75.5 9s-52.166 4.83398 -77.499 6.50098s-49.5 2.83398 -72.5 3.50098s-43.5 1 -61.5 1c-62 0 -115 -2 -159 -6s-79.833 -11.333 -107.5 -22s-47.834 -25.167 -60.501 -43.5s-19 -41.833 -19 -70.5c0 -26.667 4.16699 -49.167 12.5 -67.5
s22.666 -35.5 42.999 -51.5s47.166 -31.667 80.499 -47s75 -33.333 125 -54l182 -77c64 -26.667 116.833 -53.667 158.5 -81s74.667 -57.166 99 -89.499s41.333 -68 51 -107s14.5 -83.833 14.5 -134.5c0 -69.333 -8.33301 -130.833 -25 -184.5s-47.167 -98.667 -91.5 -135
s-105.166 -64 -182.499 -83s-176.666 -28.5 -297.999 -28.5c-76.667 0 -149.834 3.83301 -219.501 11.5s-130.5 18.167 -182.5 31.5c-11.333 3.33301 -16 10.666 -14 21.999l38 199c2 12 9 17 21 15c34.667 -5.33301 66.667 -9.83301 96 -13.5s57.5 -6.66699 84.5 -9
s53.667 -4 80 -5s54.166 -1.5 83.499 -1.5c74.667 0 134 3.5 178 10.5s77.667 17.667 101 32s38.5 32.666 45.5 54.999s10.5 48.5 10.5 78.5c0 24 -3.33301 44.667 -10 62s-19.834 34 -39.501 50s-47.334 33 -83.001 51s-82.5 39.667 -140.5 65l-158 72
c-66 30 -120.5 60 -163.5 90s-77.167 61.5 -102.5 94.5s-43 68 -53 105s-15 76.833 -15 119.5z" />
    <glyph glyph-name="T" unicode="T" horiz-adv-x="1207" 
d="M32 1241v216c0 12 6 18 18 18h1107c12 0 18 -6 18 -18v-216c0 -12 -6 -18 -18 -18h-421v-1205c0 -12 -6 -18 -18 -18h-229c-12 0 -18 6 -18 18v1205h-421c-12 0 -18 6 -18 18z" />
    <glyph glyph-name="U" unicode="U" horiz-adv-x="1474" 
d="M155 493l-0.00195312 964.002c0 12 6 18 18 18h228c12 0 18 -6 18 -18v-903c0 -57.333 5.33301 -106.333 16 -147s28.334 -74.334 53.001 -101.001s57.334 -46.167 98.001 -58.5s90.667 -18.5 150 -18.5s109.333 6.16699 150 18.5s73.667 31.666 99 57.999
s43.666 60 54.999 101s17 90.167 17 147.5v903c0 12 6 18 18 18h227c12 0 18 -6 18 -18v-964c0 -94.667 -13.167 -175 -39.5 -241s-64.5 -119.833 -114.5 -161.5s-111.167 -71.834 -183.5 -90.501s-154.5 -28 -246.5 -28s-174.167 9.33301 -246.5 28
s-133.166 48.834 -182.499 90.501s-87 95.5 -113 161.5s-39 146.333 -39 241z" />
    <glyph glyph-name="V" unicode="V" horiz-adv-x="1328" 
d="M14 1458c-0.666992 2 -1 4 -1 6c0 7.33301 4.66699 11 14 11h249c7.33301 0 12.5 -1.16699 15.5 -3.5s5.5 -6.83301 7.5 -13.5l364 -1215h2l363 1215c2 6.66699 4.5 11.167 7.5 13.5s8.16699 3.5 15.5 3.5h252c8.66699 0 13 -3.33301 13 -10
c0 -2 -0.333008 -4.33301 -1 -7l-463 -1441c-2.66699 -6.66699 -5.5 -11.167 -8.5 -13.5s-8.16699 -3.5 -15.5 -3.5h-329c-7.33301 0 -12.5 1.16699 -15.5 3.5s-5.5 6.83301 -7.5 13.5z" />
    <glyph glyph-name="W" unicode="W" horiz-adv-x="1912" 
d="M65 1457c-2 12 2.99707 18.001 14.9971 18.001h261c12.667 0 19.334 -6 20.001 -18l138 -1004l31 -225l4 21l10.5 53l15 71.5l17.5 77.5l242 1006c1.33301 7.33301 3.5 12.166 6.5 14.499s8.16699 3.5 15.5 3.5h227c7.33301 0 12.5 -1.16699 15.5 -3.5
s5.16699 -6.83301 6.5 -13.5l245 -1001c6 -24 11.667 -49.5 17 -76.5l15 -74.5c4.66699 -22.667 8.33398 -41.334 11.001 -56.001l5 -22l31 232l136 997c0.666992 12 7.33398 18 20.001 18h262c12 0 17 -6 15 -18l-271 -1439c-1.33301 -7.33301 -3.33301 -12.166 -6 -14.499
s-7.66699 -3.5 -15 -3.5h-315c-7.33301 0 -12.5 1.16699 -15.5 3.5s-5.5 6.83301 -7.5 13.5l-236 904c-3.33301 12 -6.5 24.833 -9.5 38.5s-5.66699 26.667 -8 39l-6 32c-1.66699 9 -2.5 14.833 -2.5 17.5c0 -2 -0.833008 -7.33301 -2.5 -16s-3.5 -19.167 -5.5 -31.5
s-4.5 -25.666 -7.5 -39.999s-6.16699 -27.5 -9.5 -39.5l-236 -904c-2 -6.66699 -4.5 -11.167 -7.5 -13.5s-8.16699 -3.5 -15.5 -3.5h-313c-7.33301 0 -12.333 1.16699 -15 3.5s-4.66699 7.16602 -6 14.499z" />
    <glyph glyph-name="X" unicode="X" horiz-adv-x="1322" 
d="M25 15l465 724l-465 721c-2.66699 4 -4 7 -4 9c0 4 4 6 12 6h282c7.33301 0 12.833 -1.16699 16.5 -3.5s7.16699 -6.16602 10.5 -11.499l319 -523l320 523c3.33301 5.33301 6.83301 9.16602 10.5 11.499s9.16699 3.5 16.5 3.5h282c8 0 12 -2 12 -6
c0 -2 -1.33301 -5 -4 -9l-466 -721l466 -724c2.66699 -3.33301 4 -6.33301 4 -9c0 -4 -4 -6 -12 -6h-282c-7.33301 0 -12.833 1.16699 -16.5 3.5s-7.16699 6.16602 -10.5 11.499l-319 533l-320 -533c-3.33301 -5.33301 -6.83301 -9.16602 -10.5 -11.499
s-9.16699 -3.5 -16.5 -3.5h-282c-8 0 -12 2 -12 6c0 2 1.33301 5 4 9z" />
    <glyph glyph-name="Y" unicode="Y" horiz-adv-x="1227" 
d="M3 1459c-1.33301 3.33301 -1.99609 6 -1.99609 8c0 5.33301 4 8 12 8h262c7.33301 0 12.666 -1.16699 15.999 -3.5s6.66602 -6.5 9.99902 -12.5l314 -669l313 669c3.33301 6 6.66602 10.167 9.99902 12.5s8.66602 3.5 15.999 3.5h260c8 0 12 -2.66699 12 -8
c0 -2 -0.666992 -4.66699 -2 -8l-477 -964v-477c0 -12 -6 -18 -18 -18h-229c-12 0 -18 6 -18 18v477z" />
    <glyph glyph-name="Z" unicode="Z" horiz-adv-x="1230" 
d="M84 18v199c0 12 3.66699 23 11 33l723 989h-690c-12 0 -18 6 -18 18v200c0 12 6 18 18 18h984c12 0 18 -6 18 -18v-198c0 -12 -3.66699 -23 -11 -33l-721 -989h722c12 0 18 -6 18 -18v-201c0 -12 -6 -18 -18 -18h-1018c-12 0 -18 6 -18 18z" />
    <glyph glyph-name="bracketleft" unicode="[" horiz-adv-x="696" 
d="M151 -371v1909c0 12 6 18 18 18h483c12 0 18 -6 18 -18v-212c0 -12 -6 -18 -18 -18h-236v-1448h236c12 0 18 -6 18 -18v-213c0 -12 -6 -18 -18 -18h-483c-12 0 -18 6 -18 18z" />
    <glyph glyph-name="backslash" unicode="\" horiz-adv-x="837" 
d="M58 1539c-4 11.333 0.333008 17 13 17h242c7.33301 0 12.5 -1.16699 15.5 -3.5s5.5 -6.83301 7.5 -13.5l433 -1522c4 -11.333 -0.333008 -17 -13 -17h-241c-7.33301 0 -12.5 1.16699 -15.5 3.5s-5.5 6.83301 -7.5 13.5z" />
    <glyph glyph-name="bracketright" unicode="]" horiz-adv-x="696" 
d="M26 -158c0 12 6 18 18 18h236v1448h-236c-12 0 -18 6 -18 18v212c0 12 6 18 18 18h483c12 0 18 -6 18 -18v-1909c0 -12 -6 -18 -18 -18h-483c-12 0 -18 6 -18 18v213z" />
    <glyph glyph-name="asciicircum" unicode="^" horiz-adv-x="1282" 
d="M262 1148l257 311c4 5.33301 8 9 12 11s9.66699 3 17 3h187c7.33301 0 13 -1 17 -3s8 -5.66699 12 -11l258 -311c7.33301 -9.33301 5 -14 -7 -14h-192c-7.33301 0 -13 1 -17 3s-8 5.66699 -12 11l-152 187l-152 -187c-4 -5.33301 -8 -9 -12 -11s-9.66699 -3 -17 -3h-192
c-12 0 -14.333 4.66699 -7 14z" />
    <glyph glyph-name="underscore" unicode="_" horiz-adv-x="978" 
d="M31 -104c0 12 6 18 18 18h880c12 0 18 -6 18 -18v-207c0 -12 -6 -18 -18 -18h-880c-12 0 -18 6 -18 18v207z" />
    <glyph glyph-name="grave" unicode="`" 
d="M161 1524c-7.33301 8.66699 -5.33301 12.999 6 12.999h258c7.33301 0 12.833 -1.16699 16.5 -3.5s7.5 -6.16602 11.5 -11.499l162 -240c6 -10 3.33301 -15 -8 -15h-200c-7.33301 0 -13 0.833008 -17 2.5s-8.33301 5.16699 -13 10.5z" />
    <glyph glyph-name="a" unicode="a" horiz-adv-x="1125" 
d="M73 307c0 45.333 3.16895 85.1748 9.50195 119.508s17.666 64.166 33.999 89.499s38.333 46.666 66 63.999s62.667 31.166 105 41.499s92.666 17.666 150.999 21.999s126.5 6.5 204.5 6.5h103v52c0 34 -3.16699 62.5 -9.5 85.5s-18.333 41.5 -36 55.5
s-42.167 24 -73.5 30s-72.333 9 -123 9c-48 0 -99.167 -1.5 -153.5 -4.5s-106.5 -7.16699 -156.5 -12.5c-12 -0.666992 -18 4.66602 -18 15.999v171c0 7.33301 1.16699 12.333 3.5 15s7.16602 4.66699 14.499 6c26.667 4 55.167 7.66699 85.5 11s60.5 6.16602 90.5 8.49902
s59 4.16602 87 5.49902s53 2 75 2c68.667 0 127.834 -3.5 177.501 -10.5s91.5 -17.667 125.5 -32s61.333 -32.833 82 -55.5s36.667 -49.5 48 -80.5s18.833 -66.5 22.5 -106.5s5.5 -85 5.5 -135v-657c0 -7.33301 -1.16699 -12.333 -3.5 -15
s-7.16602 -4.33398 -14.499 -5.00098c-34.667 -4.66699 -71 -9 -109 -13s-75.5 -7.33301 -112.5 -10s-72 -4.66699 -105 -6s-61.5 -2 -85.5 -2c-84.667 0 -157.834 5.33301 -219.501 16s-112.5 28.667 -152.5 54s-69.667 59.5 -89 102.5s-29 97.167 -29 162.5z
M303.002 316.009c0 -32 6.5 -57.333 19.5 -76s30.833 -33 53.5 -43s49.5 -16.333 80.5 -19s64.833 -4 101.5 -4c32.667 0 65.834 0.833008 99.501 2.5s63.167 4.5 88.5 8.5v273h-110c-69.333 0 -125.5 -1.83301 -168.5 -5.5s-76.833 -10.834 -101.5 -21.501
s-41.334 -25.167 -50.001 -43.5s-13 -42.166 -13 -71.499z" />
    <glyph glyph-name="b" unicode="b" horiz-adv-x="1205" 
d="M139 23l-0.00195312 1561c0 12.667 6 19.334 18 20.001l216 30h2c10.667 0 16 -5.33301 16 -16v-541c34.667 5.33301 71.334 10 110.001 14s82 6 130 6c87.333 0 160.833 -8.5 220.5 -25.5s108 -44.833 145 -83.5s63.667 -89.167 80 -151.5s24.5 -138.833 24.5 -229.5
v-144c0 -91.333 -8.33301 -168.333 -25 -231s-44.834 -113.334 -84.501 -152.001s-92.167 -66.334 -157.5 -83.001s-147 -25 -245 -25c-69.333 0 -140.166 2.5 -212.499 7.5s-145.5 12.5 -219.5 22.5c-7.33301 1.33301 -12.166 3.33301 -14.499 6s-3.5 7.66699 -3.5 15z
M390.998 201.001c28.667 -3.33301 61.001 -5.83301 97.001 -7.5s71 -2.5 105 -2.5c54.667 0 99.167 5.16699 133.5 15.5s61.166 27.5 80.499 51.5s32.5 55.833 39.5 95.5s10.5 88.834 10.5 147.501v79c0 57.333 -3.33301 105 -10 143s-19.667 68.5 -39 91.5
s-46.166 39.333 -80.499 49s-78.833 14.5 -133.5 14.5c-16 0 -33.333 -0.333008 -52 -1s-37 -1.5 -55 -2.5s-35.333 -2.33301 -52 -4s-31.334 -3.83398 -44.001 -6.50098v-663z" />
    <glyph glyph-name="c" unicode="c" horiz-adv-x="963" 
d="M102 479l0.000976562 112.999c0 88.667 8.16699 164.834 24.5 228.501s44.333 116 84 157s92.5 71.167 158.5 90.5s149 29 249 29c48 0 93.167 -2.16699 135.5 -6.5s80.833 -9.83301 115.5 -16.5c6.66699 -1.33301 11.334 -3.33301 14.001 -6s3.66699 -7.66699 3 -15
l-15 -176c-0.666992 -11.333 -7 -16.666 -19 -15.999c-36 4.66699 -72.667 7.83398 -110 9.50098s-76 2.5 -116 2.5c-57.333 0 -103.5 -5 -138.5 -15s-62.333 -26.833 -82 -50.5s-32.834 -54.834 -39.501 -93.501s-10 -86.667 -10 -144v-71c0 -58 3.33301 -106.333 10 -145
s19.667 -69.667 39 -93s46.666 -39.833 81.999 -49.5s81.666 -14.5 138.999 -14.5c41.333 0 80.666 1.16699 117.999 3.5s73.666 5.5 108.999 9.5c12 0.666992 18.333 -4.66602 19 -15.999l14 -176c0.666992 -7.33301 -0.166016 -12.5 -2.49902 -15.5
s-7.16602 -5.16699 -14.499 -6.5c-16.667 -3.33301 -35.167 -6.5 -55.5 -9.5s-41.5 -5.5 -63.5 -7.5s-44.167 -3.66699 -66.5 -5s-44.166 -2 -65.499 -2c-98.667 0 -181 9.16699 -247 27.5s-119 47.666 -159 87.999s-68.333 92.666 -85 156.999s-25 142.5 -25 234.5z" />
    <glyph glyph-name="d" unicode="d" horiz-adv-x="1204" 
d="M104 467l0.000976562 140c0 91.333 8 168.166 24 230.499s43.333 112.833 82 151.5s89.834 66.334 153.501 83.001s143.5 25 239.5 25c36 0 72.667 -2 110 -6s71 -9 101 -15v508c0 12.667 6 19.334 18 20.001l216 30h2c10.667 0 16 -5.33301 16 -16v-1595
c0 -12.667 -6 -19.334 -18 -20.001c-73.333 -10 -146.166 -17.667 -218.499 -23s-142.833 -8 -211.5 -8c-98.667 0 -180.834 8.5 -246.501 25.5s-118.334 44.833 -158.001 83.5s-67.834 89.5 -84.501 152.5s-25 140.833 -25 233.5zM347.001 505
c0 -60 3.5 -110.17 10.5 -150.503s20.167 -72.666 39.5 -96.999s46.5 -41.5 81.5 -51.5s80.167 -15 135.5 -15c33.333 0 68 0.833008 104 2.5s68 4.16699 96 7.5v662c-12.667 2.66699 -27.667 5 -45 7s-35.333 3.5 -54 4.5s-37.167 1.83301 -55.5 2.5s-34.833 1 -49.5 1
c-54.667 0 -99 -4.83301 -133 -14.5s-60.667 -26.167 -80 -49.5s-32.5 -54.166 -39.5 -92.499s-10.5 -86.166 -10.5 -143.499v-73z" />
    <glyph glyph-name="e" unicode="e" horiz-adv-x="1165" 
d="M101 486l-0.000976562 100.997c0 88 8.83301 164 26.5 228s46 116.833 85 158.5s89.5 72.667 151.5 93s137.667 30.5 227 30.5c88.667 0 164.334 -10 227.001 -30s113.5 -50.5 152.5 -91.5s67.5 -92.833 85.5 -155.5s27 -137 27 -223
c0 -36.667 -2.16699 -69.667 -6.5 -99s-8.16602 -50.666 -11.499 -63.999c-1.33301 -5.33301 -3.33301 -9.16602 -6 -11.499s-7 -3.5 -13 -3.5l-695 -2c3.33301 -46 10.5 -83.667 21.5 -113s27 -52.5 48 -69.5s47.5 -28.667 79.5 -35s70.667 -9.5 116 -9.5
c60 0 118.833 1 176.5 3s119.5 6.33301 185.5 13c12 0.666992 18.333 -4.66602 19 -15.999l14 -168c0.666992 -12 -5 -19 -17 -21c-63.333 -9.33301 -126.833 -16.5 -190.5 -21.5s-131.834 -7.5 -204.501 -7.5c-90 0 -166.667 9.5 -230 28.5s-114.833 49.167 -154.5 90.5
s-68.5 94.5 -86.5 159.5s-27 143.5 -27 235.5zM348.999 604.997l506.002 15.001c-4.66699 48 -12.334 88.667 -23.001 122s-26 60.166 -46 80.499s-45.833 35 -77.5 44s-70.834 13.5 -117.501 13.5c-46 0 -84.5 -5 -115.5 -15s-55.667 -25.833 -74 -47.5
s-31.5 -50 -39.5 -85s-12.333 -77.5 -13 -127.5z" />
    <glyph glyph-name="f" unicode="f" horiz-adv-x="766" 
d="M47 884v168.998c0 12 6 18 18 18h163v183c0 68.667 6 127.334 18 176.001s33.167 88.167 63.5 118.5s71.5 52.5 123.5 66.5s117.667 21 197 21c36 0 71.5 -1.83301 106.5 -5.5s64.167 -7.83398 87.5 -12.501c7.33301 -1.33301 12.166 -3.5 14.499 -6.5
s3.16602 -8.16699 2.49902 -15.5l-15 -176c-2 -11.333 -8.66699 -16.666 -20 -15.999c-20 1.33301 -43 2.33301 -69 3s-49.667 1 -71 1c-41.333 0 -74.166 -2.83301 -98.499 -8.5s-43 -14.667 -56 -27s-21.5 -28.666 -25.5 -48.999s-6 -44.833 -6 -73.5v-179h237
c12 0 17.667 -6 17 -18l-16 -195c-0.666992 -12 -7 -18 -19 -18h-219v-822c0 -12 -6 -18 -18 -18h-216c-12 0 -18 6 -18 18v822l-163 23c-7.33301 1.33301 -12.166 3.5 -14.499 6.5s-3.5 7.83301 -3.5 14.5z" />
    <glyph glyph-name="g" unicode="g" horiz-adv-x="1204" 
d="M104 471l0.00488281 137.998c0 90.667 8.16699 167.167 24.5 229.5s44.166 112.666 83.499 150.999s91.833 65.833 157.5 82.5s147.834 25 246.501 25c34 0 69.5 -0.666992 106.5 -2s74.167 -3.33301 111.5 -6s74 -5.66699 110 -9s70.667 -7.33301 104 -12
c7.33301 -0.666992 12.166 -2.33398 14.499 -5.00098s3.5 -7.66699 3.5 -15v-1038c0 -99.333 -12.167 -180.5 -36.5 -243.5s-60.333 -112.667 -108 -149s-106.834 -61.333 -177.501 -75s-152.667 -20.5 -246 -20.5c-22.667 0 -46.167 0.5 -70.5 1.5s-48.833 2.5 -73.5 4.5
s-48.834 4.66699 -72.501 8s-45.834 7 -66.501 11c-7.33301 1.33301 -12.166 3.5 -14.499 6.5s-3.16602 8.16699 -2.49902 15.5l14 168c0.666992 12 7 17 19 15c18 -3.33301 37.5 -6.16602 58.5 -8.49902s42 -4.16602 63 -5.49902s41.5 -2.33301 61.5 -3s38 -1 54 -1
c69.333 0 126.333 3.83301 171 11.5s80 21.5 106 41.5s44 47.333 54 82s15 79 15 133c-27.333 -6.66699 -58.333 -12 -93 -16s-74 -6 -118 -6c-94.667 0 -173.834 8.5 -237.501 25.5s-114.834 44.833 -153.501 83.5s-66.334 89.334 -83.001 152.001s-25 139.334 -25 230.001
zM347.005 500.998c0 -56 3.33398 -103.167 10.001 -141.5s19.667 -69 39 -92s46.5 -39.5 81.5 -49.5s80.833 -15 137.5 -15c14.667 0 31 0.333008 49 1s36 1.66699 54 3s35.333 3 52 5s31.334 4.66699 44.001 8v653c-28.667 2.66699 -60.834 4.66699 -96.501 6
s-70.834 2 -105.501 2c-55.333 0 -100.333 -5.16699 -135 -15.5s-61.667 -27.5 -81 -51.5s-32.333 -55.5 -39 -94.5s-10 -87.5 -10 -145.5v-73z" />
    <glyph glyph-name="h" unicode="h" horiz-adv-x="1231" 
d="M139 18l0.00195312 1566c0 12.667 6 19.334 18 20.001l216 30h2c10.667 0 16 -5.33301 16 -16v-606c43.333 26 93.166 46.667 149.499 62s115.166 23 176.499 23c66.667 0 124 -8 172 -24s87.5 -42.333 118.5 -79s53.833 -84.834 68.5 -144.501s22 -133.5 22 -221.5v-610
c0 -12 -6 -18 -18 -18h-216c-12 0 -18 6 -18 18v568c0 48.667 -2.66699 90.167 -8 124.5s-16 62 -32 83s-38.333 36.333 -67 46s-66.334 14.5 -113.001 14.5c-39.333 0 -80.166 -4.16699 -122.499 -12.5s-79.833 -20.5 -112.5 -36.5v-787c0 -12 -6 -18 -18 -18h-216
c-12 0 -18 6 -18 18z" />
    <glyph glyph-name="i" unicode="i" horiz-adv-x="543" 
d="M144 1249v275.999c0 12.667 6 19.334 18 20.001l219 31h2c10.667 0 16 -5.33301 16 -16v-311c0 -12 -6 -18 -18 -18h-219c-12 0 -18 6 -18 18zM146 17.999v1035c0 12 6 18 18 18h216c12 0 18 -6 18 -18v-1035c0 -12 -6 -18 -18 -18h-216c-12 0 -18 6 -18 18z" />
    <glyph glyph-name="j" unicode="j" horiz-adv-x="543" 
d="M-165 -443l26 173.999c2 12 9 17 21 15c17.333 -2 35.833 -3.83301 55.5 -5.5s38.5 -2.5 56.5 -2.5c32 0 57.833 2.16699 77.5 6.5s35 12.333 46 24s18.5 27.334 22.5 47.001s6 44.5 6 74.5v1163c0 12 6 18 18 18h216c12 0 18 -6 18 -18v-1163
c0 -68 -6 -125.5 -18 -172.5s-32.5 -85 -61.5 -114s-67.667 -49.833 -116 -62.5s-108.5 -19 -180.5 -19c-28 0 -57.667 1.16699 -89 3.5s-59 5.83301 -83 10.5c-12 2.66699 -17 9.66699 -15 21zM144 1249v275.999c0 12.667 6 19.334 18 20.001l219 31h2
c10.667 0 16 -5.33301 16 -16v-311c0 -12 -6 -18 -18 -18h-219c-12 0 -18 6 -18 18z" />
    <glyph glyph-name="k" unicode="k" horiz-adv-x="1169" 
d="M139 18v1566c0 12.667 6 19.334 18 20.001l216 30h2c10.667 0 16 -5.33301 16 -16v-912l392 353c8 8 18.667 12 32 12h315c4.66699 0 7.66699 -1.5 9 -4.5s0 -6.16699 -4 -9.5l-423 -366l434 -671c2 -3.33301 3 -6.66602 3 -9.99902
c-0.666992 -1.33301 -1 -2.66602 -1 -3.99902c-1.33301 -4 -5 -6 -11 -6h-293c-7.33301 0 -12.833 1.16699 -16.5 3.5s-7.16699 6.16602 -10.5 11.499l-296 511l-130 -112v-396c0 -12 -6 -18 -18 -18h-216c-12 0 -18 6 -18 18z" />
    <glyph glyph-name="l" unicode="l" horiz-adv-x="558" 
d="M153 18v1566c0 12.667 6 19.334 18 20.001l216 30h2c10.667 0 16 -5.33301 16 -16v-1600c0 -12 -6 -18 -18 -18h-216c-12 0 -18 6 -18 18z" />
    <glyph glyph-name="m" unicode="m" horiz-adv-x="1773" 
d="M139 18l0.00292969 1054c0 12 6 18 18 18h168c7.33301 0 12.666 -1.16699 15.999 -3.5s6.33301 -6.83301 9 -13.5l26 -63c38 27.333 82.167 48.666 132.5 63.999s102.5 23 156.5 23c59.333 0 110.5 -7.16699 153.5 -21.5s78.833 -37.5 107.5 -69.5
c46.667 30 96.834 52.667 150.501 68s109.834 23 168.501 23c72 0 133.167 -9 183.5 -27s91.333 -46 123 -84s54.5 -86.667 68.5 -146s21 -130.333 21 -213v-609c0 -12 -6 -18 -18 -18h-213c-12 0 -18 6 -18 18v571c0 55.333 -3.16699 100.5 -9.5 135.5
s-17.5 62.333 -33.5 82s-37.333 33.167 -64 40.5s-60.334 11 -101.001 11c-28.667 0 -58.667 -3.33301 -90 -10s-61.333 -17.667 -90 -33c8 -49.333 12 -105 12 -167v-630c0 -12 -6 -18 -18 -18h-210c-12 0 -18 6 -18 18v596c0 45.333 -2.83301 83.333 -8.5 114
s-15.334 55.5 -29.001 74.5s-32.334 32.667 -56.001 41s-53.5 12.5 -89.5 12.5c-32.667 0 -66.834 -4.16699 -102.501 -12.5s-67.5 -21.833 -95.5 -40.5v-785c0 -12 -6 -18 -18 -18h-214c-12 0 -18 6 -18 18z" />
    <glyph glyph-name="n" unicode="n" horiz-adv-x="1231" 
d="M139 18v1054c0 12 6 18 18 18h168c7.33301 0 12.666 -1.16699 15.999 -3.5s6.33301 -6.83301 9 -13.5l28 -65c48 27.333 100.833 49 158.5 65s119.834 24 186.501 24c64.667 0 120.5 -8.16699 167.5 -24.5s85.833 -42.5 116.5 -78.5s53.5 -83 68.5 -141
s22.5 -128.667 22.5 -212v-623c0 -12 -6 -18 -18 -18h-216c-12 0 -18 6 -18 18v574c0 46.667 -3 86.667 -9 120s-17 60.5 -33 81.5s-38 36.333 -66 46s-64.333 14.5 -109 14.5c-38.667 0 -79.5 -4.33301 -122.5 -13s-81.5 -21 -115.5 -37v-786c0 -12 -6 -18 -18 -18h-216
c-12 0 -18 6 -18 18z" />
    <glyph glyph-name="o" unicode="o" horiz-adv-x="1184" 
d="M101 485v98c0 90 9 167.333 27 232s46.5 117.834 85.5 159.501s89.667 72.5 152 92.5s137.5 30 225.5 30c88.667 0 164.334 -10 227.001 -30s113.5 -50.833 152.5 -92.5s67.5 -94.834 85.5 -159.501s27 -142 27 -232v-98c0 -90 -9 -167.333 -27 -232
s-46.5 -117.834 -85.5 -159.501s-89.833 -72.334 -152.5 -92.001s-138.334 -29.5 -227.001 -29.5c-88 0 -163.167 9.83301 -225.5 29.5s-113 50.334 -152 92.001s-67.5 94.834 -85.5 159.501s-27 142 -27 232zM349 495c0 -56 3.66602 -103.499 10.999 -142.499
s20 -70.5 38 -94.5s42.667 -41.333 74 -52s71 -16 119 -16s87.833 5.33301 119.5 16s56.834 28.167 75.501 52.5s31.667 56 39 95s11 86.833 11 143.5v78c0 56 -3.5 103.5 -10.5 142.5s-19.667 70.5 -38 94.5s-43.333 41.333 -75 52s-72.167 16 -121.5 16
c-48.667 0 -88.667 -5.33301 -120 -16s-56 -28 -74 -52s-30.5 -55.333 -37.5 -94s-10.5 -86.334 -10.5 -143.001v-80z" />
    <glyph glyph-name="p" unicode="p" horiz-adv-x="1204" 
d="M139 -435v1483c0 12.667 6 19.334 18 20.001c74 9.33301 147.167 16.5 219.5 21.5s143.166 7.5 212.499 7.5c98 0 179.667 -8.16699 245 -24.5s117.833 -43.5 157.5 -81.5s67.834 -88.167 84.501 -150.5s25 -139.5 25 -231.5v-137
c0 -92.667 -8.16699 -170.834 -24.5 -234.501s-44 -115.167 -83 -154.5s-90.833 -67.666 -155.5 -84.999s-145 -26 -241 -26c-36 0 -71.833 2 -107.5 6s-68.5 9.33301 -98.5 16v-429c0 -12 -6 -18 -18 -18h-216c-12 0 -18 6 -18 18zM391 203.999
c27.333 -4 58.1689 -7.16699 92.502 -9.5s70.5 -3.5 108.5 -3.5c54.667 0 99.334 5.16699 134.001 15.5s61.667 27.5 81 51.5s32.5 55.833 39.5 95.5s10.5 89.167 10.5 148.5v72c0 58.667 -3.5 107.5 -10.5 146.5s-20.333 70.167 -40 93.5s-47.167 39.833 -82.5 49.5
s-81 14.5 -137 14.5c-14.667 0 -30.834 -0.166992 -48.501 -0.5s-35.334 -1 -53.001 -2s-34.834 -2.33301 -51.501 -4s-31 -3.5 -43 -5.5v-662z" />
    <glyph glyph-name="q" unicode="q" horiz-adv-x="1204" 
d="M104 465v144.001c0 92 8.33301 169.167 25 231.5s44.834 112.5 84.501 150.5s92.667 65.167 159 81.5s149.166 24.5 248.499 24.5c34 0 69.167 -0.666992 105.5 -2s73 -3.33301 110 -6s73.333 -5.66699 109 -9s69.834 -7.33301 102.501 -12
c12 -0.666992 18 -7.33398 18 -20.001v-1483c0 -12 -6 -18 -18 -18h-215c-12 0 -18 6 -18 18v429c-30 -6.66699 -62.667 -12 -98 -16s-71 -6 -107 -6c-96.667 0 -177.334 8.5 -242.001 25.5s-116.5 44.833 -155.5 83.5s-66.833 89.5 -83.5 152.5s-25 140.167 -25 231.5z
M348 502.001c0 -59.333 3.5 -108.834 10.5 -148.501s20.167 -71.5 39.5 -95.5s46.333 -41.167 81 -51.5s79.667 -15.5 135 -15.5c38 0 74 1.16699 108 3.5s65 5.5 93 9.5v662c-26.667 4.66699 -58 7.83398 -94 9.50098s-70.333 2.5 -103 2.5
c-56 0 -101.5 -4.83301 -136.5 -14.5s-62.5 -26.167 -82.5 -49.5s-33.5 -54.5 -40.5 -93.5s-10.5 -87.833 -10.5 -146.5v-72z" />
    <glyph glyph-name="r" unicode="r" 
d="M139 18l0.00390625 1054c0 12 6 18 18 18h168c7.33301 0 12.666 -1.16699 15.999 -3.5s6.33301 -6.83301 9 -13.5l27 -61c20 16.667 42.5 30.5 67.5 41.5s50.667 19.667 77 26s52.666 10.833 78.999 13.5s50.833 4 73.5 4s41 -1 55 -3
c7.33301 -1.33301 12.166 -3.5 14.499 -6.5s3.16602 -7.83301 2.49902 -14.5l-14 -220c-0.666992 -12.667 -7 -18 -19 -16c-8 0.666992 -16.167 1.16699 -24.5 1.5s-17.833 0.5 -28.5 0.5c-52 0 -99.667 -3.16699 -143 -9.5s-85.333 -18.166 -126 -35.499v-776
c0 -12 -6 -18 -18 -18h-216c-12 0 -18 6 -18 18z" />
    <glyph glyph-name="s" unicode="s" horiz-adv-x="1009" 
d="M90 796c0 60.667 9.99805 110.498 29.998 149.498s49.333 69.667 88 92s86.667 37.833 144 46.5s123.333 13 198 13c56.667 0 110.834 -2.5 162.501 -7.5s98.5 -10.5 140.5 -16.5c12 -0.666992 17.667 -7.33398 17 -20.001l-15 -176
c-0.666992 -11.333 -7 -16.666 -19 -15.999c-42 4.66699 -86 8.5 -132 11.5s-88 4.5 -126 4.5c-47.333 0 -86.333 -1.33301 -117 -4s-54.834 -7.16699 -72.501 -13.5s-29.834 -15.166 -36.501 -26.499s-10 -26 -10 -44c0 -14 1.33301 -25.833 4 -35.5
s9.33398 -18.834 20.001 -27.501s26.5 -17.667 47.5 -27s49.5 -20 85.5 -32l161 -51c52.667 -16.667 96.667 -34 132 -52s63.333 -39 84 -63s35.334 -52.5 44.001 -85.5s13 -72.833 13 -119.5c0 -68 -10.5 -123.167 -31.5 -165.5s-51.667 -75.166 -92 -98.499
s-89.833 -39.166 -148.5 -47.499s-126 -12.5 -202 -12.5c-19.333 0 -42.5 0.5 -69.5 1.5s-55.667 2.83301 -86 5.5s-61 5.83398 -92 9.50098s-59.833 8.16699 -86.5 13.5c-7.33301 1.33301 -12.166 3.5 -14.499 6.5s-3.16602 8.16699 -2.49902 15.5l13 176
c0.666992 12 7 17 19 15c30.667 -4 59.167 -7.5 85.5 -10.5s51.666 -5.33301 75.999 -7s48 -2.83398 71 -3.50098s46.167 -1 69.5 -1c46 0 84.333 1.5 115 4.5s55.167 8.16699 73.5 15.5s31.333 17.333 39 30s11.5 28.667 11.5 48c0 14.667 -1.66699 27.167 -5 37.5
s-10.5 20 -21.5 29s-26.833 18.167 -47.5 27.5s-48.667 20.333 -84 33l-185 62c-48 16 -87.833 33.333 -119.5 52s-57 40.5 -76 65.5s-32.5 53.667 -40.5 86s-12 69.833 -12 112.5z" />
    <glyph glyph-name="t" unicode="t" horiz-adv-x="832" 
d="M37 890l-0.000976562 162.999c0 12 6 18 18 18h177v194c0 6.66699 1.16699 11.5 3.5 14.5s7.16602 4.83301 14.499 5.5l216 31h2c10.667 0 16 -5.33301 16 -16v-229h293c12 0 17 -6 15 -18l-28 -188c-1.33301 -7.33301 -3.5 -12.166 -6.5 -14.499
s-7.83301 -3.5 -14.5 -3.5h-259v-533c0 -26 2 -46.833 6 -62.5s10.667 -27.5 20 -35.5s21.333 -13.333 36 -16s33 -4 55 -4c16.667 0 36 0.666992 58 2s41.333 3 58 5c12 2 18.333 -3 19 -15l14 -169c0.666992 -7.33301 -0.166016 -12.5 -2.49902 -15.5
s-6.83301 -5.5 -13.5 -7.5c-28 -6.66699 -61.5 -12.334 -100.5 -17.001s-78.5 -7 -118.5 -7c-48 0 -89.667 4.33301 -125 13s-64.666 25 -87.999 49s-40.833 57.5 -52.5 100.5s-17.5 98.5 -17.5 166.5v546l-177 23c-12 0.666992 -18 7.33398 -18 20.001z" />
    <glyph glyph-name="u" unicode="u" horiz-adv-x="1227" 
d="M142 453l0.00292969 599.999c0 12 6 18 18 18h215c12 0 18 -6 18 -18v-585c0 -52 3.33301 -95.333 10 -130s18.834 -62.167 36.501 -82.5s42 -34.666 73 -42.999s70.833 -12.5 119.5 -12.5c15.333 0 31.666 0.333008 48.999 1s34.833 1.83398 52.5 3.50098
s34.667 3.66699 51 6s31.166 5.16602 44.499 8.49902v834c0 12 6 18 18 18h216c12 0 18 -6 18 -18v-1002c0 -7.33301 -1.16699 -12.5 -3.5 -15.5s-6.83301 -5.5 -13.5 -7.5c-26.667 -7.33301 -57.334 -14.333 -92.001 -21s-71 -12.5 -109 -17.5
s-76.833 -9.16699 -116.5 -12.5s-77.834 -5 -114.501 -5c-99.333 0 -180.666 8.33301 -243.999 25s-113.333 44 -150 82s-61.834 87.667 -75.501 149s-20.5 136.333 -20.5 225z" />
    <glyph glyph-name="v" unicode="v" horiz-adv-x="1092" 
d="M22 1054c-1.33301 2.66699 -2 5 -2 7c0 6.66699 4.66699 10 14 10h243c7.33301 0 12.5 -1.16699 15.5 -3.5s5.5 -6.83301 7.5 -13.5l245 -835l247 835c2 6.66699 4.5 11.167 7.5 13.5s8.16699 3.5 15.5 3.5h243c9.33301 0 14 -3.33301 14 -10
c0 -2 -0.666992 -4.33301 -2 -7l-343 -1037c-2.66699 -6.66699 -5.5 -11.167 -8.5 -13.5s-8.16699 -3.5 -15.5 -3.5h-316c-7.33301 0 -12.5 1.16699 -15.5 3.5s-5.83301 6.83301 -8.5 13.5z" />
    <glyph glyph-name="w" unicode="w" horiz-adv-x="1702" 
d="M50 1054c-0.666992 2 -1.00098 3.99805 -1.00098 5.99805c0 7.33301 5 11 15 11h234c7.33301 0 12.5 -1.16699 15.5 -3.5s5.16699 -7.16602 6.5 -14.499l151 -734c0.666992 -3.33301 2.16699 -11.666 4.5 -24.999s4.66602 -27.5 6.99902 -42.5s4.33301 -28.5 6 -40.5
s2.83398 -18 3.50098 -18s1.83398 3.5 3.50098 10.5l6.5 27.5l9 39c3.33301 14.667 7 30 11 46l213 738c2 6.66699 4.5 11.167 7.5 13.5s8.16699 3.5 15.5 3.5h187c7.33301 0 12.5 -1.16699 15.5 -3.5s5.5 -6.83301 7.5 -13.5l210 -741c4 -14.667 7.66699 -29.167 11 -43.5
l9 -38.5c2.66699 -11.333 5 -20.5 7 -27.5s3.33301 -10.5 4 -10.5s2 6 4 18l6.5 40l6.5 41.5c2 13 3.33301 20.833 4 23.5l153 737c1.33301 7.33301 3.5 12.166 6.5 14.499s8.16699 3.5 15.5 3.5h234c10 0 15 -3.66699 15 -11c0 -2 -0.333008 -4 -1 -6l-253 -1037
c-1.33301 -6.66699 -3.5 -11.167 -6.5 -13.5s-8.16699 -3.5 -15.5 -3.5h-293c-7.33301 0 -12.5 1.16699 -15.5 3.5s-5.83301 6.83301 -8.5 13.5l-183 552c-3.33301 10.667 -6.5 22.667 -9.5 36l-8.5 37.5c-2.66699 11.667 -4.66699 21.334 -6 29.001s-2.33301 11.5 -3 11.5
s-1.66699 -4 -3 -12s-3.33301 -17.833 -6 -29.5l-8.5 -37c-3 -13 -6.5 -24.833 -10.5 -35.5l-183 -552c-2.66699 -6.66699 -5.5 -11.167 -8.5 -13.5s-8.16699 -3.5 -15.5 -3.5h-293c-7.33301 0 -12.5 1.16699 -15.5 3.5s-5.16699 6.83301 -6.5 13.5z" />
    <glyph glyph-name="x" unicode="x" horiz-adv-x="1133" 
d="M39 15l359 522l-359 519c-2 3.33301 -3 6.33301 -3 9c0 4 3.66699 6 11 6h263c7.33301 0 12.833 -1.16699 16.5 -3.5s7.5 -6.16602 11.5 -11.499l228 -366l229 366c4 5.33301 7.83301 9.16602 11.5 11.499s9.16699 3.5 16.5 3.5h263c7.33301 0 11 -2 11 -6
c0 -2 -1 -5 -3 -9l-359 -519l359 -522c2 -3.33301 3 -6.33301 3 -9c0 -4 -3.66699 -6 -11 -6h-263c-7.33301 0 -12.833 1.16699 -16.5 3.5s-7.5 6.16602 -11.5 11.499l-229 368l-228 -368c-4 -5.33301 -7.83301 -9.16602 -11.5 -11.499s-9.16699 -3.5 -16.5 -3.5h-263
c-7.33301 0 -11 2 -11 6c0 2.66699 1 5.66699 3 9z" />
    <glyph glyph-name="y" unicode="y" horiz-adv-x="1069" 
d="M13 1054c-0.666992 2.66699 -1.00293 5 -1.00293 7c0 6.66699 4.33301 10 13 10h249c7.33301 0 12.5 -1.16699 15.5 -3.5s5.83301 -6.83301 8.5 -13.5l206 -602l18.5 -54c6.33301 -18 12 -35 17 -51l13 -42.5c3.66699 -12.333 6.5 -21.5 8.5 -27.5l200 777
c1.33301 6.66699 3.5 11.167 6.5 13.5s8.16699 3.5 15.5 3.5h249c9.33301 0 14 -3.66699 14 -11c0 -2 -0.333008 -4 -1 -6l-356 -1136c-24.667 -77.333 -50.334 -141.5 -77.001 -192.5s-59.167 -91.5 -97.5 -121.5s-84.666 -51.167 -138.999 -63.5
s-121.833 -18.5 -202.5 -18.5c-21.333 0 -44.666 1.16699 -69.999 3.5s-48 5.83301 -68 10.5c-7.33301 1.33301 -12 3.5 -14 6.5s-2.33301 7.83301 -1 14.5l25 177c2 12 9 17 21 15c15.333 -2 31.333 -3.83301 48 -5.5s32.667 -2.5 48 -2.5c48 0 87.833 3.33301 119.5 10
s59 19.5 82 38.5s42.833 45.333 59.5 79s34 77.5 52 131.5c-1.33301 0 -5.66602 2 -12.999 6s-17.166 13 -29.499 27s-26.5 34.333 -42.5 61s-32.667 62.667 -50 108z" />
    <glyph glyph-name="z" unicode="z" horiz-adv-x="1062" 
d="M93 18l0.000976562 168.999c0 8.66699 1.16699 15.834 3.5 21.501s6.16602 11.834 11.499 18.501l537 618h-527c-12 0 -18 6 -18 18v190c0 12 6 18 18 18h825c12 0 18 -6 18 -18v-159c0 -12.667 -2 -23.334 -6 -32.001s-9.33301 -16.667 -16 -24l-533 -610h545
c12 0 18 -6 18 -18v-192c0 -12 -6 -18 -18 -18h-840c-12 0 -18 6 -18 18z" />
    <glyph glyph-name="braceleft" unicode="{" horiz-adv-x="747" 
d="M71 444v198.004c0 11.333 5.66699 19.333 17 24c24 9.33301 43.333 19.5 58 30.5s26.167 24.5 34.5 40.5s14 35 17 57s4.5 49 4.5 81v239c0 85.333 6.5 152.166 19.5 200.499s33.833 84.333 62.5 108s65.834 38.334 111.501 44.001s101.167 8.5 166.5 8.5h128
c12 0 18 -6 18 -18v-213c0 -12 -6 -18 -18 -18h-127c-21.333 0 -38.333 -1.66699 -51 -5s-22.334 -9 -29.001 -17s-11 -18.667 -13 -32s-3 -30.333 -3 -51v-246c0 -48 -2.5 -88.333 -7.5 -121s-13.333 -60.834 -25 -84.501s-27.334 -44.334 -47.001 -62.001
s-44.167 -35.5 -73.5 -53.5v-22c29.333 -18 53.833 -36 73.5 -54s35.334 -38.667 47.001 -62s20 -51.333 25 -84s7.5 -72.334 7.5 -119.001v-249c0 -20.667 1 -37.667 3 -51s6.33301 -24 13 -32s16.334 -13.5 29.001 -16.5s29.667 -4.5 51 -4.5h127c12 0 18 -6 18 -18v-213
c0 -12 -6 -18 -18 -18h-127c-66 0 -121.833 2.83301 -167.5 8.5s-82.834 20.334 -111.501 44.001s-49.5 59.667 -62.5 108s-19.5 115.166 -19.5 200.499v239c0 31.333 -1.5 58.166 -4.5 80.499s-8.66699 41.5 -17 57.5s-19.833 29.5 -34.5 40.5s-34 21.167 -58 30.5
c-11.333 4.66699 -17 12.667 -17 24z" />
    <glyph glyph-name="bar" unicode="|" horiz-adv-x="570" 
d="M152 -371v1828c0 12 6 18 18 18h229c12 0 18 -6 18 -18v-1828c0 -12 -6 -18 -18 -18h-229c-12 0 -18 6 -18 18z" />
    <glyph glyph-name="braceright" unicode="}" horiz-adv-x="749" 
d="M41 -158c0 12 6 17.9961 18 17.9961h127c21.333 0 38.333 1.5 51 4.5s22.334 8.5 29.001 16.5s11 18.667 13 32s3 30.333 3 51v249c0 46.667 2.5 86.334 7.5 119.001s13.333 60.667 25 84s27.334 44 47.001 62s44.167 36 73.5 54v22
c-29.333 18 -53.833 35.833 -73.5 53.5s-35.334 38.334 -47.001 62.001s-20 51.834 -25 84.501s-7.5 73 -7.5 121v246c0 20.667 -1 37.667 -3 51s-6.33301 24 -13 32s-16.334 13.667 -29.001 17s-29.667 5 -51 5h-127c-12 0 -18 6 -18 18v213c0 12 6 18 18 18h128
c65.333 0 120.833 -2.83301 166.5 -8.5s82.834 -20.334 111.501 -44.001s49.5 -59.667 62.5 -108s19.5 -115.166 19.5 -200.499v-239c0 -32 1.5 -59 4.5 -81s8.66699 -41 17 -57s19.833 -29.5 34.5 -40.5s34 -21.167 58 -30.5c11.333 -4.66699 17 -12.667 17 -24v-198
c0 -11.333 -5.66699 -19.333 -17 -24c-24 -9.33301 -43.333 -19.5 -58 -30.5s-26.167 -24.5 -34.5 -40.5s-14 -35.167 -17 -57.5s-4.5 -49.166 -4.5 -80.499v-239c0 -85.333 -6.5 -152.166 -19.5 -200.499s-33.833 -84.333 -62.5 -108s-65.834 -38.334 -111.501 -44.001
s-101.5 -8.5 -167.5 -8.5h-127c-12 0 -18 6 -18 18v213z" />
    <glyph glyph-name="asciitilde" unicode="~" horiz-adv-x="1103" 
d="M124 576l0.00292969 65c0 62.667 7 112.334 21 149.001s32 64.5 54 83.5s46.5 31.167 73.5 36.5s53.5 8 79.5 8c18 0 34.667 -1 50 -3s30.333 -5.5 45 -10.5s29.167 -11.5 43.5 -19.5s29.833 -18 46.5 -30l63 -45l43 -30c12 -8 22.833 -14.667 32.5 -20
s18.667 -9.16602 27 -11.499s17.166 -3.5 26.499 -3.5c12 0 22.333 1.5 31 4.5s16 9.5 22 19.5s10.667 24.667 14 44s5.33301 45.666 6 78.999c0 12 6 18 18 18h150c12 0 18 -6 18 -18v-65c0 -62 -7 -111.333 -21 -148s-32 -64.667 -54 -84s-46.5 -31.833 -73.5 -37.5
s-53.5 -8.5 -79.5 -8.5c-18 0 -34.667 1 -50 3s-30 5.33301 -44 10s-28.333 11 -43 19s-30.667 18.333 -48 31l-62 45c-16 12 -30.167 22.167 -42.5 30.5s-23.333 15.166 -33 20.499s-18.834 9.33301 -27.501 12s-17.334 4 -26.001 4c-12 0 -22.5 -1.5 -31.5 -4.5
s-16.5 -9.5 -22.5 -19.5s-10.667 -24.833 -14 -44.5s-5.33301 -46.167 -6 -79.5c0 -12 -6 -18 -18 -18h-150c-12 0 -18 6 -18 18z" />
    <glyph glyph-name="uni007F" horiz-adv-x="0" 
 />
    <glyph glyph-name="uni00A0" unicode="&#xa0;" horiz-adv-x="508" 
 />
    <glyph glyph-name="exclamdown" unicode="&#xa1;" horiz-adv-x="566" 
d="M149 -419l16 920.002c0 12 6 18 18 18h201c12 0 18 -6 18 -18l16 -885c0 -12.667 -6 -19.334 -18 -20.001l-233 -31c-12 -0.666992 -18 4.66602 -18 15.999zM162 757.002v298.002c0 12 6 18 18 18h220c12 0 18 -6 18 -18v-264c0 -12.667 -6 -19.334 -18 -20.001l-220 -30
c-12 -0.666992 -18 4.66602 -18 15.999z" />
    <glyph glyph-name="cent" unicode="&#xa2;" horiz-adv-x="955" 
d="M89 501l0.000976562 124.998c0 86.667 6.16699 161.5 18.5 224.5s33.333 115.5 63 157.5s69.5 74.333 119.5 97s113 37.334 189 44.001v211c0 12 6 18 18 18h132c12 0 18 -6 18 -18v-207c38 -1.33301 74.167 -3.5 108.5 -6.5s65.5 -6.83301 93.5 -11.5
c6.66699 -1.33301 11.167 -3.33301 13.5 -6s2.83301 -7.66699 1.5 -15l-27 -189c-2 -11.333 -9 -16.666 -21 -15.999c-28 3.33301 -56.167 6 -84.5 8s-56.5 3.66699 -84.5 5v-732c30 0.666992 58.667 1.66699 86 3s53.666 4 78.999 8c12 2 19 -3 21 -15l31 -174
c2 -11.333 -3 -18.333 -15 -21c-26.667 -5.33301 -58 -9.33301 -94 -12s-72 -4.66699 -108 -6v-207c0 -12 -6 -18 -18 -18h-132c-12 0 -18 6 -18 18v211c-74.667 6 -137 20 -187 42s-90 53.667 -120 95s-51.333 93.833 -64 157.5s-19 140.167 -19 229.5zM335.001 507.998
c0 -48 1.83301 -89.668 5.5 -125.001s10.667 -65.333 21 -90s25 -44.5 44 -59.5s43.5 -25.833 73.5 -32.5v709c-30 -8 -54.333 -20 -73 -36s-33.167 -36.5 -43.5 -61.5s-17.5 -54.667 -21.5 -89s-6 -74.166 -6 -119.499v-96z" />
    <glyph glyph-name="sterling" unicode="&#xa3;" horiz-adv-x="1142" 
d="M95 18l-0.000976562 214c0 7.33301 1.16699 12.666 3.5 15.999s6.83301 6.33301 13.5 9c23.333 8.66699 42.333 18.5 57 29.5s26.167 24.5 34.5 40.5s14 35 17 57s4.5 49 4.5 81v170h-112c-12 0 -18 6 -18 18v212c0 12 6 18 18 18h112v120c0 53.333 2.16699 102 6.5 146
s12.666 83.5 24.999 118.5s30 65.5 53 91.5s53.333 47.667 91 65s83.334 30.166 137.001 38.499s117.834 12.5 192.501 12.5h258c12 0 18 -6 18 -18v-213c0 -12 -6 -18 -18 -18h-257c-54.667 0 -98 -4 -130 -12s-56.167 -20.667 -72.5 -38s-26.833 -39.666 -31.5 -66.999
s-7 -60.333 -7 -99v-127h418c12 0 17 -6 15 -18l-36 -212c-1.33301 -7.33301 -3.5 -12.166 -6.5 -14.499s-7.83301 -3.5 -14.5 -3.5h-376v-170c0 -52 -3 -95 -9 -129s-16 -63 -30 -87h593c12 0 18 -6 18 -18v-213c0 -12 -6 -18 -18 -18h-931c-12 0 -18 6 -18 18z" />
    <glyph glyph-name="currency" unicode="&#xa4;" horiz-adv-x="1263" 
d="M102 1080c0 3.33301 2.66797 7.66602 8.00098 12.999l147 146c5.33301 5.33301 9.66602 8 12.999 8s7.66602 -2.66699 12.999 -8l115 -116c62.667 32.667 141.334 49 236.001 49c93.333 0 171.333 -15.667 234 -47l114 114c5.33301 5.33301 9.66602 8 12.999 8
s7.66602 -2.66699 12.999 -8l144 -146c5.33301 -5.33301 8 -9.66602 8 -12.999s-2.66699 -7.66602 -8 -12.999l-126 -127c21.333 -62 32 -135.667 32 -221c0 -88 -11 -163 -33 -225l127 -126c5.33301 -5.33301 8 -9.66602 8 -12.999s-2.66699 -7.66602 -8 -12.999l-144 -146
c-5.33301 -5.33301 -9.66602 -8 -12.999 -8s-7.66602 2.66699 -12.999 8l-115 113c-60.667 -31.333 -138.334 -47 -233.001 -47s-173.334 16.333 -236.001 49l-115 -115c-5.33301 -5.33301 -9.66602 -8 -12.999 -8s-7.66602 2.66699 -12.999 8l-146 147
c-5.33301 5.33301 -8 9.66602 -8 12.999s2.66699 7.66602 8 12.999l128 128c-22.667 60 -34 134 -34 222c0 84.667 11 157.667 33 219l-128 129c-5.33301 5.33301 -8 9.66602 -8 12.999zM424.001 719c0 -81.333 17.333 -139.5 52 -174.5s87.334 -52.5 158.001 -52.5
c70 0 121.667 17.5 155 52.5s50 93.167 50 174.5s-16.667 139.5 -50 174.5s-85 52.5 -155 52.5c-70.667 0 -123.334 -17.5 -158.001 -52.5s-52 -93.167 -52 -174.5z" />
    <glyph glyph-name="yen" unicode="&#xa5;" horiz-adv-x="1346" 
d="M61 1459c-4.66699 10.667 -1.32812 16 10.0049 16h262c7.33301 0 12.666 -1.16699 15.999 -3.5s6.66602 -6.5 9.99902 -12.5l314 -669l313 669c3.33301 6 6.66602 10.167 9.99902 12.5s8.66602 3.5 15.999 3.5h260c11.333 0 14.666 -5.33301 9.99902 -16l-387 -782h265
c12 0 17 -6 15 -18l-24 -131c-1.33301 -7.33301 -3.33301 -12.166 -6 -14.499s-7.66699 -3.5 -15 -3.5h-318l-7 -15v-115h355c12 0 17 -6 15 -18l-23 -131c-1.33301 -7.33301 -3.5 -12.166 -6.5 -14.499s-7.83301 -3.5 -14.5 -3.5h-326v-195c0 -12 -6 -18 -18 -18h-229
c-12 0 -18 6 -18 18v195h-336c-12 0 -17 6 -15 18l24 131c1.33301 7.33301 3.33301 12.166 6 14.499s7.66699 3.5 15 3.5h306v115l-8 15h-328c-12 0 -17 6 -15 18l24 131c1.33301 7.33301 3.33301 12.166 6 14.499s7.66699 3.5 15 3.5h215z" />
    <glyph glyph-name="brokenbar" unicode="&#xa6;" horiz-adv-x="582" 
d="M159 -371l15 732c0 12 6 18 18 18h198c12 0 18 -6 18 -18l15 -732c0 -12 -6 -18 -18 -18h-228c-12 0 -18 6 -18 18zM159 1457c0 12 6 18 18 18h228c12 0 18 -6 18 -18l-15 -732c0 -12 -6 -18 -18 -18h-198c-12 0 -18 6 -18 18z" />
    <glyph glyph-name="section" unicode="&#xa7;" horiz-adv-x="1110" 
d="M97 586c0 61.333 7.66113 114.002 22.9941 158.002s38.333 81.333 69 112c-30.667 33.333 -53.667 71.166 -69 113.499s-23 91.5 -23 147.5c0 72 10.833 132.5 32.5 181.5s54.5 88.5 98.5 118.5s99.667 51.667 167 65s147 20 239 20c22.667 0 47.334 -0.666992 74.001 -2
s53.667 -3.33301 81 -6s54.333 -6.5 81 -11.5s51.334 -10.833 74.001 -17.5c11.333 -3.33301 16 -11 14 -23l-34 -200c-2 -12 -9 -17 -21 -15c-21.333 3.33301 -43.333 6.16602 -66 8.49902s-45.167 4.33301 -67.5 6s-44.166 2.83398 -65.499 3.50098s-41.333 1 -60 1
c-48 0 -88.833 -2.5 -122.5 -7.5s-61 -13 -82 -24s-36.333 -25 -46 -42s-14.5 -37.167 -14.5 -60.5c0 -19.333 3.33301 -36.333 10 -51s18 -28.5 34 -41.5s37 -26.333 63 -40s58.333 -29.5 97 -47.5l165 -79c52 -24.667 95.333 -49.667 130 -75s62.334 -52.833 83.001 -82.5
s35.334 -61.834 44.001 -96.501s13 -73.334 13 -116.001c0 -60 -6.66699 -113.167 -20 -159.5s-36.333 -86.5 -69 -120.5c32 -34 54.833 -71.5 68.5 -112.5s20.5 -87.167 20.5 -138.5c0 -63.333 -8 -120 -24 -170s-44.167 -92.333 -84.5 -127s-95.333 -61.167 -165 -79.5
s-157.834 -27.5 -264.501 -27.5c-28.667 0 -58.667 0.833008 -90 2.5s-62.333 4.33398 -93 8.00098s-60.334 8 -89.001 13s-54.667 10.5 -78 16.5c-11.333 3.33301 -16 10.666 -14 21.999l37 208c2 12 9 17 21 15c56.667 -9.33301 108.5 -16.5 155.5 -21.5
s94.5 -7.5 142.5 -7.5c56.667 0 102.334 3.16699 137.001 9.5s61.5 15.5 80.5 27.5s31.667 26.333 38 43s9.5 35.667 9.5 57c0 19.333 -2.66699 36.166 -8 50.499s-15.5 28 -30.5 41s-36.167 26.833 -63.5 41.5s-63 32 -107 52l-148 72
c-49.333 23.333 -91.666 47.5 -126.999 72.5s-64.666 52.833 -87.999 83.5s-40.5 64.834 -51.5 102.501s-16.5 80.834 -16.5 129.501zM363.994 619.002c0 -29.333 3.16699 -53.999 9.5 -73.999s17.833 -38.167 34.5 -54.5s39.167 -32 67.5 -47s64.166 -31.833 107.499 -50.5
l141 -61c10.667 16.667 17.834 35.167 21.501 55.5s5.5 39.166 5.5 56.499c0 26.667 -2.66699 49.5 -8 68.5s-16 36.5 -32 52.5s-38.5 31.833 -67.5 47.5s-67.5 33.5 -115.5 53.5l-132 58c-11.333 -17.333 -19.5 -35.833 -24.5 -55.5s-7.5 -36.167 -7.5 -49.5z" />
    <glyph glyph-name="dieresis" unicode="&#xa8;" 
d="M66 1249l0.000976562 276c0 6.66699 1.16699 11.5 3.5 14.5s7.16602 5.16699 14.499 6.5l213 29c12 2 18 -3 18 -15v-311c0 -12 -6 -18 -18 -18h-213c-12 0 -18 6 -18 18zM464.001 1249l0.000976562 276c0 6.66699 1.16699 11.5 3.5 14.5s7.16602 5.16699 14.499 6.5
l212 29c12 2 18 -3 18 -15v-311c0 -12 -6 -18 -18 -18h-212c-12 0 -18 6 -18 18z" />
    <glyph glyph-name="copyright" unicode="&#xa9;" horiz-adv-x="1530" 
d="M95 747c0 110.667 11.5 210 34.5 298s60.833 162.833 113.5 224.5s121.667 108.834 207 141.501s190.333 49 315 49s229.667 -16.333 315 -49s154.333 -79.834 207 -141.501s90.667 -136.5 114 -224.5s35 -187.333 35 -298c0 -111.333 -11.667 -211.166 -35 -299.499
s-61.333 -163.333 -114 -225s-121.667 -108.834 -207 -141.501s-190.333 -49 -315 -49s-229.667 16.333 -315 49s-154.333 79.834 -207 141.501s-90.5 136.667 -113.5 225s-34.5 188.166 -34.5 299.499zM286 747c0 -83.333 7 -157.166 21 -221.499s39 -118.666 75 -162.999
s84.833 -78 146.5 -101s140.5 -34.5 236.5 -34.5s174.833 11.5 236.5 34.5s110.5 56.667 146.5 101s61 98.666 75 162.999s21 138.166 21 221.499c0 82.667 -7 156.334 -21 221.001s-39 119 -75 163s-84.833 77.5 -146.5 100.5s-140.5 34.5 -236.5 34.5
s-174.833 -11.5 -236.5 -34.5s-110.5 -56.5 -146.5 -100.5s-61 -98.333 -75 -163s-21 -138.334 -21 -221.001zM440 699l-0.000976562 92.9961c0 64.667 6.5 120 19.5 166s33.833 83.5 62.5 112.5s66.167 50.167 112.5 63.5s102.833 20 169.5 20c32 0 64.5 -1.66699 97.5 -5
s62.167 -7.66602 87.5 -12.999c7.33301 -1.33301 12 -3.5 14 -6.5s2.66699 -8.16699 2 -15.5l-21 -180c-0.666992 -12.667 -7.33398 -18 -20.001 -16c-25.333 2 -49.666 3.5 -72.999 4.5s-47 1.5 -71 1.5c-28 0 -51 -3.33301 -69 -10s-32.5 -16.5 -43.5 -29.5
s-18.667 -29.167 -23 -48.5s-6.5 -42 -6.5 -68v-41c0 -26.667 2.16699 -50 6.5 -70s12 -36.5 23 -49.5s25.5 -22.833 43.5 -29.5s41 -10 69 -10c27.333 0 52.5 0.5 75.5 1.5s45.833 2.83301 68.5 5.5c12.667 0.666992 19.334 -4.66602 20.001 -15.999l21 -182
c2 -11.333 -3.33301 -18.333 -16 -21c-24 -5.33301 -52.833 -9.5 -86.5 -12.5s-66.5 -4.5 -98.5 -4.5c-66.667 0 -123.167 6.66699 -169.5 20s-83.833 34.333 -112.5 63s-49.5 65.834 -62.5 111.501s-19.5 100.834 -19.5 165.501z" />
    <glyph glyph-name="ordfeminine" unicode="&#xaa;" horiz-adv-x="987" 
d="M129 418v152c0 12 6 18 18 18h698c12 0 18 -6 18 -18v-152c0 -12 -6 -18 -18 -18h-698c-12 0 -18 6 -18 18zM142 934c0 48.667 5.66504 89.168 16.998 121.501s32 58.166 62 77.499s71.333 33 124 41s120.334 12 203.001 12h53v27c0 19.333 -2 35.666 -6 48.999
s-11.667 24.333 -23 33s-26.833 14.834 -46.5 18.501s-45.167 5.5 -76.5 5.5c-32 0 -67.167 -1 -105.5 -3s-75.166 -4.66699 -110.499 -8c-12 -0.666992 -18 5 -18 17v135c0 7.33301 1.16699 12.5 3.5 15.5s7.16602 5.16699 14.499 6.5
c18.667 3.33301 38.834 6.33301 60.501 9s43.334 4.83398 65.001 6.50098s42.5 2.83398 62.5 3.50098s38 1 54 1c76.667 0 137.834 -6.33301 183.501 -19s80.334 -32 104.001 -58s39 -59.167 46 -99.5s10.5 -87.833 10.5 -142.5v-446c0 -12.667 -6 -19.334 -18 -20.001
c-26 -3.33301 -53.333 -6.33301 -82 -9s-56.834 -5 -84.501 -7s-53.834 -3.66699 -78.501 -5s-46 -2 -64 -2c-60.667 0 -113 3.66699 -157 11s-80.333 20.166 -109 38.499s-49.834 43 -63.501 74s-20.5 69.833 -20.5 116.5zM359.998 944.001
c0 -19.333 3.16602 -34.499 9.49902 -45.499s15 -19.333 26 -25s24.333 -9.33398 40 -11.001s32.5 -2.5 50.5 -2.5c20 0 39.667 0.5 59 1.5s38 2.83301 56 5.5v165h-56c-38 0 -69.167 -1.16699 -93.5 -3.5s-43.166 -6.83301 -56.499 -13.5s-22.5 -15.667 -27.5 -27
s-7.5 -26 -7.5 -44z" />
    <glyph glyph-name="guillemotleft" unicode="&#xab;" horiz-adv-x="1341" 
d="M45 534c0 4 2.33301 8.66699 7 14l312 369c4.66699 5.33301 9 9 13 11s9.66699 3 17 3h275c11.333 0 13.333 -4.33301 6 -13l-331 -384l331 -383c7.33301 -8.66699 5.33301 -13 -6 -13h-275c-7.33301 0 -13 1 -17 3s-8.33301 5.66699 -13 11l-312 368
c-4.66699 5.33301 -7 10 -7 14zM604 534c0 4 2.33301 8.66699 7 14l312 369c4.66699 5.33301 9 9 13 11s9.66699 3 17 3h275c11.333 0 13.333 -4.33301 6 -13l-331 -384l331 -383c7.33301 -8.66699 5.33301 -13 -6 -13h-275c-7.33301 0 -13 1 -17 3s-8.33301 5.66699 -13 11
l-312 368c-4.66699 5.33301 -7 10 -7 14z" />
    <glyph glyph-name="logicalnot" unicode="&#xac;" horiz-adv-x="1188" 
d="M106 741v207c0 12 6 18 18 18h875c12 0 18 -6 18 -18v-642c0 -12 -6 -18 -18 -18h-206c-12 0 -18 6 -18 18v417h-651c-12 0 -18 6 -18 18z" />
    <glyph glyph-name="uni00AD" unicode="&#xad;" horiz-adv-x="780" 
d="M136 475v208c0 12 6 18 18 18h472c12 0 18 -6 18 -18v-208c0 -12 -6 -18 -18 -18h-472c-12 0 -18 6 -18 18z" />
    <glyph glyph-name="registered" unicode="&#xae;" horiz-adv-x="1288" 
d="M101 987c0 90.667 9.83301 171.834 29.5 243.501s51.334 132.334 95.001 182.001s99.834 87.5 168.501 113.5s152 39 250 39s181.5 -13 250.5 -39s125.333 -63.833 169 -113.5s75.334 -110.334 95.001 -182.001s29.5 -152.834 29.5 -243.501
c0 -91.333 -9.83301 -173 -29.5 -245s-51.334 -132.833 -95.001 -182.5s-100 -87.667 -169 -114s-152.5 -39.5 -250.5 -39.5s-181.333 13.167 -250 39.5s-124.834 64.333 -168.501 114s-75.334 110.5 -95.001 182.5s-29.5 153.667 -29.5 245zM268 987
c0 -67.333 5.83301 -126.333 17.5 -177s32 -93.334 61 -128.001s67.5 -60.667 115.5 -78s108.667 -26 182 -26s134.166 8.66699 182.499 26s86.833 43.333 115.5 78s48.834 77.334 60.501 128.001s17.5 109.667 17.5 177c0 66.667 -5.83301 125.334 -17.5 176.001
s-31.834 93.167 -60.501 127.5s-67.167 60.166 -115.5 77.499s-109.166 26 -182.499 26s-134 -8.66699 -182 -26s-86.5 -43.166 -115.5 -77.499s-49.333 -76.833 -61 -127.5s-17.5 -109.334 -17.5 -176.001zM428 696v579.002c0 12 6 18.333 18 19
c30 1.33301 59.333 2.5 88 3.5s56.334 1.5 83.001 1.5c57.333 0 103.5 -3.5 138.5 -10.5s62.167 -17.833 81.5 -32.5s32.166 -33.834 38.499 -57.501s9.5 -51.834 9.5 -84.501v-35c0 -36.667 -5.33301 -68.5 -16 -95.5s-34 -48.167 -70 -63.5l99 -197
c3.33301 -6 4.66602 -11 3.99902 -15s-3.66699 -8.66699 -9 -14l-3 -3c-8.66699 -8.66699 -19 -13 -31 -13h-82c-7.33301 0 -12.666 1.16699 -15.999 3.5s-6.33301 6.83301 -9 13.5l-81 202c-6.66699 -0.666992 -13.5 -1 -20.5 -1h-21.5h-26.5
c-12.333 0 -25.5 0.666992 -39.5 2v-202c0 -12 -6 -18 -18 -18h-99c-12 0 -18 6 -18 18zM563 1015c13.333 -1.33301 27.998 -2.00098 43.998 -2.00098h37c20 0 36.667 0.833008 50 2.5s24.333 5 33 10s14.834 12 18.501 21s5.5 20.5 5.5 34.5v26c0 25.333 -8.5 42 -25.5 50
s-46.167 12 -87.5 12c-9.33301 0 -21.166 -0.166992 -35.499 -0.5s-27.5 -1.16602 -39.5 -2.49902v-151z" />
    <glyph glyph-name="macron" unicode="&#xaf;" 
d="M109 1311v154c0 12 6 18 18 18h524c12 0 18 -6 18 -18v-154c0 -12 -6 -18 -18 -18h-524c-12 0 -18 6 -18 18z" />
    <glyph glyph-name="degree" unicode="&#xb0;" horiz-adv-x="851" 
d="M86 1145l0.00292969 61c0 49.333 7.83301 92.5 23.5 129.5s38.167 67.833 67.5 92.5s65 43.167 107 55.5s89.333 18.5 142 18.5c52 0 99 -6.16699 141 -18.5s77.667 -30.833 107 -55.5s51.833 -55.5 67.5 -92.5s23.5 -80.167 23.5 -129.5v-61
c0 -48.667 -7.83301 -91.334 -23.5 -128.001s-38.334 -67.167 -68.001 -91.5s-65.334 -42.666 -107.001 -54.999s-88.5 -18.5 -140.5 -18.5s-99 6.16699 -141 18.5s-77.833 30.666 -107.5 54.999s-52.334 54.833 -68.001 91.5s-23.5 79.334 -23.5 128.001zM295.003 1163
c0 -23.333 3.66602 -42.668 10.999 -58.001s17.166 -27.666 29.499 -36.999s26.333 -15.833 42 -19.5s31.834 -5.5 48.501 -5.5c16 0 31.833 1.83301 47.5 5.5s29.5 10 41.5 19s21.833 21.333 29.5 37s11.5 35.5 11.5 59.5v25c0 23.333 -3.66699 42.666 -11 57.999
s-17.166 27.666 -29.499 36.999s-26.333 16 -42 20s-31.5 6 -47.5 6s-31.833 -2 -47.5 -6s-29.667 -10.667 -42 -20s-22.333 -21.666 -30 -36.999s-11.5 -34.666 -11.5 -57.999v-26z" />
    <glyph glyph-name="plusminus" unicode="&#xb1;" horiz-adv-x="1171" 
d="M122 820v208c0 12 6 18 18 18h324v327c0 12 6 18 18 18h207c12 0 18 -6 18 -18v-327h325c12 0 18 -6 18 -18v-208c0 -12 -6 -18 -18 -18h-325v-321c0 -12 -6 -18 -18 -18h-207c-12 0 -18 6 -18 18v321h-324c-12 0 -18 6 -18 18zM136 18v207c0 12 6 18 18 18h864
c12 0 18 -6 18 -18v-207c0 -12 -6 -18 -18 -18h-864c-12 0 -18 6 -18 18z" />
    <glyph glyph-name="twosuperior" unicode="&#xb2;" horiz-adv-x="857" 
d="M109 618l-0.00292969 77.002c0 44.667 3.16699 82.834 9.5 114.501s17.333 60.167 33 85.5s36.334 49.5 62.001 72.5s57.5 48.167 95.5 75.5l130 95c12.667 8.66699 23.5 16.667 32.5 24s16.5 14.333 22.5 21s10.333 13.667 13 21s4 15.666 4 24.999
c0 25.333 -11.5 43.333 -34.5 54s-62.167 16 -117.5 16c-10 0 -22 -0.166992 -36 -0.5s-29 -1 -45 -2s-32.667 -2.16699 -50 -3.5s-34.333 -3.33301 -51 -6c-12 -2 -19 3 -21 15l-26 153c-2 11.333 2.66699 18.666 14 21.999c20 4.66699 40.5 8.66699 61.5 12
s41.833 6 62.5 8s40.334 3.33301 59.001 4s36 1 52 1c74 0 134.5 -6.33301 181.5 -19s84 -30 111 -52s45.667 -48.167 56 -78.5s15.5 -62.833 15.5 -97.5c0 -30 -3.16699 -57 -9.5 -81s-16.166 -46.167 -29.499 -66.5s-30.5 -40 -51.5 -59s-46.5 -38.5 -76.5 -58.5l-81 -55
c-23.333 -16.667 -42.5 -31.334 -57.5 -44.001s-26.833 -24.667 -35.5 -36s-15 -22.333 -19 -33s-6.66699 -22 -8 -34h341c12 0 18 -6 18 -18v-152c0 -12 -6 -18 -18 -18h-589c-12 0 -18 6 -18 18z" />
    <glyph glyph-name="threesuperior" unicode="&#xb3;" horiz-adv-x="840" 
d="M117 619l10.002 159c0.666992 12 7 17.667 19 17c40 -3.33301 78 -5.5 114 -6.5s69.333 -1.5 100 -1.5c52 0 90.5 6.33301 115.5 19s37.5 36.667 37.5 72v19c0 14 -1.83301 26.5 -5.5 37.5s-10.5 20 -20.5 27s-23.5 12.333 -40.5 16s-38.5 5.5 -64.5 5.5h-137
c-12 0 -18 6 -18 18v119c0 12 6 18 18 18h131c27.333 0 49.833 1.5 67.5 4.5s31.667 7.5 42 13.5s17.5 13.5 21.5 22.5s6 19.5 6 31.5v11c0 30.667 -13 51 -39 61s-64 15 -114 15c-36 0 -71.667 -0.666992 -107 -2s-69.333 -3 -102 -5c-12 -0.666992 -18.333 5 -19 17
l-11 158c-0.666992 12 5 19 17 21c32 4.66699 68.167 8.5 108.5 11.5s83.166 4.5 128.499 4.5c57.333 0 108.166 -4.16699 152.499 -12.5s81.833 -21.5 112.5 -39.5s53.834 -41.5 69.501 -70.5s23.5 -63.833 23.5 -104.5v-18c0 -48.667 -11.5 -89.334 -34.5 -122.001
s-57.833 -55.667 -104.5 -69c43.333 -17.333 77.333 -43.666 102 -78.999s37 -81 37 -137v-17c0 -50 -7.83301 -91.167 -23.5 -123.5s-38.5 -58 -68.5 -77s-66.833 -32.167 -110.5 -39.5s-93.5 -11 -149.5 -11c-46 0 -90.333 1.5 -133 4.5s-80.667 6.83301 -114 11.5
c-6.66699 1.33301 -11.334 3.33301 -14.001 6s-3.66699 7.66699 -3 15z" />
    <glyph glyph-name="acute" unicode="&#xb4;" 
d="M164 1282l162 240.001c4 5.33301 7.83301 9.16602 11.5 11.499s9.16699 3.5 16.5 3.5h258c11.333 0 13.333 -4.33301 6 -13l-216 -244c-4.66699 -5.33301 -9 -8.83301 -13 -10.5s-9.66699 -2.5 -17 -2.5h-200c-11.333 0 -14 5 -8 15z" />
    <glyph glyph-name="mu" unicode="&#xb5;" horiz-adv-x="1302" 
d="M157 -371l0.00292969 1424c0 12 6 18 18 18h216c12 0 18 -6 18 -18v-548c0 -60 5.83301 -109.167 17.5 -147.5s28.667 -68.5 51 -90.5s49.666 -37.167 81.999 -45.5s69.166 -12.5 110.499 -12.5c16.667 0 34.5 0.333008 53.5 1s38 1.66699 57 3s37.5 3.33301 55.5 6
s34 5.66699 48 9v825c0 12 6 18 18 18h215c12 0 18 -6 18 -18v-1000c0 -7.33301 -1.16699 -12.5 -3.5 -15.5s-6.83301 -5.5 -13.5 -7.5c-27.333 -7.33301 -58.833 -14.5 -94.5 -21.5s-73.334 -13.167 -113.001 -18.5s-80.167 -9.66602 -121.5 -12.999s-81.333 -5 -120 -5
c-62 0 -115.167 5.5 -159.5 16.5s-77.833 27.833 -100.5 50.5v-410c0 -12 -6 -18 -18 -18h-216c-12 0 -18 6 -18 18z" />
    <glyph glyph-name="paragraph" unicode="&#xb6;" horiz-adv-x="1315" 
d="M69 1004l-0.00195312 66c0 80 5.83301 146.167 17.5 198.5s32.667 93.833 63 124.5s71.5 52 123.5 64s118 18 198 18h300c12 0 18 -6 18 -18v-1892c0 -12 -6 -18 -18 -18h-206c-12 0 -18 6 -18 18v1027c-14 -1.33301 -28.167 -2.33301 -42.5 -3s-29.5 -1 -45.5 -1
c-78 0 -142.167 6.33301 -192.5 19s-90.166 34.667 -119.499 66s-49.666 73.833 -60.999 127.5s-17 121.5 -17 203.5zM903.998 -435v1892c0 12 6 18 18 18h208c12 0 18 -6 18 -18v-1892c0 -12 -6 -18 -18 -18h-208c-12 0 -18 6 -18 18z" />
    <glyph glyph-name="periodcentered" unicode="&#xb7;" horiz-adv-x="529" 
d="M136 412v263.998c0 12.667 6 19.334 18 20.001l220 30c12 0.666992 18 -4.66602 18 -15.999v-298c0 -12 -6 -18 -18 -18h-220c-12 0 -18 6 -18 18z" />
    <glyph glyph-name="cedilla" unicode="&#xb8;" 
d="M204 -373l150.999 255c3.33301 6 6.83301 10.167 10.5 12.5s9.16699 3.5 16.5 3.5h182c11.333 0 14.666 -5.33301 9.99902 -16l-135 -255c-3.33301 -6 -6.66602 -10.167 -9.99902 -12.5s-8.66602 -3.5 -15.999 -3.5h-200c-12 0 -15 5.33301 -9 16z" />
    <glyph glyph-name="onesuperior" unicode="&#xb9;" horiz-adv-x="565" 
d="M47 1448c-2 12 3 19.001 15 21.001l154 30c5.33301 1.33301 11.333 2.16602 18 2.49902s12.667 0.5 18 0.5h159c12 0 18 -6 18 -18v-866c0 -12 -6 -18 -18 -18h-181c-12 0 -18 6 -18 18v682l-116 -24c-12 -2.66699 -19 2 -21 14z" />
    <glyph glyph-name="ordmasculine" unicode="&#xba;" horiz-adv-x="1008" 
d="M136 415v155c0 12 6 18 18 18h699c12 0 18 -6 18 -18v-155c0 -12 -6 -18 -18 -18h-699c-12 0 -18 6 -18 18zM144 1061l-0.000976562 73c0 64 6.5 119.167 19.5 165.5s34.167 84.5 63.5 114.5s67.5 52.167 114.5 66.5s104.167 21.5 171.5 21.5
c64 0 118.5 -7.16699 163.5 -21.5s81.667 -36.5 110 -66.5s48.833 -68.167 61.5 -114.5s19 -101.5 19 -165.5v-73c0 -64 -6.83301 -119.167 -20.5 -165.5s-35.167 -84.5 -64.5 -114.5s-66.833 -52 -112.5 -66s-100.5 -21 -164.5 -21c-67.333 0 -124 7 -170 21
s-83.167 36 -111.5 66s-48.666 68.167 -60.999 114.5s-18.5 101.5 -18.5 165.5zM356.999 1069c0 -34.667 2.33105 -63.832 6.99805 -87.499s12.834 -42.834 24.501 -57.501s27 -25.167 46 -31.5s42.833 -9.5 71.5 -9.5c28 0 51.5 3.16699 70.5 9.5s34.167 16.833 45.5 31.5
s19.333 34 24 58s7 53.667 7 89v57c0 34.667 -2.16699 64 -6.5 88s-12.166 43.333 -23.499 58s-26.5 25.167 -45.5 31.5s-43.167 9.5 -72.5 9.5c-28.667 0 -52.5 -3.16699 -71.5 -9.5s-34.167 -16.833 -45.5 -31.5s-19.333 -34 -24 -58s-7 -53.333 -7 -88v-59z" />
    <glyph glyph-name="guillemotright" unicode="&#xbb;" horiz-adv-x="1342" 
d="M108 151l331 383l-331 384c-7.33301 8.66699 -5.33301 13 6 13h275c7.33301 0 13 -1 17 -3s8.33301 -5.66699 13 -11l312 -369c4.66699 -5.33301 7 -10 7 -14s-2.33301 -8.66699 -7 -14l-312 -368c-4.66699 -5.33301 -9 -9 -13 -11s-9.66699 -3 -17 -3h-275
c-11.333 0 -13.333 4.33301 -6 13zM667 151l331 383l-331 384c-7.33301 8.66699 -5.33301 13 6 13h275c7.33301 0 13 -1 17 -3s8.33301 -5.66699 13 -11l312 -369c4.66699 -5.33301 7 -10 7 -14s-2.33301 -8.66699 -7 -14l-312 -368c-4.66699 -5.33301 -9 -9 -13 -11
s-9.66699 -3 -17 -3h-275c-11.333 0 -13.333 4.33301 -6 13z" />
    <glyph glyph-name="onequarter" unicode="&#xbc;" horiz-adv-x="1855" 
d="M106 1448c-2 12 3 19.001 15 21.001l154 30c5.33301 1.33301 11.333 2.16602 18 2.49902s12.667 0.5 18 0.5h159c12 0 18 -6 18 -18v-866c0 -12 -6 -18 -18 -18h-181c-12 0 -18 6 -18 18v682l-116 -24c-12 -2.66699 -19 2 -21 14zM274 16.001l815 1443
c3.33301 6 6.83301 10.167 10.5 12.5s9.16699 3.5 16.5 3.5h258c12 0 15 -5.33301 9 -16l-816 -1443c-3.33301 -6 -6.83301 -10.167 -10.5 -12.5s-9.16699 -3.5 -16.5 -3.5h-257c-12 0 -15 5.33301 -9 16zM1006 210.001v189.001c0 11.333 3.33301 22.333 10 33l321 456
c3.33301 5.33301 7 9.16602 11 11.499s9.66699 3.5 17 3.5h301c12 0 18 -6 18 -18v-497h82c12 0 18 -6 18 -18v-160c0 -12 -6 -18 -18 -18h-82v-174c0 -12 -6 -18 -18 -18h-181c-12 0 -18 6 -18 18v174h-443c-12 0 -18 6 -18 18zM1241 388.002h226v308h-20l-206 -291v-17z
" />
    <glyph glyph-name="onehalf" unicode="&#xbd;" horiz-adv-x="1866" 
d="M106 1448c-2 12 3 19.001 15 21.001l154 30c5.33301 1.33301 11.333 2.16602 18 2.49902s12.667 0.5 18 0.5h159c12 0 18 -6 18 -18v-866c0 -12 -6 -18 -18 -18h-181c-12 0 -18 6 -18 18v682l-116 -24c-12 -2.66699 -19 2 -21 14zM264 16.001l815 1443
c3.33301 6 6.83301 10.167 10.5 12.5s9.16699 3.5 16.5 3.5h258c12 0 15 -5.33301 9 -16l-816 -1443c-3.33301 -6 -6.83301 -10.167 -10.5 -12.5s-9.16699 -3.5 -16.5 -3.5h-257c-12 0 -15 5.33301 -9 16zM1141 18.001l-0.00292969 77.002
c0 44.667 3.16699 82.834 9.5 114.501s17.333 60.167 33 85.5s36.334 49.5 62.001 72.5s57.5 48.167 95.5 75.5l130 95c12.667 8.66699 23.5 16.667 32.5 24s16.5 14.333 22.5 21s10.333 13.667 13 21s4 15.666 4 24.999c0 25.333 -11.5 43.333 -34.5 54
s-62.167 16 -117.5 16c-10 0 -22 -0.166992 -36 -0.5s-29 -1 -45 -2s-32.667 -2.16699 -50 -3.5s-34.333 -3.33301 -51 -6c-12 -2 -19 3 -21 15l-26 153c-2 11.333 2.66699 18.666 14 21.999c20 4.66699 40.5 8.66699 61.5 12s41.833 6 62.5 8s40.334 3.33301 59.001 4
s36 1 52 1c74 0 134.5 -6.33301 181.5 -19s84 -30 111 -52s45.667 -48.167 56 -78.5s15.5 -62.833 15.5 -97.5c0 -30 -3.16699 -57 -9.5 -81s-16.166 -46.167 -29.499 -66.5s-30.5 -40 -51.5 -59s-46.5 -38.5 -76.5 -58.5l-81 -55
c-23.333 -16.667 -42.5 -31.334 -57.5 -44.001s-26.833 -24.667 -35.5 -36s-15 -22.333 -19 -33s-6.66699 -22 -8 -34h341c12 0 18 -6 18 -18v-152c0 -12 -6 -18 -18 -18h-589c-12 0 -18 6 -18 18z" />
    <glyph glyph-name="threequarters" unicode="&#xbe;" horiz-adv-x="2016" 
d="M92 619l10.002 159c0.666992 12 7 17.667 19 17c40 -3.33301 78 -5.5 114 -6.5s69.333 -1.5 100 -1.5c52 0 90.5 6.33301 115.5 19s37.5 36.667 37.5 72v19c0 14 -1.83301 26.5 -5.5 37.5s-10.5 20 -20.5 27s-23.5 12.333 -40.5 16s-38.5 5.5 -64.5 5.5h-137
c-12 0 -18 6 -18 18v119c0 12 6 18 18 18h131c27.333 0 49.833 1.5 67.5 4.5s31.667 7.5 42 13.5s17.5 13.5 21.5 22.5s6 19.5 6 31.5v11c0 30.667 -13 51 -39 61s-64 15 -114 15c-36 0 -71.667 -0.666992 -107 -2s-69.333 -3 -102 -5c-12 -0.666992 -18.333 5 -19 17
l-11 158c-0.666992 12 5 19 17 21c32 4.66699 68.167 8.5 108.5 11.5s83.166 4.5 128.499 4.5c57.333 0 108.166 -4.16699 152.499 -12.5s81.833 -21.5 112.5 -39.5s53.834 -41.5 69.501 -70.5s23.5 -63.833 23.5 -104.5v-18c0 -48.667 -11.5 -89.334 -34.5 -122.001
s-57.833 -55.667 -104.5 -69c43.333 -17.333 77.333 -43.666 102 -78.999s37 -81 37 -137v-17c0 -50 -7.83301 -91.167 -23.5 -123.5s-38.5 -58 -68.5 -77s-66.833 -32.167 -110.5 -39.5s-93.5 -11 -149.5 -11c-46 0 -90.333 1.5 -133 4.5s-80.667 6.83301 -114 11.5
c-6.66699 1.33301 -11.334 3.33301 -14.001 6s-3.66699 7.66699 -3 15zM424.002 16l815 1443c3.33301 6 6.83301 10.167 10.5 12.5s9.16699 3.5 16.5 3.5h258c12 0 15 -5.33301 9 -16l-816 -1443c-3.33301 -6 -6.83301 -10.167 -10.5 -12.5s-9.16699 -3.5 -16.5 -3.5h-257
c-12 -0 -15 5.33301 -9 16zM1172 210v189.001c0 11.333 3.33301 22.333 10 33l321 456c3.33301 5.33301 7 9.16602 11 11.499s9.66699 3.5 17 3.5h301c12 0 18 -6 18 -18v-497h82c12 0 18 -6 18 -18v-160c0 -12 -6 -18 -18 -18h-82v-174c0 -12 -6 -18 -18 -18h-181
c-12 0 -18 6 -18 18v174h-443c-12 0 -18 6 -18 18zM1407 388.001h226v308h-20l-206 -291v-17z" />
    <glyph glyph-name="questiondown" unicode="&#xbf;" horiz-adv-x="884" 
d="M58 -114c0 32 3.16797 61.3262 9.50098 87.9932s16.5 52.834 30.5 78.501s32.167 52 54.5 79s49.166 56.5 80.499 88.5l85 88c24 24.667 42.667 45.334 56 62.001s23.5 33.167 30.5 49.5s11.333 34.5 13 54.5s2.5 45.667 2.5 77v35c0 12 6 18 18 18h209
c7.33301 0 12.333 -1.16699 15 -3.5s4.66699 -7.16602 6 -14.499c2 -11.333 4 -26.166 6 -44.499s3 -37.166 3 -56.499c0 -25.333 -1.33301 -49.166 -4 -71.499s-8.5 -44.666 -17.5 -66.999s-22 -45.333 -39 -69s-39.833 -49.5 -68.5 -77.5l-75 -70l-55.5 -55.5
c-15.667 -16.333 -28.5 -31.833 -38.5 -46.5s-17.333 -29.334 -22 -44.001s-7 -30.334 -7 -47.001c0 -39.333 15.833 -67.666 47.5 -84.999s82.5 -26 152.5 -26c37.333 0 74.5 1.66699 111.5 5s78.167 8.66602 123.5 15.999c12 2 19 -3 21 -15l34 -204
c2 -11.333 -2.66699 -18.666 -14 -21.999c-44.667 -12.667 -95.167 -22 -151.5 -28s-113.833 -9 -172.5 -9c-68 0 -129.333 5.33301 -184 16s-101.167 27.834 -139.5 51.501s-68 54.5 -89 92.5s-31.5 84.667 -31.5 140v17zM415.001 754.993v298.002c0 12 6 18 18 18h220
c12 0 18 -6 18 -18v-264c0 -12.667 -6 -19.334 -18 -20.001l-220 -30c-12 -0.666992 -18 4.66602 -18 15.999z" />
    <glyph glyph-name="Agrave" unicode="&#xc0;" horiz-adv-x="1343" 
d="M15 17l467 1441c2.66699 6.66699 5.5 11.167 8.5 13.5s8.16699 3.5 15.5 3.5h330c7.33301 0 12.5 -1.16699 15.5 -3.5s5.83301 -6.83301 8.5 -13.5l469 -1441c4 -11.333 0 -17 -12 -17h-256c-7.33301 0 -12.5 1.16699 -15.5 3.5s-5.5 6.83301 -7.5 13.5l-87 283h-562
l-86 -283c-2 -6.66699 -4.5 -11.167 -7.5 -13.5s-8.16699 -3.5 -15.5 -3.5h-253c-12 0 -16 5.66699 -12 17zM359 1827.5c0.666992 2.33301 3.66797 3.50098 9.00098 3.50098h269c7.33301 0 13 -0.833008 17 -2.5s8.33301 -5.16699 13 -10.5l190 -204
c7.33301 -8.66699 5.33301 -13 -6 -13h-209c-12.667 0 -23.334 4 -32.001 12l-246 206c-4 3.33301 -5.66699 6.16602 -5 8.49902zM463.001 540.001h415l-208 677z" />
    <glyph glyph-name="Aacute" unicode="&#xc1;" horiz-adv-x="1343" 
d="M15 17l467 1441c2.66699 6.66699 5.5 11.167 8.5 13.5s8.16699 3.5 15.5 3.5h330c7.33301 0 12.5 -1.16699 15.5 -3.5s5.83301 -6.83301 8.5 -13.5l469 -1441c4 -11.333 0 -17 -12 -17h-256c-7.33301 0 -12.5 1.16699 -15.5 3.5s-5.5 6.83301 -7.5 13.5l-87 283h-562
l-86 -283c-2 -6.66699 -4.5 -11.167 -7.5 -13.5s-8.16699 -3.5 -15.5 -3.5h-253c-12 0 -16 5.66699 -12 17zM463 540h415l-208 677zM502 1614l190.001 203.999c4.66699 5.33301 9 8.83301 13 10.5s9.66699 2.5 17 2.5h269c5.33301 0 8.33301 -1.16699 9 -3.5
s-1 -5.16602 -5 -8.49902l-246 -206c-8.66699 -8 -19.334 -12 -32.001 -12h-209c-11.333 0 -13.333 4.33301 -6 13z" />
    <glyph glyph-name="Acircumflex" unicode="&#xc2;" horiz-adv-x="1343" 
d="M15 17l467 1441c2.66699 6.66699 5.5 11.167 8.5 13.5s8.16699 3.5 15.5 3.5h330c7.33301 0 12.5 -1.16699 15.5 -3.5s5.83301 -6.83301 8.5 -13.5l469 -1441c4 -11.333 0 -17 -12 -17h-256c-7.33301 0 -12.5 1.16699 -15.5 3.5s-5.5 6.83301 -7.5 13.5l-87 283h-562
l-86 -283c-2 -6.66699 -4.5 -11.167 -7.5 -13.5s-8.16699 -3.5 -15.5 -3.5h-253c-12 0 -16 5.66699 -12 17zM333 1614l205.002 204c5.33301 5.33301 10.166 8.83301 14.499 10.5s9.83301 2.5 16.5 2.5h206c6.66699 0 12.167 -0.833008 16.5 -2.5
s9.16602 -5.16699 14.499 -10.5l205 -204c8.66699 -8.66699 7 -13 -5 -13h-203c-12 0 -22 4.33301 -30 13l-91 96h-20l-90 -96c-8 -8.66699 -18 -13 -30 -13h-204c-12 0 -13.667 4.33301 -5 13zM463.002 540h415l-208 677z" />
    <glyph glyph-name="Atilde" unicode="&#xc3;" horiz-adv-x="1343" 
d="M15 17l467 1441c2.66699 6.66699 5.5 11.167 8.5 13.5s8.16699 3.5 15.5 3.5h330c7.33301 0 12.5 -1.16699 15.5 -3.5s5.83301 -6.83301 8.5 -13.5l469 -1441c4 -11.333 0 -17 -12 -17h-256c-7.33301 0 -12.5 1.16699 -15.5 3.5s-5.5 6.83301 -7.5 13.5l-87 283h-562
l-86 -283c-2 -6.66699 -4.5 -11.167 -7.5 -13.5s-8.16699 -3.5 -15.5 -3.5h-253c-12 0 -16 5.66699 -12 17zM307 1613l-0.00292969 52.002c0 49.333 6 88.833 18 118.5s27.5 52.5 46.5 68.5s40.167 26.5 63.5 31.5s46.666 7.5 69.999 7.5
c28.667 0 54.334 -3.83301 77.001 -11.5s47.667 -19.834 75 -36.501l44 -25l62.5 -35c15 -8 29.167 -12 42.5 -12c8 0 15 1 21 3s11 6.33301 15 13s7.16699 16.334 9.5 29.001s3.83301 30 4.5 52c0 12 6 18 18 18h144c12 0 18 -6 18 -18v-52
c0 -49.333 -6 -88.833 -18 -118.5s-27.5 -52.5 -46.5 -68.5s-40.167 -26.667 -63.5 -32s-46.666 -8 -69.999 -8c-28.667 0 -54.167 3.66699 -76.5 11s-47.5 19.666 -75.5 36.999l-44 27c-26 15.333 -46.5 26.833 -61.5 34.5s-28.833 11.5 -41.5 11.5
c-8 0 -15.167 -1 -21.5 -3s-11.666 -6.33301 -15.999 -13s-7.66602 -16.334 -9.99902 -29.001s-3.83301 -30 -4.5 -52c0 -12 -6 -18 -18 -18h-144c-12 0 -18 6 -18 18zM462.997 540.002h415l-208 677z" />
    <glyph glyph-name="Adieresis" unicode="&#xc4;" horiz-adv-x="1343" 
d="M15 17l467 1441c2.66699 6.66699 5.5 11.167 8.5 13.5s8.16699 3.5 15.5 3.5h330c7.33301 0 12.5 -1.16699 15.5 -3.5s5.83301 -6.83301 8.5 -13.5l469 -1441c4 -11.333 0 -17 -12 -17h-256c-7.33301 0 -12.5 1.16699 -15.5 3.5s-5.5 6.83301 -7.5 13.5l-87 283h-562
l-86 -283c-2 -6.66699 -4.5 -11.167 -7.5 -13.5s-8.16699 -3.5 -15.5 -3.5h-253c-12 0 -16 5.66699 -12 17zM350 1619l0.000976562 207c0 6.66699 1.16699 11.5 3.5 14.5s7.16602 5.16699 14.499 6.5l212 29c12 2 18 -3 18 -15v-242c0 -12 -6 -18 -18 -18h-212
c-12 0 -18 6 -18 18zM463.001 540h415l-208 677zM747.001 1619l0.000976562 207c0 6.66699 1.16699 11.5 3.5 14.5s7.16602 5.16699 14.499 6.5l212 29c12 2 18 -3 18 -15v-242c0 -12 -6 -18 -18 -18h-212c-12 0 -18 6 -18 18z" />
    <glyph glyph-name="Aring" unicode="&#xc5;" horiz-adv-x="1334" 
d="M11 17l465 1434c-13.333 17.333 -23 36.333 -29 57s-9 42.667 -9 66v14c0 27.333 4.5 53.333 13.5 78s23 46.334 42 65.001s42.833 33.5 71.5 44.5s63 16.5 103 16.5c39.333 0 73.333 -5.5 102 -16.5s52.5 -25.833 71.5 -44.5s33.167 -40.334 42.5 -65.001
s14 -50.667 14 -78v-14c0 -23.333 -3.33301 -45.5 -10 -66.5s-16.667 -40.167 -30 -57.5l467 -1433c4 -11.333 0 -17 -12 -17h-256c-7.33301 0 -12.5 1.16699 -15.5 3.5s-5.5 6.83301 -7.5 13.5l-87 283h-562l-86 -283c-2 -6.66699 -4.5 -11.167 -7.5 -13.5
s-8.16699 -3.5 -15.5 -3.5h-253c-12 0 -16 5.66699 -12 17zM459 540h415l-208 677zM595 1573c0 -17.333 7.16699 -32.333 21.5 -45s33.833 -19 58.5 -19c25.333 0 45.166 6.33301 59.499 19s21.5 27.667 21.5 45v17c0 17.333 -7.16699 32.5 -21.5 45.5
s-34.166 19.5 -59.499 19.5c-24.667 0 -44.167 -6.5 -58.5 -19.5s-21.5 -28.167 -21.5 -45.5v-17z" />
    <glyph glyph-name="AE" unicode="&#xc6;" horiz-adv-x="1772" 
d="M-18 17l614 1441c2.66699 6.66699 5.66699 11.167 9 13.5s8.66602 3.5 15.999 3.5h1035c12 0 18 -6 18 -18v-216c0 -12 -6 -18 -18 -18h-534v-334h379c12 0 18 -6 18 -18v-215c0 -12 -6 -18 -18 -18h-379v-386h534c12 0 18 -6 18 -18v-216c0 -12 -6 -18 -18 -18h-780
c-12 0 -18 6 -18 18v287h-466l-119 -288c-2.66699 -6.66699 -5.66699 -11.167 -9 -13.5s-8.66602 -3.5 -15.999 -3.5h-255c-12 0 -15.667 5.66699 -11 17zM490 542h368v681h-86z" />
    <glyph glyph-name="Ccedilla" unicode="&#xc7;" horiz-adv-x="1197" 
d="M110 665v146.996c0 130.667 14.333 240.167 43 328.5s70.167 159.333 124.5 213s121 91.834 200 114.501s168.5 34 268.5 34c34 0 67.833 -1 101.5 -3s65.834 -5 96.501 -9s59.667 -8.83301 87 -14.5s51.666 -11.834 72.999 -18.501c11.333 -3.33301 16 -11 14 -23
l-33 -201c-2 -12 -9 -16.667 -21 -14c-50 10 -101.167 17 -153.5 21s-103.833 6 -154.5 6c-61.333 0 -115.5 -6.83301 -162.5 -20.5s-86.5 -37 -118.5 -70s-56.333 -76.667 -73 -131s-25 -121.833 -25 -202.5v-167c0 -81.333 8.16699 -149.333 24.5 -204
s40.5 -98.5 72.5 -131.5s71.667 -56.333 119 -70s101.666 -20.5 162.999 -20.5c58 0 113.5 1.83301 166.5 5.5s104.167 8.83398 153.5 15.501c12 2 19 -3 21 -15l29 -205c1.33301 -7.33301 1 -12.5 -1 -15.5s-6.33301 -5.5 -13 -7.5c-22 -5.33301 -47 -10.166 -75 -14.499
s-57.667 -8 -89 -11s-64.166 -5.33301 -98.499 -7s-68.833 -2.5 -103.5 -2.5c-100 0 -189.5 11.333 -268.5 34s-145.667 60.834 -200 114.501s-95.833 124.834 -124.5 213.501s-43 199 -43 331zM492 -373.004l150.999 255c3.33301 6 6.83301 10.167 10.5 12.5
s9.16699 3.5 16.5 3.5h182c11.333 0 14.666 -5.33301 9.99902 -16l-135 -255c-3.33301 -6 -6.66602 -10.167 -9.99902 -12.5s-8.66602 -3.5 -15.999 -3.5h-200c-12 0 -15 5.33301 -9 16z" />
    <glyph glyph-name="Egrave" unicode="&#xc8;" horiz-adv-x="1202" 
d="M168 18v1439c0 12 6 18 18 18h894c12 0 18 -6 18 -18v-216c0 -12 -6 -18 -18 -18h-646v-334h519c12 0 18 -6 18 -18v-215c0 -12 -6 -18 -18 -18h-519v-386h646c12 0 18 -6 18 -18v-216c0 -12 -6 -18 -18 -18h-894c-12 0 -18 6 -18 18zM323 1827.5
c0.666992 2.33301 3.66797 3.50098 9.00098 3.50098h269c7.33301 0 13 -0.833008 17 -2.5s8.33301 -5.16699 13 -10.5l190 -204c7.33301 -8.66699 5.33301 -13 -6 -13h-209c-12.667 0 -23.334 4 -32.001 12l-246 206c-4 3.33301 -5.66699 6.16602 -5 8.49902z" />
    <glyph glyph-name="Eacute" unicode="&#xc9;" horiz-adv-x="1202" 
d="M168 18v1439c0 12 6 18 18 18h894c12 0 18 -6 18 -18v-216c0 -12 -6 -18 -18 -18h-646v-334h519c12 0 18 -6 18 -18v-215c0 -12 -6 -18 -18 -18h-519v-386h646c12 0 18 -6 18 -18v-216c0 -12 -6 -18 -18 -18h-894c-12 0 -18 6 -18 18zM459 1614l190.001 203.999
c4.66699 5.33301 9 8.83301 13 10.5s9.66699 2.5 17 2.5h269c5.33301 0 8.33301 -1.16699 9 -3.5s-1 -5.16602 -5 -8.49902l-246 -206c-8.66699 -8 -19.334 -12 -32.001 -12h-209c-11.333 0 -13.333 4.33301 -6 13z" />
    <glyph glyph-name="Ecircumflex" unicode="&#xca;" horiz-adv-x="1202" 
d="M168 18v1439c0 12 6 18 18 18h894c12 0 18 -6 18 -18v-216c0 -12 -6 -18 -18 -18h-646v-334h519c12 0 18 -6 18 -18v-215c0 -12 -6 -18 -18 -18h-519v-386h646c12 0 18 -6 18 -18v-216c0 -12 -6 -18 -18 -18h-894c-12 0 -18 6 -18 18zM289 1614l205.002 204
c5.33301 5.33301 10.166 8.83301 14.499 10.5s9.83301 2.5 16.5 2.5h206c6.66699 0 12.167 -0.833008 16.5 -2.5s9.16602 -5.16699 14.499 -10.5l205 -204c8.66699 -8.66699 7 -13 -5 -13h-203c-12 0 -22 4.33301 -30 13l-91 96h-20l-90 -96c-8 -8.66699 -18 -13 -30 -13
h-204c-12 0 -13.667 4.33301 -5 13z" />
    <glyph glyph-name="Edieresis" unicode="&#xcb;" horiz-adv-x="1202" 
d="M168 18v1439c0 12 6 18 18 18h894c12 0 18 -6 18 -18v-216c0 -12 -6 -18 -18 -18h-646v-334h519c12 0 18 -6 18 -18v-215c0 -12 -6 -18 -18 -18h-519v-386h646c12 0 18 -6 18 -18v-216c0 -12 -6 -18 -18 -18h-894c-12 0 -18 6 -18 18zM292 1619l0.000976562 207
c0 6.66699 1.16699 11.5 3.5 14.5s7.16602 5.16699 14.499 6.5l212 29c12 2 18 -3 18 -15v-242c0 -12 -6 -18 -18 -18h-212c-12 0 -18 6 -18 18zM689.001 1619l0.000976562 207c0 6.66699 1.16699 11.5 3.5 14.5s7.16602 5.16699 14.499 6.5l212 29c12 2 18 -3 18 -15v-242
c0 -12 -6 -18 -18 -18h-212c-12 0 -18 6 -18 18z" />
    <glyph glyph-name="Igrave" unicode="&#xcc;" horiz-adv-x="601" 
d="M6 1827.5c0.666992 2.33301 3.66797 3.50098 9.00098 3.50098h269c7.33301 0 13 -0.833008 17 -2.5s8.33301 -5.16699 13 -10.5l190 -204c7.33301 -8.66699 5.33301 -13 -6 -13h-209c-12.667 0 -23.334 4 -32.001 12l-246 206c-4 3.33301 -5.66699 6.16602 -5 8.49902z
M168.001 18.001v1439c0 12 6 18 18 18h230c12 0 18 -6 18 -18v-1439c0 -12 -6 -18 -18 -18h-230c-12 0 -18 6 -18 18z" />
    <glyph glyph-name="Iacute" unicode="&#xcd;" horiz-adv-x="602" 
d="M54 1614l190.001 203.999c4.66699 5.33301 9 8.83301 13 10.5s9.66699 2.5 17 2.5h269c5.33301 0 8.33301 -1.16699 9 -3.5s-1 -5.16602 -5 -8.49902l-246 -206c-8.66699 -8 -19.334 -12 -32.001 -12h-209c-11.333 0 -13.333 4.33301 -6 13zM168.001 17.999v1439
c0 12 6 18 18 18h230c12 0 18 -6 18 -18v-1439c0 -12 -6 -18 -18 -18h-230c-12 0 -18 6 -18 18z" />
    <glyph glyph-name="Icircumflex" unicode="&#xce;" horiz-adv-x="601" 
d="M-38 1614l205.002 204c5.33301 5.33301 10.166 8.83301 14.499 10.5s9.83301 2.5 16.5 2.5h206c6.66699 0 12.167 -0.833008 16.5 -2.5s9.16602 -5.16699 14.499 -10.5l205 -204c8.66699 -8.66699 7 -13 -5 -13h-203c-12 0 -22 4.33301 -30 13l-91 96h-20l-90 -96
c-8 -8.66699 -18 -13 -30 -13h-204c-12 0 -13.667 4.33301 -5 13zM168.002 18v1439c0 12 6 18 18 18h230c12 0 18 -6 18 -18v-1439c0 -12 -6 -18 -18 -18h-230c-12 0 -18 6 -18 18z" />
    <glyph glyph-name="Idieresis" unicode="&#xcf;" horiz-adv-x="601" 
d="M-20 1619l0.000976562 207c0 6.66699 1.16699 11.5 3.5 14.5s7.16602 5.16699 14.499 6.5l212 29c12 2 18 -3 18 -15v-242c0 -12 -6 -18 -18 -18h-212c-12 0 -18 6 -18 18zM168.001 18v1439c0 12 6 18 18 18h230c12 0 18 -6 18 -18v-1439c0 -12 -6 -18 -18 -18h-230
c-12 0 -18 6 -18 18zM377.001 1619l0.000976562 207c0 6.66699 1.16699 11.5 3.5 14.5s7.16602 5.16699 14.499 6.5l212 29c12 2 18 -3 18 -15v-242c0 -12 -6 -18 -18 -18h-212c-12 0 -18 6 -18 18z" />
    <glyph glyph-name="Eth" unicode="&#xd0;" horiz-adv-x="1431" 
d="M43 664l0.00195312 206.998c0 12 6 18 18 18h121v568c0 12 6 18.333 18 19c26.667 2 56.167 3.83301 88.5 5.5s64.333 3 96 4s62 1.83301 91 2.5s53.5 1 73.5 1c77.333 0 150.166 -3.16699 218.499 -9.5s131.333 -18.5 189 -36.5s109.334 -43 155.001 -75
s84.334 -73.833 116.001 -125.5s56 -114.167 73 -187.5s25.5 -160 25.5 -260v-113c0 -100 -8.5 -186.833 -25.5 -260.5s-41.333 -136.334 -73 -188.001s-70.334 -93.667 -116.001 -126s-97.334 -57.666 -155.001 -75.999s-120.667 -30.833 -189 -37.5
s-141.166 -10 -218.499 -10c-22.667 0 -48.167 0.333008 -76.5 1s-57.833 1.5 -88.5 2.5s-61.834 2.33301 -93.501 4s-61.834 3.83398 -90.501 6.50098c-12 0.666992 -18 7.33398 -18 20.001v628h-121c-12 0 -18 6 -18 18zM447.002 228.998
c10.667 -1.33301 23.8369 -2.49805 39.5039 -3.49805s31.5 -1.83301 47.5 -2.5s31.5 -1.16699 46.5 -1.5s27.833 -0.5 38.5 -0.5c74 0 138.667 6 194 18s101.166 34.667 137.499 68s63.666 79.666 81.999 138.999s27.5 136.666 27.5 231.999v119
c0 94.667 -9.5 171.5 -28.5 230.5s-47.5 105.167 -85.5 138.5s-85.5 56 -142.5 68s-123.5 18 -199.5 18c-10.667 0 -22.834 -0.166992 -36.501 -0.5l-42 -1c-14.333 -0.333008 -28.333 -1 -42 -2s-25.834 -2.16699 -36.501 -3.5v-356h234c12 0 18 -6 18 -18v-207
c0 -12 -6 -18 -18 -18h-234v-417z" />
    <glyph glyph-name="Ntilde" unicode="&#xd1;" horiz-adv-x="1484" 
d="M168 18l0.000976562 1439c0 12 6 18 18 18h257c7.33301 0 12.833 -1.16699 16.5 -3.5s7.16699 -6.5 10.5 -12.5l526 -895c17.333 -29.333 30.5 -53.833 39.5 -73.5s14.167 -29.5 15.5 -29.5l1 996c0 12 6 18 18 18h229c12 0 18 -6 18 -18v-1439c0 -12 -6 -18 -18 -18
h-257c-7.33301 0 -12.833 1.16699 -16.5 3.5s-7.16699 6.5 -10.5 12.5l-523 890c-19.333 32 -33.333 58.167 -42 78.5s-13.334 30.5 -14.001 30.5l-2 -997c0 -12 -6 -18 -18 -18h-230c-12 0 -18 6 -18 18zM378.001 1613l-0.00292969 52.002c0 49.333 6 88.833 18 118.5
s27.5 52.5 46.5 68.5s40.167 26.5 63.5 31.5s46.666 7.5 69.999 7.5c28.667 0 54.334 -3.83301 77.001 -11.5s47.667 -19.834 75 -36.501l44 -25l62.5 -35c15 -8 29.167 -12 42.5 -12c8 0 15 1 21 3s11 6.33301 15 13s7.16699 16.334 9.5 29.001s3.83301 30 4.5 52
c0 12 6 18 18 18h144c12 0 18 -6 18 -18v-52c0 -49.333 -6 -88.833 -18 -118.5s-27.5 -52.5 -46.5 -68.5s-40.167 -26.667 -63.5 -32s-46.666 -8 -69.999 -8c-28.667 0 -54.167 3.66699 -76.5 11s-47.5 19.666 -75.5 36.999l-44 27c-26 15.333 -46.5 26.833 -61.5 34.5
s-28.833 11.5 -41.5 11.5c-8 0 -15.167 -1 -21.5 -3s-11.666 -6.33301 -15.999 -13s-7.66602 -16.334 -9.99902 -29.001s-3.83301 -30 -4.5 -52c0 -12 -6 -18 -18 -18h-144c-12 0 -18 6 -18 18z" />
    <glyph glyph-name="Ograve" unicode="&#xd2;" horiz-adv-x="1441" 
d="M113 665v147.001c0 130.667 13.5 240.167 40.5 328.5s66.5 159.166 118.5 212.499s115.667 91.5 191 114.5s161.333 34.5 258 34.5s182.834 -11.333 258.501 -34s139.167 -60.834 190.5 -114.501s90.5 -124.834 117.5 -213.501s40.5 -198.667 40.5 -330v-147
c0 -131.333 -13.5 -241.166 -40.5 -329.499s-66.167 -159.333 -117.5 -213s-114.833 -91.834 -190.5 -114.501s-161.834 -34 -258.501 -34s-182.667 11.333 -258 34s-139 60.834 -191 114.501s-91.5 124.834 -118.5 213.501s-40.5 199 -40.5 331zM379 655.001
c0 -80 7.33301 -146.833 22 -200.5s36.5 -96.5 65.5 -128.5s64.667 -54.833 107 -68.5s91.5 -20.5 147.5 -20.5c55.333 0 104.333 6.83301 147 20.5s78.5 36.5 107.5 68.5s50.833 74.833 65.5 128.5s22 120.5 22 200.5v165c0 80 -7.33301 146.833 -22 200.5
s-36.5 96.5 -65.5 128.5s-64.833 54.833 -107.5 68.5s-91.667 20.5 -147 20.5c-56 0 -105.167 -6.66699 -147.5 -20s-78 -36 -107 -68s-50.833 -74.667 -65.5 -128s-22 -120 -22 -200v-167zM407 1827.5c0.666992 2.33301 3.66797 3.50098 9.00098 3.50098h269
c7.33301 0 13 -0.833008 17 -2.5s8.33301 -5.16699 13 -10.5l190 -204c7.33301 -8.66699 5.33301 -13 -6 -13h-209c-12.667 0 -23.334 4 -32.001 12l-246 206c-4 3.33301 -5.66699 6.16602 -5 8.49902z" />
    <glyph glyph-name="Oacute" unicode="&#xd3;" horiz-adv-x="1441" 
d="M113 665v147.001c0 130.667 13.5 240.167 40.5 328.5s66.5 159.166 118.5 212.499s115.667 91.5 191 114.5s161.333 34.5 258 34.5s182.834 -11.333 258.501 -34s139.167 -60.834 190.5 -114.501s90.5 -124.834 117.5 -213.501s40.5 -198.667 40.5 -330v-147
c0 -131.333 -13.5 -241.166 -40.5 -329.499s-66.167 -159.333 -117.5 -213s-114.833 -91.834 -190.5 -114.501s-161.834 -34 -258.501 -34s-182.667 11.333 -258 34s-139 60.834 -191 114.501s-91.5 124.834 -118.5 213.501s-40.5 199 -40.5 331zM379 655.001
c0 -80 7.33301 -146.833 22 -200.5s36.5 -96.5 65.5 -128.5s64.667 -54.833 107 -68.5s91.5 -20.5 147.5 -20.5c55.333 0 104.333 6.83301 147 20.5s78.5 36.5 107.5 68.5s50.833 74.833 65.5 128.5s22 120.5 22 200.5v165c0 80 -7.33301 146.833 -22 200.5
s-36.5 96.5 -65.5 128.5s-64.833 54.833 -107.5 68.5s-91.667 20.5 -147 20.5c-56 0 -105.167 -6.66699 -147.5 -20s-78 -36 -107 -68s-50.833 -74.667 -65.5 -128s-22 -120 -22 -200v-167zM514 1614l190.001 203.999c4.66699 5.33301 9 8.83301 13 10.5s9.66699 2.5 17 2.5
h269c5.33301 0 8.33301 -1.16699 9 -3.5s-1 -5.16602 -5 -8.49902l-246 -206c-8.66699 -8 -19.334 -12 -32.001 -12h-209c-11.333 0 -13.333 4.33301 -6 13z" />
    <glyph glyph-name="Ocircumflex" unicode="&#xd4;" horiz-adv-x="1441" 
d="M113 665v147.001c0 130.667 13.5 240.167 40.5 328.5s66.5 159.166 118.5 212.499s115.667 91.5 191 114.5s161.333 34.5 258 34.5s182.834 -11.333 258.501 -34s139.167 -60.834 190.5 -114.501s90.5 -124.834 117.5 -213.501s40.5 -198.667 40.5 -330v-147
c0 -131.333 -13.5 -241.166 -40.5 -329.499s-66.167 -159.333 -117.5 -213s-114.833 -91.834 -190.5 -114.501s-161.834 -34 -258.501 -34s-182.667 11.333 -258 34s-139 60.834 -191 114.501s-91.5 124.834 -118.5 213.501s-40.5 199 -40.5 331zM379 655.001
c0 -80 7.33301 -146.833 22 -200.5s36.5 -96.5 65.5 -128.5s64.667 -54.833 107 -68.5s91.5 -20.5 147.5 -20.5c55.333 0 104.333 6.83301 147 20.5s78.5 36.5 107.5 68.5s50.833 74.833 65.5 128.5s22 120.5 22 200.5v165c0 80 -7.33301 146.833 -22 200.5
s-36.5 96.5 -65.5 128.5s-64.833 54.833 -107.5 68.5s-91.667 20.5 -147 20.5c-56 0 -105.167 -6.66699 -147.5 -20s-78 -36 -107 -68s-50.833 -74.667 -65.5 -128s-22 -120 -22 -200v-167zM381 1614l205.002 204c5.33301 5.33301 10.166 8.83301 14.499 10.5
s9.83301 2.5 16.5 2.5h206c6.66699 0 12.167 -0.833008 16.5 -2.5s9.16602 -5.16699 14.499 -10.5l205 -204c8.66699 -8.66699 7 -13 -5 -13h-203c-12 0 -22 4.33301 -30 13l-91 96h-20l-90 -96c-8 -8.66699 -18 -13 -30 -13h-204c-12 0 -13.667 4.33301 -5 13z" />
    <glyph glyph-name="Otilde" unicode="&#xd5;" horiz-adv-x="1441" 
d="M113 665v147.001c0 130.667 13.5 240.167 40.5 328.5s66.5 159.166 118.5 212.499s115.667 91.5 191 114.5s161.333 34.5 258 34.5s182.834 -11.333 258.501 -34s139.167 -60.834 190.5 -114.501s90.5 -124.834 117.5 -213.501s40.5 -198.667 40.5 -330v-147
c0 -131.333 -13.5 -241.166 -40.5 -329.499s-66.167 -159.333 -117.5 -213s-114.833 -91.834 -190.5 -114.501s-161.834 -34 -258.501 -34s-182.667 11.333 -258 34s-139 60.834 -191 114.501s-91.5 124.834 -118.5 213.501s-40.5 199 -40.5 331zM356 1613
l-0.00292969 52.002c0 49.333 6 88.833 18 118.5s27.5 52.5 46.5 68.5s40.167 26.5 63.5 31.5s46.666 7.5 69.999 7.5c28.667 0 54.334 -3.83301 77.001 -11.5s47.667 -19.834 75 -36.501l44 -25l62.5 -35c15 -8 29.167 -12 42.5 -12c8 0 15 1 21 3s11 6.33301 15 13
s7.16699 16.334 9.5 29.001s3.83301 30 4.5 52c0 12 6 18 18 18h144c12 0 18 -6 18 -18v-52c0 -49.333 -6 -88.833 -18 -118.5s-27.5 -52.5 -46.5 -68.5s-40.167 -26.667 -63.5 -32s-46.666 -8 -69.999 -8c-28.667 0 -54.167 3.66699 -76.5 11s-47.5 19.666 -75.5 36.999
l-44 27c-26 15.333 -46.5 26.833 -61.5 34.5s-28.833 11.5 -41.5 11.5c-8 0 -15.167 -1 -21.5 -3s-11.666 -6.33301 -15.999 -13s-7.66602 -16.334 -9.99902 -29.001s-3.83301 -30 -4.5 -52c0 -12 -6 -18 -18 -18h-144c-12 0 -18 6 -18 18zM378.997 655.003
c0 -80 7.33301 -146.833 22 -200.5s36.5 -96.5 65.5 -128.5s64.667 -54.833 107 -68.5s91.5 -20.5 147.5 -20.5c55.333 0 104.333 6.83301 147 20.5s78.5 36.5 107.5 68.5s50.833 74.833 65.5 128.5s22 120.5 22 200.5v165c0 80 -7.33301 146.833 -22 200.5
s-36.5 96.5 -65.5 128.5s-64.833 54.833 -107.5 68.5s-91.667 20.5 -147 20.5c-56 0 -105.167 -6.66699 -147.5 -20s-78 -36 -107 -68s-50.833 -74.667 -65.5 -128s-22 -120 -22 -200v-167z" />
    <glyph glyph-name="Odieresis" unicode="&#xd6;" horiz-adv-x="1441" 
d="M113 665v147.001c0 130.667 13.5 240.167 40.5 328.5s66.5 159.166 118.5 212.499s115.667 91.5 191 114.5s161.333 34.5 258 34.5s182.834 -11.333 258.501 -34s139.167 -60.834 190.5 -114.501s90.5 -124.834 117.5 -213.501s40.5 -198.667 40.5 -330v-147
c0 -131.333 -13.5 -241.166 -40.5 -329.499s-66.167 -159.333 -117.5 -213s-114.833 -91.834 -190.5 -114.501s-161.834 -34 -258.501 -34s-182.667 11.333 -258 34s-139 60.834 -191 114.501s-91.5 124.834 -118.5 213.501s-40.5 199 -40.5 331zM379 655.001
c0 -80 7.33301 -146.833 22 -200.5s36.5 -96.5 65.5 -128.5s64.667 -54.833 107 -68.5s91.5 -20.5 147.5 -20.5c55.333 0 104.333 6.83301 147 20.5s78.5 36.5 107.5 68.5s50.833 74.833 65.5 128.5s22 120.5 22 200.5v165c0 80 -7.33301 146.833 -22 200.5
s-36.5 96.5 -65.5 128.5s-64.833 54.833 -107.5 68.5s-91.667 20.5 -147 20.5c-56 0 -105.167 -6.66699 -147.5 -20s-78 -36 -107 -68s-50.833 -74.667 -65.5 -128s-22 -120 -22 -200v-167zM398 1619l0.000976562 207c0 6.66699 1.16699 11.5 3.5 14.5
s7.16602 5.16699 14.499 6.5l212 29c12 2 18 -3 18 -15v-242c0 -12 -6 -18 -18 -18h-212c-12 0 -18 6 -18 18zM795.001 1619l0.000976562 207c0 6.66699 1.16699 11.5 3.5 14.5s7.16602 5.16699 14.499 6.5l212 29c12 2 18 -3 18 -15v-242c0 -12 -6 -18 -18 -18h-212
c-12 0 -18 6 -18 18z" />
    <glyph glyph-name="multiply" unicode="&#xd7;" horiz-adv-x="1035" 
d="M108 1023c0 3.33301 2.66699 7.66602 8 12.999l147 145c5.33301 5.33301 9.66602 8 12.999 8s7.66602 -2.66699 12.999 -8l228 -229l232 232c5.33301 5.33301 9.66602 8 12.999 8s7.66602 -2.66699 12.999 -8l145 -146c5.33301 -5.33301 8 -9.66602 8 -12.999
s-2.66699 -7.66602 -8 -12.999l-231 -231l230 -230c5.33301 -5.33301 8 -9.66602 8 -12.999s-2.66699 -7.66602 -8 -12.999l-146 -146c-5.33301 -5.33301 -9.66602 -8 -12.999 -8s-7.66602 2.66699 -12.999 8l-230 230l-227 -228c-5.33301 -5.33301 -9.66602 -8 -12.999 -8
s-7.66602 2.66699 -12.999 8l-145 147c-5.33301 5.33301 -8 9.66602 -8 12.999s2.66699 7.66602 8 12.999l226 226l-229 230c-5.33301 5.33301 -8 9.66602 -8 12.999z" />
    <glyph glyph-name="Oslash" unicode="&#xd8;" horiz-adv-x="1452" 
d="M38 14l166 214c-28.667 53.333 -50.167 115.833 -64.5 187.5s-21.5 154.834 -21.5 249.501v147c0 130.667 13.5 240.167 40.5 328.5s66.333 159.166 118 212.499s115.167 91.5 190.5 114.5s161.333 34.5 258 34.5c79.333 0 151.166 -7.83301 215.499 -23.5
s121.5 -41.167 171.5 -76.5l46 59c4 5.33301 8 9 12 11s9.66699 3 17 3h219c12 0 14.333 -4.66699 7 -14l-166 -215c28 -53.333 49.333 -115.833 64 -187.5s22 -154.5 22 -248.5v-147c0 -131.333 -13.5 -241.166 -40.5 -329.499s-66.333 -159.333 -118 -213
s-115.167 -91.834 -190.5 -114.501s-161.666 -34 -258.999 -34c-79.333 0 -151.333 7.83301 -216 23.5s-121.667 41.167 -171 76.5l-45 -58c-4 -5.33301 -8 -9 -12 -11s-9.66699 -3 -17 -3h-219c-12 0 -14.333 4.66699 -7 14zM383 647c0 -33.333 1 -64.002 3 -92.002
s5.33301 -54 10 -78l552 712c-28 20 -60.333 34.333 -97 43s-78.667 13 -126 13c-55.333 0 -104.333 -6.83301 -147 -20.5s-78.5 -36.667 -107.5 -69s-50.833 -75.666 -65.5 -129.999s-22 -122.166 -22 -203.499v-175zM502 283.998
c27.333 -19.333 59.333 -33.1689 96 -41.502s79 -12.5 127 -12.5c55.333 0 104.333 6.83301 147 20.5s78.5 36.834 107.5 69.501s50.833 76.334 65.5 131.001s22 122.667 22 204v172c0 32.667 -1.16699 63 -3.5 91s-5.83301 54 -10.5 78z" />
    <glyph glyph-name="Ugrave" unicode="&#xd9;" horiz-adv-x="1475" 
d="M156 493l-0.00195312 964.002c0 12 6 18 18 18h228c12 0 18 -6 18 -18v-903c0 -57.333 5.33301 -106.333 16 -147s28.334 -74.334 53.001 -101.001s57.334 -46.167 98.001 -58.5s90.667 -18.5 150 -18.5s109.333 6.16699 150 18.5s73.667 31.666 99 57.999
s43.666 60 54.999 101s17 90.167 17 147.5v903c0 12 6 18 18 18h227c12 0 18 -6 18 -18v-964c0 -94.667 -13.167 -175 -39.5 -241s-64.5 -119.833 -114.5 -161.5s-111.167 -71.834 -183.5 -90.501s-154.5 -28 -246.5 -28s-174.167 9.33301 -246.5 28
s-133.166 48.834 -182.499 90.501s-87 95.5 -113 161.5s-39 146.333 -39 241zM415.998 1827.5c0.666992 2.33301 3.66797 3.50098 9.00098 3.50098h269c7.33301 0 13 -0.833008 17 -2.5s8.33301 -5.16699 13 -10.5l190 -204c7.33301 -8.66699 5.33301 -13 -6 -13h-209
c-12.667 0 -23.334 4 -32.001 12l-246 206c-4 3.33301 -5.66699 6.16602 -5 8.49902z" />
    <glyph glyph-name="Uacute" unicode="&#xda;" horiz-adv-x="1475" 
d="M156 493l-0.00195312 964.002c0 12 6 18 18 18h228c12 0 18 -6 18 -18v-903c0 -57.333 5.33301 -106.333 16 -147s28.334 -74.334 53.001 -101.001s57.334 -46.167 98.001 -58.5s90.667 -18.5 150 -18.5s109.333 6.16699 150 18.5s73.667 31.666 99 57.999
s43.666 60 54.999 101s17 90.167 17 147.5v903c0 12 6 18 18 18h227c12 0 18 -6 18 -18v-964c0 -94.667 -13.167 -175 -39.5 -241s-64.5 -119.833 -114.5 -161.5s-111.167 -71.834 -183.5 -90.501s-154.5 -28 -246.5 -28s-174.167 9.33301 -246.5 28
s-133.166 48.834 -182.499 90.501s-87 95.5 -113 161.5s-39 146.333 -39 241zM540.998 1614l190.001 203.999c4.66699 5.33301 9 8.83301 13 10.5s9.66699 2.5 17 2.5h269c5.33301 0 8.33301 -1.16699 9 -3.5s-1 -5.16602 -5 -8.49902l-246 -206
c-8.66699 -8 -19.334 -12 -32.001 -12h-209c-11.333 0 -13.333 4.33301 -6 13z" />
    <glyph glyph-name="Ucircumflex" unicode="&#xdb;" horiz-adv-x="1475" 
d="M156 493l-0.00195312 964.002c0 12 6 18 18 18h228c12 0 18 -6 18 -18v-903c0 -57.333 5.33301 -106.333 16 -147s28.334 -74.334 53.001 -101.001s57.334 -46.167 98.001 -58.5s90.667 -18.5 150 -18.5s109.333 6.16699 150 18.5s73.667 31.666 99 57.999
s43.666 60 54.999 101s17 90.167 17 147.5v903c0 12 6 18 18 18h227c12 0 18 -6 18 -18v-964c0 -94.667 -13.167 -175 -39.5 -241s-64.5 -119.833 -114.5 -161.5s-111.167 -71.834 -183.5 -90.501s-154.5 -28 -246.5 -28s-174.167 9.33301 -246.5 28
s-133.166 48.834 -182.499 90.501s-87 95.5 -113 161.5s-39 146.333 -39 241zM397.998 1614l205.002 204c5.33301 5.33301 10.166 8.83301 14.499 10.5s9.83301 2.5 16.5 2.5h206c6.66699 0 12.167 -0.833008 16.5 -2.5s9.16602 -5.16699 14.499 -10.5l205 -204
c8.66699 -8.66699 7 -13 -5 -13h-203c-12 0 -22 4.33301 -30 13l-91 96h-20l-90 -96c-8 -8.66699 -18 -13 -30 -13h-204c-12 0 -13.667 4.33301 -5 13z" />
    <glyph glyph-name="Udieresis" unicode="&#xdc;" horiz-adv-x="1475" 
d="M156 493l-0.00195312 964.002c0 12 6 18 18 18h228c12 0 18 -6 18 -18v-903c0 -57.333 5.33301 -106.333 16 -147s28.334 -74.334 53.001 -101.001s57.334 -46.167 98.001 -58.5s90.667 -18.5 150 -18.5s109.333 6.16699 150 18.5s73.667 31.666 99 57.999
s43.666 60 54.999 101s17 90.167 17 147.5v903c0 12 6 18 18 18h227c12 0 18 -6 18 -18v-964c0 -94.667 -13.167 -175 -39.5 -241s-64.5 -119.833 -114.5 -161.5s-111.167 -71.834 -183.5 -90.501s-154.5 -28 -246.5 -28s-174.167 9.33301 -246.5 28
s-133.166 48.834 -182.499 90.501s-87 95.5 -113 161.5s-39 146.333 -39 241zM414.998 1619l0.000976562 207c0 6.66699 1.16699 11.5 3.5 14.5s7.16602 5.16699 14.499 6.5l212 29c12 2 18 -3 18 -15v-242c0 -12 -6 -18 -18 -18h-212c-12 0 -18 6 -18 18zM811.999 1619
l0.000976562 207c0 6.66699 1.16699 11.5 3.5 14.5s7.16602 5.16699 14.499 6.5l212 29c12 2 18 -3 18 -15v-242c0 -12 -6 -18 -18 -18h-212c-12 0 -18 6 -18 18z" />
    <glyph glyph-name="Yacute" unicode="&#xdd;" horiz-adv-x="1227" 
d="M3 1459c-4.66699 10.667 -1.32812 16 10.0049 16h262c7.33301 0 12.666 -1.16699 15.999 -3.5s6.66602 -6.5 9.99902 -12.5l314 -669l313 669c3.33301 6 6.66602 10.167 9.99902 12.5s8.66602 3.5 15.999 3.5h260c11.333 0 14.666 -5.33301 9.99902 -16l-477 -964v-477
c0 -12 -6 -18 -18 -18h-229c-12 0 -18 6 -18 18v477zM441.006 1614l190.001 203.999c4.66699 5.33301 9 8.83301 13 10.5s9.66699 2.5 17 2.5h269c5.33301 0 8.33301 -1.16699 9 -3.5s-1 -5.16602 -5 -8.49902l-246 -206c-8.66699 -8 -19.334 -12 -32.001 -12h-209
c-11.333 0 -13.333 4.33301 -6 13z" />
    <glyph glyph-name="Thorn" unicode="&#xde;" horiz-adv-x="1338" 
d="M168 18l0.00195312 1439c0 12 6 18 18 18h230c12 0 18 -6 18 -18v-181c32.667 1.33301 63.667 2.16602 93 2.49902s55.666 0.5 78.999 0.5c128 0 234.167 -6.66699 318.5 -20s151.333 -36.5 201 -69.5s84.5 -77.833 104.5 -134.5s30 -128 30 -214v-102
c0 -86.667 -10 -158.167 -30 -214.5s-54.833 -101 -104.5 -134s-116.667 -56 -201 -69s-190.5 -19.5 -318.5 -19.5h-44c-16.667 0 -33.334 0.166992 -50.001 0.5s-32.167 0.666016 -46.5 0.999023s-24.833 0.833008 -31.5 1.5v-287c0 -12 -6 -18 -18 -18h-230
c-12 0 -18 6 -18 18zM434.002 545.002c10.667 -1.33301 23.667 -2.33301 39 -3s31.166 -1.16699 47.499 -1.5l48 -1c15.667 -0.333008 29.5 -0.5 41.5 -0.5c75.333 0 137.666 2.66699 186.999 8s88.5 16 117.5 32s49.333 38.333 61 67s17.5 66.667 17.5 114v60
c0 46.667 -5.83301 84.5 -17.5 113.5s-32 51.5 -61 67.5s-68.167 26.833 -117.5 32.5s-111.666 8.5 -186.999 8.5c-12 0 -25.833 -0.166992 -41.5 -0.5s-31.667 -0.833008 -48 -1.5s-32.166 -1.5 -47.499 -2.5l-39 -2.5v-490z" />
    <glyph glyph-name="germandbls" unicode="&#xdf;" horiz-adv-x="1266" 
d="M139 18l0.000976562 1067c0 99.333 12.333 181.166 37 245.499s59.167 115.333 103.5 153s97.333 63.834 159 78.501s129.5 22 203.5 22c168 0 292.167 -35.333 372.5 -106s120.5 -171.334 120.5 -302.001v-17c0 -38 -4.16699 -74.833 -12.5 -110.5
s-21.666 -68.334 -39.999 -98.001s-41.833 -55.667 -70.5 -78s-63 -38.833 -103 -49.5c45.333 -11.333 84.333 -28.666 117 -51.999s59.667 -51.666 81 -84.999s37.166 -70.666 47.499 -111.999s15.5 -85.666 15.5 -132.999v-29c0 -79.333 -8 -147 -24 -203
s-41.5 -101.5 -76.5 -136.5s-79.833 -60.5 -134.5 -76.5s-121 -24 -199 -24c-34 0 -67.167 2.16699 -99.5 6.5s-61.833 10.166 -88.5 17.499c-12 2.66699 -17 10 -15 22l16 171c2 12 8.66699 17 20 15c36.667 -6 76.667 -9 120 -9c36 0 67.333 3.66699 94 11
s48.834 20.166 66.501 38.499s30.667 43 39 74s12.5 69.833 12.5 116.5v33c0 36.667 -3.5 69.167 -10.5 97.5s-19.333 52.666 -37 72.999s-41.334 36.5 -71.001 48.5s-67.5 19.667 -113.5 23l-67 3c-12 0.666992 -18 7 -18 19v178c0 12 6 18.333 18 19l62 4
c43.333 3.33301 78.666 11.166 105.999 23.499s48.5 27.833 63.5 46.5s25.167 39.5 30.5 62.5s8 46.833 8 71.5v12c0 69.333 -18.833 119.5 -56.5 150.5s-94.5 46.5 -170.5 46.5c-52 0 -94.5 -5.66699 -127.5 -17s-58.833 -29.166 -77.5 -53.499s-31.5 -55.5 -38.5 -93.5
s-10.5 -84 -10.5 -138v-1026c0 -12 -6 -18 -18 -18h-216c-12 0 -18 6 -18 18z" />
    <glyph glyph-name="agrave" unicode="&#xe0;" horiz-adv-x="1125" 
d="M73 307c0 45.333 3.16895 85.1748 9.50195 119.508s17.666 64.166 33.999 89.499s38.333 46.666 66 63.999s62.667 31.166 105 41.499s92.666 17.666 150.999 21.999s126.5 6.5 204.5 6.5h103v52c0 34 -3.16699 62.5 -9.5 85.5s-18.333 41.5 -36 55.5
s-42.167 24 -73.5 30s-72.333 9 -123 9c-48 0 -99.167 -1.5 -153.5 -4.5s-106.5 -7.16699 -156.5 -12.5c-12 -0.666992 -18 4.66602 -18 15.999v171c0 7.33301 1.16699 12.333 3.5 15s7.16602 4.66699 14.499 6c26.667 4 55.167 7.66699 85.5 11s60.5 6.16602 90.5 8.49902
s59 4.16602 87 5.49902s53 2 75 2c68.667 0 127.834 -3.5 177.501 -10.5s91.5 -17.667 125.5 -32s61.333 -32.833 82 -55.5s36.667 -49.5 48 -80.5s18.833 -66.5 22.5 -106.5s5.5 -85 5.5 -135v-657c0 -7.33301 -1.16699 -12.333 -3.5 -15
s-7.16602 -4.33398 -14.499 -5.00098c-34.667 -4.66699 -71 -9 -109 -13s-75.5 -7.33301 -112.5 -10s-72 -4.66699 -105 -6s-61.5 -2 -85.5 -2c-84.667 0 -157.834 5.33301 -219.501 16s-112.5 28.667 -152.5 54s-69.667 59.5 -89 102.5s-29 97.167 -29 162.5z
M263.002 1524.01c-7.33301 8.66699 -5.33301 12.999 6 12.999h258c7.33301 0 12.833 -1.16699 16.5 -3.5s7.5 -6.16602 11.5 -11.499l162 -240c6 -10 3.33301 -15 -8 -15h-200c-7.33301 0 -13 0.833008 -17 2.5s-8.33301 5.16699 -13 10.5zM303.002 316.008
c0 -32 6.5 -57.333 19.5 -76s30.833 -33 53.5 -43s49.5 -16.333 80.5 -19s64.833 -4 101.5 -4c32.667 0 65.834 0.833008 99.501 2.5s63.167 4.5 88.5 8.5v273h-110c-69.333 0 -125.5 -1.83301 -168.5 -5.5s-76.833 -10.834 -101.5 -21.501s-41.334 -25.167 -50.001 -43.5
s-13 -42.166 -13 -71.499z" />
    <glyph glyph-name="aacute" unicode="&#xe1;" horiz-adv-x="1125" 
d="M73 307c0 45.333 3.16895 85.1748 9.50195 119.508s17.666 64.166 33.999 89.499s38.333 46.666 66 63.999s62.667 31.166 105 41.499s92.666 17.666 150.999 21.999s126.5 6.5 204.5 6.5h103v52c0 34 -3.16699 62.5 -9.5 85.5s-18.333 41.5 -36 55.5
s-42.167 24 -73.5 30s-72.333 9 -123 9c-48 0 -99.167 -1.5 -153.5 -4.5s-106.5 -7.16699 -156.5 -12.5c-12 -0.666992 -18 4.66602 -18 15.999v171c0 7.33301 1.16699 12.333 3.5 15s7.16602 4.66699 14.499 6c26.667 4 55.167 7.66699 85.5 11s60.5 6.16602 90.5 8.49902
s59 4.16602 87 5.49902s53 2 75 2c68.667 0 127.834 -3.5 177.501 -10.5s91.5 -17.667 125.5 -32s61.333 -32.833 82 -55.5s36.667 -49.5 48 -80.5s18.833 -66.5 22.5 -106.5s5.5 -85 5.5 -135v-657c0 -7.33301 -1.16699 -12.333 -3.5 -15
s-7.16602 -4.33398 -14.499 -5.00098c-34.667 -4.66699 -71 -9 -109 -13s-75.5 -7.33301 -112.5 -10s-72 -4.66699 -105 -6s-61.5 -2 -85.5 -2c-84.667 0 -157.834 5.33301 -219.501 16s-112.5 28.667 -152.5 54s-69.667 59.5 -89 102.5s-29 97.167 -29 162.5z
M303.002 316.009c0 -32 6.5 -57.333 19.5 -76s30.833 -33 53.5 -43s49.5 -16.333 80.5 -19s64.833 -4 101.5 -4c32.667 0 65.834 0.833008 99.501 2.5s63.167 4.5 88.5 8.5v273h-110c-69.333 0 -125.5 -1.83301 -168.5 -5.5s-76.833 -10.834 -101.5 -21.501
s-41.334 -25.167 -50.001 -43.5s-13 -42.166 -13 -71.499zM389.002 1282.01l162 240.001c4 5.33301 7.83301 9.16602 11.5 11.499s9.16699 3.5 16.5 3.5h258c11.333 0 13.333 -4.33301 6 -13l-216 -244c-4.66699 -5.33301 -9 -8.83301 -13 -10.5s-9.66699 -2.5 -17 -2.5
h-200c-11.333 0 -14 5 -8 15z" />
    <glyph glyph-name="acircumflex" unicode="&#xe2;" horiz-adv-x="1125" 
d="M73 307c0 45.333 3.16895 85.1748 9.50195 119.508s17.666 64.166 33.999 89.499s38.333 46.666 66 63.999s62.667 31.166 105 41.499s92.666 17.666 150.999 21.999s126.5 6.5 204.5 6.5h103v52c0 34 -3.16699 62.5 -9.5 85.5s-18.333 41.5 -36 55.5
s-42.167 24 -73.5 30s-72.333 9 -123 9c-48 0 -99.167 -1.5 -153.5 -4.5s-106.5 -7.16699 -156.5 -12.5c-12 -0.666992 -18 4.66602 -18 15.999v171c0 7.33301 1.16699 12.333 3.5 15s7.16602 4.66699 14.499 6c26.667 4 55.167 7.66699 85.5 11s60.5 6.16602 90.5 8.49902
s59 4.16602 87 5.49902s53 2 75 2c68.667 0 127.834 -3.5 177.501 -10.5s91.5 -17.667 125.5 -32s61.333 -32.833 82 -55.5s36.667 -49.5 48 -80.5s18.833 -66.5 22.5 -106.5s5.5 -85 5.5 -135v-657c0 -7.33301 -1.16699 -12.333 -3.5 -15
s-7.16602 -4.33398 -14.499 -5.00098c-34.667 -4.66699 -71 -9 -109 -13s-75.5 -7.33301 -112.5 -10s-72 -4.66699 -105 -6s-61.5 -2 -85.5 -2c-84.667 0 -157.834 5.33301 -219.501 16s-112.5 28.667 -152.5 54s-69.667 59.5 -89 102.5s-29 97.167 -29 162.5z
M217.002 1269.01l198 254c4 5.33301 8 9 12 11s9.66699 3 17 3h218c7.33301 0 13 -1 17 -3s8 -5.66699 12 -11l198 -254c7.33301 -9.33301 5 -14 -7 -14h-209c-7.33301 0 -13 1.16699 -17 3.5s-7.66699 6.16602 -11 11.499l-82 122h-20l-83 -122
c-3.33301 -5.33301 -7 -9.16602 -11 -11.499s-9.66699 -3.5 -17 -3.5h-208c-12 0 -14.333 4.66699 -7 14zM303.002 316.009c0 -32 6.5 -57.333 19.5 -76s30.833 -33 53.5 -43s49.5 -16.333 80.5 -19s64.833 -4 101.5 -4c32.667 0 65.834 0.833008 99.501 2.5
s63.167 4.5 88.5 8.5v273h-110c-69.333 0 -125.5 -1.83301 -168.5 -5.5s-76.833 -10.834 -101.5 -21.501s-41.334 -25.167 -50.001 -43.5s-13 -42.166 -13 -71.499z" />
    <glyph glyph-name="atilde" unicode="&#xe3;" horiz-adv-x="1125" 
d="M73 307c0 45.333 3.16895 85.1748 9.50195 119.508s17.666 64.166 33.999 89.499s38.333 46.666 66 63.999s62.667 31.166 105 41.499s92.666 17.666 150.999 21.999s126.5 6.5 204.5 6.5h103v52c0 34 -3.16699 62.5 -9.5 85.5s-18.333 41.5 -36 55.5
s-42.167 24 -73.5 30s-72.333 9 -123 9c-48 0 -99.167 -1.5 -153.5 -4.5s-106.5 -7.16699 -156.5 -12.5c-12 -0.666992 -18 4.66602 -18 15.999v171c0 7.33301 1.16699 12.333 3.5 15s7.16602 4.66699 14.499 6c26.667 4 55.167 7.66699 85.5 11s60.5 6.16602 90.5 8.49902
s59 4.16602 87 5.49902s53 2 75 2c68.667 0 127.834 -3.5 177.501 -10.5s91.5 -17.667 125.5 -32s61.333 -32.833 82 -55.5s36.667 -49.5 48 -80.5s18.833 -66.5 22.5 -106.5s5.5 -85 5.5 -135v-657c0 -7.33301 -1.16699 -12.333 -3.5 -15
s-7.16602 -4.33398 -14.499 -5.00098c-34.667 -4.66699 -71 -9 -109 -13s-75.5 -7.33301 -112.5 -10s-72 -4.66699 -105 -6s-61.5 -2 -85.5 -2c-84.667 0 -157.834 5.33301 -219.501 16s-112.5 28.667 -152.5 54s-69.667 59.5 -89 102.5s-29 97.167 -29 162.5z
M180.002 1328.01c0 50.667 5.99902 91.168 17.999 121.501s27.333 53.666 46 69.999s39.667 27 63 32s46.666 7.5 69.999 7.5c28 0 52.667 -3 74 -9s44 -16 68 -30l53 -30l63.5 -37c15.667 -9.33301 30.167 -14 43.5 -14c7.33301 0 13.833 1 19.5 3s10.5 6.33301 14.5 13
s7 16.667 9 30s3.33301 31 4 53c0 12 6 18 18 18h142c12.667 0 19.334 -6 20.001 -18c0.666992 -7.33301 1.16699 -16 1.5 -26s0.5 -19.667 0.5 -29c0 -50 -5.83301 -90.167 -17.5 -120.5s-27 -53.666 -46 -69.999s-40.167 -27.166 -63.5 -32.499s-46.666 -8 -69.999 -8
c-14 0 -26.667 0.666992 -38 2s-22.5 3.5 -33.5 6.5s-22.167 7 -33.5 12s-23.666 11.167 -36.999 18.5l-52 31l-64.5 36.5c-15.667 9 -30.167 13.5 -43.5 13.5c-7.33301 0 -13.833 -1 -19.5 -3s-10.5 -6.5 -14.5 -13.5s-7 -17 -9 -30s-3.33301 -30.833 -4 -53.5
c0 -12 -6 -18 -18 -18h-142c-12.667 0 -19.334 6 -20.001 18c-0.666992 7.33301 -1.16699 16.166 -1.5 26.499s-0.5 20.166 -0.5 29.499zM303.001 316.01c0 -32 6.5 -57.333 19.5 -76s30.833 -33 53.5 -43s49.5 -16.333 80.5 -19s64.833 -4 101.5 -4
c32.667 0 65.834 0.833008 99.501 2.5s63.167 4.5 88.5 8.5v273h-110c-69.333 0 -125.5 -1.83301 -168.5 -5.5s-76.833 -10.834 -101.5 -21.501s-41.334 -25.167 -50.001 -43.5s-13 -42.166 -13 -71.499z" />
    <glyph glyph-name="adieresis" unicode="&#xe4;" horiz-adv-x="1125" 
d="M73 307c0 45.333 3.16895 85.1748 9.50195 119.508s17.666 64.166 33.999 89.499s38.333 46.666 66 63.999s62.667 31.166 105 41.499s92.666 17.666 150.999 21.999s126.5 6.5 204.5 6.5h103v52c0 34 -3.16699 62.5 -9.5 85.5s-18.333 41.5 -36 55.5
s-42.167 24 -73.5 30s-72.333 9 -123 9c-48 0 -99.167 -1.5 -153.5 -4.5s-106.5 -7.16699 -156.5 -12.5c-12 -0.666992 -18 4.66602 -18 15.999v171c0 7.33301 1.16699 12.333 3.5 15s7.16602 4.66699 14.499 6c26.667 4 55.167 7.66699 85.5 11s60.5 6.16602 90.5 8.49902
s59 4.16602 87 5.49902s53 2 75 2c68.667 0 127.834 -3.5 177.501 -10.5s91.5 -17.667 125.5 -32s61.333 -32.833 82 -55.5s36.667 -49.5 48 -80.5s18.833 -66.5 22.5 -106.5s5.5 -85 5.5 -135v-657c0 -7.33301 -1.16699 -12.333 -3.5 -15
s-7.16602 -4.33398 -14.499 -5.00098c-34.667 -4.66699 -71 -9 -109 -13s-75.5 -7.33301 -112.5 -10s-72 -4.66699 -105 -6s-61.5 -2 -85.5 -2c-84.667 0 -157.834 5.33301 -219.501 16s-112.5 28.667 -152.5 54s-69.667 59.5 -89 102.5s-29 97.167 -29 162.5z
M226.002 1249.01l0.000976562 276c0 6.66699 1.16699 11.5 3.5 14.5s7.16602 5.16699 14.499 6.5l213 29c12 2 18 -3 18 -15v-311c0 -12 -6 -18 -18 -18h-213c-12 0 -18 6 -18 18zM303.003 316.009c0 -32 6.5 -57.333 19.5 -76s30.833 -33 53.5 -43s49.5 -16.333 80.5 -19
s64.833 -4 101.5 -4c32.667 0 65.834 0.833008 99.501 2.5s63.167 4.5 88.5 8.5v273h-110c-69.333 0 -125.5 -1.83301 -168.5 -5.5s-76.833 -10.834 -101.5 -21.501s-41.334 -25.167 -50.001 -43.5s-13 -42.166 -13 -71.499zM624.003 1249.01l0.000976562 276
c0 6.66699 1.16699 11.5 3.5 14.5s7.16602 5.16699 14.499 6.5l212 29c12 2 18 -3 18 -15v-311c0 -12 -6 -18 -18 -18h-212c-12 0 -18 6 -18 18z" />
    <glyph glyph-name="aring" unicode="&#xe5;" horiz-adv-x="1125" 
d="M73 307c0 45.333 3.16895 85.1748 9.50195 119.508s17.666 64.166 33.999 89.499s38.333 46.666 66 63.999s62.667 31.166 105 41.499s92.666 17.666 150.999 21.999s126.5 6.5 204.5 6.5h103v52c0 34 -3.16699 62.5 -9.5 85.5s-18.333 41.5 -36 55.5
s-42.167 24 -73.5 30s-72.333 9 -123 9c-48 0 -99.167 -1.5 -153.5 -4.5s-106.5 -7.16699 -156.5 -12.5c-12 -0.666992 -18 4.66602 -18 15.999v171c0 7.33301 1.16699 12.333 3.5 15s7.16602 4.66699 14.499 6c26.667 4 55.167 7.66699 85.5 11s60.5 6.16602 90.5 8.49902
s59 4.16602 87 5.49902s53 2 75 2c68.667 0 127.834 -3.5 177.501 -10.5s91.5 -17.667 125.5 -32s61.333 -32.833 82 -55.5s36.667 -49.5 48 -80.5s18.833 -66.5 22.5 -106.5s5.5 -85 5.5 -135v-657c0 -7.33301 -1.16699 -12.333 -3.5 -15
s-7.16602 -4.33398 -14.499 -5.00098c-34.667 -4.66699 -71 -9 -109 -13s-75.5 -7.33301 -112.5 -10s-72 -4.66699 -105 -6s-61.5 -2 -85.5 -2c-84.667 0 -157.834 5.33301 -219.501 16s-112.5 28.667 -152.5 54s-69.667 59.5 -89 102.5s-29 97.167 -29 162.5z
M303.002 316.009c0 -32 6.5 -57.333 19.5 -76s30.833 -33 53.5 -43s49.5 -16.333 80.5 -19s64.833 -4 101.5 -4c32.667 0 65.834 0.833008 99.501 2.5s63.167 4.5 88.5 8.5v273h-110c-69.333 0 -125.5 -1.83301 -168.5 -5.5s-76.833 -10.834 -101.5 -21.501
s-41.334 -25.167 -50.001 -43.5s-13 -42.166 -13 -71.499zM312.002 1402.01c0 64.667 19.334 115.667 58.001 153s100.667 56 186 56c82.667 0 143.834 -18.5 183.501 -55.5s59.5 -87.833 59.5 -152.5c0 -65.333 -19.833 -116.5 -59.5 -153.5s-100.834 -55.5 -183.501 -55.5
c-42.667 0 -79.334 4.83301 -110.001 14.5s-56 23.5 -76 41.5s-34.667 39.833 -44 65.5s-14 54.5 -14 86.5zM475.003 1402.01c0 -29.333 7.83398 -48.5 23.501 -57.5s37.167 -13.5 64.5 -13.5s48.666 4.66699 63.999 14s23 28.666 23 57.999s-7.5 48.5 -22.5 57.5
s-36.5 13.5 -64.5 13.5c-27.333 0 -48.833 -4.66699 -64.5 -14s-23.5 -28.666 -23.5 -57.999z" />
    <glyph glyph-name="ae" unicode="&#xe6;" horiz-adv-x="1812" 
d="M73 307c0 42.667 3.1709 80.501 9.50391 113.501s17.666 61.667 33.999 86s38.333 44.666 66 60.999s62.667 29.5 105 39.5s92.666 17.167 150.999 21.5s126.5 6.5 204.5 6.5h103v67c0 34 -3.16699 62.5 -9.5 85.5s-18.333 41.5 -36 55.5s-42.167 24 -73.5 30
s-72.333 9 -123 9c-48 0 -99.167 -1.5 -153.5 -4.5s-106.5 -7.16699 -156.5 -12.5c-12 -0.666992 -18 4.66602 -18 15.999v171c0 7.33301 1.16699 12.333 3.5 15s7.16602 4.66699 14.499 6c26.667 4 55.167 7.66699 85.5 11s60.5 6.16602 90.5 8.49902
s59 4.16602 87 5.49902s53 2 75 2c48.667 0 92.334 -1.66699 131.001 -5s73.167 -8.5 103.5 -15.5s56.833 -16 79.5 -27s42.334 -23.833 59.001 -38.5c76 55.333 187 83 333 83c88.667 0 164.167 -9.5 226.5 -28.5s113.166 -48 152.499 -87s68 -88.5 86 -148.5
s27 -131 27 -213c0 -35.333 -2.16699 -67.166 -6.5 -95.499s-8.16602 -49.5 -11.499 -63.5c-1.33301 -7.33301 -3.5 -12.166 -6.5 -14.499s-8.16699 -3.5 -15.5 -3.5h-694c2 -52 8 -94.333 18 -127s25.5 -58.334 46.5 -77.001s48 -31.5 81 -38.5s73.5 -10.5 121.5 -10.5
c59.333 0 118.5 1 177.5 3s121.167 6.33301 186.5 13c12 0.666992 18.333 -4.66602 19 -15.999l15 -168c0.666992 -12 -5 -19 -17 -21c-62.667 -9.33301 -126.5 -16.5 -191.5 -21.5s-133.833 -7.5 -206.5 -7.5c-51.333 0 -97.833 3 -139.5 9s-79.5 14.667 -113.5 26
c-35.333 -5.33301 -72.833 -10.166 -112.5 -14.499s-78.834 -8 -117.501 -11s-75.334 -5.33301 -110.001 -7s-64.667 -2.5 -90 -2.5c-84.667 0 -157.834 5.33301 -219.501 16s-112.5 28.667 -152.5 54s-69.667 59.5 -89 102.5s-29 97.167 -29 162.5zM303.004 316.001
c0 -32 6.5 -57.333 19.5 -76s30.833 -33 53.5 -43s49.5 -16.333 80.5 -19s64.833 -4 101.5 -4c32.667 0 65.834 0.833008 99.501 2.5s63.167 4.5 88.5 8.5v258h-110c-69.333 0 -125.5 -1.66699 -168.5 -5s-76.833 -9.83301 -101.5 -19.5s-41.334 -22.667 -50.001 -39
s-13 -37.5 -13 -63.5zM996.004 628.001l506.001 15c-5.33301 44 -13.166 81.167 -23.499 111.5s-25.5 54.833 -45.5 73.5s-45.833 32 -77.5 40s-70.834 12 -117.501 12c-44.667 0 -82 -4.66699 -112 -14s-54.333 -24 -73 -44s-32.334 -46 -41.001 -78s-14 -70.667 -16 -116z
" />
    <glyph glyph-name="ccedilla" unicode="&#xe7;" horiz-adv-x="965" 
d="M103 479l0.000976562 112.999c0 88.667 8.16699 164.834 24.5 228.501s44.333 116 84 157s92.5 71.167 158.5 90.5s149 29 249 29c48 0 93.167 -2.16699 135.5 -6.5s80.833 -9.83301 115.5 -16.5c6.66699 -1.33301 11.334 -3.33301 14.001 -6s3.66699 -7.66699 3 -15
l-15 -176c-0.666992 -11.333 -7 -16.666 -19 -15.999c-36 4.66699 -72.667 7.83398 -110 9.50098s-76 2.5 -116 2.5c-57.333 0 -103.5 -5 -138.5 -15s-62.333 -26.833 -82 -50.5s-32.834 -54.834 -39.501 -93.501s-10 -86.667 -10 -144v-71c0 -58 3.33301 -106.333 10 -145
s19.667 -69.667 39 -93s46.666 -39.833 81.999 -49.5s81.666 -14.5 138.999 -14.5c41.333 0 80.666 1.16699 117.999 3.5s73.666 5.5 108.999 9.5c12 0.666992 18.333 -4.66602 19 -15.999l14 -176c0.666992 -7.33301 -0.166016 -12.5 -2.49902 -15.5
s-7.16602 -5.16699 -14.499 -6.5c-16.667 -3.33301 -35.167 -6.5 -55.5 -9.5s-41.5 -5.5 -63.5 -7.5s-44.167 -3.66699 -66.5 -5s-44.166 -2 -65.499 -2c-98.667 0 -181 9.16699 -247 27.5s-119 47.666 -159 87.999s-68.333 92.666 -85 156.999s-25 142.5 -25 234.5z
M303.001 -373.001l150.999 255c3.33301 6 6.83301 10.167 10.5 12.5s9.16699 3.5 16.5 3.5h182c11.333 0 14.666 -5.33301 9.99902 -16l-135 -255c-3.33301 -6 -6.66602 -10.167 -9.99902 -12.5s-8.66602 -3.5 -15.999 -3.5h-200c-12 0 -15 5.33301 -9 16z" />
    <glyph glyph-name="egrave" unicode="&#xe8;" horiz-adv-x="1165" 
d="M101 486l-0.000976562 100.997c0 88 8.83301 164 26.5 228s46 116.833 85 158.5s89.5 72.667 151.5 93s137.667 30.5 227 30.5c88.667 0 164.334 -10 227.001 -30s113.5 -50.5 152.5 -91.5s67.5 -92.833 85.5 -155.5s27 -137 27 -223
c0 -36.667 -2.16699 -69.667 -6.5 -99s-8.16602 -50.666 -11.499 -63.999c-1.33301 -5.33301 -3.33301 -9.16602 -6 -11.499s-7 -3.5 -13 -3.5l-695 -2c3.33301 -46 10.5 -83.667 21.5 -113s27 -52.5 48 -69.5s47.5 -28.667 79.5 -35s70.667 -9.5 116 -9.5
c60 0 118.833 1 176.5 3s119.5 6.33301 185.5 13c12 0.666992 18.333 -4.66602 19 -15.999l14 -168c0.666992 -12 -5 -19 -17 -21c-63.333 -9.33301 -126.833 -16.5 -190.5 -21.5s-131.834 -7.5 -204.501 -7.5c-90 0 -166.667 9.5 -230 28.5s-114.833 49.167 -154.5 90.5
s-68.5 94.5 -86.5 159.5s-27 143.5 -27 235.5zM314.999 1524c-7.33301 8.66699 -5.33301 12.999 6 12.999h258c7.33301 0 12.833 -1.16699 16.5 -3.5s7.5 -6.16602 11.5 -11.499l162 -240c6 -10 3.33301 -15 -8 -15h-200c-7.33301 0 -13 0.833008 -17 2.5
s-8.33301 5.16699 -13 10.5zM348.999 604.996l506.002 15.001c-4.66699 48 -12.334 88.667 -23.001 122s-26 60.166 -46 80.499s-45.833 35 -77.5 44s-70.834 13.5 -117.501 13.5c-46 0 -84.5 -5 -115.5 -15s-55.667 -25.833 -74 -47.5s-31.5 -50 -39.5 -85
s-12.333 -77.5 -13 -127.5z" />
    <glyph glyph-name="eacute" unicode="&#xe9;" horiz-adv-x="1165" 
d="M101 486l-0.000976562 100.997c0 88 8.83301 164 26.5 228s46 116.833 85 158.5s89.5 72.667 151.5 93s137.667 30.5 227 30.5c88.667 0 164.334 -10 227.001 -30s113.5 -50.5 152.5 -91.5s67.5 -92.833 85.5 -155.5s27 -137 27 -223
c0 -36.667 -2.16699 -69.667 -6.5 -99s-8.16602 -50.666 -11.499 -63.999c-1.33301 -5.33301 -3.33301 -9.16602 -6 -11.499s-7 -3.5 -13 -3.5l-695 -2c3.33301 -46 10.5 -83.667 21.5 -113s27 -52.5 48 -69.5s47.5 -28.667 79.5 -35s70.667 -9.5 116 -9.5
c60 0 118.833 1 176.5 3s119.5 6.33301 185.5 13c12 0.666992 18.333 -4.66602 19 -15.999l14 -168c0.666992 -12 -5 -19 -17 -21c-63.333 -9.33301 -126.833 -16.5 -190.5 -21.5s-131.834 -7.5 -204.501 -7.5c-90 0 -166.667 9.5 -230 28.5s-114.833 49.167 -154.5 90.5
s-68.5 94.5 -86.5 159.5s-27 143.5 -27 235.5zM348.999 604.997l506.002 15.001c-4.66699 48 -12.334 88.667 -23.001 122s-26 60.166 -46 80.499s-45.833 35 -77.5 44s-70.834 13.5 -117.501 13.5c-46 0 -84.5 -5 -115.5 -15s-55.667 -25.833 -74 -47.5
s-31.5 -50 -39.5 -85s-12.333 -77.5 -13 -127.5zM451.001 1282l162 240.001c4 5.33301 7.83301 9.16602 11.5 11.499s9.16699 3.5 16.5 3.5h258c11.333 0 13.333 -4.33301 6 -13l-216 -244c-4.66699 -5.33301 -9 -8.83301 -13 -10.5s-9.66699 -2.5 -17 -2.5h-200
c-11.333 0 -14 5 -8 15z" />
    <glyph glyph-name="ecircumflex" unicode="&#xea;" horiz-adv-x="1165" 
d="M101 486l-0.000976562 100.997c0 88 8.83301 164 26.5 228s46 116.833 85 158.5s89.5 72.667 151.5 93s137.667 30.5 227 30.5c88.667 0 164.334 -10 227.001 -30s113.5 -50.5 152.5 -91.5s67.5 -92.833 85.5 -155.5s27 -137 27 -223
c0 -36.667 -2.16699 -69.667 -6.5 -99s-8.16602 -50.666 -11.499 -63.999c-1.33301 -5.33301 -3.33301 -9.16602 -6 -11.499s-7 -3.5 -13 -3.5l-695 -2c3.33301 -46 10.5 -83.667 21.5 -113s27 -52.5 48 -69.5s47.5 -28.667 79.5 -35s70.667 -9.5 116 -9.5
c60 0 118.833 1 176.5 3s119.5 6.33301 185.5 13c12 0.666992 18.333 -4.66602 19 -15.999l14 -168c0.666992 -12 -5 -19 -17 -21c-63.333 -9.33301 -126.833 -16.5 -190.5 -21.5s-131.834 -7.5 -204.501 -7.5c-90 0 -166.667 9.5 -230 28.5s-114.833 49.167 -154.5 90.5
s-68.5 94.5 -86.5 159.5s-27 143.5 -27 235.5zM251.999 1269l198 254c4 5.33301 8 9 12 11s9.66699 3 17 3h218c7.33301 0 13 -1 17 -3s8 -5.66699 12 -11l198 -254c7.33301 -9.33301 5 -14 -7 -14h-209c-7.33301 0 -13 1.16699 -17 3.5s-7.66699 6.16602 -11 11.499
l-82 122h-20l-83 -122c-3.33301 -5.33301 -7 -9.16602 -11 -11.499s-9.66699 -3.5 -17 -3.5h-208c-12 0 -14.333 4.66699 -7 14zM348.999 604.997l506.002 15.001c-4.66699 48 -12.334 88.667 -23.001 122s-26 60.166 -46 80.499s-45.833 35 -77.5 44
s-70.834 13.5 -117.501 13.5c-46 0 -84.5 -5 -115.5 -15s-55.667 -25.833 -74 -47.5s-31.5 -50 -39.5 -85s-12.333 -77.5 -13 -127.5z" />
    <glyph glyph-name="edieresis" unicode="&#xeb;" horiz-adv-x="1165" 
d="M101 486l-0.000976562 100.997c0 88 8.83301 164 26.5 228s46 116.833 85 158.5s89.5 72.667 151.5 93s137.667 30.5 227 30.5c88.667 0 164.334 -10 227.001 -30s113.5 -50.5 152.5 -91.5s67.5 -92.833 85.5 -155.5s27 -137 27 -223
c0 -36.667 -2.16699 -69.667 -6.5 -99s-8.16602 -50.666 -11.499 -63.999c-1.33301 -5.33301 -3.33301 -9.16602 -6 -11.499s-7 -3.5 -13 -3.5l-695 -2c3.33301 -46 10.5 -83.667 21.5 -113s27 -52.5 48 -69.5s47.5 -28.667 79.5 -35s70.667 -9.5 116 -9.5
c60 0 118.833 1 176.5 3s119.5 6.33301 185.5 13c12 0.666992 18.333 -4.66602 19 -15.999l14 -168c0.666992 -12 -5 -19 -17 -21c-63.333 -9.33301 -126.833 -16.5 -190.5 -21.5s-131.834 -7.5 -204.501 -7.5c-90 0 -166.667 9.5 -230 28.5s-114.833 49.167 -154.5 90.5
s-68.5 94.5 -86.5 159.5s-27 143.5 -27 235.5zM260.999 1249l0.000976562 276c0 6.66699 1.16699 11.5 3.5 14.5s7.16602 5.16699 14.499 6.5l213 29c12 2 18 -3 18 -15v-311c0 -12 -6 -18 -18 -18h-213c-12 0 -18 6 -18 18zM349 604.997l506.002 15.001
c-4.66699 48 -12.334 88.667 -23.001 122s-26 60.166 -46 80.499s-45.833 35 -77.5 44s-70.834 13.5 -117.501 13.5c-46 0 -84.5 -5 -115.5 -15s-55.667 -25.833 -74 -47.5s-31.5 -50 -39.5 -85s-12.333 -77.5 -13 -127.5zM659.002 1249l0.000976562 276
c0 6.66699 1.16699 11.5 3.5 14.5s7.16602 5.16699 14.499 6.5l212 29c12 2 18 -3 18 -15v-311c0 -12 -6 -18 -18 -18h-212c-12 0 -18 6 -18 18z" />
    <glyph glyph-name="igrave" unicode="&#xec;" horiz-adv-x="544" 
d="M1 1524c-7.33301 8.66699 -5.33301 12.999 6 12.999h258c7.33301 0 12.833 -1.16699 16.5 -3.5s7.5 -6.16602 11.5 -11.499l162 -240c6 -10 3.33301 -15 -8 -15h-200c-7.33301 0 -13 0.833008 -17 2.5s-8.33301 5.16699 -13 10.5zM147 17.999v1035c0 12 6 18 18 18h216
c12 0 18 -6 18 -18v-1035c0 -12 -6 -18 -18 -18h-216c-12 0 -18 6 -18 18z" />
    <glyph glyph-name="iacute" unicode="&#xed;" horiz-adv-x="543" 
d="M47 1282l162 240.001c4 5.33301 7.83301 9.16602 11.5 11.499s9.16699 3.5 16.5 3.5h258c11.333 0 13.333 -4.33301 6 -13l-216 -244c-4.66699 -5.33301 -9 -8.83301 -13 -10.5s-9.66699 -2.5 -17 -2.5h-200c-11.333 0 -14 5 -8 15zM146 18.001v1035c0 12 6 18 18 18h216
c12 0 18 -6 18 -18v-1035c0 -12 -6 -18 -18 -18h-216c-12 0 -18 6 -18 18z" />
    <glyph glyph-name="icircumflex" unicode="&#xee;" horiz-adv-x="543" 
d="M-64 1269l198 254c4 5.33301 8 9 12 11s9.66699 3 17 3h218c7.33301 0 13 -1 17 -3s8 -5.66699 12 -11l198 -254c7.33301 -9.33301 5 -14 -7 -14h-209c-7.33301 0 -13 1.16699 -17 3.5s-7.66699 6.16602 -11 11.499l-82 122h-20l-83 -122
c-3.33301 -5.33301 -7 -9.16602 -11 -11.499s-9.66699 -3.5 -17 -3.5h-208c-12 0 -14.333 4.66699 -7 14zM146 18v1035c0 12 6 18 18 18h216c12 0 18 -6 18 -18v-1035c0 -12 -6 -18 -18 -18h-216c-12 0 -18 6 -18 18z" />
    <glyph glyph-name="idieresis" unicode="&#xef;" horiz-adv-x="543" 
d="M-51 1249l0.000976562 276c0 6.66699 1.16699 11.5 3.5 14.5s7.16602 5.16699 14.499 6.5l213 29c12 2 18 -3 18 -15v-311c0 -12 -6 -18 -18 -18h-213c-12 0 -18 6 -18 18zM146.001 18v1035c0 12 6 18 18 18h216c12 0 18 -6 18 -18v-1035c0 -12 -6 -18 -18 -18h-216
c-12 0 -18 6 -18 18zM347.001 1249l0.000976562 276c0 6.66699 1.16699 11.5 3.5 14.5s7.16602 5.16699 14.499 6.5l212 29c12 2 18 -3 18 -15v-311c0 -12 -6 -18 -18 -18h-212c-12 0 -18 6 -18 18z" />
    <glyph glyph-name="eth" unicode="&#xf0;" horiz-adv-x="1180" 
d="M101 491l-0.00390625 80.999c0 88 9 163.833 27 227.5s46 115.834 84 156.501s86.5 70.667 145.5 90s129.167 29 210.5 29c43.333 0 83.833 -5.66699 121.5 -17s72.834 -26.666 105.501 -45.999c-52 112 -130 200.667 -234 266l-213 -139c-10.667 -6.66699 -19 -5 -25 5
l-54 74c-6.66699 10.667 -5 19 5 25l156 101c-30.667 12 -62.667 23 -96 33s-68.666 18.667 -105.999 26c-12 2 -16.667 9 -14 21l29 143c2.66699 12 10 17 22 15c70.667 -13.333 135.334 -29.5 194.001 -48.5s112.667 -40.5 162 -64.5l204 133c10.667 6.66699 19 5 25 -5
l53 -74c6.66699 -10.667 5 -19 -5 -25l-154 -101c60.667 -43.333 111.5 -93 152.5 -149s73.833 -118.167 98.5 -186.5s42.334 -143.333 53.001 -225s16 -169.834 16 -264.501v-81c0 -90.667 -8.66699 -168.667 -26 -234s-44.833 -119.166 -82.5 -161.499
s-86.5 -73.5 -146.5 -93.5s-132.667 -30 -218 -30c-88.667 0 -164.167 10 -226.5 30s-113 51.167 -152 93.5s-67.333 96.166 -85 161.499s-26.5 143.333 -26.5 234zM350.996 500.999c0 -58 3.66504 -106.832 10.998 -146.499s20 -71.834 38 -96.501s42.5 -42.5 73.5 -53.5
s70.167 -16.5 117.5 -16.5c46 0 84.5 5.66699 115.5 17s55.833 29.5 74.5 54.5s31.834 57.5 39.501 97.5s11.5 88.667 11.5 146v59c0 57.333 -3.66699 106 -11 146s-20.166 72.5 -38.499 97.5s-43 43.167 -74 54.5s-70.167 17 -117.5 17c-46 0 -84.5 -5.66699 -115.5 -17
s-55.667 -29.5 -74 -54.5s-31.333 -57.5 -39 -97.5s-11.5 -88.667 -11.5 -146v-61z" />
    <glyph glyph-name="ntilde" unicode="&#xf1;" horiz-adv-x="1230" 
d="M139 18v1054c0 12 6 18 18 18h168c7.33301 0 12.666 -1.16699 15.999 -3.5s6.33301 -6.83301 9 -13.5l28 -65c48 27.333 100.833 49 158.5 65s119.834 24 186.501 24c64.667 0 120.5 -8.16699 167.5 -24.5s85.833 -42.5 116.5 -78.5s53.5 -83 68.5 -141
s22.5 -128.667 22.5 -212v-623c0 -12 -6 -18 -18 -18h-216c-12 0 -18 6 -18 18v574c0 46.667 -3 86.667 -9 120s-17 60.5 -33 81.5s-38 36.333 -66 46s-64.333 14.5 -109 14.5c-38.667 0 -79.5 -4.33301 -122.5 -13s-81.5 -21 -115.5 -37v-786c0 -12 -6 -18 -18 -18h-216
c-12 0 -18 6 -18 18zM241 1328c0 50.667 5.99902 91.168 17.999 121.501s27.333 53.666 46 69.999s39.667 27 63 32s46.666 7.5 69.999 7.5c28 0 52.667 -3 74 -9s44 -16 68 -30l53 -30l63.5 -37c15.667 -9.33301 30.167 -14 43.5 -14c7.33301 0 13.833 1 19.5 3
s10.5 6.33301 14.5 13s7 16.667 9 30s3.33301 31 4 53c0 12 6 18 18 18h142c12.667 0 19.334 -6 20.001 -18c0.666992 -7.33301 1.16699 -16 1.5 -26s0.5 -19.667 0.5 -29c0 -50 -5.83301 -90.167 -17.5 -120.5s-27 -53.666 -46 -69.999s-40.167 -27.166 -63.5 -32.499
s-46.666 -8 -69.999 -8c-14 0 -26.667 0.666992 -38 2s-22.5 3.5 -33.5 6.5s-22.167 7 -33.5 12s-23.666 11.167 -36.999 18.5l-52 31l-64.5 36.5c-15.667 9 -30.167 13.5 -43.5 13.5c-7.33301 0 -13.833 -1 -19.5 -3s-10.5 -6.5 -14.5 -13.5s-7 -17 -9 -30
s-3.33301 -30.833 -4 -53.5c0 -12 -6 -18 -18 -18h-142c-12.667 0 -19.334 6 -20.001 18c-0.666992 7.33301 -1.16699 16.166 -1.5 26.499s-0.5 20.166 -0.5 29.499z" />
    <glyph glyph-name="ograve" unicode="&#xf2;" horiz-adv-x="1184" 
d="M101 485v98c0 90 9 167.333 27 232s46.5 117.834 85.5 159.501s89.667 72.5 152 92.5s137.5 30 225.5 30c88.667 0 164.334 -10 227.001 -30s113.5 -50.833 152.5 -92.5s67.5 -94.834 85.5 -159.501s27 -142 27 -232v-98c0 -90 -9 -167.333 -27 -232
s-46.5 -117.834 -85.5 -159.501s-89.833 -72.334 -152.5 -92.001s-138.334 -29.5 -227.001 -29.5c-88 0 -163.167 9.83301 -225.5 29.5s-113 50.334 -152 92.001s-67.5 94.834 -85.5 159.501s-27 142 -27 232zM301 1524c-7.33301 8.66699 -5.33301 12.999 6 12.999h258
c7.33301 0 12.833 -1.16699 16.5 -3.5s7.5 -6.16602 11.5 -11.499l162 -240c6 -10 3.33301 -15 -8 -15h-200c-7.33301 0 -13 0.833008 -17 2.5s-8.33301 5.16699 -13 10.5zM349 494.999c0 -56 3.66602 -103.499 10.999 -142.499s20 -70.5 38 -94.5s42.667 -41.333 74 -52
s71 -16 119 -16s87.833 5.33301 119.5 16s56.834 28.167 75.501 52.5s31.667 56 39 95s11 86.833 11 143.5v78c0 56 -3.5 103.5 -10.5 142.5s-19.667 70.5 -38 94.5s-43.333 41.333 -75 52s-72.167 16 -121.5 16c-48.667 0 -88.667 -5.33301 -120 -16s-56 -28 -74 -52
s-30.5 -55.333 -37.5 -94s-10.5 -86.334 -10.5 -143.001v-80z" />
    <glyph glyph-name="oacute" unicode="&#xf3;" horiz-adv-x="1184" 
d="M101 485v98c0 90 9 167.333 27 232s46.5 117.834 85.5 159.501s89.667 72.5 152 92.5s137.5 30 225.5 30c88.667 0 164.334 -10 227.001 -30s113.5 -50.833 152.5 -92.5s67.5 -94.834 85.5 -159.501s27 -142 27 -232v-98c0 -90 -9 -167.333 -27 -232
s-46.5 -117.834 -85.5 -159.501s-89.833 -72.334 -152.5 -92.001s-138.334 -29.5 -227.001 -29.5c-88 0 -163.167 9.83301 -225.5 29.5s-113 50.334 -152 92.001s-67.5 94.834 -85.5 159.501s-27 142 -27 232zM349 495c0 -56 3.66602 -103.499 10.999 -142.499
s20 -70.5 38 -94.5s42.667 -41.333 74 -52s71 -16 119 -16s87.833 5.33301 119.5 16s56.834 28.167 75.501 52.5s31.667 56 39 95s11 86.833 11 143.5v78c0 56 -3.5 103.5 -10.5 142.5s-19.667 70.5 -38 94.5s-43.333 41.333 -75 52s-72.167 16 -121.5 16
c-48.667 0 -88.667 -5.33301 -120 -16s-56 -28 -74 -52s-30.5 -55.333 -37.5 -94s-10.5 -86.334 -10.5 -143.001v-80zM414.999 1282l162 240.001c4 5.33301 7.83301 9.16602 11.5 11.499s9.16699 3.5 16.5 3.5h258c11.333 0 13.333 -4.33301 6 -13l-216 -244
c-4.66699 -5.33301 -9 -8.83301 -13 -10.5s-9.66699 -2.5 -17 -2.5h-200c-11.333 0 -14 5 -8 15z" />
    <glyph glyph-name="ocircumflex" unicode="&#xf4;" horiz-adv-x="1184" 
d="M101 485v98c0 90 9 167.333 27 232s46.5 117.834 85.5 159.501s89.667 72.5 152 92.5s137.5 30 225.5 30c88.667 0 164.334 -10 227.001 -30s113.5 -50.833 152.5 -92.5s67.5 -94.834 85.5 -159.501s27 -142 27 -232v-98c0 -90 -9 -167.333 -27 -232
s-46.5 -117.834 -85.5 -159.501s-89.833 -72.334 -152.5 -92.001s-138.334 -29.5 -227.001 -29.5c-88 0 -163.167 9.83301 -225.5 29.5s-113 50.334 -152 92.001s-67.5 94.834 -85.5 159.501s-27 142 -27 232zM255 1269l198 254c4 5.33301 8 9 12 11s9.66699 3 17 3h218
c7.33301 0 13 -1 17 -3s8 -5.66699 12 -11l198 -254c7.33301 -9.33301 5 -14 -7 -14h-209c-7.33301 0 -13 1.16699 -17 3.5s-7.66699 6.16602 -11 11.499l-82 122h-20l-83 -122c-3.33301 -5.33301 -7 -9.16602 -11 -11.499s-9.66699 -3.5 -17 -3.5h-208
c-12 0 -14.333 4.66699 -7 14zM349 495c0 -56 3.66602 -103.499 10.999 -142.499s20 -70.5 38 -94.5s42.667 -41.333 74 -52s71 -16 119 -16s87.833 5.33301 119.5 16s56.834 28.167 75.501 52.5s31.667 56 39 95s11 86.833 11 143.5v78c0 56 -3.5 103.5 -10.5 142.5
s-19.667 70.5 -38 94.5s-43.333 41.333 -75 52s-72.167 16 -121.5 16c-48.667 0 -88.667 -5.33301 -120 -16s-56 -28 -74 -52s-30.5 -55.333 -37.5 -94s-10.5 -86.334 -10.5 -143.001v-80z" />
    <glyph glyph-name="otilde" unicode="&#xf5;" horiz-adv-x="1184" 
d="M101 485v98c0 90 9 167.333 27 232s46.5 117.834 85.5 159.501s89.667 72.5 152 92.5s137.5 30 225.5 30c88.667 0 164.334 -10 227.001 -30s113.5 -50.833 152.5 -92.5s67.5 -94.834 85.5 -159.501s27 -142 27 -232v-98c0 -90 -9 -167.333 -27 -232
s-46.5 -117.834 -85.5 -159.501s-89.833 -72.334 -152.5 -92.001s-138.334 -29.5 -227.001 -29.5c-88 0 -163.167 9.83301 -225.5 29.5s-113 50.334 -152 92.001s-67.5 94.834 -85.5 159.501s-27 142 -27 232zM215 1328c0 50.667 5.99902 91.168 17.999 121.501
s27.333 53.666 46 69.999s39.667 27 63 32s46.666 7.5 69.999 7.5c28 0 52.667 -3 74 -9s44 -16 68 -30l53 -30l63.5 -37c15.667 -9.33301 30.167 -14 43.5 -14c7.33301 0 13.833 1 19.5 3s10.5 6.33301 14.5 13s7 16.667 9 30s3.33301 31 4 53c0 12 6 18 18 18h142
c12.667 0 19.334 -6 20.001 -18c0.666992 -7.33301 1.16699 -16 1.5 -26s0.5 -19.667 0.5 -29c0 -50 -5.83301 -90.167 -17.5 -120.5s-27 -53.666 -46 -69.999s-40.167 -27.166 -63.5 -32.499s-46.666 -8 -69.999 -8c-14 0 -26.667 0.666992 -38 2s-22.5 3.5 -33.5 6.5
s-22.167 7 -33.5 12s-23.666 11.167 -36.999 18.5l-52 31l-64.5 36.5c-15.667 9 -30.167 13.5 -43.5 13.5c-7.33301 0 -13.833 -1 -19.5 -3s-10.5 -6.5 -14.5 -13.5s-7 -17 -9 -30s-3.33301 -30.833 -4 -53.5c0 -12 -6 -18 -18 -18h-142c-12.667 0 -19.334 6 -20.001 18
c-0.666992 7.33301 -1.16699 16.166 -1.5 26.499s-0.5 20.166 -0.5 29.499zM348.999 495.001c0 -56 3.66602 -103.499 10.999 -142.499s20 -70.5 38 -94.5s42.667 -41.333 74 -52s71 -16 119 -16s87.833 5.33301 119.5 16s56.834 28.167 75.501 52.5s31.667 56 39 95
s11 86.833 11 143.5v78c0 56 -3.5 103.5 -10.5 142.5s-19.667 70.5 -38 94.5s-43.333 41.333 -75 52s-72.167 16 -121.5 16c-48.667 0 -88.667 -5.33301 -120 -16s-56 -28 -74 -52s-30.5 -55.333 -37.5 -94s-10.5 -86.334 -10.5 -143.001v-80z" />
    <glyph glyph-name="odieresis" unicode="&#xf6;" horiz-adv-x="1184" 
d="M101 485v98c0 90 9 167.333 27 232s46.5 117.834 85.5 159.501s89.667 72.5 152 92.5s137.5 30 225.5 30c88.667 0 164.334 -10 227.001 -30s113.5 -50.833 152.5 -92.5s67.5 -94.834 85.5 -159.501s27 -142 27 -232v-98c0 -90 -9 -167.333 -27 -232
s-46.5 -117.834 -85.5 -159.501s-89.833 -72.334 -152.5 -92.001s-138.334 -29.5 -227.001 -29.5c-88 0 -163.167 9.83301 -225.5 29.5s-113 50.334 -152 92.001s-67.5 94.834 -85.5 159.501s-27 142 -27 232zM255 1249l0.000976562 276c0 6.66699 1.16699 11.5 3.5 14.5
s7.16602 5.16699 14.499 6.5l213 29c12 2 18 -3 18 -15v-311c0 -12 -6 -18 -18 -18h-213c-12 0 -18 6 -18 18zM349.001 495c0 -56 3.66602 -103.499 10.999 -142.499s20 -70.5 38 -94.5s42.667 -41.333 74 -52s71 -16 119 -16s87.833 5.33301 119.5 16
s56.834 28.167 75.501 52.5s31.667 56 39 95s11 86.833 11 143.5v78c0 56 -3.5 103.5 -10.5 142.5s-19.667 70.5 -38 94.5s-43.333 41.333 -75 52s-72.167 16 -121.5 16c-48.667 0 -88.667 -5.33301 -120 -16s-56 -28 -74 -52s-30.5 -55.333 -37.5 -94
s-10.5 -86.334 -10.5 -143.001v-80zM653 1249l0.000976562 276c0 6.66699 1.16699 11.5 3.5 14.5s7.16602 5.16699 14.499 6.5l212 29c12 2 18 -3 18 -15v-311c0 -12 -6 -18 -18 -18h-212c-12 0 -18 6 -18 18z" />
    <glyph glyph-name="divide" unicode="&#xf7;" horiz-adv-x="1124" 
d="M92 672v207c0 12 6 18 18 18h904c12 0 18 -6 18 -18v-207c0 -12 -6 -18 -18 -18h-904c-12 0 -18 6 -18 18zM436 213v263.998c0 12.667 6 19.334 18 20.001l219 29c12 0.666992 18 -4.66602 18 -15.999v-297c0 -12 -6 -18 -18 -18h-219c-12 0 -18 6 -18 18zM436 1049
v263.998c0 12.667 6 19.334 18 20.001l219 30c12 0.666992 18 -4.66602 18 -15.999v-298c0 -12 -6 -18 -18 -18h-219c-12 0 -18 6 -18 18z" />
    <glyph glyph-name="oslash" unicode="&#xf8;" horiz-adv-x="1192" 
d="M44 13l128.999 145.999c-23.333 40.667 -40.666 88.167 -51.999 142.5s-17 115.833 -17 184.5v97c0 90 9 167.333 27 232s46.833 117.834 86.5 159.501s90.667 72.5 153 92.5s137.5 30 225.5 30c144.667 0 256 -29 334 -87l42 48c4.66699 5.33301 9 8.83301 13 10.5
s9.66699 2.5 17 2.5h140c11.333 0 13.333 -4.33301 6 -13l-130 -147c24.667 -41.333 42.667 -89.166 54 -143.499s17 -115.833 17 -184.5v-97c0 -90 -9 -167.5 -27 -232.5s-46.833 -118.333 -86.5 -160s-90.667 -72.334 -153 -92.001s-137.833 -29.5 -226.5 -29.5
c-145.333 0 -257 29 -335 87l-40 -45c-4.66699 -5.33301 -9 -9 -13 -11s-9.66699 -3 -17 -3h-141c-11.333 -0 -13.333 4.33301 -6 13zM352.999 476.999c0 -21.333 0.166016 -41.334 0.499023 -60.001s1.5 -36 3.5 -52l420 473c-18 14.667 -41.667 25.334 -71 32.001
s-66 10 -110 10c-48.667 0 -88.667 -5.33301 -120 -16s-56.166 -28.167 -74.499 -52.5s-31 -56 -38 -95s-10.5 -86.833 -10.5 -143.5v-96zM413.998 231.998c18 -14.667 41.666 -25.333 70.999 -32s66.333 -10 111 -10c48 0 87.833 5.33301 119.5 16
s56.834 28.167 75.501 52.5s31.667 56 39 95s11 86.833 11 143.5v93c0 22 -0.333008 42.667 -1 62s-2 37.333 -4 54z" />
    <glyph glyph-name="ugrave" unicode="&#xf9;" horiz-adv-x="1228" 
d="M143 453l0.00292969 599.999c0 12 6 18 18 18h215c12 0 18 -6 18 -18v-585c0 -52 3.33301 -95.333 10 -130s18.834 -62.167 36.501 -82.5s42 -34.666 73 -42.999s70.833 -12.5 119.5 -12.5c15.333 0 31.666 0.333008 48.999 1s34.833 1.83398 52.5 3.50098
s34.667 3.66699 51 6s31.166 5.16602 44.499 8.49902v834c0 12 6 18 18 18h216c12 0 18 -6 18 -18v-1002c0 -7.33301 -1.16699 -12.5 -3.5 -15.5s-6.83301 -5.5 -13.5 -7.5c-26.667 -7.33301 -57.334 -14.333 -92.001 -21s-71 -12.5 -109 -17.5
s-76.833 -9.16699 -116.5 -12.5s-77.834 -5 -114.501 -5c-99.333 0 -180.666 8.33301 -243.999 25s-113.333 44 -150 82s-61.834 87.667 -75.501 149s-20.5 136.333 -20.5 225zM331.003 1524c-7.33301 8.66699 -5.33301 12.999 6 12.999h258
c7.33301 0 12.833 -1.16699 16.5 -3.5s7.5 -6.16602 11.5 -11.499l162 -240c6 -10 3.33301 -15 -8 -15h-200c-7.33301 0 -13 0.833008 -17 2.5s-8.33301 5.16699 -13 10.5z" />
    <glyph glyph-name="uacute" unicode="&#xfa;" horiz-adv-x="1228" 
d="M143 453l0.00292969 599.999c0 12 6 18 18 18h215c12 0 18 -6 18 -18v-585c0 -52 3.33301 -95.333 10 -130s18.834 -62.167 36.501 -82.5s42 -34.666 73 -42.999s70.833 -12.5 119.5 -12.5c15.333 0 31.666 0.333008 48.999 1s34.833 1.83398 52.5 3.50098
s34.667 3.66699 51 6s31.166 5.16602 44.499 8.49902v834c0 12 6 18 18 18h216c12 0 18 -6 18 -18v-1002c0 -7.33301 -1.16699 -12.5 -3.5 -15.5s-6.83301 -5.5 -13.5 -7.5c-26.667 -7.33301 -57.334 -14.333 -92.001 -21s-71 -12.5 -109 -17.5
s-76.833 -9.16699 -116.5 -12.5s-77.834 -5 -114.501 -5c-99.333 0 -180.666 8.33301 -243.999 25s-113.333 44 -150 82s-61.834 87.667 -75.501 149s-20.5 136.333 -20.5 225zM457.003 1282l162 240.001c4 5.33301 7.83301 9.16602 11.5 11.499s9.16699 3.5 16.5 3.5h258
c11.333 0 13.333 -4.33301 6 -13l-216 -244c-4.66699 -5.33301 -9 -8.83301 -13 -10.5s-9.66699 -2.5 -17 -2.5h-200c-11.333 0 -14 5 -8 15z" />
    <glyph glyph-name="ucircumflex" unicode="&#xfb;" horiz-adv-x="1228" 
d="M143 453l0.00292969 599.999c0 12 6 18 18 18h215c12 0 18 -6 18 -18v-585c0 -52 3.33301 -95.333 10 -130s18.834 -62.167 36.501 -82.5s42 -34.666 73 -42.999s70.833 -12.5 119.5 -12.5c15.333 0 31.666 0.333008 48.999 1s34.833 1.83398 52.5 3.50098
s34.667 3.66699 51 6s31.166 5.16602 44.499 8.49902v834c0 12 6 18 18 18h216c12 0 18 -6 18 -18v-1002c0 -7.33301 -1.16699 -12.5 -3.5 -15.5s-6.83301 -5.5 -13.5 -7.5c-26.667 -7.33301 -57.334 -14.333 -92.001 -21s-71 -12.5 -109 -17.5
s-76.833 -9.16699 -116.5 -12.5s-77.834 -5 -114.501 -5c-99.333 0 -180.666 8.33301 -243.999 25s-113.333 44 -150 82s-61.834 87.667 -75.501 149s-20.5 136.333 -20.5 225zM276.003 1269l198 254c4 5.33301 8 9 12 11s9.66699 3 17 3h218c7.33301 0 13 -1 17 -3
s8 -5.66699 12 -11l198 -254c7.33301 -9.33301 5 -14 -7 -14h-209c-7.33301 0 -13 1.16699 -17 3.5s-7.66699 6.16602 -11 11.499l-82 122h-20l-83 -122c-3.33301 -5.33301 -7 -9.16602 -11 -11.499s-9.66699 -3.5 -17 -3.5h-208c-12 0 -14.333 4.66699 -7 14z" />
    <glyph glyph-name="udieresis" unicode="&#xfc;" horiz-adv-x="1228" 
d="M143 453l0.00292969 599.999c0 12 6 18 18 18h215c12 0 18 -6 18 -18v-585c0 -52 3.33301 -95.333 10 -130s18.834 -62.167 36.501 -82.5s42 -34.666 73 -42.999s70.833 -12.5 119.5 -12.5c15.333 0 31.666 0.333008 48.999 1s34.833 1.83398 52.5 3.50098
s34.667 3.66699 51 6s31.166 5.16602 44.499 8.49902v834c0 12 6 18 18 18h216c12 0 18 -6 18 -18v-1002c0 -7.33301 -1.16699 -12.5 -3.5 -15.5s-6.83301 -5.5 -13.5 -7.5c-26.667 -7.33301 -57.334 -14.333 -92.001 -21s-71 -12.5 -109 -17.5
s-76.833 -9.16699 -116.5 -12.5s-77.834 -5 -114.501 -5c-99.333 0 -180.666 8.33301 -243.999 25s-113.333 44 -150 82s-61.834 87.667 -75.501 149s-20.5 136.333 -20.5 225zM284.003 1249l0.000976562 276c0 6.66699 1.16699 11.5 3.5 14.5s7.16602 5.16699 14.499 6.5
l213 29c12 2 18 -3 18 -15v-311c0 -12 -6 -18 -18 -18h-213c-12 0 -18 6 -18 18zM682.004 1249l0.000976562 276c0 6.66699 1.16699 11.5 3.5 14.5s7.16602 5.16699 14.499 6.5l212 29c12 2 18 -3 18 -15v-311c0 -12 -6 -18 -18 -18h-212c-12 0 -18 6 -18 18z" />
    <glyph glyph-name="yacute" unicode="&#xfd;" horiz-adv-x="1069" 
d="M13 1054c-4 11.333 -0.00195312 17 11.998 17h249c7.33301 0 12.5 -1.16699 15.5 -3.5s5.83301 -6.83301 8.5 -13.5l206 -602l18.5 -54c6.33301 -18 12 -35 17 -51l13 -42.5c3.66699 -12.333 6.5 -21.5 8.5 -27.5l200 777c1.33301 6.66699 3.5 11.167 6.5 13.5
s8.16699 3.5 15.5 3.5h249c11.333 0 15.666 -5.66699 12.999 -17l-356 -1136c-24.667 -77.333 -50.334 -141.5 -77.001 -192.5s-59.167 -91.5 -97.5 -121.5s-84.666 -51.167 -138.999 -63.5s-121.833 -18.5 -202.5 -18.5c-21.333 0 -44.666 1.16699 -69.999 3.5
s-48 5.83301 -68 10.5c-7.33301 1.33301 -12 3.5 -14 6.5s-2.33301 7.83301 -1 14.5l25 177c2 12 9 17 21 15c15.333 -2 31.333 -3.83301 48 -5.5s32.667 -2.5 48 -2.5c48 0 87.833 3.33301 119.5 10s59 19.5 82 38.5s42.833 45.333 59.5 79s34 77.5 52 131.5
c-1.33301 0 -5.66602 2 -12.999 6s-17.166 13 -29.499 27s-26.5 34.333 -42.5 61s-32.667 62.667 -50 108zM390.998 1282l162 240.001c4 5.33301 7.83301 9.16602 11.5 11.499s9.16699 3.5 16.5 3.5h258c11.333 0 13.333 -4.33301 6 -13l-216 -244
c-4.66699 -5.33301 -9 -8.83301 -13 -10.5s-9.66699 -2.5 -17 -2.5h-200c-11.333 0 -14 5 -8 15z" />
    <glyph glyph-name="thorn" unicode="&#xfe;" horiz-adv-x="1205" 
d="M139 954l-0.000976562 629.998c0 12.667 6 19.334 18 20.001l216 30c12 0.666992 18 -4.66602 18 -15.999v-528c34 2.66699 67.5 4.5 100.5 5.5s65.833 1.5 98.5 1.5c98 0 179.667 -8.16699 245 -24.5s117.833 -43.5 157.5 -81.5s67.834 -88.167 84.501 -150.5
s25 -139.5 25 -231.5v-137c0 -92.667 -8.16699 -170.834 -24.5 -234.501s-44 -115.167 -83 -154.5s-90.833 -67.666 -155.5 -84.999s-145 -26 -241 -26c-36 0 -71.833 2 -107.5 6s-68.5 9.33301 -98.5 16v-429c0 -12 -6 -18 -18 -18h-216c-12 0 -18 6 -18 18v1380
c-0.666992 1.33301 -1 4.33301 -1 9zM391.999 203.998c27.333 -4 58.1689 -7.16699 92.502 -9.5s70.5 -3.5 108.5 -3.5c54.667 0 99.334 5.16699 134.001 15.5s61.667 27.5 81 51.5s32.5 55.833 39.5 95.5s10.5 89.167 10.5 148.5v72c0 58.667 -3.5 107.5 -10.5 146.5
s-20.333 70.167 -40 93.5s-47.167 39.833 -82.5 49.5s-81 14.5 -137 14.5c-14.667 0 -30.834 -0.166992 -48.501 -0.5s-35.334 -1 -53.001 -2s-34.834 -2.33301 -51.501 -4s-31 -3.5 -43 -5.5v-662z" />
    <glyph glyph-name="ydieresis" unicode="&#xff;" horiz-adv-x="1069" 
d="M13 1054c-4 11.333 -0.00195312 17 11.998 17h249c7.33301 0 12.5 -1.16699 15.5 -3.5s5.83301 -6.83301 8.5 -13.5l206 -602l18.5 -54c6.33301 -18 12 -35 17 -51l13 -42.5c3.66699 -12.333 6.5 -21.5 8.5 -27.5l200 777c1.33301 6.66699 3.5 11.167 6.5 13.5
s8.16699 3.5 15.5 3.5h249c11.333 0 15.666 -5.66699 12.999 -17l-356 -1136c-24.667 -77.333 -50.334 -141.5 -77.001 -192.5s-59.167 -91.5 -97.5 -121.5s-84.666 -51.167 -138.999 -63.5s-121.833 -18.5 -202.5 -18.5c-21.333 0 -44.666 1.16699 -69.999 3.5
s-48 5.83301 -68 10.5c-7.33301 1.33301 -12 3.5 -14 6.5s-2.33301 7.83301 -1 14.5l25 177c2 12 9 17 21 15c15.333 -2 31.333 -3.83301 48 -5.5s32.667 -2.5 48 -2.5c48 0 87.833 3.33301 119.5 10s59 19.5 82 38.5s42.833 45.333 59.5 79s34 77.5 52 131.5
c-1.33301 0 -5.66602 2 -12.999 6s-17.166 13 -29.499 27s-26.5 34.333 -42.5 61s-32.667 62.667 -50 108zM225.998 1249l0.000976562 276c0 6.66699 1.16699 11.5 3.5 14.5s7.16602 5.16699 14.499 6.5l213 29c12 2 18 -3 18 -15v-311c0 -12 -6 -18 -18 -18h-213
c-12 0 -18 6 -18 18zM623.999 1249l0.000976562 276c0 6.66699 1.16699 11.5 3.5 14.5s7.16602 5.16699 14.499 6.5l212 29c12 2 18 -3 18 -15v-311c0 -12 -6 -18 -18 -18h-212c-12 0 -18 6 -18 18z" />
    <glyph glyph-name="Amacron" unicode="&#x100;" horiz-adv-x="1343" 
d="M15 17l467 1441c2.66699 6.66699 5.5 11.167 8.5 13.5s8.16699 3.5 15.5 3.5h330c7.33301 0 12.5 -1.16699 15.5 -3.5s5.83301 -6.83301 8.5 -13.5l469 -1441c4 -11.333 0 -17 -12 -17h-256c-7.33301 0 -12.5 1.16699 -15.5 3.5s-5.5 6.83301 -7.5 13.5l-87 283h-562
l-86 -283c-2 -6.66699 -4.5 -11.167 -7.5 -13.5s-8.16699 -3.5 -15.5 -3.5h-253c-12 0 -16 5.66699 -12 17zM392 1633v150c0 12 6 18 18 18h524c12 0 18 -6 18 -18v-150c0 -12 -6 -18 -18 -18h-524c-12 0 -18 6 -18 18zM463 540h415l-208 677z" />
    <glyph glyph-name="amacron" unicode="&#x101;" horiz-adv-x="1125" 
d="M73 307c0 45.333 3.16895 85.1748 9.50195 119.508s17.666 64.166 33.999 89.499s38.333 46.666 66 63.999s62.667 31.166 105 41.499s92.666 17.666 150.999 21.999s126.5 6.5 204.5 6.5h103v52c0 34 -3.16699 62.5 -9.5 85.5s-18.333 41.5 -36 55.5
s-42.167 24 -73.5 30s-72.333 9 -123 9c-48 0 -99.167 -1.5 -153.5 -4.5s-106.5 -7.16699 -156.5 -12.5c-12 -0.666992 -18 4.66602 -18 15.999v171c0 7.33301 1.16699 12.333 3.5 15s7.16602 4.66699 14.499 6c26.667 4 55.167 7.66699 85.5 11s60.5 6.16602 90.5 8.49902
s59 4.16602 87 5.49902s53 2 75 2c68.667 0 127.834 -3.5 177.501 -10.5s91.5 -17.667 125.5 -32s61.333 -32.833 82 -55.5s36.667 -49.5 48 -80.5s18.833 -66.5 22.5 -106.5s5.5 -85 5.5 -135v-657c0 -7.33301 -1.16699 -12.333 -3.5 -15
s-7.16602 -4.33398 -14.499 -5.00098c-34.667 -4.66699 -71 -9 -109 -13s-75.5 -7.33301 -112.5 -10s-72 -4.66699 -105 -6s-61.5 -2 -85.5 -2c-84.667 0 -157.834 5.33301 -219.501 16s-112.5 28.667 -152.5 54s-69.667 59.5 -89 102.5s-29 97.167 -29 162.5z
M267.002 1311.01v154c0 12 6 18 18 18h524c12 0 18 -6 18 -18v-154c0 -12 -6 -18 -18 -18h-524c-12 0 -18 6 -18 18zM303.002 316.009c0 -32 6.5 -57.333 19.5 -76s30.833 -33 53.5 -43s49.5 -16.333 80.5 -19s64.833 -4 101.5 -4c32.667 0 65.834 0.833008 99.501 2.5
s63.167 4.5 88.5 8.5v273h-110c-69.333 0 -125.5 -1.83301 -168.5 -5.5s-76.833 -10.834 -101.5 -21.501s-41.334 -25.167 -50.001 -43.5s-13 -42.166 -13 -71.499z" />
    <glyph glyph-name="Abreve" unicode="&#x102;" horiz-adv-x="1343" 
d="M15 17l467 1441c2.66699 6.66699 5.5 11.167 8.5 13.5s8.16699 3.5 15.5 3.5h330c7.33301 0 12.5 -1.16699 15.5 -3.5s5.83301 -6.83301 8.5 -13.5l469 -1441c4 -11.333 0 -17 -12 -17h-256c-7.33301 0 -12.5 1.16699 -15.5 3.5s-5.5 6.83301 -7.5 13.5l-87 283h-562
l-86 -283c-2 -6.66699 -4.5 -11.167 -7.5 -13.5s-8.16699 -3.5 -15.5 -3.5h-253c-12 0 -16 5.66699 -12 17zM375 1828c-0.666992 12 5 18.001 17 18.001h144c7.33301 0 12.333 -1.33301 15 -4s4.66699 -7.33398 6 -14.001c2.66699 -18 7.5 -32.833 14.5 -44.5
s15.667 -21.167 26 -28.5s21.666 -12.5 33.999 -15.5s25.166 -4.5 38.499 -4.5s26.333 1.5 39 4.5s24.167 8.16699 34.5 15.5s19 16.833 26 28.5s11.833 26.5 14.5 44.5c0.666992 12 7.33398 18 20.001 18h145c12 0 17.667 -6 17 -18
c-2 -41.333 -7.83301 -77.666 -17.5 -108.999s-25.667 -57.333 -48 -78s-52.166 -36.167 -89.499 -46.5s-84.333 -15.5 -141 -15.5s-103.5 5.16699 -140.5 15.5s-66.667 25.833 -89 46.5s-38.333 46.667 -48 78s-15.5 67.666 -17.5 108.999zM463 540.001h415l-208 677z" />
    <glyph glyph-name="abreve" unicode="&#x103;" horiz-adv-x="1125" 
d="M73 307c0 45.333 3.16895 85.1748 9.50195 119.508s17.666 64.166 33.999 89.499s38.333 46.666 66 63.999s62.667 31.166 105 41.499s92.666 17.666 150.999 21.999s126.5 6.5 204.5 6.5h103v52c0 34 -3.16699 62.5 -9.5 85.5s-18.333 41.5 -36 55.5
s-42.167 24 -73.5 30s-72.333 9 -123 9c-48 0 -99.167 -1.5 -153.5 -4.5s-106.5 -7.16699 -156.5 -12.5c-12 -0.666992 -18 4.66602 -18 15.999v171c0 7.33301 1.16699 12.333 3.5 15s7.16602 4.66699 14.499 6c26.667 4 55.167 7.66699 85.5 11s60.5 6.16602 90.5 8.49902
s59 4.16602 87 5.49902s53 2 75 2c68.667 0 127.834 -3.5 177.501 -10.5s91.5 -17.667 125.5 -32s61.333 -32.833 82 -55.5s36.667 -49.5 48 -80.5s18.833 -66.5 22.5 -106.5s5.5 -85 5.5 -135v-657c0 -7.33301 -1.16699 -12.333 -3.5 -15
s-7.16602 -4.33398 -14.499 -5.00098c-34.667 -4.66699 -71 -9 -109 -13s-75.5 -7.33301 -112.5 -10s-72 -4.66699 -105 -6s-61.5 -2 -85.5 -2c-84.667 0 -157.834 5.33301 -219.501 16s-112.5 28.667 -152.5 54s-69.667 59.5 -89 102.5s-29 97.167 -29 162.5z
M263.002 1518.01c-0.666992 12 4.99902 18 16.999 18h155c12 0 18.333 -6 19 -18c4 -41.333 14.667 -69.666 32 -84.999s41.333 -23 72 -23s54.834 7.66699 72.501 23s28.167 43.666 31.5 84.999c0.666992 12 7 18 19 18h156c12 0 17.667 -6 17 -18
c-2 -42 -7.66699 -79.667 -17 -113s-25 -61.666 -47 -84.999s-51.667 -41.166 -89 -53.499s-85 -18.5 -143 -18.5s-105.5 6.16699 -142.5 18.5s-66.5 30.166 -88.5 53.499s-37.667 51.666 -47 84.999s-15 71 -17 113zM303.001 316.009c0 -32 6.5 -57.333 19.5 -76
s30.833 -33 53.5 -43s49.5 -16.333 80.5 -19s64.833 -4 101.5 -4c32.667 0 65.834 0.833008 99.501 2.5s63.167 4.5 88.5 8.5v273h-110c-69.333 0 -125.5 -1.83301 -168.5 -5.5s-76.833 -10.834 -101.5 -21.501s-41.334 -25.167 -50.001 -43.5s-13 -42.166 -13 -71.499z" />
    <glyph glyph-name="Aogonek" unicode="&#x104;" horiz-adv-x="1343" 
d="M15 17l466.998 1441c3.33301 11.333 11.333 17 24 17h330c12.667 0 20.667 -5.66699 24 -17l469 -1441c2 -6.66699 2.5 -11.334 1.5 -14.001s-6.16699 -4.66699 -15.5 -6c-39.333 -7.33301 -72.5 -18.833 -99.5 -34.5s-49 -33.167 -66 -52.5s-29.333 -39.166 -37 -59.499
s-11.5 -38.833 -11.5 -55.5c0 -14 1.33301 -25.5 4 -34.5s7.5 -16.333 14.5 -22s17 -9.5 30 -11.5s29.833 -3 50.5 -3c15.333 0 32.166 0.5 50.499 1.5s35.5 2.16699 51.5 3.5c12 0.666992 18.333 -4.66602 19 -15.999l8 -95c0.666992 -12 -4.66602 -19 -15.999 -21
c-19.333 -4 -42.666 -7.33301 -69.999 -10s-55 -4 -83 -4c-46 0 -84.833 3.33301 -116.5 10s-57.5 17.167 -77.5 31.5s-34.333 32.833 -43 55.5s-13 50 -13 82c0 26.667 3.66699 51.834 11 75.501s17 45.667 29 66s26 39.333 42 57s32.667 33.5 50 47.5
c-1.33301 1.33301 -2.66602 4.33301 -3.99902 9l-87 283h-562l-86 -283c-2 -6.66699 -4.5 -11.167 -7.5 -13.5s-8.16699 -3.5 -15.5 -3.5h-253c-12 0 -16 5.66699 -12 17zM462.998 539.998h415l-208 677z" />
    <glyph glyph-name="aogonek" unicode="&#x105;" horiz-adv-x="1125" 
d="M73 307c0 45.333 3.17188 85.1748 9.50488 119.508s17.666 64.166 33.999 89.499s38.333 46.666 66 63.999s62.667 31.166 105 41.499s92.666 17.666 150.999 21.999s126.5 6.5 204.5 6.5h103v52c0 34 -3.16699 62.5 -9.5 85.5s-18.333 41.5 -36 55.5
s-42.167 24 -73.5 30s-72.333 9 -123 9c-48 0 -99.167 -1.5 -153.5 -4.5s-106.5 -7.16699 -156.5 -12.5c-12 -0.666992 -18 4.66602 -18 15.999v171c0 7.33301 1.16699 12.333 3.5 15s7.16602 4.66699 14.499 6c26.667 4 55.167 7.66699 85.5 11s60.5 6.16602 90.5 8.49902
s59 4.16602 87 5.49902s53 2 75 2c68.667 0 127.834 -3.5 177.501 -10.5s91.5 -17.667 125.5 -32s61.333 -32.833 82 -55.5s36.667 -49.5 48 -80.5s18.833 -66.5 22.5 -106.5s5.5 -85 5.5 -135v-657c0 -8.66699 -1.5 -14.334 -4.5 -17.001s-6.83301 -5.33398 -11.5 -8.00098
c-26.667 -12.667 -51.667 -27.834 -75 -45.501s-43.5 -36 -60.5 -55s-30.333 -38 -40 -57s-14.5 -36.167 -14.5 -51.5c0 -12.667 1.16699 -23.167 3.5 -31.5s6.5 -15 12.5 -20s14.5 -8.5 25.5 -10.5s25.167 -3 42.5 -3c11.333 0 23.166 0.333008 35.499 1s24.5 2 36.5 4
c12.667 2 19.334 -3.33301 20.001 -16l10 -95c0.666992 -6.66699 0 -11.667 -2 -15s-6.33301 -5.66602 -13 -6.99902c-15.333 -3.33301 -35.333 -6.33301 -60 -9s-52 -4 -82 -4c-80 0 -136.667 13.5 -170 40.5s-50 68.833 -50 125.5c0 20.667 3.5 41.834 10.5 63.501
s17 42.5 30 62.5s28.333 39 46 57s37.167 34 58.5 48c-34.667 -2.66699 -67.334 -4.66699 -98.001 -6s-57.334 -2 -80.001 -2c-84.667 0 -157.834 5.33301 -219.501 16s-112.5 28.667 -152.5 54s-69.667 59.5 -89 102.5s-29 97.167 -29 162.5zM303.005 316.009
c0 -32 6.5 -57.333 19.5 -76s30.833 -33 53.5 -43s49.5 -16.333 80.5 -19s64.833 -4 101.5 -4c32.667 0 65.834 0.833008 99.501 2.5s63.167 4.5 88.5 8.5v273h-110c-69.333 0 -125.5 -1.83301 -168.5 -5.5s-76.833 -10.834 -101.5 -21.501s-41.334 -25.167 -50.001 -43.5
s-13 -42.166 -13 -71.499z" />
    <glyph glyph-name="Cacute" unicode="&#x106;" horiz-adv-x="1197" 
d="M110 665v146.996c0 130.667 14.333 240.167 43 328.5s70.167 159.333 124.5 213s121 91.834 200 114.501s168.5 34 268.5 34c34 0 67.833 -1 101.5 -3s65.834 -5 96.501 -9s59.667 -8.83301 87 -14.5s51.666 -11.834 72.999 -18.501c11.333 -3.33301 16 -11 14 -23
l-33 -201c-2 -12 -9 -16.667 -21 -14c-50 10 -101.167 17 -153.5 21s-103.833 6 -154.5 6c-61.333 0 -115.5 -6.83301 -162.5 -20.5s-86.5 -37 -118.5 -70s-56.333 -76.667 -73 -131s-25 -121.833 -25 -202.5v-167c0 -81.333 8.16699 -149.333 24.5 -204
s40.5 -98.5 72.5 -131.5s71.667 -56.333 119 -70s101.666 -20.5 162.999 -20.5c58 0 113.5 1.83301 166.5 5.5s104.167 8.83398 153.5 15.501c12 2 19 -3 21 -15l29 -205c1.33301 -7.33301 1 -12.5 -1 -15.5s-6.33301 -5.5 -13 -7.5c-22 -5.33301 -47 -10.166 -75 -14.499
s-57.667 -8 -89 -11s-64.166 -5.33301 -98.499 -7s-68.833 -2.5 -103.5 -2.5c-100 0 -189.5 11.333 -268.5 34s-145.667 60.834 -200 114.501s-95.833 124.834 -124.5 213.501s-43 199 -43 331zM566 1614l190.001 203.999c4.66699 5.33301 9 8.83301 13 10.5
s9.66699 2.5 17 2.5h269c5.33301 0 8.33301 -1.16699 9 -3.5s-1 -5.16602 -5 -8.49902l-246 -206c-8.66699 -8 -19.334 -12 -32.001 -12h-209c-11.333 0 -13.333 4.33301 -6 13z" />
    <glyph glyph-name="cacute" unicode="&#x107;" horiz-adv-x="963" 
d="M102 479l0.000976562 112.999c0 88.667 8.16699 164.834 24.5 228.501s44.333 116 84 157s92.5 71.167 158.5 90.5s149 29 249 29c48 0 93.167 -2.16699 135.5 -6.5s80.833 -9.83301 115.5 -16.5c6.66699 -1.33301 11.334 -3.33301 14.001 -6s3.66699 -7.66699 3 -15
l-15 -176c-0.666992 -11.333 -7 -16.666 -19 -15.999c-36 4.66699 -72.667 7.83398 -110 9.50098s-76 2.5 -116 2.5c-57.333 0 -103.5 -5 -138.5 -15s-62.333 -26.833 -82 -50.5s-32.834 -54.834 -39.501 -93.501s-10 -86.667 -10 -144v-71c0 -58 3.33301 -106.333 10 -145
s19.667 -69.667 39 -93s46.666 -39.833 81.999 -49.5s81.666 -14.5 138.999 -14.5c41.333 0 80.666 1.16699 117.999 3.5s73.666 5.5 108.999 9.5c12 0.666992 18.333 -4.66602 19 -15.999l14 -176c0.666992 -7.33301 -0.166016 -12.5 -2.49902 -15.5
s-7.16602 -5.16699 -14.499 -6.5c-16.667 -3.33301 -35.167 -6.5 -55.5 -9.5s-41.5 -5.5 -63.5 -7.5s-44.167 -3.66699 -66.5 -5s-44.166 -2 -65.499 -2c-98.667 0 -181 9.16699 -247 27.5s-119 47.666 -159 87.999s-68.333 92.666 -85 156.999s-25 142.5 -25 234.5z
M403.001 1282l162 240.001c4 5.33301 7.83301 9.16602 11.5 11.499s9.16699 3.5 16.5 3.5h258c11.333 0 13.333 -4.33301 6 -13l-216 -244c-4.66699 -5.33301 -9 -8.83301 -13 -10.5s-9.66699 -2.5 -17 -2.5h-200c-11.333 0 -14 5 -8 15z" />
    <glyph glyph-name="Ccaron" unicode="&#x10c;" horiz-adv-x="1197" 
d="M110 665v146.996c0 130.667 14.333 240.167 43 328.5s70.167 159.333 124.5 213s121 91.834 200 114.501s168.5 34 268.5 34c34 0 67.833 -1 101.5 -3s65.834 -5 96.501 -9s59.667 -8.83301 87 -14.5s51.666 -11.834 72.999 -18.501c11.333 -3.33301 16 -11 14 -23
l-33 -201c-2 -12 -9 -16.667 -21 -14c-50 10 -101.167 17 -153.5 21s-103.833 6 -154.5 6c-61.333 0 -115.5 -6.83301 -162.5 -20.5s-86.5 -37 -118.5 -70s-56.333 -76.667 -73 -131s-25 -121.833 -25 -202.5v-167c0 -81.333 8.16699 -149.333 24.5 -204
s40.5 -98.5 72.5 -131.5s71.667 -56.333 119 -70s101.666 -20.5 162.999 -20.5c58 0 113.5 1.83301 166.5 5.5s104.167 8.83398 153.5 15.501c12 2 19 -3 21 -15l29 -205c1.33301 -7.33301 1 -12.5 -1 -15.5s-6.33301 -5.5 -13 -7.5c-22 -5.33301 -47 -10.166 -75 -14.499
s-57.667 -8 -89 -11s-64.166 -5.33301 -98.499 -7s-68.833 -2.5 -103.5 -2.5c-100 0 -189.5 11.333 -268.5 34s-145.667 60.834 -200 114.501s-95.833 124.834 -124.5 213.501s-43 199 -43 331zM366 1818c-8.66699 8.66699 -7 13 5 13h204c12 0 22 -4.33301 30 -13l90 -96
h20l91 96c8 8.66699 18 13 30 13h203c12 0 13.667 -4.33301 5 -13l-205 -204c-8.66699 -8.66699 -19 -13 -31 -13h-206c-12 0 -22.333 4.33301 -31 13z" />
    <glyph glyph-name="ccaron" unicode="&#x10d;" horiz-adv-x="963" 
d="M102 479l0.000976562 112.999c0 88.667 8.16699 164.834 24.5 228.501s44.333 116 84 157s92.5 71.167 158.5 90.5s149 29 249 29c48 0 93.167 -2.16699 135.5 -6.5s80.833 -9.83301 115.5 -16.5c6.66699 -1.33301 11.334 -3.33301 14.001 -6s3.66699 -7.66699 3 -15
l-15 -176c-0.666992 -11.333 -7 -16.666 -19 -15.999c-36 4.66699 -72.667 7.83398 -110 9.50098s-76 2.5 -116 2.5c-57.333 0 -103.5 -5 -138.5 -15s-62.333 -26.833 -82 -50.5s-32.834 -54.834 -39.501 -93.501s-10 -86.667 -10 -144v-71c0 -58 3.33301 -106.333 10 -145
s19.667 -69.667 39 -93s46.666 -39.833 81.999 -49.5s81.666 -14.5 138.999 -14.5c41.333 0 80.666 1.16699 117.999 3.5s73.666 5.5 108.999 9.5c12 0.666992 18.333 -4.66602 19 -15.999l14 -176c0.666992 -7.33301 -0.166016 -12.5 -2.49902 -15.5
s-7.16602 -5.16699 -14.499 -6.5c-16.667 -3.33301 -35.167 -6.5 -55.5 -9.5s-41.5 -5.5 -63.5 -7.5s-44.167 -3.66699 -66.5 -5s-44.166 -2 -65.499 -2c-98.667 0 -181 9.16699 -247 27.5s-119 47.666 -159 87.999s-68.333 92.666 -85 156.999s-25 142.5 -25 234.5z
M218.001 1523c-7.33301 9.33301 -5 14 7 14h208c7.33301 0 13 -1.16699 17 -3.5s7.66699 -6.16602 11 -11.499l83 -122h20l82 122c3.33301 5.33301 7 9.16602 11 11.499s9.66699 3.5 17 3.5h209c12 0 14.333 -4.66699 7 -14l-198 -254c-4 -5.33301 -8 -9 -12 -11
s-9.66699 -3 -17 -3h-218c-7.33301 0 -13 1 -17 3s-8 5.66699 -12 11z" />
    <glyph glyph-name="Dcaron" unicode="&#x10e;" horiz-adv-x="1416" 
d="M167 18l0.00195312 1439c0 12 6 18.333 18 19c26.667 2 56.167 3.83301 88.5 5.5s64.333 3 96 4s62 1.83301 91 2.5s53.5 1 73.5 1c77.333 0 150.166 -3.16699 218.499 -9.5s131.333 -18.5 189 -36.5s109.334 -43 155.001 -75s84.334 -73.833 116.001 -125.5
s56 -114.167 73 -187.5s25.5 -160 25.5 -260v-113c0 -100 -8.5 -186.833 -25.5 -260.5s-41.333 -136.334 -73 -188.001s-70.334 -93.667 -116.001 -126s-97.334 -57.666 -155.001 -75.999s-120.667 -30.833 -189 -37.5s-141.166 -10 -218.499 -10
c-22.667 0 -48.167 0.333008 -76.5 1s-57.833 1.5 -88.5 2.5s-61.834 2.33301 -93.501 4s-61.834 3.83398 -90.501 6.50098c-12 0.666992 -18 7.33398 -18 20.001zM306.002 1818c-8.66699 8.66699 -7 13 5 13h204c12 0 22 -4.33301 30 -13l90 -96h20l91 96
c8 8.66699 18 13 30 13h203c12 0 13.667 -4.33301 5 -13l-205 -204c-8.66699 -8.66699 -19 -13 -31 -13h-206c-12 0 -22.333 4.33301 -31 13zM432.002 228.998c10.667 -1.33301 23.8369 -2.49805 39.5039 -3.49805s31.5 -1.83301 47.5 -2.5s31.5 -1.16699 46.5 -1.5
s27.833 -0.5 38.5 -0.5c74 0 138.667 6 194 18s101.166 34.667 137.499 68s63.666 79.666 81.999 138.999s27.5 136.666 27.5 231.999v119c0 94.667 -9.5 171.5 -28.5 230.5s-47.5 105.167 -85.5 138.5s-85.5 56 -142.5 68s-123.5 18 -199.5 18
c-10.667 0 -22.834 -0.166992 -36.501 -0.5l-42 -1c-14.333 -0.333008 -28.333 -1 -42 -2s-25.834 -2.16699 -36.501 -3.5v-1016z" />
    <glyph glyph-name="dcaron" unicode="&#x10f;" horiz-adv-x="1204" 
d="M104 467l0.000976562 139.999c0 91.333 8 168.166 24 230.499s43.333 112.833 82 151.5s89.834 66.334 153.501 83.001s143.5 25 239.5 25c36 0 72.667 -2 110 -6s71 -9 101 -15v508c0 12.667 6 19.334 18 20.001l216 30c12 0.666992 18 -4.66602 18 -15.999v-1595
c0 -12.667 -6 -19.334 -18 -20.001c-73.333 -10 -146.166 -17.667 -218.499 -23s-142.833 -8 -211.5 -8c-98.667 0 -180.834 8.5 -246.501 25.5s-118.334 44.833 -158.001 83.5s-67.834 89.5 -84.501 152.5s-25 140.833 -25 233.5zM347.001 504.999
c0 -60 3.5 -110.17 10.5 -150.503s20.167 -72.666 39.5 -96.999s46.5 -41.5 81.5 -51.5s80.167 -15 135.5 -15c33.333 0 68 0.833008 104 2.5s68 4.16699 96 7.5v662c-12.667 2.66699 -27.667 5 -45 7s-35.333 3.5 -54 4.5s-37.167 1.83301 -55.5 2.5s-34.833 1 -49.5 1
c-54.667 0 -99 -4.83301 -133 -14.5s-60.667 -26.167 -80 -49.5s-32.5 -54.166 -39.5 -92.499s-10.5 -86.166 -10.5 -143.499v-73zM1174 1186v397.998c0 12.667 6 19.334 18 20.001l206 29c12.667 0.666992 18 -4.66602 16 -15.999l-40 -431c-2 -12 -8.66699 -18 -20 -18
h-162c-12 0 -18 6 -18 18z" />
    <glyph glyph-name="Dcroat" unicode="&#x110;" horiz-adv-x="1431" 
d="M43 664l0.00195312 206.998c0 12 6 18 18 18h121v568c0 12 6 18.333 18 19c26.667 2 56.167 3.83301 88.5 5.5s64.333 3 96 4s62 1.83301 91 2.5s53.5 1 73.5 1c77.333 0 150.166 -3.16699 218.499 -9.5s131.333 -18.5 189 -36.5s109.334 -43 155.001 -75
s84.334 -73.833 116.001 -125.5s56 -114.167 73 -187.5s25.5 -160 25.5 -260v-113c0 -100 -8.5 -186.833 -25.5 -260.5s-41.333 -136.334 -73 -188.001s-70.334 -93.667 -116.001 -126s-97.334 -57.666 -155.001 -75.999s-120.667 -30.833 -189 -37.5
s-141.166 -10 -218.499 -10c-22.667 0 -48.167 0.333008 -76.5 1s-57.833 1.5 -88.5 2.5s-61.834 2.33301 -93.501 4s-61.834 3.83398 -90.501 6.50098c-12 0.666992 -18 7.33398 -18 20.001v628h-121c-12 0 -18 6 -18 18zM447.002 228.998
c10.667 -1.33301 23.8369 -2.49805 39.5039 -3.49805s31.5 -1.83301 47.5 -2.5s31.5 -1.16699 46.5 -1.5s27.833 -0.5 38.5 -0.5c74 0 138.667 6 194 18s101.166 34.667 137.499 68s63.666 79.666 81.999 138.999s27.5 136.666 27.5 231.999v119
c0 94.667 -9.5 171.5 -28.5 230.5s-47.5 105.167 -85.5 138.5s-85.5 56 -142.5 68s-123.5 18 -199.5 18c-10.667 0 -22.834 -0.166992 -36.501 -0.5l-42 -1c-14.333 -0.333008 -28.333 -1 -42 -2s-25.834 -2.16699 -36.501 -3.5v-356h234c12 0 18 -6 18 -18v-207
c0 -12 -6 -18 -18 -18h-234v-417z" />
    <glyph glyph-name="dcroat" unicode="&#x111;" horiz-adv-x="1204" 
d="M104 467l0.000976562 139.999c0 91.333 8 168.166 24 230.499s43.333 112.833 82 151.5s89.834 66.334 153.501 83.001s143.5 25 239.5 25c36 0 72.667 -2 110 -6s71 -9 101 -15v149h-288c-12 0 -18 6 -18 18v140c0 12 6 18 18 18h288v183c0 12.667 6 19.334 18 20.001
l216 30c12 0.666992 18 -4.66602 18 -15.999v-217h115c12 0 18 -6 18 -18v-140c0 -12 -6 -18 -18 -18h-115v-1202c0 -12.667 -6 -19.334 -18 -20.001c-73.333 -10 -146.166 -17.667 -218.499 -23s-142.833 -8 -211.5 -8c-98.667 0 -180.834 8.5 -246.501 25.5
s-118.334 44.833 -158.001 83.5s-67.834 89.5 -84.501 152.5s-25 140.833 -25 233.5zM347.001 504.999c0 -60 3.5 -110.17 10.5 -150.503s20.167 -72.666 39.5 -96.999s46.5 -41.5 81.5 -51.5s80.167 -15 135.5 -15c33.333 0 68 0.833008 104 2.5s68 4.16699 96 7.5v662
c-12.667 2.66699 -27.667 5 -45 7s-35.333 3.5 -54 4.5s-37.167 1.83301 -55.5 2.5s-34.833 1 -49.5 1c-54.667 0 -99 -4.83301 -133 -14.5s-60.667 -26.167 -80 -49.5s-32.5 -54.166 -39.5 -92.499s-10.5 -86.166 -10.5 -143.499v-73z" />
    <glyph glyph-name="Emacron" unicode="&#x112;" horiz-adv-x="1202" 
d="M168 18v1439c0 12 6 18 18 18h894c12 0 18 -6 18 -18v-216c0 -12 -6 -18 -18 -18h-646v-334h519c12 0 18 -6 18 -18v-215c0 -12 -6 -18 -18 -18h-519v-386h646c12 0 18 -6 18 -18v-216c0 -12 -6 -18 -18 -18h-894c-12 0 -18 6 -18 18zM334 1633v150c0 12 6 18 18 18h524
c12 0 18 -6 18 -18v-150c0 -12 -6 -18 -18 -18h-524c-12 0 -18 6 -18 18z" />
    <glyph glyph-name="emacron" unicode="&#x113;" horiz-adv-x="1165" 
d="M101 486l-0.000976562 100.997c0 88 8.83301 164 26.5 228s46 116.833 85 158.5s89.5 72.667 151.5 93s137.667 30.5 227 30.5c88.667 0 164.334 -10 227.001 -30s113.5 -50.5 152.5 -91.5s67.5 -92.833 85.5 -155.5s27 -137 27 -223
c0 -36.667 -2.16699 -69.667 -6.5 -99s-8.16602 -50.666 -11.499 -63.999c-1.33301 -5.33301 -3.33301 -9.16602 -6 -11.499s-7 -3.5 -13 -3.5l-695 -2c3.33301 -46 10.5 -83.667 21.5 -113s27 -52.5 48 -69.5s47.5 -28.667 79.5 -35s70.667 -9.5 116 -9.5
c60 0 118.833 1 176.5 3s119.5 6.33301 185.5 13c12 0.666992 18.333 -4.66602 19 -15.999l14 -168c0.666992 -12 -5 -19 -17 -21c-63.333 -9.33301 -126.833 -16.5 -190.5 -21.5s-131.834 -7.5 -204.501 -7.5c-90 0 -166.667 9.5 -230 28.5s-114.833 49.167 -154.5 90.5
s-68.5 94.5 -86.5 159.5s-27 143.5 -27 235.5zM297.999 1311v154c0 12 6 18 18 18h524c12 0 18 -6 18 -18v-154c0 -12 -6 -18 -18 -18h-524c-12 0 -18 6 -18 18zM348.999 604.997l506.002 15.001c-4.66699 48 -12.334 88.667 -23.001 122s-26 60.166 -46 80.499
s-45.833 35 -77.5 44s-70.834 13.5 -117.501 13.5c-46 0 -84.5 -5 -115.5 -15s-55.667 -25.833 -74 -47.5s-31.5 -50 -39.5 -85s-12.333 -77.5 -13 -127.5z" />
    <glyph glyph-name="Edotaccent" unicode="&#x116;" horiz-adv-x="1202" 
d="M168 18v1439c0 12 6 18 18 18h894c12 0 18 -6 18 -18v-216c0 -12 -6 -18 -18 -18h-646v-334h519c12 0 18 -6 18 -18v-215c0 -12 -6 -18 -18 -18h-519v-386h646c12 0 18 -6 18 -18v-216c0 -12 -6 -18 -18 -18h-894c-12 0 -18 6 -18 18zM486 1619v206.998
c0 12.667 6 19.334 18 20.001l220 31c12 0.666992 18 -4.66602 18 -15.999v-242c0 -12 -6 -18 -18 -18h-220c-12 0 -18 6 -18 18z" />
    <glyph glyph-name="edotaccent" unicode="&#x117;" horiz-adv-x="1165" 
d="M101 486l-0.000976562 100.997c0 88 8.83301 164 26.5 228s46 116.833 85 158.5s89.5 72.667 151.5 93s137.667 30.5 227 30.5c88.667 0 164.334 -10 227.001 -30s113.5 -50.5 152.5 -91.5s67.5 -92.833 85.5 -155.5s27 -137 27 -223
c0 -36.667 -2.16699 -69.667 -6.5 -99s-8.16602 -50.666 -11.499 -63.999c-1.33301 -5.33301 -3.33301 -9.16602 -6 -11.499s-7 -3.5 -13 -3.5l-695 -2c3.33301 -46 10.5 -83.667 21.5 -113s27 -52.5 48 -69.5s47.5 -28.667 79.5 -35s70.667 -9.5 116 -9.5
c60 0 118.833 1 176.5 3s119.5 6.33301 185.5 13c12 0.666992 18.333 -4.66602 19 -15.999l14 -168c0.666992 -12 -5 -19 -17 -21c-63.333 -9.33301 -126.833 -16.5 -190.5 -21.5s-131.834 -7.5 -204.501 -7.5c-90 0 -166.667 9.5 -230 28.5s-114.833 49.167 -154.5 90.5
s-68.5 94.5 -86.5 159.5s-27 143.5 -27 235.5zM348.999 604.997l506.002 15.001c-4.66699 48 -12.334 88.667 -23.001 122s-26 60.166 -46 80.499s-45.833 35 -77.5 44s-70.834 13.5 -117.501 13.5c-46 0 -84.5 -5 -115.5 -15s-55.667 -25.833 -74 -47.5
s-31.5 -50 -39.5 -85s-12.333 -77.5 -13 -127.5zM467.001 1249v275.998c0 12.667 6 19.334 18 20.001l220 31c12 0.666992 18 -4.66602 18 -15.999v-311c0 -12 -6 -18 -18 -18h-220c-12 0 -18 6 -18 18z" />
    <glyph glyph-name="Eogonek" unicode="&#x118;" horiz-adv-x="1202" 
d="M168 18l-0.00292969 1439c0 12 6 18 18 18h894c12 0 18 -6 18 -18v-216c0 -12 -6 -18 -18 -18h-646v-334h519c12 0 18 -6 18 -18v-215c0 -12 -6 -18 -18 -18h-519v-386h646c12 0 18 -6 18 -18v-216c0 -12 -6 -18 -18 -18h-67c-22 -14 -41.5 -29.333 -58.5 -46
s-31.5 -34 -43.5 -52s-21 -36 -27 -54s-9 -35.333 -9 -52c0 -12.667 1.33301 -23.5 4 -32.5s7.33398 -16.5 14.001 -22.5s16 -10.333 28 -13s27.667 -4 47 -4c15.333 0 32.333 0.5 51 1.5s35.667 2.16699 51 3.5c12 0.666992 18.333 -4.66602 19 -15.999l8 -95
c0.666992 -12 -4.66602 -19 -15.999 -21c-19.333 -4 -42.666 -7.33301 -69.999 -10s-55 -4 -83 -4c-82.667 0 -144.167 13.833 -184.5 41.5s-60.5 74.167 -60.5 139.5c0 22 3.5 44.167 10.5 66.5s17 44 30 65s28.333 40.333 46 58s37.5 33.167 59.5 46.5h-643
c-12 0 -18 6 -18 18z" />
    <glyph glyph-name="eogonek" unicode="&#x119;" horiz-adv-x="1167" 
d="M101 486l-0.00488281 100.997c0 88 8.83301 164 26.5 228s46 116.833 85 158.5s89.5 72.667 151.5 93s137.667 30.5 227 30.5c88.667 0 164.334 -10 227.001 -30s113.5 -50.5 152.5 -91.5s67.5 -92.833 85.5 -155.5s27 -137 27 -223c0 -36.667 -2.16699 -69.667 -6.5 -99
s-8.16602 -50.666 -11.499 -63.999c-1.33301 -5.33301 -3.33301 -9.16602 -6 -11.499s-7 -3.5 -13 -3.5l-695 -2c3.33301 -46 10.5 -83.667 21.5 -113s27 -52.5 48 -69.5s47.5 -28.667 79.5 -35s70.667 -9.5 116 -9.5c60 0 118.833 1 176.5 3s119.5 6.33301 185.5 13
c12 0.666992 18.333 -4.66602 19 -15.999l14 -168c0.666992 -12 -5 -19 -17 -21l-50 -7c-42 -28 -74 -59.833 -96 -95.5s-33 -69.834 -33 -102.501c0 -12.667 1.33301 -23.5 4 -32.5s7.33398 -16.5 14.001 -22.5s16 -10.333 28 -13s27.667 -4 47 -4
c15.333 0 32.333 0.5 51 1.5s35.667 2.16699 51 3.5c12 0.666992 18.333 -4.66602 19 -15.999l8 -95c0.666992 -12 -4.66602 -19 -15.999 -21c-19.333 -4 -42.666 -7.33301 -69.999 -10s-55 -4 -83 -4c-82.667 0 -144.167 13.833 -184.5 41.5s-60.5 74.167 -60.5 139.5
c0 38 9.83301 75.833 29.5 113.5s46.5 70.167 80.5 97.5c-43.333 -2 -88 -3 -134 -3c-90 0 -166.667 9.5 -230 28.5s-114.833 49.167 -154.5 90.5s-68.5 94.5 -86.5 159.5s-27 143.5 -27 235.5zM348.995 604.997l506.002 15.001c-4.66699 48 -12.334 88.667 -23.001 122
s-26 60.166 -46 80.499s-45.833 35 -77.5 44s-70.834 13.5 -117.501 13.5c-46 0 -84.5 -5 -115.5 -15s-55.667 -25.833 -74 -47.5s-31.5 -50 -39.5 -85s-12.333 -77.5 -13 -127.5z" />
    <glyph glyph-name="Ecaron" unicode="&#x11a;" horiz-adv-x="1202" 
d="M168 18v1439c0 12 6 18 18 18h894c12 0 18 -6 18 -18v-216c0 -12 -6 -18 -18 -18h-646v-334h519c12 0 18 -6 18 -18v-215c0 -12 -6 -18 -18 -18h-519v-386h646c12 0 18 -6 18 -18v-216c0 -12 -6 -18 -18 -18h-894c-12 0 -18 6 -18 18zM275 1818
c-8.66699 8.66699 -7 13 5 13h204c12 0 22 -4.33301 30 -13l90 -96h20l91 96c8 8.66699 18 13 30 13h203c12 0 13.667 -4.33301 5 -13l-205 -204c-8.66699 -8.66699 -19 -13 -31 -13h-206c-12 0 -22.333 4.33301 -31 13z" />
    <glyph glyph-name="ecaron" unicode="&#x11b;" horiz-adv-x="1165" 
d="M101 486l-0.000976562 100.997c0 88 8.83301 164 26.5 228s46 116.833 85 158.5s89.5 72.667 151.5 93s137.667 30.5 227 30.5c88.667 0 164.334 -10 227.001 -30s113.5 -50.5 152.5 -91.5s67.5 -92.833 85.5 -155.5s27 -137 27 -223
c0 -36.667 -2.16699 -69.667 -6.5 -99s-8.16602 -50.666 -11.499 -63.999c-1.33301 -5.33301 -3.33301 -9.16602 -6 -11.499s-7 -3.5 -13 -3.5l-695 -2c3.33301 -46 10.5 -83.667 21.5 -113s27 -52.5 48 -69.5s47.5 -28.667 79.5 -35s70.667 -9.5 116 -9.5
c60 0 118.833 1 176.5 3s119.5 6.33301 185.5 13c12 0.666992 18.333 -4.66602 19 -15.999l14 -168c0.666992 -12 -5 -19 -17 -21c-63.333 -9.33301 -126.833 -16.5 -190.5 -21.5s-131.834 -7.5 -204.501 -7.5c-90 0 -166.667 9.5 -230 28.5s-114.833 49.167 -154.5 90.5
s-68.5 94.5 -86.5 159.5s-27 143.5 -27 235.5zM260.999 1523c-7.33301 9.33301 -5 14 7 14h208c7.33301 0 13 -1.16699 17 -3.5s7.66699 -6.16602 11 -11.499l83 -122h20l82 122c3.33301 5.33301 7 9.16602 11 11.499s9.66699 3.5 17 3.5h209c12 0 14.333 -4.66699 7 -14
l-198 -254c-4 -5.33301 -8 -9 -12 -11s-9.66699 -3 -17 -3h-218c-7.33301 0 -13 1 -17 3s-8 5.66699 -12 11zM348.999 604.997l506.002 15.001c-4.66699 48 -12.334 88.667 -23.001 122s-26 60.166 -46 80.499s-45.833 35 -77.5 44s-70.834 13.5 -117.501 13.5
c-46 0 -84.5 -5 -115.5 -15s-55.667 -25.833 -74 -47.5s-31.5 -50 -39.5 -85s-12.333 -77.5 -13 -127.5z" />
    <glyph glyph-name="Gbreve" unicode="&#x11e;" horiz-adv-x="1308" 
d="M110 665l0.00195312 146.996c0 130.667 14 240.167 42 328.5s69.333 159.333 124 213s122.167 91.834 202.5 114.501s172.833 34 277.5 34c31.333 0 63.666 -1 96.999 -3s66 -5 98 -9s62.333 -8.83301 91 -14.5s54 -12.167 76 -19.5c11.333 -3.33301 16 -11 14 -23
l-34 -200c-2 -12 -9 -17 -21 -15c-50.667 8.66699 -102.167 15 -154.5 19s-104.5 6 -156.5 6c-66 0 -123.333 -6.66699 -172 -20s-89 -36.333 -121 -69s-55.833 -76 -71.5 -130s-23.5 -121.333 -23.5 -202v-167c0 -81.333 7.33301 -149.166 22 -203.499
s37 -97.666 67 -129.999s68.167 -55.166 114.5 -68.499s101.166 -20 164.499 -20c34 0 65.667 0.666992 95 2s57.666 3.66602 84.999 6.99902v332l-223 9c-12 0.666992 -18 7 -18 19v186c0 12 6 18 18 18h468c12 0 18 -6 18 -18l1 -43v-687
c0 -12.667 -5.66699 -20.667 -17 -24c-35.333 -12.667 -71.166 -23 -107.499 -31s-72.5 -14.333 -108.5 -19s-71.5 -7.83398 -106.5 -9.50098s-68.5 -2.5 -100.5 -2.5c-104 0 -195.833 11.333 -275.5 34s-146.5 60.834 -200.5 114.501s-94.833 124.834 -122.5 213.501
s-41.5 199 -41.5 331zM385.002 1828c-0.666992 12 5 18.001 17 18.001h144c7.33301 0 12.333 -1.33301 15 -4s4.66699 -7.33398 6 -14.001c2.66699 -18 7.5 -32.833 14.5 -44.5s15.667 -21.167 26 -28.5s21.666 -12.5 33.999 -15.5s25.166 -4.5 38.499 -4.5
s26.333 1.5 39 4.5s24.167 8.16699 34.5 15.5s19 16.833 26 28.5s11.833 26.5 14.5 44.5c0.666992 12 7.33398 18 20.001 18h145c12 0 17.667 -6 17 -18c-2 -41.333 -7.83301 -77.666 -17.5 -108.999s-25.667 -57.333 -48 -78s-52.166 -36.167 -89.499 -46.5
s-84.333 -15.5 -141 -15.5s-103.5 5.16699 -140.5 15.5s-66.667 25.833 -89 46.5s-38.333 46.667 -48 78s-15.5 67.666 -17.5 108.999z" />
    <glyph glyph-name="gbreve" unicode="&#x11f;" horiz-adv-x="1204" 
d="M104 471l0.00488281 137.998c0 90.667 8.16699 167.167 24.5 229.5s44.166 112.666 83.499 150.999s91.833 65.833 157.5 82.5s147.834 25 246.501 25c34 0 69.5 -0.666992 106.5 -2s74.167 -3.33301 111.5 -6s74 -5.66699 110 -9s70.667 -7.33301 104 -12
c7.33301 -0.666992 12.166 -2.33398 14.499 -5.00098s3.5 -7.66699 3.5 -15v-1038c0 -99.333 -12.167 -180.5 -36.5 -243.5s-60.333 -112.667 -108 -149s-106.834 -61.333 -177.501 -75s-152.667 -20.5 -246 -20.5c-22.667 0 -46.167 0.5 -70.5 1.5s-48.833 2.5 -73.5 4.5
s-48.834 4.66699 -72.501 8s-45.834 7 -66.501 11c-7.33301 1.33301 -12.166 3.5 -14.499 6.5s-3.16602 8.16699 -2.49902 15.5l14 168c0.666992 12 7 17 19 15c18 -3.33301 37.5 -6.16602 58.5 -8.49902s42 -4.16602 63 -5.49902s41.5 -2.33301 61.5 -3s38 -1 54 -1
c69.333 0 126.333 3.83301 171 11.5s80 21.5 106 41.5s44 47.333 54 82s15 79 15 133c-27.333 -6.66699 -58.333 -12 -93 -16s-74 -6 -118 -6c-94.667 0 -173.834 8.5 -237.501 25.5s-114.834 44.833 -153.501 83.5s-66.334 89.334 -83.001 152.001s-25 139.334 -25 230.001
zM313.005 1518c-0.666992 12 4.99902 18 16.999 18h155c12 0 18.333 -6 19 -18c4 -41.333 14.667 -69.666 32 -84.999s41.333 -23 72 -23s54.834 7.66699 72.501 23s28.167 43.666 31.5 84.999c0.666992 12 7 18 19 18h156c12 0 17.667 -6 17 -18
c-2 -42 -7.66699 -79.667 -17 -113s-25 -61.666 -47 -84.999s-51.667 -41.166 -89 -53.499s-85 -18.5 -143 -18.5s-105.5 6.16699 -142.5 18.5s-66.5 30.166 -88.5 53.499s-37.667 51.666 -47 84.999s-15 71 -17 113zM347.004 500.998c0 -56 3.33398 -103.167 10.001 -141.5
s19.667 -69 39 -92s46.5 -39.5 81.5 -49.5s80.833 -15 137.5 -15c14.667 0 31 0.333008 49 1s36 1.66699 54 3s35.333 3 52 5s31.334 4.66699 44.001 8v653c-28.667 2.66699 -60.834 4.66699 -96.501 6s-70.834 2 -105.501 2c-55.333 0 -100.333 -5.16699 -135 -15.5
s-61.667 -27.5 -81 -51.5s-32.333 -55.5 -39 -94.5s-10 -87.5 -10 -145.5v-73z" />
    <glyph glyph-name="Gcommaaccent" unicode="&#x122;" horiz-adv-x="1309" 
d="M110 665l0.00195312 146.996c0 130.667 14 240.167 42 328.5s69.333 159.333 124 213s122.167 91.834 202.5 114.501s172.833 34 277.5 34c31.333 0 63.666 -1 96.999 -3s66 -5 98 -9s62.333 -8.83301 91 -14.5s54 -12.167 76 -19.5c11.333 -3.33301 16 -11 14 -23
l-34 -200c-2 -12 -9 -17 -21 -15c-50.667 8.66699 -102.167 15 -154.5 19s-104.5 6 -156.5 6c-66 0 -123.333 -6.66699 -172 -20s-89 -36.333 -121 -69s-55.833 -76 -71.5 -130s-23.5 -121.333 -23.5 -202v-167c0 -81.333 7.33301 -149.166 22 -203.499
s37 -97.666 67 -129.999s68.167 -55.166 114.5 -68.499s101.166 -20 164.499 -20c34 0 65.667 0.666992 95 2s57.666 3.66602 84.999 6.99902v332l-223 9c-12 0.666992 -18 7 -18 19v186c0 12 6 18 18 18h468c12 0 18 -6 18 -18l1 -43v-687
c0 -12.667 -5.66699 -20.667 -17 -24c-35.333 -12.667 -71.166 -23 -107.499 -31s-72.5 -14.333 -108.5 -19s-71.5 -7.83398 -106.5 -9.50098s-68.5 -2.5 -100.5 -2.5c-104 0 -195.833 11.333 -275.5 34s-146.5 60.834 -200.5 114.501s-94.833 124.834 -122.5 213.501
s-41.5 199 -41.5 331zM546.002 -429.004l66.002 279.999c2 6.66699 4.5 11.334 7.5 14.001s8.16699 4.66699 15.5 6l219 27c5.33301 0.666992 9.16602 -0.5 11.499 -3.5s2.16602 -7.5 -0.500977 -13.5l-128 -310c-2.66699 -6.66699 -5.5 -11.167 -8.5 -13.5
s-8.16699 -3.5 -15.5 -3.5h-154c-12.667 0 -17 5.66699 -13 17z" />
    <glyph glyph-name="gcommaaccent" unicode="&#x123;" horiz-adv-x="1204" 
d="M104 471l0.00488281 137.998c0 90.667 8.16699 167.167 24.5 229.5s44.166 112.666 83.499 150.999s91.833 65.833 157.5 82.5s147.834 25 246.501 25c34 0 69.5 -0.666992 106.5 -2s74.167 -3.33301 111.5 -6s74 -5.66699 110 -9s70.667 -7.33301 104 -12
c7.33301 -0.666992 12.166 -2.33398 14.499 -5.00098s3.5 -7.66699 3.5 -15v-1038c0 -99.333 -12.167 -180.5 -36.5 -243.5s-60.333 -112.667 -108 -149s-106.834 -61.333 -177.501 -75s-152.667 -20.5 -246 -20.5c-22.667 0 -46.167 0.5 -70.5 1.5s-48.833 2.5 -73.5 4.5
s-48.834 4.66699 -72.501 8s-45.834 7 -66.501 11c-7.33301 1.33301 -12.166 3.5 -14.499 6.5s-3.16602 8.16699 -2.49902 15.5l14 168c0.666992 12 7 17 19 15c18 -3.33301 37.5 -6.16602 58.5 -8.49902s42 -4.16602 63 -5.49902s41.5 -2.33301 61.5 -3s38 -1 54 -1
c69.333 0 126.333 3.83301 171 11.5s80 21.5 106 41.5s44 47.333 54 82s15 79 15 133c-27.333 -6.66699 -58.333 -12 -93 -16s-74 -6 -118 -6c-94.667 0 -173.834 8.5 -237.501 25.5s-114.834 44.833 -153.501 83.5s-66.334 89.334 -83.001 152.001s-25 139.334 -25 230.001
zM347.005 500.998c0 -56 3.33398 -103.167 10.001 -141.5s19.667 -69 39 -92s46.5 -39.5 81.5 -49.5s80.833 -15 137.5 -15c14.667 0 31 0.333008 49 1s36 1.66699 54 3s35.333 3 52 5s31.334 4.66699 44.001 8v653c-28.667 2.66699 -60.834 4.66699 -96.501 6
s-70.834 2 -105.501 2c-55.333 0 -100.333 -5.16699 -135 -15.5s-61.667 -27.5 -81 -51.5s-32.333 -55.5 -39 -94.5s-10 -87.5 -10 -145.5v-73zM476.006 1266l125.003 306.002c2.66699 6.66699 5.66699 11.167 9 13.5s8.66602 3.5 15.999 3.5h193
c11.333 0 15.666 -5.66699 12.999 -17l-81 -273c-2 -6.66699 -4.5 -11.334 -7.5 -14.001s-8.16699 -4.33398 -15.5 -5.00098l-241 -29c-12.667 -1.33301 -16.334 3.66699 -11.001 15z" />
    <glyph glyph-name="Imacron" unicode="&#x12a;" horiz-adv-x="602" 
d="M32 1654v150c0 12 6 18 18 18h481c12 0 18 -6 18 -18v-150c0 -12 -6 -18 -18 -18h-481c-12 0 -18 6 -18 18zM168 18v1439c0 12 6 18 18 18h230c12 0 18 -6 18 -18v-1439c0 -12 -6 -18 -18 -18h-230c-12 0 -18 6 -18 18z" />
    <glyph glyph-name="imacron" unicode="&#x12b;" horiz-adv-x="543" 
d="M39 1283v150c0 12 6 18 18 18h430c12 0 18 -6 18 -18v-150c0 -12 -6 -18 -18 -18h-430c-12 0 -18 6 -18 18zM146 18v1035c0 12 6 18 18 18h216c12 0 18 -6 18 -18v-1035c0 -12 -6 -18 -18 -18h-216c-12 0 -18 6 -18 18z" />
    <glyph glyph-name="Ibreve" unicode="&#x12c;" horiz-adv-x="601" 
d="M16 1828c-0.666992 12 4.99805 18 16.998 18h137c7.33301 0 12.333 -1.33301 15 -4s4.66699 -7.33398 6 -14.001c2.66699 -20.667 7.33398 -37.834 14.001 -51.501s15 -24.667 25 -33s21 -14.166 33 -17.499s24.333 -5 37 -5s25.167 1.66699 37.5 5
s23.5 9.16602 33.5 17.499s18.333 19.333 25 33s11.334 30.834 14.001 51.501c1.33301 6.66699 3.33301 11.334 6 14.001s7.66699 4 15 4h138c12 0 17.667 -6 17 -18c-2 -42 -7.5 -78.333 -16.5 -109s-24.333 -56.334 -46 -77.001s-50.5 -36 -86.5 -46s-81.667 -15 -137 -15
s-100.833 5 -136.5 15s-64.167 25.333 -85.5 46s-36.5 46.334 -45.5 77.001s-14.5 67 -16.5 109zM166.998 18v1439c0 12 6 18 18 18h230c12 0 18 -6 18 -18v-1439c0 -12 -6 -18 -18 -18h-230c-12 0 -18 6 -18 18z" />
    <glyph glyph-name="ibreve" unicode="&#x12d;" horiz-adv-x="543" 
d="M-15 1522c-0.666992 12 5.00098 18 17.001 18h153c12 0 18.333 -6 19 -18c2 -25.333 5.5 -46.333 10.5 -63s11.5 -30 19.5 -40s17.5 -17.167 28.5 -21.5s23.167 -6.5 36.5 -6.5c14 0 26.667 2.16699 38 6.5s21.333 11.5 30 21.5s15.667 23.333 21 40s9 37.667 11 63
c0.666992 12 7 18 19 18h153c12 0 17.667 -6 17 -18c-2 -42 -7.5 -79.667 -16.5 -113s-24.167 -61.666 -45.5 -84.999s-50.333 -41.333 -87 -54s-83.334 -19 -140.001 -19c-56 0 -102.167 6.33301 -138.5 19s-65 30.667 -86 54s-35.833 51.666 -44.5 84.999
s-13.667 71 -15 113zM146.001 18v1035c0 12 6 18 18 18h216c12 0 18 -6 18 -18v-1035c0 -12 -6 -18 -18 -18h-216c-12 0 -18 6 -18 18z" />
    <glyph glyph-name="Iogonek" unicode="&#x12e;" horiz-adv-x="601" 
d="M43 -228c0 50 11.3291 93.8311 33.9961 131.498s53.334 71.834 92.001 102.501c-1.33301 4 -2 8 -2 12v1439c0 12 6 18 18 18h230c12 0 18 -6 18 -18v-1434c0 -7.33301 -2 -13 -6 -17s-11 -8 -21 -12c-25.333 -9.33301 -48.666 -21.333 -69.999 -36
s-39.666 -30.667 -54.999 -48s-27.166 -35.833 -35.499 -55.5s-12.5 -39.167 -12.5 -58.5c0 -14 1 -25.5 3 -34.5s6.16699 -16.333 12.5 -22s15.666 -9.66699 27.999 -12s28.5 -3.5 48.5 -3.5c15.333 0 32.166 0.5 50.499 1.5s35.5 2.16699 51.5 3.5
c12 0.666992 18.333 -4.66602 19 -15.999l8 -95c0.666992 -12 -4.66602 -19 -15.999 -21c-19.333 -4 -42.666 -7.33301 -69.999 -10s-55 -4 -83 -4c-44 0 -81.333 3.5 -112 10.5s-55.667 18 -75 33s-33.333 34.5 -42 58.5s-13 53 -13 87z" />
    <glyph glyph-name="iogonek" unicode="&#x12f;" horiz-adv-x="543" 
d="M19 -228c0 50 11.833 94.666 35.5 133.999s54.167 75 91.5 107v1040c0 12 6 18 18 18h216c12 0 18 -6 18 -18v-1035c0 -7.33301 -2 -12.666 -6 -15.999s-8.66699 -6 -14 -8c-25.333 -9.33301 -48.333 -21.166 -69 -35.499s-38.334 -30.333 -53.001 -48
s-26.167 -36.334 -34.5 -56.001s-12.5 -39.167 -12.5 -58.5c0 -14 1 -25.5 3 -34.5s6.5 -16.333 13.5 -22s17 -9.66699 30 -12s30.5 -3.5 52.5 -3.5c13.333 0 28 0.333008 44 1s32 2 48 4c12.667 2 19.334 -3 20.001 -15l10 -96c2 -12 -3 -19.333 -15 -22
c-15.333 -3.33301 -35.333 -6.33301 -60 -9s-56 -4 -94 -4c-44 0 -81.333 3.5 -112 10.5s-55.667 18 -75 33s-33.333 34.5 -42 58.5s-13 53 -13 87zM144 1249v276c0 11.333 6 18 18 20l219 31c12 2 18 -3.33301 18 -16v-311c0 -12 -6 -18 -18 -18h-219c-12 0 -18 6 -18 18z
" />
    <glyph glyph-name="Idotaccent" unicode="&#x130;" horiz-adv-x="602" 
d="M168 18v1439c0 12 6 18 18 18h230c12 0 18 -6 18 -18v-1439c0 -12 -6 -18 -18 -18h-230c-12 0 -18 6 -18 18zM173 1619v206.998c0 12.667 6 19.334 18 20.001l220 31c12 0.666992 18 -4.66602 18 -15.999v-242c0 -12 -6 -18 -18 -18h-220c-12 0 -18 6 -18 18z" />
    <glyph glyph-name="dotlessi" unicode="&#x131;" horiz-adv-x="543" 
d="M146 18v1035c0 12 6 18 18 18h216c12 0 18 -6 18 -18v-1035c0 -12 -6 -18 -18 -18h-216c-12 0 -18 6 -18 18z" />
    <glyph glyph-name="IJ" unicode="&#x132;" horiz-adv-x="1202" 
d="M168 18v1439c0 12 6 18 18 18h230c12 0 18 -6 18 -18v-1439c0 -12 -6 -18 -18 -18h-230c-12 0 -18 6 -18 18zM508 -322l29.998 202.001c2 12 9 17 21 15c15.333 -2 29.666 -3.16699 42.999 -3.5s26.333 -0.5 39 -0.5c20.667 0 39 1.66699 55 5s29.333 9.83301 40 19.5
s18.834 23.167 24.501 40.5s8.5 39.666 8.5 66.999v1434c0 12 6 18 18 18h230c12 0 18 -6 18 -18v-1457c0 -54 -5.66699 -103 -17 -147s-30.666 -81.833 -57.999 -113.5s-63.833 -56 -109.5 -73s-102.5 -25.5 -170.5 -25.5c-25.333 0 -52.166 1.5 -80.499 4.5
s-53.833 6.83301 -76.5 11.5c-12 2.66699 -17 9.66699 -15 21z" />
    <glyph glyph-name="ij" unicode="&#x133;" horiz-adv-x="1086" 
d="M144 1249v275.998c0 12.667 6 19.334 18 20.001l219 31c12 0.666992 18 -4.66602 18 -15.999v-311c0 -12 -6 -18 -18 -18h-219c-12 0 -18 6 -18 18zM146 17.998v1035c0 12 6 18 18 18h216c12 0 18 -6 18 -18v-1035c0 -12 -6 -18 -18 -18h-216c-12 0 -18 6 -18 18z
M378 -443.002l26 173.999c2 12 9 17 21 15c17.333 -2 35.833 -3.83301 55.5 -5.5s38.5 -2.5 56.5 -2.5c32 0 57.833 2.16699 77.5 6.5s35 12.333 46 24s18.5 27.334 22.5 47.001s6 44.5 6 74.5v1163c0 12 6 18 18 18h216c12 0 18 -6 18 -18v-1163
c0 -68 -6 -125.5 -18 -172.5s-32.5 -85 -61.5 -114s-67.667 -49.833 -116 -62.5s-108.5 -19 -180.5 -19c-28 0 -57.667 1.16699 -89 3.5s-59 5.83301 -83 10.5c-12 2.66699 -17 9.66699 -15 21zM687 1249v275.998c0 12.667 6 19.334 18 20.001l219 31
c12 0.666992 18 -4.66602 18 -15.999v-311c0 -12 -6 -18 -18 -18h-219c-12 0 -18 6 -18 18z" />
    </font>
</defs>
</svg>
