<svg width="18" height="19" viewBox="0 0 18 19" fill="none" xmlns="http://www.w3.org/2000/svg">
<path fill-rule="evenodd" clip-rule="evenodd" d="M6.5 5.5C6.5 4.30454 6.66619 3.42085 7.02664 2.85586C7.3287 2.38239 7.85165 2 9 2C10.1484 2 10.6713 2.38239 10.9734 2.85586C11.3338 3.42085 11.5 4.30454 11.5 5.5C11.5 6.57891 11.2136 7.48188 10.766 8.08781C10.3357 8.6703 9.74845 9 9 9C8.25155 9 7.66432 8.6703 7.23402 8.08781C6.78642 7.48188 6.5 6.57891 6.5 5.5ZM9 0C7.3046 0 6.07755 0.624968 5.34055 1.78018C4.66194 2.84387 4.5 4.21018 4.5 5.5C4.5 6.90637 4.86983 8.2534 5.62535 9.27615C5.75416 9.45052 5.8938 9.61465 6.04374 9.76711L5.73495 10.3007C5.6394 10.4658 5.53044 10.5593 5.43689 10.603C4.97278 10.8199 4.46993 10.9823 3.92381 11.15L3.76238 11.1993C3.28262 11.3458 2.75588 11.5067 2.28203 11.711C1.74659 11.9419 1.18606 12.265 0.753789 12.7824C0.304619 13.32 0.0579773 13.9899 0.0262703 14.7939C0.0257525 14.807 0.0254936 14.8202 0.0254936 14.8333C0.0254936 14.8776 0.0228782 14.9212 0.01865 14.9916C0.0157961 15.0392 0.0122073 15.099 0.0081922 15.1795C1.27766e-05 15.3436 -0.00694195 15.5625 0.0127482 15.7914C0.0474212 16.1944 0.197937 16.9768 0.973367 17.3593C3.19448 18.5 6.13432 19.0121 9.00182 18.9998C11.8759 18.9874 14.8107 18.4478 17.0272 17.3637L17.0272 17.3638L17.0376 17.3585C17.8097 16.9696 17.9565 16.1917 17.989 15.7854C18.0072 15.5582 17.9992 15.3409 17.9904 15.1787C17.9864 15.1041 17.9828 15.0471 17.9799 15.0013L17.9799 15.0012C17.9753 14.9264 17.9724 14.881 17.9724 14.8363C17.9724 14.8232 17.9722 14.8102 17.9716 14.7971C17.9402 13.9951 17.6897 13.3277 17.2399 12.7921C16.8077 12.2773 16.2478 11.9522 15.7123 11.7185C15.2304 11.5082 14.696 11.3428 14.2103 11.1924L14.0695 11.1488C13.5233 10.9791 13.023 10.8168 12.5642 10.6032C12.4708 10.5597 12.3616 10.466 12.266 10.2999L11.9582 9.76518C12.1074 9.61326 12.2464 9.44978 12.3746 9.27615C13.1302 8.2534 13.5 6.90637 13.5 5.5C13.5 4.21018 13.3381 2.84387 12.6595 1.78018C11.9225 0.624968 10.6954 0 9 0ZM10.2543 10.8141C9.86495 10.935 9.44573 11 9 11C8.5552 11 8.13679 10.9353 7.74813 10.8149L7.46596 11.3025C7.21146 11.7422 6.82315 12.1629 6.28356 12.415C5.67973 12.6971 5.05631 12.8944 4.51074 13.0619L4.35884 13.1084C3.85676 13.2621 3.43979 13.3898 3.07405 13.5475C2.67983 13.7175 2.43817 13.8857 2.28863 14.0647C2.15765 14.2215 2.04407 14.4493 2.02538 14.8571C2.0247 14.9322 2.02098 15.0074 2.01753 15.0697L2.01255 15.1562L2.01255 15.1562C2.01016 15.1967 2.00794 15.2344 2.00571 15.2791C1.99879 15.4179 1.99753 15.5286 2.00539 15.62L2.00739 15.6408C3.84237 16.5476 6.38087 17.011 8.99324 16.9998C11.5916 16.9886 14.137 16.5085 15.9941 15.6409L15.9954 15.6258C16.0027 15.5353 16.0008 15.4256 15.9933 15.2865C15.9909 15.2423 15.9888 15.2084 15.9866 15.172C15.9848 15.1435 15.9829 15.1135 15.9807 15.0759C15.9771 15.0126 15.9732 14.9364 15.9725 14.8599C15.9543 14.4634 15.842 14.2374 15.7083 14.0782C15.5554 13.8961 15.3089 13.7246 14.9122 13.5515C14.538 13.3881 14.1101 13.2554 13.5976 13.0965L13.4761 13.0588C12.9339 12.8903 12.3152 12.6934 11.72 12.4163C11.1771 12.1635 10.7873 11.74 10.5327 11.2978L10.2543 10.8141Z" fill="#1C1C1C"/>
</svg>
