<svg width="26" height="26" viewBox="0 0 26 26" fill="none" xmlns="http://www.w3.org/2000/svg">
<g clip-path="url(#clip0)">
<path d="M13.0001 0C10.1985 0 7.91992 2.27925 7.91992 5.08078V7.713C7.91992 10.5147 10.1985 12.794 13.0001 12.794C15.8018 12.794 18.0802 10.5147 18.0802 7.713V5.08078C18.0803 2.27925 15.8018 0 13.0001 0Z" fill="#00A7B8"/>
<path d="M24.2037 19.4146C22.577 16.6424 19.9768 14.5872 16.8822 13.6275C16.8104 13.6052 16.7328 13.6241 16.6794 13.677C15.2398 15.0963 13.451 16.2037 13.0038 16.4712C12.5265 16.1661 10.5158 14.8555 9.3204 13.677C9.26715 13.6241 9.18895 13.6052 9.1176 13.6275C6.02259 14.5874 3.42261 16.6426 1.79648 19.4148C1.75925 19.4782 1.75925 19.5571 1.79648 19.6205C4.10568 23.5554 8.39855 25.9998 12.9999 25.9998C17.6014 25.9998 21.8945 23.5554 24.2037 19.6205C24.2412 19.5569 24.2412 19.478 24.2037 19.4146ZM19.9094 20.9301C19.9094 21.0422 19.8027 21.1279 19.6908 21.1279H18.3149C18.2028 21.1279 18.0805 21.2242 18.0805 21.3365V22.7594C18.0805 22.8713 18.0206 22.9568 17.9084 22.9568H16.6727C16.5606 22.9568 16.455 22.8713 16.455 22.7594V21.3365C16.4545 21.2244 16.378 21.1279 16.2659 21.1279H14.8307C14.7186 21.1279 14.6258 21.042 14.6258 20.9301V19.705C14.6258 19.5928 14.7186 19.5024 14.8307 19.5024H16.2659C16.378 19.5024 16.4545 19.4108 16.4545 19.2985V17.8739C16.4545 17.7618 16.5602 17.6734 16.6723 17.6734H17.8947C18.0066 17.6734 18.0803 17.7618 18.0803 17.8739V19.3027C18.0803 19.415 18.1888 19.5022 18.3011 19.5022H19.6908C19.8027 19.5022 19.9094 19.597 19.9094 19.7091V20.9301Z" fill="#00A7B8"/>
</g>
<defs>
<clipPath id="clip0">
<rect width="26" height="26" fill="white"/>
</clipPath>
</defs>
</svg>
