<svg width="26" height="26" viewBox="0 0 26 26" fill="none" xmlns="http://www.w3.org/2000/svg">
<path d="M0 10.5625C0 12.0748 1.03787 13.3349 2.4375 13.6982V24.375H0.8125C0.364965 24.375 0 24.7384 0 25.1875C0 25.6366 0.365016 26 0.8125 26H25.1875C25.6382 26 26 25.6366 26 25.1875C26 24.7384 25.6382 24.375 25.1875 24.375H23.5625V13.6982C24.9621 13.3349 26 12.0748 26 10.5625V9.75H0V10.5625ZM16.25 13.8125C18.0464 13.8125 19.5 12.3573 19.5 10.5625C19.5 12.0748 20.5379 13.3349 21.9375 13.6982V24.375H9.75V13.8125C11.5464 13.8125 13 12.3573 13 10.5625C13 12.3573 14.4568 13.8125 16.25 13.8125ZM8.9375 13.6982V24.375H4.0625V13.6982C5.46218 13.3349 6.5 12.0748 6.5 10.5625C6.5 12.0748 7.53787 13.3349 8.9375 13.6982ZM22.75 2.4375H3.25L0 8.9375H26L22.75 2.4375ZM6.86502 4.24343L5.24002 7.49343C5.16699 7.63628 5.0242 7.7188 4.875 7.7188C4.81467 7.7188 4.75282 7.70611 4.69407 7.67594C4.49409 7.57595 4.41157 7.33159 4.51313 7.13162L6.13813 3.88162C6.2397 3.68164 6.48248 3.60075 6.68246 3.69911C6.88406 3.7991 6.96338 4.04346 6.86502 4.24343ZM10.115 4.24343L8.49002 7.49343C8.41699 7.63628 8.2742 7.7188 8.125 7.7188C8.06467 7.7188 8.00282 7.70611 7.94407 7.67594C7.74409 7.57595 7.66157 7.33159 7.76313 7.13162L9.38813 3.88162C9.48969 3.68164 9.73411 3.60075 9.93246 3.69911C10.1341 3.7991 10.2134 4.04346 10.115 4.24343ZM13.4062 7.3125C13.4062 7.53787 13.2254 7.71875 13 7.71875C12.7763 7.71875 12.5938 7.53782 12.5938 7.3125V4.0625C12.5938 3.83713 12.7763 3.65625 13 3.65625C13.2254 3.65625 13.4062 3.83718 13.4062 4.0625V7.3125ZM18.0718 7.66797C18.0083 7.70291 17.9417 7.71875 17.875 7.71875C17.7322 7.71875 17.5926 7.64258 17.5195 7.5077L15.7422 4.2577C15.6343 4.06093 15.7072 3.81337 15.9041 3.70703C16.0977 3.59912 16.3484 3.66895 16.4563 3.8673L18.2337 7.1173C18.3384 7.31407 18.2686 7.56163 18.0718 7.66797ZM21.3059 7.67589C21.2488 7.70606 21.1885 7.71875 21.125 7.71875C20.9758 7.71875 20.833 7.63623 20.7632 7.49338L19.1382 4.24338C19.0366 4.04341 19.1191 3.79905 19.3191 3.69906C19.5158 3.59907 19.7634 3.68002 19.865 3.88157L21.49 7.13157C21.5884 7.33154 21.509 7.57595 21.3059 7.67589ZM6.90625 19.6238V17.7512C6.66819 17.6084 6.5 17.3608 6.5 17.0626C6.5 16.6134 6.86502 16.2501 7.3125 16.2501C7.76318 16.2501 8.125 16.6134 8.125 17.0626C8.125 17.3609 7.95839 17.6084 7.71875 17.7512V19.6238C7.95839 19.7667 8.125 20.0142 8.125 20.3126C8.125 20.7617 7.76318 21.1251 7.3125 21.1251C6.86496 21.1251 6.5 20.7617 6.5 20.3126C6.5 20.0142 6.66824 19.7666 6.90625 19.6238ZM3.25 0.8125C3.25 0.363391 3.61502 0 4.0625 0H21.9375C22.3882 0 22.75 0.363391 22.75 0.8125C22.75 1.26161 22.3882 1.625 21.9375 1.625H4.0625C3.61502 1.625 3.25 1.26161 3.25 0.8125ZM14.241 18.1622L13.6666 17.5877L15.9644 15.2899L16.5388 15.8644L14.241 18.1622ZM14.241 20.4601L13.6666 19.8856L18.2623 15.2899L18.8367 15.8644L14.241 20.4601ZM18.2622 17.5878L18.8366 18.1623L16.5388 20.4601L15.9644 19.8856L18.2622 17.5878Z" fill="#00A7B8"/>
</svg>
