<svg width="20" height="16" viewBox="0 0 20 16" fill="none" xmlns="http://www.w3.org/2000/svg">
<path fill-rule="evenodd" clip-rule="evenodd" d="M18.75 0.5H5.25C4.55964 0.5 4 1.05964 4 1.75C4 2.44036 4.55964 3 5.25 3H18.75C19.4404 3 20 2.44036 20 1.75C20 1.05964 19.4404 0.5 18.75 0.5ZM5.25 6.75H18.75C19.4404 6.75 20 7.30964 20 8C20 8.69036 19.4404 9.25 18.75 9.25H5.25C4.55964 9.25 4 8.69036 4 8C4 7.30964 4.55964 6.75 5.25 6.75ZM5.25 13H18.75C19.4404 13 20 13.5596 20 14.25C20 14.9404 19.4404 15.5 18.75 15.5H5.25C4.55964 15.5 4 14.9404 4 14.25C4 13.5596 4.55964 13 5.25 13ZM1.25 15.5C0.559644 15.5 0 14.9404 0 14.25C0 13.5596 0.559644 13 1.25 13C1.94036 13 2.5 13.5596 2.5 14.25C2.5 14.9404 1.94036 15.5 1.25 15.5ZM0 8C0 8.69036 0.559644 9.25 1.25 9.25C1.94036 9.25 2.5 8.69036 2.5 8C2.5 7.30964 1.94036 6.75 1.25 6.75C0.559644 6.75 0 7.30964 0 8ZM1.25 3C0.559644 3 0 2.44036 0 1.75C0 1.05964 0.559644 0.5 1.25 0.5C1.94036 0.5 2.5 1.05964 2.5 1.75C2.5 2.44036 1.94036 3 1.25 3Z" fill="#1C1C1C"/>
</svg>
