<svg width="22" height="19" viewBox="0 0 22 19" fill="none" xmlns="http://www.w3.org/2000/svg">
<path fill-rule="evenodd" clip-rule="evenodd" d="M7.1385 6C7.28604 5.03218 7.55244 4.21074 7.94441 3.57518C8.53832 2.61218 9.46134 2 10.9995 2C12.5377 2 13.4607 2.61218 14.0546 3.57518C14.4466 4.21074 14.713 5.03218 14.8605 6H7.1385ZM4.99951 8C4.99951 8.55228 5.44723 9 5.99951 9C6.5518 9 6.99951 8.55228 6.99951 8H14.9995C14.9995 8.55228 15.4472 9 15.9995 9C16.5518 9 16.9995 8.55228 16.9995 8H18.5724C19.2014 8 19.6742 8.57381 19.554 9.19121L18.1903 16.1912C18.0988 16.6609 17.6873 17 17.2088 17H5.09608C4.62918 17 4.22442 16.6769 4.12095 16.2216L2.53004 9.22162C2.38782 8.59586 2.86345 8 3.50517 8H4.99951ZM5.11909 6C5.28322 4.71777 5.63 3.51783 6.24212 2.52532C7.2107 0.954818 8.78768 0 10.9995 0C13.2113 0 14.7883 0.954818 15.7569 2.52532C16.369 3.51783 16.7158 4.71777 16.8799 6H18.5724C20.4594 6 21.8779 7.72143 21.5171 9.57363L20.1534 16.5736C19.8789 17.9828 18.6445 19 17.2088 19H5.09608C3.69538 19 2.48111 18.0307 2.17068 16.6649L0.579772 9.66486C0.153115 7.78757 1.58001 6 3.50517 6H5.11909Z" fill="#1C1C1C"/>
</svg>
