<svg width="20" height="17" viewBox="0 0 20 17" fill="none" xmlns="http://www.w3.org/2000/svg">
<path fill-rule="evenodd" clip-rule="evenodd" d="M0 5.67611C0 2.50522 2.66014 0 5.86029 0C7.47355 0 8.93803 0.634266 9.99993 1.66428C11.0616 0.63433 12.5257 0 14.1391 0C17.3391 0 20 2.50506 20 5.67611C20 7.38681 19.216 8.90798 18.0014 9.93984L11.1368 16.5439L11.1368 16.5439C10.8289 16.8401 10.4193 17 9.99994 17C9.58057 17 9.17098 16.8401 8.86309 16.5439L8.86308 16.5439L1.99847 9.93984C0.783934 8.90796 0 7.38679 0 5.67611ZM5.86029 2C3.69126 2 2 3.68183 2 5.67611C2 6.76487 2.49972 7.74969 3.31128 8.43076C3.32861 8.4453 3.34545 8.46043 3.36175 8.47611L9.99994 14.8624L16.6381 8.47611C16.6544 8.46042 16.6713 8.44529 16.6886 8.43075C17.5002 7.74966 18 6.76484 18 5.67611C18 3.68199 16.3083 2 14.1391 2C12.7323 2 11.5168 2.71743 10.8426 3.77251C10.6589 4.06007 10.3412 4.23408 9.99992 4.23407C9.65867 4.23406 9.34098 4.06003 9.15725 3.77246C8.48327 2.71756 7.26723 2 5.86029 2Z" fill="#1C1C1C"/>
</svg>
