<svg width="209" height="48" viewBox="0 0 209 48" fill="none" xmlns="http://www.w3.org/2000/svg">
<path d="M92.8069 44.091C92.8069 44.1949 92.8069 44.1949 92.8069 44.1949C92.8069 44.1949 92.7016 44.2988 92.5962 44.2988C92.4909 44.2988 92.3855 44.4027 92.2802 44.4027C92.1749 44.4027 91.9642 44.4027 91.7535 44.4027C91.5428 44.4027 91.4375 44.4027 91.3321 44.4027C91.2268 44.4027 91.1214 44.4027 91.0161 44.2988C90.9108 44.2988 90.9107 44.1949 90.8054 44.1949V44.091V35.7793L87.8558 44.091C87.8558 44.1949 87.8558 44.1949 87.7505 44.2988C87.6451 44.2988 87.6451 44.4027 87.5398 44.4027C87.4344 44.4027 87.3291 44.4027 87.2238 44.5066C87.1184 44.5066 86.9077 44.5066 86.8024 44.5066C86.5917 44.5066 86.4864 44.5066 86.381 44.5066C86.2757 44.5066 86.1703 44.5066 86.065 44.4027C85.9596 44.4027 85.9596 44.2988 85.8543 44.2988L85.749 44.1949L82.9047 35.8832V44.1949C82.9047 44.2988 82.9047 44.2988 82.9047 44.2988C82.9047 44.2988 82.7994 44.4027 82.694 44.4027C82.5887 44.4027 82.4833 44.5066 82.378 44.5066C82.2726 44.5066 82.062 44.5066 81.8513 44.5066C81.6406 44.5066 81.5353 44.5066 81.3246 44.5066C81.2192 44.5066 81.1139 44.5066 81.0085 44.4027C80.9032 44.4027 80.9032 44.2988 80.9032 44.2988L80.7979 44.1949V35.1559C80.7979 34.8442 80.9032 34.6364 81.0085 34.5325C81.1139 34.4286 81.3246 34.3248 81.5353 34.3248H82.9047C83.1154 34.3248 83.3261 34.3247 83.5368 34.4286C83.7475 34.4286 83.8528 34.5325 83.9581 34.6364C84.0635 34.7403 84.1688 34.8442 84.2742 34.9481C84.3795 35.052 84.4848 35.2598 84.4848 35.4676L86.697 41.4936L89.0146 35.4676C89.1199 35.2598 89.1199 35.052 89.2253 34.9481C89.3306 34.8442 89.436 34.6364 89.5413 34.5325C89.6466 34.4286 89.752 34.3248 89.9627 34.3248C90.068 34.3248 90.2787 34.2209 90.4894 34.2209H91.8588C91.9642 34.2209 92.0695 34.2209 92.1749 34.3248C92.2802 34.3248 92.3855 34.4286 92.4909 34.5325C92.5962 34.6364 92.5962 34.6364 92.5962 34.8442C92.5962 34.9481 92.7016 35.052 92.7016 35.1559V44.091H92.8069Z" fill="#00A7B8"/>
<path d="M102.498 40.9742C102.498 41.4936 102.393 41.9092 102.287 42.3248C102.182 42.7404 101.866 43.0521 101.55 43.3638C101.234 43.6755 100.813 43.8832 100.286 44.091C99.7591 44.2988 99.0217 44.4027 98.179 44.4027H95.7561C95.6507 44.4027 95.5454 44.4027 95.5454 44.4027C95.44 44.4027 95.44 44.2988 95.3347 44.2988C95.3347 44.2988 95.2294 44.1949 95.2294 44.091C95.2294 43.9871 95.124 43.8832 95.124 43.7793V34.5326C95.124 34.4287 95.124 34.4287 95.2294 34.4287C95.2294 34.4287 95.3347 34.3248 95.44 34.3248C95.5454 34.3248 95.6507 34.3248 95.7561 34.2209C95.8614 34.2209 96.0721 34.2209 96.2828 34.2209C96.4935 34.2209 96.7042 34.2209 96.8095 34.2209C96.9148 34.2209 97.0202 34.2209 97.1255 34.3248C97.2309 34.3248 97.2309 34.4287 97.3362 34.4287V34.5326V38.0651H98.6003C99.3377 38.0651 99.9698 38.169 100.391 38.2729C100.813 38.3767 101.234 38.5845 101.55 38.8962C101.866 39.2079 102.077 39.5196 102.287 39.8313C102.393 40.0391 102.498 40.4547 102.498 40.9742ZM100.286 41.1819C100.286 40.9741 100.286 40.6625 100.18 40.5586C100.075 40.3508 99.9698 40.2469 99.8644 40.0391C99.6538 39.9352 99.5484 39.8313 99.2324 39.7274C99.0217 39.5196 98.7057 39.5196 98.179 39.5196H97.1255V42.7404H98.2843C98.811 42.7404 99.127 42.7404 99.4431 42.6365C99.6538 42.5326 99.8644 42.4287 99.9698 42.2209C100.075 42.117 100.18 41.9092 100.286 41.7014C100.286 41.4936 100.286 41.3897 100.286 41.1819ZM105.869 44.091C105.869 44.1949 105.869 44.1949 105.869 44.1949C105.869 44.1949 105.764 44.2988 105.658 44.2988C105.553 44.2988 105.448 44.2988 105.342 44.4027C105.237 44.4027 105.026 44.4027 104.816 44.4027C104.605 44.4027 104.5 44.4027 104.289 44.4027C104.183 44.4027 104.078 44.4027 103.973 44.2988C103.867 44.2988 103.867 44.1949 103.762 44.1949C103.762 44.091 103.657 44.091 103.657 44.091V34.4287C103.657 34.3248 103.657 34.3248 103.762 34.3248C103.762 34.3248 103.867 34.2209 103.973 34.2209C104.078 34.2209 104.183 34.2209 104.289 34.117C104.394 34.117 104.605 34.117 104.816 34.117C105.026 34.117 105.132 34.117 105.342 34.117C105.448 34.117 105.553 34.117 105.658 34.2209C105.764 34.2209 105.764 34.3248 105.869 34.3248V34.4287V44.091Z" fill="#00A7B8"/>
<path d="M121.249 46.6884V46.7923L121.144 46.8962C121.039 46.8962 120.933 46.8962 120.828 46.8962C120.723 46.8962 120.512 46.8962 120.407 46.8962C120.196 46.8962 120.091 46.8962 119.985 46.8962C119.88 46.8962 119.775 46.8962 119.669 46.8962C119.564 46.8962 119.564 46.7923 119.564 46.7923V46.6884V44.2988H112.717V46.6884V46.7923L112.611 46.8962C112.506 46.8962 112.401 46.8962 112.295 46.8962C112.19 46.8962 112.085 46.8962 111.874 46.8962C111.663 46.8962 111.558 46.8962 111.453 46.8962C111.347 46.8962 111.242 46.8962 111.137 46.8962C111.031 46.8962 111.031 46.7923 111.031 46.7923V46.6884V43.0521C111.031 42.9482 111.031 42.7404 111.137 42.7404C111.242 42.6365 111.347 42.6365 111.453 42.6365H111.874C111.979 42.4287 112.085 42.2209 112.19 42.117C112.295 41.9092 112.401 41.7014 112.506 41.4936C112.611 41.1819 112.717 40.9741 112.822 40.5586C112.927 40.2469 113.033 39.7274 113.138 39.2079C113.243 38.6884 113.349 38.0651 113.454 37.3378C113.559 36.6105 113.665 35.7793 113.77 34.8443C113.77 34.6365 113.876 34.4287 113.981 34.3248C114.086 34.2209 114.192 34.117 114.402 34.117H119.669C119.88 34.117 119.985 34.2209 120.091 34.3248C120.196 34.4287 120.301 34.6365 120.301 34.8443V42.6365H121.144C121.249 42.6365 121.355 42.6365 121.46 42.7404C121.566 42.8443 121.566 42.9482 121.566 43.0521V46.6884H121.249ZM117.879 35.8832H115.456C115.35 36.7144 115.245 37.3378 115.14 37.9612C115.034 38.5845 114.929 39.104 114.824 39.5196C114.718 39.9352 114.613 40.3508 114.508 40.6625C114.402 40.9741 114.297 41.2858 114.192 41.4936C114.086 41.7014 113.981 41.9092 113.876 42.117C113.77 42.3248 113.665 42.4287 113.559 42.6365H117.773V35.8832H117.879Z" fill="#00A7B8"/>
<path d="M131.152 43.5716C131.257 43.7793 131.257 43.8832 131.257 43.9871C131.257 44.091 131.257 44.1949 131.152 44.1949C131.046 44.1949 130.941 44.2988 130.836 44.2988C130.73 44.2988 130.52 44.2988 130.204 44.2988C129.887 44.2988 129.677 44.2988 129.571 44.2988C129.466 44.2988 129.361 44.2988 129.255 44.2988C129.15 44.2988 129.15 44.1949 129.045 44.1949C129.045 44.091 128.939 44.091 128.939 43.9871L128.202 41.9092H124.304L123.672 43.8832C123.672 43.9871 123.672 43.9871 123.567 44.091C123.567 44.1949 123.462 44.1949 123.356 44.1949C123.251 44.1949 123.146 44.1949 123.04 44.2988C122.935 44.2988 122.724 44.2988 122.514 44.2988C122.303 44.2988 122.092 44.2988 121.987 44.2988C121.881 44.2988 121.776 44.1949 121.671 44.1949C121.671 44.091 121.565 44.091 121.565 43.9871C121.565 43.8832 121.671 43.6754 121.671 43.5716L124.831 34.5326C124.831 34.4287 124.936 34.3248 124.936 34.3248C124.936 34.2209 125.042 34.2209 125.147 34.2209C125.252 34.2209 125.358 34.2209 125.568 34.117C125.779 34.117 125.99 34.117 126.201 34.117C126.517 34.117 126.727 34.117 126.938 34.117C127.149 34.117 127.254 34.117 127.359 34.2209C127.465 34.2209 127.57 34.3248 127.57 34.3248C127.57 34.3248 127.675 34.4287 127.675 34.5326L131.152 43.5716ZM126.517 36.091L125.042 40.3508H127.991L126.517 36.091Z" fill="#00A7B8"/>
<path d="M138.737 43.5716C138.737 43.7793 138.737 43.8832 138.737 43.9871C138.737 44.091 138.737 44.1949 138.631 44.1949C138.631 44.2988 138.526 44.2988 138.526 44.2988H138.421H133.259C133.048 44.2988 132.943 44.1949 132.838 44.091C132.732 43.9871 132.627 43.7793 132.627 43.5716V34.7404C132.627 34.5326 132.732 34.3248 132.838 34.2209C132.943 34.117 133.154 34.117 133.259 34.117H138.421H138.526L138.631 34.2209C138.631 34.3248 138.737 34.3248 138.737 34.4287C138.737 34.5326 138.737 34.6365 138.737 34.8443C138.737 34.9482 138.737 35.156 138.737 35.2599C138.737 35.3638 138.737 35.4677 138.631 35.4677C138.631 35.5715 138.526 35.5716 138.526 35.5716H138.421H134.734V38.0651H137.894H137.999L138.105 38.169C138.105 38.2728 138.105 38.2729 138.21 38.3767C138.21 38.4806 138.21 38.5845 138.21 38.7923C138.21 38.8962 138.21 39.104 138.21 39.2079C138.21 39.3118 138.21 39.4157 138.105 39.4157C138.105 39.5196 137.999 39.5196 137.999 39.5196H137.894H134.734V42.4287H138.421C138.421 42.4287 138.526 42.4287 138.526 42.5326L138.631 42.6365C138.631 42.7404 138.631 42.7404 138.737 42.8443C138.737 43.2599 138.737 43.3638 138.737 43.5716Z" fill="#00A7B8"/>
<path d="M152.642 44.091C152.642 44.1949 152.642 44.1949 152.642 44.1949C152.642 44.1949 152.537 44.2988 152.431 44.2988C152.326 44.2988 152.221 44.4027 152.115 44.4027C152.01 44.4027 151.799 44.4027 151.588 44.4027C151.378 44.4027 151.272 44.4027 151.062 44.4027C150.956 44.4027 150.851 44.4027 150.746 44.2988C150.64 44.2988 150.64 44.1949 150.64 44.1949L150.535 44.091V35.7793L147.585 44.091C147.585 44.1949 147.48 44.1949 147.48 44.2988C147.48 44.2988 147.375 44.4027 147.269 44.4027C147.164 44.4027 147.059 44.4027 146.953 44.5066C146.848 44.5066 146.637 44.5066 146.532 44.5066C146.321 44.5066 146.216 44.5066 146.111 44.5066C146.005 44.5066 145.9 44.5066 145.795 44.4027C145.689 44.4027 145.689 44.2988 145.584 44.2988L145.479 44.1949L142.634 35.8832V44.1949C142.634 44.2988 142.634 44.2988 142.634 44.2988L142.529 44.4027C142.424 44.4027 142.318 44.5066 142.213 44.5066C142.108 44.5066 141.897 44.5066 141.686 44.5066C141.476 44.5066 141.37 44.5066 141.16 44.5066C141.054 44.5066 140.949 44.5066 140.843 44.4027C140.738 44.4027 140.738 44.2988 140.633 44.2988V44.1949V35.1559C140.633 34.8442 140.738 34.6364 140.843 34.5325C140.949 34.4286 141.16 34.3248 141.37 34.3248H142.74C142.95 34.3248 143.161 34.3247 143.372 34.4286C143.582 34.4286 143.688 34.5325 143.793 34.6364C143.898 34.7403 144.004 34.8442 144.109 34.9481C144.214 35.052 144.214 35.2598 144.32 35.4676L146.532 41.4936L148.85 35.4676C148.955 35.2598 148.955 35.052 149.06 34.9481C149.166 34.8442 149.271 34.6364 149.376 34.5325C149.482 34.4286 149.587 34.3248 149.798 34.3248C149.903 34.3248 150.114 34.2209 150.324 34.2209H151.694C151.799 34.2209 152.01 34.2209 152.01 34.3248C152.115 34.3248 152.221 34.4286 152.221 34.5325C152.326 34.6364 152.326 34.6364 152.431 34.8442C152.431 34.9481 152.431 35.052 152.431 35.1559V44.091H152.642Z" fill="#00A7B8"/>
<path d="M167.811 39.104C167.811 39.9352 167.705 40.6624 167.495 41.3897C167.284 42.0131 166.968 42.6365 166.546 43.052C166.125 43.5715 165.598 43.8832 164.966 44.091C164.334 44.2988 163.597 44.4027 162.859 44.4027C162.017 44.4027 161.385 44.2988 160.753 44.091C160.121 43.8832 159.699 43.5715 159.278 43.1559C158.856 42.7404 158.54 42.2209 158.33 41.4936C158.119 40.8702 158.014 40.0391 158.014 39.2079C158.014 38.3767 158.119 37.6494 158.33 37.0261C158.54 36.4027 158.856 35.7793 159.278 35.3637C159.699 34.9481 160.226 34.5326 160.858 34.3248C161.49 34.117 162.227 33.9092 162.965 33.9092C163.702 33.9092 164.44 34.0131 165.072 34.2209C165.704 34.4287 166.125 34.7403 166.546 35.1559C166.968 35.5715 167.284 36.091 167.495 36.8183C167.705 37.4417 167.811 38.2728 167.811 39.104ZM165.598 39.2079C165.598 38.6884 165.598 38.1689 165.493 37.7533C165.388 37.3378 165.282 36.9222 165.072 36.6105C164.861 36.2988 164.545 36.091 164.229 35.8832C163.913 35.6754 163.492 35.6754 162.965 35.6754C162.438 35.6754 162.017 35.7793 161.701 35.9871C161.385 36.1949 161.069 36.4027 160.858 36.7144C160.647 37.0261 160.542 37.4417 160.437 37.8572C160.331 38.2728 160.331 38.6884 160.331 39.2079C160.331 39.7274 160.331 40.2468 160.437 40.6624C160.542 41.078 160.647 41.4936 160.858 41.8053C161.069 42.117 161.279 42.3248 161.701 42.5326C162.017 42.7404 162.438 42.7404 162.965 42.7404C163.492 42.7404 163.913 42.6365 164.229 42.4287C164.545 42.2209 164.861 42.0131 165.072 41.7014C165.282 41.3897 165.388 40.9741 165.493 40.5585C165.598 40.2468 165.598 39.7274 165.598 39.2079Z" fill="#00A7B8"/>
<path d="M177.607 44.091C177.607 44.1949 177.607 44.1949 177.607 44.1949C177.607 44.1949 177.502 44.2988 177.397 44.2988C177.291 44.2988 177.186 44.2988 177.081 44.4027C176.975 44.4027 176.765 44.4027 176.554 44.4027C176.343 44.4027 176.238 44.4027 176.027 44.4027C175.922 44.4027 175.817 44.4027 175.711 44.2988C175.606 44.2988 175.606 44.1949 175.501 44.1949C175.501 44.091 175.395 44.091 175.395 44.091V35.8832H171.708V44.091C171.708 44.1949 171.708 44.1949 171.603 44.1949C171.603 44.1949 171.498 44.2988 171.392 44.2988C171.287 44.2988 171.182 44.2988 171.076 44.4027C170.971 44.4027 170.76 44.4027 170.55 44.4027C170.339 44.4027 170.233 44.4027 170.023 44.4027C169.917 44.4027 169.812 44.4027 169.707 44.2988C169.601 44.2988 169.601 44.1949 169.496 44.1949C169.496 44.091 169.496 44.091 169.496 44.091V34.8443C169.496 34.6365 169.496 34.4287 169.707 34.3248C169.812 34.2209 170.023 34.117 170.128 34.117H176.975C177.186 34.117 177.291 34.2209 177.397 34.3248C177.502 34.4287 177.502 34.6365 177.502 34.8443V44.091H177.607Z" fill="#00A7B8"/>
<path d="M189.195 39.104C189.195 39.9352 189.09 40.6624 188.879 41.3897C188.669 42.0131 188.353 42.6365 187.931 43.052C187.51 43.5715 186.983 43.8832 186.351 44.091C185.719 44.2988 184.982 44.4027 184.244 44.4027C183.401 44.4027 182.769 44.2988 182.137 44.091C181.505 43.8832 180.979 43.5715 180.663 43.1559C180.241 42.7404 179.925 42.2209 179.714 41.4936C179.504 40.8702 179.398 40.0391 179.398 39.2079C179.398 38.3767 179.504 37.6494 179.714 37.0261C179.925 36.4027 180.241 35.7793 180.663 35.3637C181.084 34.9481 181.611 34.5326 182.243 34.3248C182.875 34.117 183.612 33.9092 184.35 33.9092C185.087 33.9092 185.824 34.0131 186.456 34.2209C187.088 34.4287 187.51 34.7403 187.931 35.1559C188.353 35.5715 188.669 36.091 188.879 36.8183C189.09 37.4417 189.195 38.2728 189.195 39.104ZM186.983 39.2079C186.983 38.6884 186.983 38.1689 186.878 37.7533C186.772 37.3378 186.667 36.9222 186.456 36.6105C186.246 36.2988 186.035 36.091 185.614 35.8832C185.298 35.6754 184.876 35.6754 184.35 35.6754C183.823 35.6754 183.401 35.7793 183.085 35.9871C182.769 36.1949 182.453 36.4027 182.243 36.7144C182.032 37.0261 181.927 37.4417 181.821 37.8572C181.716 38.2728 181.716 38.6884 181.716 39.2079C181.716 39.7274 181.716 40.2468 181.821 40.6624C181.927 41.078 182.032 41.4936 182.243 41.8053C182.453 42.117 182.664 42.3248 183.085 42.5326C183.401 42.7404 183.823 42.7404 184.35 42.7404C184.876 42.7404 185.298 42.6365 185.614 42.4287C185.93 42.2209 186.246 42.0131 186.456 41.7014C186.667 41.3897 186.772 40.9741 186.878 40.5585C186.878 40.2468 186.983 39.7274 186.983 39.2079Z" fill="#00A7B8"/>
<path d="M197.939 37.2338C197.939 37.8572 197.833 38.2728 197.728 38.7923C197.517 39.2079 197.307 39.6235 196.885 39.9351C196.569 40.2468 196.148 40.4546 195.621 40.6624C195.095 40.7663 194.568 40.8702 193.83 40.8702H192.988V44.091C192.988 44.1949 192.988 44.1949 192.988 44.1949C192.988 44.1949 192.882 44.2988 192.777 44.2988C192.672 44.2988 192.566 44.4027 192.461 44.4027C192.356 44.4027 192.145 44.4027 191.934 44.4027C191.724 44.4027 191.513 44.4027 191.408 44.4027C191.302 44.4027 191.197 44.4027 191.092 44.2988C190.986 44.2988 190.986 44.1949 190.881 44.1949V44.091V34.9481C190.881 34.7403 190.986 34.5325 191.092 34.4286C191.197 34.3247 191.408 34.2209 191.618 34.2209H194.041C194.252 34.2209 194.462 34.2209 194.779 34.2209C194.989 34.2209 195.305 34.3248 195.516 34.3248C195.832 34.4286 196.148 34.5325 196.464 34.6364C196.78 34.8442 197.096 34.9481 197.307 35.2598C197.517 35.4676 197.728 35.7793 197.833 36.091C197.939 36.5066 197.939 36.8183 197.939 37.2338ZM195.832 37.4416C195.832 37.1299 195.727 36.8183 195.621 36.6105C195.516 36.4027 195.305 36.1949 195.2 36.091C194.989 35.9871 194.779 35.8832 194.568 35.8832C194.357 35.8832 194.146 35.8832 193.936 35.8832H193.093V39.3118H194.041C194.357 39.3118 194.673 39.3118 194.884 39.2079C195.095 39.104 195.305 39.0001 195.411 38.7923C195.516 38.5845 195.621 38.4806 195.727 38.1689C195.727 37.8572 195.832 37.6494 195.832 37.4416Z" fill="#00A7B8"/>
<path d="M204.471 41.4936C204.26 42.117 204.049 42.5326 203.733 42.9482C203.523 43.3637 203.312 43.6754 202.996 43.8832C202.785 44.091 202.469 44.2988 202.153 44.4027C201.837 44.5066 201.521 44.5066 201.1 44.5066C200.994 44.5066 200.784 44.5066 200.678 44.5066C200.573 44.5066 200.362 44.5066 200.257 44.4027C200.152 44.4027 200.046 44.2988 199.941 44.2988C199.836 44.2988 199.73 44.1949 199.73 44.1949L199.625 44.091C199.625 44.091 199.625 43.9871 199.519 43.8832C199.519 43.7793 199.519 43.6754 199.519 43.5715C199.519 43.4676 199.519 43.2598 199.519 43.1559C199.519 42.8443 199.519 42.6365 199.625 42.5326C199.625 42.4287 199.73 42.3248 199.836 42.3248C199.836 42.3248 199.941 42.3248 200.046 42.3248C200.152 42.3248 200.152 42.4287 200.257 42.4287C200.362 42.4287 200.468 42.5326 200.573 42.5326C200.678 42.5326 200.784 42.6365 200.994 42.6365C201.1 42.6365 201.205 42.6365 201.31 42.6365C201.416 42.6365 201.521 42.5326 201.626 42.5326C201.732 42.4287 201.837 42.3248 201.837 42.2209C201.942 42.117 202.048 41.9092 202.153 41.7014L198.782 34.8443C198.677 34.6365 198.677 34.5326 198.677 34.4287C198.677 34.3248 198.677 34.2209 198.782 34.2209C198.887 34.117 198.993 34.117 199.098 34.117C199.203 34.117 199.414 34.117 199.73 34.117C199.941 34.117 200.152 34.117 200.362 34.117C200.468 34.117 200.678 34.117 200.678 34.2209C200.784 34.2209 200.784 34.3248 200.889 34.3248C200.889 34.4287 200.994 34.4287 200.994 34.5326L202.469 37.6495C202.68 37.9611 202.785 38.2728 202.89 38.5845C202.996 38.8962 203.206 39.2079 203.312 39.6235C203.417 39.3118 203.523 38.8962 203.628 38.5845C203.733 38.2728 203.839 37.8572 204.049 37.5456L205.208 34.4287C205.208 34.3248 205.313 34.3248 205.313 34.2209C205.313 34.2209 205.419 34.117 205.524 34.117C205.629 34.117 205.735 34.117 205.84 34.0131C205.945 34.0131 206.156 34.0131 206.367 34.0131C206.577 34.0131 206.788 34.0131 206.999 34.0131C207.104 34.0131 207.21 34.0131 207.315 34.117C207.42 34.117 207.42 34.2209 207.42 34.3248C207.42 34.4287 207.42 34.5326 207.315 34.6365L204.471 41.4936Z" fill="#00A7B8"/>
<path d="M91.7537 3.48029C89.1201 3.48029 85.8545 4.20756 83.3263 6.70107C80.482 9.40236 80.166 12.727 80.166 14.7011C80.166 16.6751 80.5874 19.9998 83.4316 22.805C85.8545 25.1946 88.9095 25.9218 91.6484 25.9218C95.5461 25.9218 98.1796 24.4673 99.8651 22.7011C102.604 19.9998 103.025 16.5712 103.025 14.7011C103.025 12.727 102.604 9.40236 99.8651 6.70107C98.601 5.45431 95.9674 3.48029 91.7537 3.48029ZM91.6484 22.0777C88.8041 22.0777 86.0652 19.6881 86.0652 14.7011C86.0652 9.61016 88.8041 7.32444 91.6484 7.32444C94.4926 7.32444 97.1262 9.71405 97.1262 14.7011C97.1262 19.6881 94.3873 22.0777 91.6484 22.0777ZM113.77 3.89587H105.343H103.447C103.447 5.24652 103.447 6.38938 103.447 6.59717C103.447 7.01275 103.763 7.32444 104.184 7.32444C104.184 7.32444 104.289 7.32444 104.395 7.32444H105.448H105.87V22.1816C105.659 22.1816 105.554 22.1816 105.448 22.1816C105.448 22.1816 105.343 22.1816 105.238 22.1816C104.922 22.1816 104.29 22.1816 104.184 22.1816C103.763 22.1816 103.447 22.4933 103.447 22.9089C103.447 23.1167 103.447 24.2595 103.447 25.6102H105.238H105.448H113.56C113.56 24.2595 113.56 23.2205 113.56 23.0128C113.56 22.5972 113.244 22.2855 112.822 22.2855C112.717 22.2855 112.085 22.2855 111.242 22.2855V17.818C111.242 17.818 111.242 17.818 113.981 17.818C121.46 17.818 122.303 13.8699 122.303 10.753C122.198 6.80496 120.302 3.89587 113.77 3.89587ZM112.085 14.2855H111.031V7.32444H112.085C113.981 7.32444 116.509 7.63613 116.509 10.8569C116.509 13.8699 113.981 14.2855 112.085 14.2855ZM123.673 3.89587H142.213V6.07769V8.88288V10.2335C140.843 10.2335 139.685 10.2335 139.474 10.2335C139.053 10.2335 138.737 9.92184 138.737 9.50626C138.737 9.40236 138.737 8.15561 138.737 7.22055H135.471V22.0777C136.735 22.0777 137.683 22.0777 137.788 22.0777C138.21 22.0777 138.526 22.3894 138.526 22.805C138.526 23.0128 138.526 24.1556 138.526 25.5063H129.045H128.834H127.044C127.044 24.1556 127.044 23.0128 127.044 22.805C127.044 22.3894 127.36 22.0777 127.781 22.0777C127.886 22.0777 128.518 22.0777 128.834 22.0777C128.94 22.0777 129.045 22.0777 129.045 22.0777C129.256 22.0777 129.677 22.0777 130.098 22.0777V7.22055H126.938C126.938 8.15561 126.938 9.40236 126.938 9.50626C126.938 9.92184 126.622 10.2335 126.201 10.2335C125.99 10.2335 124.831 10.2335 123.462 10.2335V9.19457V6.07769V3.89587H123.673ZM145.479 3.89587H161.912V10.0257C160.543 10.0257 159.384 10.0257 159.173 10.0257C158.752 10.0257 158.436 9.71405 158.436 9.29847C158.436 9.19457 158.436 8.15561 158.436 7.22055H151.167V12.5192H156.75V16.0517H151.167V22.0777C153.801 22.0777 156.645 22.0777 158.436 22.0777V21.9738C158.436 21.0387 158.436 19.6881 158.436 19.5842C158.436 19.1686 158.752 18.8569 159.173 18.8569C159.384 18.8569 160.543 18.8569 161.912 18.8569V21.2465V23.0128V25.4024H160.437H158.541H143.582C143.582 24.0517 143.582 22.9089 143.582 22.7011C143.582 22.2855 143.898 21.9738 144.32 21.9738C144.32 21.9738 144.952 21.9738 145.9 21.9738V7.22055H145.479C145.479 7.22055 145.268 7.22055 145.162 7.22055C144.846 7.22055 144.425 7.22055 144.32 7.22055C143.898 7.22055 143.582 6.90886 143.582 6.49327C143.582 6.28548 143.582 5.14262 143.582 3.79197H145.479V3.89587ZM206.577 22.1816C206.577 22.1816 206.051 22.1816 205.419 22.1816L200.467 7.32444C201.521 7.32444 202.258 7.32444 202.364 7.32444C202.785 7.32444 203.101 7.01275 203.101 6.59717C203.101 6.38938 203.101 5.24652 203.101 3.89587H190.46H190.249H188.458C188.458 5.24652 188.458 6.38938 188.458 6.59717C188.458 7.01275 188.774 7.32444 189.196 7.32444C189.301 7.32444 189.933 7.32444 190.249 7.32444C190.355 7.32444 190.46 7.32444 190.46 7.32444C190.671 7.32444 190.987 7.32444 191.513 7.32444L186.668 22.1816C185.825 22.1816 184.982 22.1816 184.139 22.1816L177.081 13.8699L183.402 7.32444C184.245 7.32444 184.877 7.32444 184.982 7.32444C185.403 7.32444 185.719 7.01275 185.719 6.59717C185.719 6.38938 185.719 5.24652 185.719 3.89587H178.661H178.451H176.344C176.344 5.24652 176.344 6.38938 176.344 6.59717C176.344 7.01275 176.66 7.32444 177.081 7.32444C177.187 7.32444 177.819 7.32444 178.24 7.32444L171.393 13.8699V7.32444C172.341 7.32444 172.973 7.32444 172.973 7.32444C173.394 7.32444 173.71 7.01275 173.71 6.59717C173.71 6.38938 173.71 5.24652 173.71 3.89587H165.599H165.388H163.597C163.597 5.24652 163.597 6.38938 163.597 6.59717C163.597 7.01275 163.913 7.32444 164.335 7.32444C164.44 7.32444 165.072 7.32444 165.388 7.32444C165.494 7.32444 165.599 7.32444 165.599 7.32444C165.704 7.32444 165.81 7.32444 166.02 7.32444V22.1816C165.81 22.1816 165.704 22.1816 165.599 22.1816C165.599 22.1816 165.494 22.1816 165.388 22.1816C165.072 22.1816 164.44 22.1816 164.335 22.1816C163.913 22.1816 163.597 22.4933 163.597 22.9089C163.597 23.1167 163.597 24.2595 163.597 25.6102H165.388H165.599H173.71C173.71 24.2595 173.71 23.1167 173.71 22.9089C173.71 22.4933 173.394 22.1816 172.973 22.1816C172.868 22.1816 172.236 22.1816 171.393 22.1816V14.3894L177.819 22.1816C177.819 22.1816 177.819 22.1816 177.713 22.1816C177.713 22.1816 177.608 22.1816 177.503 22.1816C177.187 22.1816 176.555 22.1816 176.449 22.1816C176.028 22.1816 175.712 22.4933 175.712 22.9089C175.712 23.1167 175.712 24.2595 175.712 25.6102H177.503H177.713H193.62C193.62 24.2595 193.62 23.1167 193.62 22.9089C193.62 22.4933 193.304 22.1816 192.883 22.1816C192.883 22.1816 192.145 22.1816 191.092 22.1816L192.356 17.9218H198.677L199.941 22.1816C199.73 22.1816 199.625 22.1816 199.414 22.1816C199.414 22.1816 199.309 22.1816 199.203 22.1816C198.887 22.1816 198.255 22.1816 198.15 22.1816C197.729 22.1816 197.412 22.4933 197.412 22.9089C197.412 23.1167 197.412 24.2595 197.412 25.6102H199.203H199.414H207.209C207.209 24.2595 207.209 23.1167 207.209 22.9089C207.315 22.4933 206.999 22.1816 206.577 22.1816ZM193.199 15.1167L195.516 7.22055C195.516 7.22055 195.516 7.22055 195.622 7.22055L197.939 15.1167H193.199Z" fill="#F58233"/>
<path d="M66.682 21.7143V45.4026H32.6562C35.8165 33.6624 33.2883 42.5974 35.8165 33.3507C44.876 33.6624 56.253 30.7533 66.682 21.7143ZM0 8.41562V45.4026H12.1144C12.6411 40.8312 13.4839 34.4935 12.9572 27.6364C6.95262 22.1299 2.2122 14.4416 0 8.41562Z" fill="#00A7B8"/>
<path d="M0 8.41562V45.4026H12.1144C12.6411 40.8312 13.4839 34.4935 12.9572 27.6364C6.95262 22.1299 2.2122 14.4416 0 8.41562Z" fill="#00A7B8"/>
<path d="M35.7111 33.3507C33.1828 42.7013 35.7111 33.6623 32.5508 45.4026H66.5765V21.7143C56.2529 30.7533 44.8759 33.6623 35.7111 33.3507Z" fill="#00A7B8"/>
<path d="M66.682 4.57143C66.682 2.07792 64.5751 0 62.0469 0C59.94 0 0 0 0 0C4.42439 11.5325 13.1678 20.7792 26.441 24.5195C36.0272 27.2208 53.1981 27.9481 66.682 16.7273C66.682 14.026 66.682 6.54545 66.682 4.57143ZM28.6532 23.1688C24.9662 23.1688 22.0166 20.2597 22.0166 16.6234C22.0166 12.987 24.9662 10.0779 28.6532 10.0779C32.3402 10.0779 35.2898 12.987 35.2898 16.6234C35.1845 20.2597 32.2349 23.1688 28.6532 23.1688Z" fill="#F58233"/>
</svg>
