<svg width="174" height="34" viewBox="0 0 174 34" fill="none" xmlns="http://www.w3.org/2000/svg">
<path d="M6.66602 0V13.3335H13.3338V6.66571H19.9996V0H6.66602Z" fill="#005DA4"/>
<path d="M33.3326 19.9986V13.3329V6.66504H19.999V13.3329H26.6669V19.9986H33.3326Z" fill="#005DA4"/>
<path d="M0 26.6675H13.3335V20.0018H6.66571V19.9997V13.334H0V26.6675Z" fill="#005DA4"/>
<path d="M19.9987 20.002V26.6677H13.333V33.3355H26.6665V20.002H19.9987Z" fill="#005DA4"/>
<path fill-rule="evenodd" clip-rule="evenodd" d="M89.3583 5.81238V9.02966L90.0391 9.04026V4.58656H89.4219L87.439 7.80595V4.58443H86.7561V9.03814H87.3669L89.3583 5.81238ZM87.439 3.47949C87.4665 4.11574 87.8907 4.32782 88.3976 4.32782C88.9023 4.32782 89.3265 4.11574 89.3626 3.47949H88.8557C88.8478 3.59478 88.7965 3.70277 88.712 3.78164C88.6276 3.86052 88.5163 3.90439 88.4008 3.90439C88.2852 3.90439 88.174 3.86052 88.0895 3.78164C88.0051 3.70277 87.9537 3.59478 87.9459 3.47949H87.439ZM75.7558 9.06663C75.5396 9.07032 75.3248 9.03033 75.1244 8.94907C74.9239 8.8678 74.742 8.74693 74.5894 8.59369C74.1646 8.16897 74.1648 7.69012 74.1652 6.87852L74.1652 6.80797C74.1652 5.95328 74.1652 5.46125 74.5894 5.02436C74.7419 4.87084 74.9238 4.74964 75.1242 4.66801C75.3246 4.58639 75.5394 4.54601 75.7558 4.5493C76.5723 4.5493 77.1852 5.03073 77.34 5.9151H76.655C76.6256 5.74974 76.5515 5.59558 76.4407 5.46933C76.3299 5.34308 76.1867 5.24955 76.0266 5.19886C75.8665 5.14818 75.6955 5.14228 75.5323 5.1818C75.369 5.22132 75.2197 5.30476 75.1005 5.42308C74.8884 5.66061 74.8333 5.9151 74.8333 6.80797C74.8333 7.70083 74.882 7.95533 75.1005 8.19286C75.1852 8.2805 75.2872 8.34967 75.4 8.39602C75.5128 8.44237 75.6339 8.4649 75.7558 8.4622C75.9733 8.4663 76.1849 8.39142 76.3514 8.25142C76.518 8.11142 76.6281 7.91581 76.6614 7.70083H77.34C77.2984 8.08694 77.1116 8.44281 76.8175 8.69639C76.5233 8.94997 76.1438 9.08232 75.7558 9.06663ZM72.4238 7.08487V9.02965L73.1046 9.02541V4.57171H72.4238V6.48044H70.6275V4.57171H69.9531V9.02541H70.6275V7.08487H72.4238ZM46.2957 9.03146V6.06232L45.2713 8.22767H44.7729L43.7295 6.0602V9.02934H43.0551V4.57564H43.7231L45.0211 7.33269L46.2936 4.57564H46.9659V9.02934L46.2957 9.03146ZM48.1892 9.03032V4.57662H51.0353V5.18105H48.8636V6.47899H50.7109V7.08554H48.8636V8.41953H51.0353V9.02608L48.1892 9.03032ZM55.0586 8.42299V4.58644H52.5072V5.8971C52.5072 6.95114 52.3524 7.82492 51.9643 8.42299H51.5783V10.0263H52.2336V9.02954H54.9228V10.0263H55.5824V8.42299H55.0586ZM52.713 8.42299C53.0438 7.79947 53.1498 7.03174 53.1498 6.18341V5.19087H54.3863V8.42299H52.713ZM59.0395 9.02871V5.81144L57.0502 9.0372H56.4373V4.58349H57.1117V7.80501L59.0968 4.58561H59.7139V9.03932L59.0395 9.02871ZM63.9452 9.03032V10.0271H64.5984V8.42377H64.0725V4.58722H63.4002V8.42377H61.6038V4.57662H60.9294V9.03032H63.9452ZM68.0548 9.02871V5.81144L66.0655 9.0372H65.4547V4.58349H66.127V7.80501L68.1121 4.58561H68.7292V9.03932L68.0548 9.02871ZM78.3198 4.57662V9.03032H78.9984V6.69743L80.7884 9.03032H81.6367L79.7725 6.68258L81.4819 4.58722H80.6527L78.9942 6.6847V4.57662H78.3198ZM84.8582 9.02871V5.81144L82.8689 9.0372H82.2581V4.58349H82.9304V7.80501L84.9154 4.58561H85.5305V9.03932L84.8582 9.02871ZM95.8524 6.87233C95.8524 7.60189 95.8524 8.15754 95.4282 8.59443C95.1149 8.89613 94.6968 9.06468 94.2618 9.06468C93.8268 9.06468 93.4087 8.89613 93.0953 8.59443C92.6712 8.17027 92.6712 7.55735 92.6712 6.89778V6.60087C92.6712 5.87131 92.7284 5.39624 93.0953 5.02298C93.4082 4.7203 93.8265 4.55108 94.2618 4.55108C94.6971 4.55108 95.1154 4.7203 95.4282 5.02298C95.7718 5.37292 95.8524 5.87131 95.8524 6.49483V6.87233ZM94.9108 5.43018C94.8251 5.34169 94.7221 5.27175 94.6083 5.22469C94.4945 5.17762 94.3722 5.15445 94.2491 5.15659C94.1265 5.15545 94.0051 5.17888 93.8918 5.22551C93.7785 5.27213 93.6757 5.34101 93.5895 5.42806C93.3413 5.69104 93.335 6.12792 93.335 6.70054V7.08441C93.335 7.53826 93.3541 7.95819 93.5895 8.1936C93.6754 8.28196 93.7783 8.35197 93.892 8.39936C94.0058 8.44675 94.128 8.47055 94.2512 8.4693C94.3747 8.47274 94.4975 8.44995 94.6116 8.40243C94.7257 8.3549 94.8283 8.28372 94.9129 8.1936C95.1758 7.92001 95.1758 7.52766 95.1758 6.77265C95.1737 6.08975 95.161 5.69104 94.9108 5.42806V5.43018ZM97.5872 7.28277H98.5988C99.4408 7.28277 100.022 6.72076 100.022 5.92333C100.022 5.12591 99.4472 4.57662 98.5988 4.57662H96.9149V9.03032H97.5872V7.28277ZM97.5872 5.19165H98.5543C99.0421 5.19165 99.3475 5.47796 99.3475 5.93394C99.3475 6.38991 99.0421 6.67622 98.5543 6.67622H97.5872V5.19165ZM102.404 5.19087V9.02954H101.731V5.19087H100.508V4.58644H103.627V5.19087H102.404ZM107.065 8.59443C107.489 8.15754 107.489 7.60189 107.489 6.87233V6.49483C107.489 5.87131 107.409 5.37292 107.065 5.02298C106.752 4.7203 106.334 4.55108 105.899 4.55108C105.464 4.55108 105.045 4.7203 104.732 5.02298C104.363 5.39624 104.308 5.87131 104.308 6.60087V6.89778C104.308 7.55735 104.308 8.17027 104.732 8.59443C105.046 8.89613 105.464 9.06468 105.899 9.06468C106.334 9.06468 106.752 8.89613 107.065 8.59443ZM106.248 5.22439C106.361 5.2718 106.463 5.34183 106.548 5.43018V5.42806C106.798 5.69104 106.811 6.08975 106.815 6.77265C106.815 7.52766 106.815 7.92001 106.552 8.1936C106.468 8.28372 106.365 8.3549 106.251 8.40243C106.137 8.44995 106.014 8.47274 105.89 8.4693C105.767 8.47067 105.645 8.44693 105.531 8.39953C105.417 8.35213 105.314 8.28206 105.229 8.1936C104.991 7.95819 104.974 7.53826 104.974 7.08441V6.70054C104.974 6.12792 104.981 5.69104 105.229 5.42806C105.315 5.34027 105.418 5.27079 105.532 5.22378C105.645 5.17677 105.767 5.15319 105.89 5.15447C106.013 5.15318 106.135 5.17697 106.248 5.22439ZM111.021 9.03032V5.19165H109.224V9.03032H108.55V4.57662H111.695V9.03032H111.021ZM112.918 4.57662V9.03032L115.758 9.02608V8.41953H113.586V7.08554H115.434V6.47899H113.591V5.18105H115.762V4.57662H112.918ZM119.788 4.58644V8.42299H120.312V10.0263H119.65V9.02954H116.955V10.0263H116.299V8.42299H116.687C117.073 7.82492 117.23 6.95114 117.23 5.8971V4.58644H119.788ZM117.879 6.18341C117.879 7.03174 117.773 7.79947 117.442 8.42299H119.114V5.19087H117.879V6.18341ZM123.768 5.81144V9.02871L124.437 9.03932V4.58561H123.817L121.834 7.80501V4.58349H121.16V9.0372H121.777L123.768 5.81144ZM127.868 9.02903V7.29632C127.476 7.37865 127.077 7.4262 126.676 7.43842C126.089 7.43842 125.523 7.13302 125.523 6.34832V4.58593H126.201V6.17654C126.201 6.68765 126.52 6.8255 126.882 6.8255C127.214 6.81281 127.544 6.77094 127.868 6.70038V4.57956H128.543V9.03327L127.868 9.02903ZM129.764 4.57662V9.03032L132.613 9.02608V8.41953H130.439V7.08554H132.286V6.47899H130.439V5.18105H132.613V4.57662H129.764ZM135.018 9.06661C134.801 9.07005 134.587 9.02995 134.386 8.9487C134.186 8.86745 134.004 8.74671 133.851 8.59366C133.426 8.16894 133.427 7.6901 133.427 6.8785L133.427 6.80794C133.427 5.95325 133.427 5.46122 133.851 5.02434C134.004 4.87101 134.186 4.74994 134.386 4.66833C134.586 4.58672 134.801 4.54623 135.018 4.54928C135.836 4.54928 136.447 5.0307 136.604 5.91508H135.917C135.888 5.74971 135.814 5.59547 135.703 5.46911C135.593 5.34275 135.45 5.24912 135.29 5.1984C135.13 5.14767 134.959 5.14179 134.796 5.1814C134.632 5.22101 134.483 5.30459 134.364 5.42305C134.152 5.66058 134.095 5.91508 134.095 6.80794C134.095 7.7008 134.146 7.9553 134.364 8.19283C134.449 8.28042 134.55 8.34957 134.663 8.39593C134.775 8.44229 134.896 8.46484 135.018 8.46217C135.235 8.46673 135.447 8.39201 135.614 8.25193C135.78 8.11185 135.89 7.91597 135.923 7.7008H136.604C136.562 8.0871 136.375 8.44299 136.08 8.69652C135.786 8.95006 135.406 9.08233 135.018 9.06661ZM137.584 4.57662V9.03032L138.262 9.01972V6.68683L140.054 9.01972H140.903L139.036 6.67198L140.746 4.57662H139.917L138.256 6.6847V4.57662H137.584ZM144.122 9.02871V5.81144L142.131 9.0372H141.52V4.58349H142.194V7.80501L144.177 4.58561H144.794V9.03932L144.122 9.02871ZM148.62 5.81341V9.03068L149.295 9.04129V4.58758H148.678L146.692 7.80697V4.57698H146.018V9.03068H146.631L148.62 5.81341ZM146.709 3.49324C146.741 4.11676 147.165 4.32884 147.67 4.32884C148.164 4.32884 148.588 4.11676 148.631 3.49324H148.126C148.115 3.60659 148.062 3.71179 147.978 3.78835C147.894 3.8649 147.784 3.90731 147.67 3.90731C147.556 3.90731 147.446 3.8649 147.362 3.78835C147.278 3.71179 147.225 3.60659 147.214 3.49324H146.709ZM155.093 10.0271V9.03032H152.071V4.57662H152.745V8.42377H154.542V4.58722H155.216V8.42377H155.74V10.0271H155.093ZM156.595 4.57662V9.03032L159.441 9.02608V8.41953H157.276V7.08554H159.123V6.47899H157.269V5.18105H159.441V4.57662H156.595ZM162.891 9.02965V7.08487H161.093V9.02541H160.421V4.57171H161.093V6.48044H162.891V4.57171H163.576V9.02541L162.891 9.02965ZM166.291 9.02954V5.19087H167.512V4.58644H164.395V5.19087H165.616V9.02954H166.291ZM170.021 7.28277H169.012V9.03032H168.337V4.57662H170.021C170.87 4.57662 171.444 5.12591 171.444 5.92333C171.444 6.72076 170.863 7.28277 170.021 7.28277ZM169.979 5.19165H169.012V6.67622H169.979C170.465 6.67622 170.77 6.38991 170.77 5.93394C170.77 5.47796 170.465 5.19165 169.979 5.19165ZM56.0871 14.0357H61.9724V14.0294C64.5958 14.0294 66.3582 15.9593 66.3582 18.8288C66.3582 21.6982 64.5958 23.6261 61.9724 23.6261H58.5091V28.6142H56.0871V14.0357ZM61.8324 16.2371H58.5091V21.4331H61.8324C63.1494 21.4331 63.9363 20.4618 63.9363 18.8351C63.9363 18.0526 63.7411 16.2371 61.8324 16.2371ZM67.5334 16.2377H71.4781V28.6147H73.9001V16.2377H77.8448V14.0363H67.5334V16.2377ZM118.74 28.6147H109.315V14.0363H118.74V16.2377H111.737V20.176H117.694V22.3562H111.737V26.4154H118.74V28.6147ZM132.063 14.0363H123.565V16.5961C123.559 19.9187 123.086 23.224 122.161 26.4154H120.564V31.8341H122.927V28.6147H131.372V31.8341H133.754V26.4154H132.057L132.063 14.0363ZM129.644 16.2377V26.4176H124.634C125.334 23.5863 125.773 19.9321 125.769 16.2377H129.644ZM138.472 14.0363V23.828L145.337 14.0363H146.864V28.6147H144.442V18.8038L137.558 28.6147H136.05V14.0363H138.472ZM168.372 14.1168L168.342 14.0363H167.069L161.392 28.6147H163.956L164.968 25.7474H170.448L171.455 28.6253H174L168.372 14.1168ZM169.775 23.6372H165.682L167.756 18.0849L169.775 23.6372ZM152.978 21.2152L158.369 14.0363H161.36L155.748 21.2513L161.326 28.6147H158.259L152.953 21.37V21.2491L152.978 21.2152ZM152.546 14.0363H150.126V28.6147H152.546V14.0363ZM94.5523 14.0363L99.3114 20.4984L104.047 14.0363H105.754V28.6147H103.311V18.6914L99.8289 23.722H98.7918L95.2882 18.6914V28.6147H92.8663V14.0363H94.5523ZM47.9919 13.9282C44.8871 13.9282 42.7811 15.6736 42.709 18.2865V24.3096V24.4347C42.8108 27.0518 44.868 28.7357 47.9898 28.7357C51.1116 28.7357 53.1688 27.0518 53.2685 24.4347V18.2844C53.2028 15.6736 51.0947 13.9282 47.9919 13.9282ZM50.8359 24.3032C50.8359 25.9999 49.6992 26.3604 47.9919 26.3604C46.2847 26.3604 45.1458 26.0105 45.1458 24.3032V18.401C45.1458 16.7044 46.2826 16.3459 47.9919 16.3459C49.7013 16.3459 50.8359 16.6959 50.8359 18.401V24.3032ZM79.1594 18.2876C79.2337 15.6748 81.3396 13.9294 84.4424 13.9294L84.436 13.9272C87.5409 13.9272 89.6469 15.6727 89.719 18.2855V24.4359C89.6193 27.0529 87.5579 28.7369 84.4381 28.7369C81.3184 28.7369 79.2591 27.0529 79.1594 24.4359V24.3107V18.2876ZM84.436 26.3594C86.1454 26.3594 87.2821 25.9989 87.2821 24.3022V18.4021C87.2821 16.697 86.1433 16.3471 84.436 16.3471C82.7288 16.3471 81.592 16.7055 81.592 18.4021V24.3022C81.592 26.0095 82.7266 26.3594 84.436 26.3594Z" fill="#005DA4"/>
</svg>
