<svg width="18" height="18" viewBox="0 0 18 18" fill="none" xmlns="http://www.w3.org/2000/svg">
<path d="M17.5277 13.8864L13.8844 11.4568C13.4221 11.1509 12.8023 11.2516 12.4605 11.688L11.3993 13.0525C11.2629 13.2323 11.015 13.2845 10.8176 13.1749L10.6158 13.0636C9.94657 12.6989 9.11391 12.2447 7.43626 10.5665C5.75861 8.88824 5.30358 8.05495 4.93881 7.38698L4.82812 7.18511C4.71701 6.98784 4.76819 6.73886 4.94809 6.60139L6.31167 5.54046C6.74797 5.19862 6.84875 4.57904 6.54325 4.11656L4.11361 0.473298C3.80052 0.0023449 3.17237 -0.139033 2.68767 0.152334L1.16419 1.06749C0.685504 1.34891 0.33431 1.80468 0.184251 2.33929C-0.364352 4.33819 0.0483563 7.78798 5.13021 12.8704C9.17272 16.9126 12.1822 17.9997 14.2507 17.9997C14.7267 18.0017 15.2009 17.9398 15.6605 17.8155C16.1952 17.6656 16.651 17.3144 16.9323 16.8356L17.8483 15.313C18.1401 14.8282 17.9988 14.1997 17.5277 13.8864ZM17.3315 15.0052L16.4175 16.5287C16.2156 16.8743 15.8877 17.1284 15.5027 17.2378C13.6573 17.7444 10.4334 17.3248 5.55463 12.446C0.675838 7.56723 0.25624 4.3436 0.762872 2.498C0.872402 2.11246 1.12683 1.78419 1.47285 1.58193L2.99633 0.667965C3.20664 0.541421 3.47927 0.60276 3.61513 0.807128L4.93495 2.78863L6.0427 4.45008C6.17536 4.65068 6.13177 4.91955 5.94252 5.068L4.57862 6.12892C4.16356 6.4463 4.04503 7.02056 4.30058 7.47633L4.40888 7.67311C4.79223 8.3762 5.26885 9.25086 7.00889 10.9906C8.74894 12.7304 9.62332 13.207 10.3261 13.5903L10.5232 13.6989C10.9789 13.9544 11.5532 13.8359 11.8706 13.4209L12.9315 12.057C13.08 11.8678 13.3487 11.8243 13.5494 11.9568L17.1924 14.3864C17.3969 14.5222 17.4582 14.795 17.3315 15.0052Z" fill="#F58233"/>
<path d="M10.1994 3.00156C13.0143 3.00469 15.2954 5.28588 15.2986 8.10081C15.2986 8.26648 15.4329 8.40076 15.5986 8.40076C15.7642 8.40076 15.8985 8.26648 15.8985 8.10081C15.895 4.95469 13.3455 2.40512 10.1994 2.40167C10.0337 2.40167 9.89941 2.53595 9.89941 2.70162C9.89941 2.86728 10.0337 3.00156 10.1994 3.00156Z" fill="#F58233"/>
<path d="M10.1994 4.80127C12.0207 4.80342 13.4967 6.27941 13.4989 8.1008C13.4989 8.26646 13.6332 8.40074 13.7988 8.40074C13.9645 8.40074 14.0988 8.26646 14.0988 8.1008C14.0963 5.94822 12.3519 4.20385 10.1994 4.20139C10.0337 4.20139 9.89941 4.33566 9.89941 4.50133C9.89941 4.667 10.0337 4.80127 10.1994 4.80127Z" fill="#F58233"/>
<path d="M10.1994 6.60102C11.0272 6.602 11.6981 7.27289 11.6991 8.10081C11.6991 8.26647 11.8335 8.40075 11.9991 8.40075C12.1647 8.40075 12.299 8.26647 12.299 8.10081C12.2977 6.94174 11.3584 6.00243 10.1994 6.00113C10.0337 6.00113 9.89941 6.13541 9.89941 6.30107C9.89941 6.46674 10.0337 6.60102 10.1994 6.60102Z" fill="#F58233"/>
</svg>
