<svg width="20" height="22" viewBox="0 0 20 22" fill="none" xmlns="http://www.w3.org/2000/svg">
<path d="M16.3403 16.0923H15.133L15.1386 15.391C15.1386 15.0793 15.3946 14.8243 15.7072 14.8243H15.7842C16.0976 14.8243 16.3543 15.0793 16.3543 15.391L16.3403 16.0923ZM11.8117 14.5894C11.5055 14.5894 11.2549 14.7952 11.2549 15.0473V18.458C11.2549 18.7095 11.5055 18.9149 11.8117 18.9149C12.1193 18.9149 12.3701 18.7095 12.3701 18.458V15.0473C12.3701 14.795 12.1193 14.5894 11.8117 14.5894ZM19.1663 12.6815V19.1701C19.1663 20.7264 17.8168 22 16.167 22H3.83259C2.18234 22 0.833008 20.7264 0.833008 19.1701V12.6815C0.833008 11.1252 2.18234 9.85136 3.83259 9.85136H16.167C17.8168 9.85136 19.1663 11.1252 19.1663 12.6815ZM4.65539 19.8746L4.65441 13.0396L6.18341 13.0401V12.0274L2.10754 12.0213V13.0169L3.37988 13.0206V19.8746H4.65539ZM9.23872 14.0578H7.96394V17.7076C7.96394 18.2356 7.99597 18.4996 7.96199 18.5927C7.85834 18.8758 7.39243 19.1764 7.21081 18.6232C7.18001 18.5264 7.20714 18.2343 7.20665 17.7327L7.20152 14.0578H5.93383L5.93774 17.675C5.93872 18.2294 5.92528 18.6428 5.94214 18.831C5.97319 19.1627 5.96219 19.5494 6.26994 19.7704C6.84341 20.1835 7.94268 19.7088 8.21768 19.1182L8.21523 19.8719L9.23897 19.8731L9.23872 14.0578ZM13.3168 18.2373L13.3141 15.1996C13.3131 14.0419 12.4471 13.3486 11.2715 14.2853L11.2767 12.0269L10.0033 12.0289L9.99723 19.8242L11.0444 19.809L11.1398 19.3236C12.4776 20.5509 13.3187 19.7098 13.3168 18.2373ZM17.3064 17.8347L16.3506 17.8398C16.3501 17.8777 16.3486 17.9214 16.3481 17.9691V18.5025C16.3481 18.788 16.1123 19.0205 15.8258 19.0205H15.6385C15.3515 19.0205 15.1157 18.788 15.1157 18.5025V18.4433V17.8567V17.0996H17.3044V16.2758C17.3044 15.6738 17.289 15.072 17.2391 14.7278C17.0825 13.639 15.5542 13.4662 14.7822 14.0235C14.54 14.1976 14.3549 14.4305 14.2474 14.7434C14.1389 15.0566 14.0848 15.4843 14.0848 16.0277V17.8391C14.0853 20.8501 17.7427 20.4246 17.3064 17.8347ZM12.4033 8.00115C12.4691 8.16102 12.5712 8.29058 12.7098 8.38836C12.8467 8.48467 13.0217 8.53307 13.2315 8.53307C13.4153 8.53307 13.5781 8.48344 13.7199 8.38102C13.8612 8.27909 13.9802 8.1268 14.0775 7.92367L14.0533 8.4238H15.4743V2.38089H14.3557V7.084C14.3557 7.33871 14.1459 7.54722 13.8895 7.54722C13.6346 7.54722 13.4241 7.33871 13.4241 7.084V2.38089H12.2566V6.45676C12.2566 6.97596 12.2662 7.32209 12.2816 7.4976C12.2975 7.67189 12.3375 7.83909 12.4033 8.00115ZM8.09717 4.58822C8.09717 4.00816 8.14557 3.5552 8.24163 3.22862C8.33843 2.90327 8.51223 2.64171 8.76401 2.44444C9.01505 2.2462 9.3365 2.14696 9.72737 2.14696C10.0561 2.14696 10.3377 2.21149 10.5729 2.33787C10.8093 2.46498 10.9916 2.62998 11.118 2.8336C11.2468 3.03796 11.3343 3.24793 11.381 3.4628C11.4287 3.6806 11.4522 4.00913 11.4522 4.45231V5.98058C11.4522 6.54109 11.4297 6.95347 11.3859 7.21527C11.3427 7.4778 11.2498 7.72127 11.1058 7.94958C10.964 8.17544 10.7809 8.34436 10.559 8.45216C10.3346 8.56093 10.0779 8.61422 9.78799 8.61422C9.4641 8.61422 9.1913 8.56949 8.96641 8.47611C8.74079 8.38322 8.5665 8.24316 8.44232 8.05713C8.31692 7.87087 8.22868 7.64402 8.17539 7.37953C8.12185 7.11529 8.09643 6.71782 8.09643 6.18811L8.09717 4.58822ZM9.21012 6.98867C9.21012 7.33089 9.46483 7.61029 9.77503 7.61029C10.0855 7.61029 10.3392 7.33089 10.3392 6.98867V3.77178C10.3392 3.43004 10.0855 3.15064 9.77503 3.15064C9.46483 3.15064 9.21012 3.43004 9.21012 3.77178V6.98867ZM5.2775 8.613H6.61803L6.6195 3.97833L8.2035 0.00806667H6.73732L5.89521 2.95704L5.04112 0H3.5901L5.2753 3.98053L5.2775 8.613Z" fill="#00A7B8"/>
</svg>
