<svg width="22" height="14" viewBox="0 0 22 14" fill="none" xmlns="http://www.w3.org/2000/svg">
<path d="M21.804 11.9198C21.7448 11.8208 21.379 11.026 19.6189 9.39239C17.7763 7.68177 18.0238 7.95954 20.2432 5.00169C21.5949 3.20031 22.1354 2.10023 21.9662 1.62994C21.8053 1.18166 20.8111 1.29992 20.8111 1.29992L17.5054 1.31917C17.5054 1.31917 17.2606 1.28617 17.0777 1.3948C16.9003 1.50206 16.7862 1.74958 16.7862 1.74958C16.7862 1.74958 16.2623 3.14393 15.5637 4.32927C14.091 6.83058 13.5011 6.96259 13.2604 6.8072C12.7008 6.44555 12.841 5.35234 12.841 4.57679C12.841 2.15248 13.2082 1.14178 12.1246 0.880511C11.7643 0.793879 11.5003 0.736125 10.5804 0.7265C9.40052 0.714124 8.40082 0.730625 7.83565 1.00702C7.45887 1.19128 7.16872 1.60244 7.34611 1.62582C7.56475 1.65469 8.05979 1.7592 8.32244 2.11673C8.66209 2.57739 8.64971 3.61421 8.64971 3.61421C8.64971 3.61421 8.84497 6.46755 8.19455 6.82233C7.74764 7.06572 7.13572 6.56931 5.8225 4.29901C5.15007 3.13705 4.64128 1.85133 4.64128 1.85133C4.64128 1.85133 4.54365 1.61207 4.36901 1.48418C4.15725 1.32879 3.86022 1.27929 3.86022 1.27929L0.716736 1.29854C0.716736 1.29854 0.245075 1.31229 0.0718124 1.51718C-0.0821992 1.70007 0.0594365 2.07685 0.0594365 2.07685C0.0594365 2.07685 2.52087 7.8344 5.30683 10.7372C7.86315 13.3981 10.7646 13.2234 10.7646 13.2234H12.0792C12.0792 13.2234 12.4766 13.1794 12.6788 12.9608C12.8658 12.76 12.8589 12.3832 12.8589 12.3832C12.8589 12.3832 12.8328 10.619 13.6523 10.3591C14.4595 10.1033 15.4964 12.0642 16.5951 12.8191C17.4256 13.3898 18.0568 13.2647 18.0568 13.2647L20.9954 13.2234C20.9954 13.2234 22.5328 13.1285 21.804 11.9198Z" fill="#00A7B8"/>
</svg>
