<svg width="161" height="39" viewBox="0 0 161 39" fill="none" xmlns="http://www.w3.org/2000/svg">
<path d="M44.0144 7.1091H43.1006V0.289676H45.6189L44.0144 7.1091Z" fill="white"/>
<path d="M0 38.3983L7.97829 0.445714H10.92L18.9651 38.4206H16.4023L14.4411 27.924H4.56857L2.54057 38.4206H0V38.3983ZM4.92514 26.0074H14.04L9.44914 3.52114L4.92514 26.0074Z" fill="white"/>
<path d="M24.0686 0.445714H26.5646V38.4206H24.0686V0.445714Z" fill="white"/>
<path d="M38.4825 33.54C37.747 33.54 37.1007 33.4731 36.5436 33.3171C35.9865 33.1611 35.4739 32.8937 34.9836 32.5148C34.5156 32.136 34.1145 31.6234 33.8248 30.9994C33.5128 30.3754 33.2899 29.5508 33.1116 28.5702C32.9333 27.5897 32.8665 26.4085 32.8665 25.0714V19.2102C32.8665 17.8508 32.9556 16.692 33.1339 15.7114C33.3122 14.7308 33.535 13.9285 33.847 13.3045C34.159 12.6805 34.5379 12.2125 35.0282 11.8337C35.5185 11.4771 36.031 11.2097 36.5882 11.076C37.1453 10.9422 37.7693 10.8754 38.527 10.8754C40.555 10.8754 41.959 11.544 42.739 12.8588C43.5413 14.1737 43.9202 16.4245 43.9202 19.6337L43.8756 21.7285H34.8945V25.2274C34.8945 27.8125 35.1619 29.5954 35.6968 30.576C36.2316 31.5565 37.1453 32.0468 38.4602 32.0468C38.839 32.0468 39.151 32.0245 39.4407 31.98C39.7082 31.9354 40.0202 31.824 40.3545 31.6457C40.6887 31.4674 40.9562 31.2222 41.179 30.9102C41.3796 30.5982 41.5579 30.1525 41.7139 29.5508C41.8476 28.9714 41.9367 28.2582 41.9367 27.4337V25.8068H43.9202V27.2554C43.9202 29.2834 43.4967 30.8434 42.6722 31.9354C41.8476 33.0051 40.4436 33.54 38.4825 33.54ZM34.8945 20.4805H41.9145V18.7645C41.9145 17.8954 41.8922 17.16 41.8699 16.5805C41.8253 16.0011 41.7362 15.4217 41.6025 14.8422C41.4687 14.2628 41.2682 13.7948 41.0453 13.4828C40.8002 13.1485 40.4659 12.8811 40.0425 12.6805C39.619 12.48 39.1065 12.3685 38.527 12.3685C37.6579 12.3685 36.967 12.5468 36.4545 12.8811C35.9642 13.2154 35.5853 13.8617 35.2956 14.82C35.0282 15.7782 34.8945 17.0931 34.8945 18.8314V20.4805Z" fill="white"/>
<path d="M51.0121 38.3982V11.2988H53.5081V14.2182C55.4024 11.9897 57.5418 10.8754 59.9486 10.8754C61.2412 10.8754 62.2887 11.3434 63.0464 12.3017C63.8264 13.26 64.2052 14.7531 64.2052 16.8034V38.4205H61.7092V17.0708C61.7092 15.4885 61.4641 14.3965 60.9961 13.7725C60.5058 13.1485 59.8149 12.8142 58.8789 12.8142C57.9875 12.8142 57.0738 13.0817 56.1601 13.6165C55.2241 14.1514 54.3549 14.8868 53.5304 15.8005V38.3982H51.0121Z" fill="white"/>
<path d="M78.2898 38.8886C72.7184 38.8886 69.6653 35.6126 69.1081 29.0383L71.359 28.3251C71.4927 29.4171 71.671 30.3531 71.8493 31.1331C72.0498 31.9354 72.3173 32.6931 72.6516 33.4286C73.0081 34.164 73.4315 34.7657 73.9218 35.2337C74.4121 35.7017 75.0138 36.0806 75.7716 36.348C76.507 36.6154 77.3538 36.7491 78.3344 36.7491C82.3904 36.7491 84.3961 34.7211 84.3961 30.6429C84.3961 29.0829 83.995 27.6566 83.215 26.3863C82.435 25.0937 81.1647 23.6006 79.4487 21.9069L72.5178 14.9983C70.3116 12.792 69.2196 10.3851 69.2196 7.77771C69.2196 5.304 69.9773 3.38743 71.4704 2.05029C72.9635 0.690857 74.9915 0.0222857 77.5321 0H77.599C80.2955 0 82.3904 0.735428 83.839 2.184C85.3098 3.63257 86.1344 6.084 86.3573 9.516L84.1955 10.0286C83.9504 7.28743 83.3487 5.25943 82.3904 3.98914C81.4321 2.69657 79.9167 2.07257 77.7996 2.07257H77.5767C75.727 2.09486 74.2561 2.56286 73.1641 3.47657C72.0721 4.39029 71.515 5.772 71.515 7.62171C71.515 8.62457 71.7378 9.56057 72.1613 10.4743C72.5847 11.388 73.2978 12.3463 74.323 13.3714L81.1647 20.124C82.9253 21.8623 84.307 23.5783 85.2875 25.2497C86.2904 26.9211 86.7807 28.6817 86.7807 30.5537C86.7807 33.2949 86.023 35.3897 84.4853 36.7937C82.9476 38.1754 80.8973 38.8886 78.2898 38.8886Z" fill="white"/>
<path d="M91.5275 0.445714H94.0235V14.196C95.94 11.9897 98.0795 10.8754 100.464 10.8754C101.757 10.8754 102.804 11.3434 103.584 12.3017C104.364 13.26 104.743 14.7531 104.743 16.8034V38.4206H102.225V17.0709C102.225 15.4886 101.979 14.3966 101.511 13.7726C101.021 13.1486 100.33 12.8143 99.3943 12.8143C97.656 12.8143 95.8732 13.8171 94.0457 15.8006V38.4206H91.5275V0.445714Z" fill="white"/>
<path d="M114.905 38.844C113.278 38.844 111.963 38.2868 110.961 37.1948C109.958 36.1028 109.467 34.6766 109.467 32.916C109.467 31.7126 109.601 30.7097 109.869 29.9074C110.136 29.1051 110.693 28.3028 111.562 27.4783C112.431 26.6537 113.523 25.8514 114.861 25.0937C116.198 24.336 118.092 23.3777 120.521 22.2634V20.3246C120.521 18.3411 120.387 16.8034 120.142 15.7114C119.897 14.6194 119.496 13.8617 118.983 13.4383C118.449 12.9926 117.713 12.792 116.777 12.792C116.175 12.792 115.641 12.8588 115.195 12.9926C114.727 13.1263 114.281 13.3714 113.835 13.7057C113.39 14.04 113.055 14.5748 112.81 15.288C112.565 16.0011 112.454 16.8703 112.454 17.8954V18.6531L110.025 18.6086C110.025 18.1851 110.025 17.94 110.047 17.8731C110.114 15.4217 110.715 13.6388 111.852 12.5468C112.989 11.4548 114.66 10.8977 116.889 10.8977C119.139 10.8977 120.744 11.6108 121.658 13.0371C122.571 14.4634 123.039 16.8034 123.039 20.0794V33.7183C123.039 36.3034 123.084 37.8634 123.151 38.4428H121.011C120.789 36.3926 120.655 35.1891 120.61 34.8548C120.187 36.036 119.451 36.9943 118.426 37.752C117.401 38.4651 116.22 38.844 114.905 38.844ZM115.507 36.7714C116.599 36.7714 117.557 36.4148 118.426 35.7017C119.295 34.9886 119.986 34.0748 120.543 32.9828V24.0463C117.468 25.6286 115.529 26.7206 114.727 27.2777C113.434 28.1691 112.632 29.1497 112.275 30.2194C112.053 30.8657 111.963 31.6457 111.963 32.5817C111.963 34.0526 112.32 35.1446 113.011 35.7908C113.679 36.4371 114.504 36.7714 115.507 36.7714Z" fill="white"/>
<path d="M134.539 38.7102C133.803 38.7102 133.179 38.6211 132.645 38.4205C132.11 38.22 131.709 37.9748 131.374 37.6628C131.062 37.3508 130.817 36.9274 130.639 36.4371C130.461 35.9245 130.349 35.412 130.305 34.8994C130.26 34.3868 130.216 33.7851 130.216 33.072V12.948H126.672V11.2988H130.238V2.62968H132.712V11.2765H137.325V12.9257H132.712V32.7377C132.712 34.2754 132.868 35.3228 133.18 35.88C133.492 36.4371 134.115 36.7268 135.096 36.7268C135.564 36.7268 136.233 36.66 137.08 36.504V38.376C136.3 38.5988 135.453 38.7102 134.539 38.7102Z" fill="white"/>
<path d="M154.618 38.3537C153.526 38.7326 152.256 38.9109 150.807 38.9109C149.359 38.9109 148.089 38.7326 146.974 38.3537C145.86 37.9749 144.969 37.4623 144.278 36.816C143.587 36.1697 143.007 35.3451 142.584 34.3869C142.138 33.4063 141.849 32.3811 141.67 31.2891C141.492 30.1971 141.403 28.9714 141.403 27.612V11.0091C141.403 9.672 141.492 8.44629 141.67 7.37657C141.849 6.30686 142.161 5.28171 142.629 4.34571C143.074 3.40971 143.654 2.62971 144.367 2.00571C145.08 1.38171 145.971 0.891428 147.041 0.534857C148.111 0.178286 149.359 0 150.785 0C152.546 0 154.039 0.267429 155.265 0.802286C156.49 1.33714 157.471 2.11714 158.184 3.12C158.897 4.12286 159.387 5.28171 159.699 6.57429C160.011 7.86686 160.167 9.33771 160.167 11.0314V27.6789C160.167 29.0383 160.078 30.264 159.9 31.3337C159.722 32.4257 159.41 33.4509 158.986 34.4091C158.541 35.3897 157.983 36.192 157.27 36.816C156.624 37.4623 155.71 37.9749 154.618 38.3537ZM147.465 36.192C148.378 36.5931 149.493 36.7937 150.83 36.7937C152.167 36.7937 153.281 36.5931 154.195 36.192C155.109 35.7909 155.799 35.1891 156.29 34.3869C156.78 33.5846 157.114 32.6931 157.337 31.7126C157.538 30.7097 157.649 29.5286 157.649 28.1691V10.6526C157.649 9.27086 157.56 8.08971 157.359 7.10914C157.159 6.12857 156.825 5.23714 156.312 4.45714C155.822 3.67714 155.109 3.07543 154.195 2.67429C153.281 2.27314 152.167 2.07257 150.83 2.07257C149.493 2.07257 148.378 2.27314 147.465 2.67429C146.551 3.07543 145.86 3.65486 145.347 4.45714C144.857 5.23714 144.501 6.12857 144.3 7.10914C144.099 8.08971 144.01 9.27086 144.01 10.6526V28.1691C144.01 29.5509 144.099 30.732 144.3 31.7126C144.501 32.7154 144.835 33.6069 145.347 34.3869C145.86 35.1891 146.551 35.7909 147.465 36.192Z" fill="white"/>
<path fill-rule="evenodd" clip-rule="evenodd" d="M43.8664 37.9777H32.8664V36.9777H43.8664V37.9777Z" fill="white"/>
</svg>
