<svg width="40" height="70" viewBox="0 0 40 70" fill="none" xmlns="http://www.w3.org/2000/svg">
<path d="M0 51.0575L10.7633 0H14.7417L25.6284 51.0882H22.1434L19.4911 36.9822H6.16808L3.42328 51.0882H0V51.0575ZM6.66153 34.4063H18.9977L12.7988 4.1398L6.66153 34.4063Z" fill="#222222"/>
<path d="M21.8664 21.4043C23.3159 20.3617 25.1972 19.8097 27.5102 19.7791H27.8186C30.6559 19.7791 32.7531 20.6377 34.0175 22.3549C35.3128 24.0722 36.1147 26.8014 36.4539 30.4812L39.3529 29.8066C39.0753 25.1761 37.9342 21.895 35.9296 19.9324C33.9558 17.9698 31.1185 16.9885 27.4793 16.9885H27.4177C25.0121 16.9885 22.9458 17.4485 21.2188 18.3685L21.8664 21.4043Z" fill="#222222"/>
<path d="M37.9332 50.9348C36.5763 48.6962 34.7258 46.3963 32.3511 44.0351L25.227 37.0435L26.4914 42.9618L30.0381 46.4577C32.382 48.7576 34.0782 50.7815 35.1268 52.4987C36.2062 54.216 36.7305 56.1479 36.7305 58.2331C36.7305 63.7222 33.9857 66.4514 28.5269 66.4514C27.2316 66.4514 26.0597 66.2674 25.0728 65.8994C24.055 65.5314 23.2532 65.0408 22.5747 64.3968C21.9271 63.7835 21.3411 62.9555 20.8785 61.9742C20.4159 60.993 20.0458 59.9503 19.7682 58.8771C19.5215 57.8038 19.2748 56.5465 19.0897 55.0746L16.0674 56.0252C16.8076 64.8568 20.9402 69.2726 28.4961 69.2726C32.0119 69.2726 34.7875 68.3219 36.8847 66.4207C38.951 64.5195 39.9995 61.7289 39.9995 58.0184C39.9687 55.5652 39.2902 53.1733 37.9332 50.9348Z" fill="#222222"/>
</svg>
