<svg xmlns="http://www.w3.org/2000/svg" width="73" height="22" viewBox="0 0 73 22">
  <metadata><?xpacket begin="﻿" id="W5M0MpCehiHzreSzNTczkc9d"?>
<x:xmpmeta xmlns:x="adobe:ns:meta/" x:xmptk="Adobe XMP Core 5.6-c138 79.159824, 2016/09/14-01:09:01        ">
   <rdf:RDF xmlns:rdf="http://www.w3.org/1999/02/22-rdf-syntax-ns#">
      <rdf:Description rdf:about=""/>
   </rdf:RDF>
</x:xmpmeta>
                                                                                                    
                                                                                                    
                                                                                                    
                                                                                                    
                                                                                                    
                                                                                                    
                                                                                                    
                                                                                                    
                                                                                                    
                                                                                                    
                                                                                                    
                                                                                                    
                                                                                                    
                                                                                                    
                                                                                                    
                                                                                                    
                                                                                                    
                                                                                                    
                                                                                                    
                                                                                                    
                           
<?xpacket end="w"?></metadata>
<defs>
    <style>
      .cls-1 {
        fill: #fff;
        fill-rule: evenodd;
      }
    </style>
  </defs>
  <path id="Forma_1" data-name="Forma 1" class="cls-1" d="M865.017,4011.53h-2.226a0.642,0.642,0,0,0-.455.18l-0.475.45a23.7,23.7,0,0,0-3.5-5.56,4.386,4.386,0,0,0-3.4-1.6h-8.911a4.384,4.384,0,0,0-3.4,1.6,23.1,23.1,0,0,0-3.509,5.55l-0.468-.44a0.645,0.645,0,0,0-.455-0.18h-2.226a0.653,0.653,0,0,0-.657.65v1.51a0.657,0.657,0,0,0,.616.66l2.287,0.14a14.494,14.494,0,0,0-.615,4.62,5.857,5.857,0,0,0,1.008,3.81v3.53a0.552,0.552,0,0,0,.55.55h2.533a0.553,0.553,0,0,0,.551-0.55v-2.19h16.488v2.19a0.553,0.553,0,0,0,.551.55h2.532a0.553,0.553,0,0,0,.551-0.55v-3.53a5.857,5.857,0,0,0,1.008-3.81,14.46,14.46,0,0,0-.616-4.62l2.288-.14a0.658,0.658,0,0,0,.616-0.66v-1.51A0.653,0.653,0,0,0,865.017,4011.53Zm-20.5-3.4a1.991,1.991,0,0,1,1.525-.72h8.911a1.988,1.988,0,0,1,1.525.72,23.168,23.168,0,0,1,2.606,3.85H841.9A23.4,23.4,0,0,1,844.519,4008.13Zm-1.873,12.75c-1.26,0-2.984.29-2.984-.7s0.129-2.48,1.389-2.48,3.877,1.48,3.877,2.48S843.907,4020.88,842.646,4020.88Zm10.246,0.49h-4.784a1.3,1.3,0,0,1-1.308-1.3,0.362,0.362,0,0,1,.366-0.36h6.668a0.362,0.362,0,0,1,.366.36A1.3,1.3,0,0,1,852.892,4021.37Zm5.461-.49c-1.26,0-2.282.29-2.282-.7s2.617-2.48,3.878-2.48,1.389,1.48,1.389,2.48S859.614,4020.88,858.353,4020.88Zm-20.279-8.93h-1.8a0.548,0.548,0,0,0-.369.14l-0.385.37a19.252,19.252,0,0,0-2.839-4.52,3.56,3.56,0,0,0-2.76-1.31h-7.225a3.559,3.559,0,0,0-2.76,1.31,18.528,18.528,0,0,0-2.845,4.52l-0.38-.37a0.548,0.548,0,0,0-.368-0.14h-1.8a0.533,0.533,0,0,0-.533.53v1.23a0.543,0.543,0,0,0,.5.54l1.855,0.11a11.843,11.843,0,0,0-.5,3.76,4.779,4.779,0,0,0,.817,3.11v2.88a0.445,0.445,0,0,0,.447.44h2.053a0.445,0.445,0,0,0,.447-0.44v-1.79h13.369v1.79a0.445,0.445,0,0,0,.446.44h2.053a0.445,0.445,0,0,0,.447-0.44v-2.88a4.779,4.779,0,0,0,.817-3.11,11.843,11.843,0,0,0-.5-3.76l1.855-.11a0.543,0.543,0,0,0,.5-0.54v-1.23A0.533,0.533,0,0,0,838.074,4011.95Zm-16.62-2.77a1.6,1.6,0,0,1,1.237-.58h7.225a1.592,1.592,0,0,1,1.236.58,18.553,18.553,0,0,1,2.113,3.14H819.329A18.873,18.873,0,0,1,821.454,4009.18Zm-1.518,10.39c-1.022,0-2.42.24-2.42-.57s0.1-2.02,1.126-2.02,3.144,1.21,3.144,2.02S820.957,4019.57,819.936,4019.57Zm8.307,0.4h-3.879a1.058,1.058,0,0,1-1.061-1.06,0.3,0.3,0,0,1,.3-0.3h5.406a0.3,0.3,0,0,1,.3.3A1.057,1.057,0,0,1,828.243,4019.97Zm4.428-.4c-1.022,0-1.85.24-1.85-.57s2.121-2.02,3.143-2.02,1.127,1.21,1.127,2.02S833.693,4019.57,832.671,4019.57Zm53.8-7.62h-1.8a0.552,0.552,0,0,0-.369.14l-0.385.37a19.252,19.252,0,0,0-2.839-4.52,3.559,3.559,0,0,0-2.76-1.31h-7.225a3.559,3.559,0,0,0-2.76,1.31,18.528,18.528,0,0,0-2.845,4.52l-0.379-.37a0.552,0.552,0,0,0-.369-0.14h-1.8a0.533,0.533,0,0,0-.533.53v1.23a0.543,0.543,0,0,0,.5.54l1.855,0.11a11.808,11.808,0,0,0-.5,3.76,4.779,4.779,0,0,0,.818,3.11v2.88a0.445,0.445,0,0,0,.446.44h2.053a0.445,0.445,0,0,0,.447-0.44v-1.79h13.369v1.79a0.445,0.445,0,0,0,.446.44h2.054a0.445,0.445,0,0,0,.446-0.44v-2.88a4.779,4.779,0,0,0,.817-3.11,11.814,11.814,0,0,0-.5-3.76l1.855-.11a0.543,0.543,0,0,0,.5-0.54v-1.23A0.533,0.533,0,0,0,886.467,4011.95Zm-16.62-2.77a1.6,1.6,0,0,1,1.237-.58h7.225a1.6,1.6,0,0,1,1.237.58,18.6,18.6,0,0,1,2.112,3.14H867.722A18.873,18.873,0,0,1,869.847,4009.18Zm-1.518,10.39c-1.022,0-2.42.24-2.42-.57s0.1-2.02,1.126-2.02,3.144,1.21,3.144,2.02S869.351,4019.57,868.329,4019.57Zm8.307,0.4h-3.879a1.058,1.058,0,0,1-1.061-1.06,0.3,0.3,0,0,1,.3-0.3H877.4a0.3,0.3,0,0,1,.3.3A1.058,1.058,0,0,1,876.636,4019.97Zm4.428-.4c-1.022,0-1.85.24-1.85-.57s2.122-2.02,3.144-2.02,1.126,1.21,1.126,2.02S882.086,4019.57,881.064,4019.57Z" transform="translate(-814 -4005)"/>
</svg>
