<svg xmlns="http://www.w3.org/2000/svg" width="36" height="43" viewBox="0 0 36 43">
  <metadata><?xpacket begin="﻿" id="W5M0MpCehiHzreSzNTczkc9d"?>
<x:xmpmeta xmlns:x="adobe:ns:meta/" x:xmptk="Adobe XMP Core 5.6-c138 79.159824, 2016/09/14-01:09:01        ">
   <rdf:RDF xmlns:rdf="http://www.w3.org/1999/02/22-rdf-syntax-ns#">
      <rdf:Description rdf:about=""/>
   </rdf:RDF>
</x:xmpmeta>
                                                                                                    
                                                                                                    
                                                                                                    
                                                                                                    
                                                                                                    
                                                                                                    
                                                                                                    
                                                                                                    
                                                                                                    
                                                                                                    
                                                                                                    
                                                                                                    
                                                                                                    
                                                                                                    
                                                                                                    
                                                                                                    
                                                                                                    
                                                                                                    
                                                                                                    
                                                                                                    
                           
<?xpacket end="w"?></metadata>
<defs>
    <style>
      .cls-1 {
        fill: #fff;
        fill-rule: evenodd;
      }
    </style>
  </defs>
  <path id="Forma_1" data-name="Forma 1" class="cls-1" d="M870.532,4253.03h-31.9a0.643,0.643,0,0,0-.183,1.26l9.112,2.69a0.572,0.572,0,0,0,.184.03h13.668a0.571,0.571,0,0,0,.183-0.03l9.112-2.69A0.643,0.643,0,0,0,870.532,4253.03Zm-3.639-20.56,0.2-3.52a0.646,0.646,0,0,0-.644-0.68H842.72a0.632,0.632,0,0,0-.469.2,0.642,0.642,0,0,0-.174.48l1.29,22.47a0.646,0.646,0,0,0,.643.61h21.154a0.649,0.649,0,0,0,.643-0.61l0.2-3.59c0.147,0.01.292,0.02,0.442,0.02A7.7,7.7,0,0,0,866.893,4232.47Zm-20.371,17.31h-0.061a0.963,0.963,0,0,1-.965-0.91l-1.074-17.33a0.968,0.968,0,0,1,.909-1.02,0.95,0.95,0,0,1,1.025.9l1.074,17.33A0.974,0.974,0,0,1,846.522,4249.78Zm19.929-4.49c-0.1,0-.2-0.03-0.3-0.03l0.587-10.22A5.137,5.137,0,0,1,866.451,4245.29Zm-19.605-22.26a4.791,4.791,0,0,0,2.785,2.97l0.737-1.78a2.93,2.93,0,0,1-1.636-1.6,2.444,2.444,0,0,1,.9-2.03,4.106,4.106,0,0,0,1.362-3.75,4.6,4.6,0,0,0-2.778-2.84l-0.692,1.79a2.907,2.907,0,0,1,1.585,1.49,2.579,2.579,0,0,1-.9,2.01A4.15,4.15,0,0,0,846.846,4223.03Zm5.158,0a4.783,4.783,0,0,0,2.788,2.97l0.734-1.78a2.9,2.9,0,0,1-1.63-1.6,2.419,2.419,0,0,1,.893-2.03,4.11,4.11,0,0,0,1.359-3.75,4.6,4.6,0,0,0-2.779-2.84l-0.691,1.79a2.915,2.915,0,0,1,1.587,1.49,2.6,2.6,0,0,1-.9,2.01A4.141,4.141,0,0,0,852,4223.03Zm5.157,0a4.8,4.8,0,0,0,2.788,2.97l0.737-1.78a2.9,2.9,0,0,1-1.633-1.6,2.425,2.425,0,0,1,.893-2.03,4.1,4.1,0,0,0,1.359-3.75,4.6,4.6,0,0,0-2.778-2.84l-0.692,1.79a2.91,2.91,0,0,1,1.588,1.49,2.589,2.589,0,0,1-.9,2.01A4.152,4.152,0,0,0,857.161,4223.03Z" transform="translate(-838 -4214)"/>
</svg>
