<svg xmlns="http://www.w3.org/2000/svg" width="41" height="41" viewBox="0 0 41 41">
  <metadata><?xpacket begin="﻿" id="W5M0MpCehiHzreSzNTczkc9d"?>
<x:xmpmeta xmlns:x="adobe:ns:meta/" x:xmptk="Adobe XMP Core 5.6-c138 79.159824, 2016/09/14-01:09:01        ">
   <rdf:RDF xmlns:rdf="http://www.w3.org/1999/02/22-rdf-syntax-ns#">
      <rdf:Description rdf:about=""/>
   </rdf:RDF>
</x:xmpmeta>
                                                                                                    
                                                                                                    
                                                                                                    
                                                                                                    
                                                                                                    
                                                                                                    
                                                                                                    
                                                                                                    
                                                                                                    
                                                                                                    
                                                                                                    
                                                                                                    
                                                                                                    
                                                                                                    
                                                                                                    
                                                                                                    
                                                                                                    
                                                                                                    
                                                                                                    
                                                                                                    
                           
<?xpacket end="w"?></metadata>
<defs>
    <style>
      .cls-1 {
        fill: #fff;
        fill-rule: evenodd;
      }
    </style>
  </defs>
  <path class="cls-1" d="M468.993,4224.27a4.271,4.271,0,0,0-4.27-4.27H432.27a4.271,4.271,0,0,0-4.27,4.27v0.85h40.993v-0.85Zm0,23.06a1.2,1.2,0,0,0-1.291-1.21,4.226,4.226,0,0,0-1.8.58,8.932,8.932,0,0,0-3.181-3.81,17.536,17.536,0,0,0-9.672,0,8.936,8.936,0,0,0-3.179,3.81,4.243,4.243,0,0,0-1.8-.58,1.392,1.392,0,0,0-.827.25,1.185,1.185,0,0,0-.461.96,3.374,3.374,0,0,0,1.153,2.36,0.817,0.817,0,0,0,.318.16c-0.108.31-.2,0.62-0.281,0.93,2.5,0.13,5.642.66,5.642,2.53a0.854,0.854,0,1,1-1.708,0c-0.256-.34-2.161-0.72-4.224-0.82-0.026.29-.046,0.57-0.046,0.82,0,1.28.118,3.45,0.854,4.57v1.41a1.69,1.69,0,0,0,1.708,1.71h1.708a1.69,1.69,0,0,0,1.708-1.71v-0.58a16.008,16.008,0,0,0,8.54,0v0.58a1.69,1.69,0,0,0,1.708,1.71h1.708a1.689,1.689,0,0,0,1.708-1.71v-1.41c0.736-1.12.854-3.29,0.854-4.57,0-.25-0.02-0.53-0.046-0.82-2.065.1-3.971,0.5-4.246,0.91a0.809,0.809,0,0,1-.842.81,0.88,0.88,0,0,1-.844-0.9c0-1.86,3.14-2.39,5.642-2.52a9.382,9.382,0,0,0-.28-0.93,1,1,0,0,0,.317-0.17A3.362,3.362,0,0,0,468.993,4247.33Zm-9.394,6.84h-3.416a0.855,0.855,0,0,1,0-1.71H459.6a0.852,0.852,0,0,1,.854.85A0.861,0.861,0,0,1,459.6,4254.17Zm4.531-5.63h-0.008c-0.344.04-.7,0.07-1.056,0.11-0.044,0-.087.01-0.131,0.01-0.366.04-.735,0.08-1.1,0.11l-0.276.03c-0.268.02-.533,0.05-0.793,0.07l-0.345.03c-0.229.02-.449,0.03-0.664,0.05-0.113.01-.224,0.02-0.332,0.02-0.208.02-.4,0.03-0.589,0.04a2.437,2.437,0,0,1-.267.01c-0.254.02-.488,0.02-0.679,0.02s-0.424,0-.68-0.02c-0.084,0-.178-0.01-0.267-0.01-0.188-.01-0.381-0.02-0.589-0.04-0.108,0-.217-0.01-0.33-0.02-0.215-.01-0.435-0.03-0.666-0.05l-0.345-.03c-0.258-.02-0.524-0.05-0.792-0.07l-0.277-.03c-0.364-.03-0.733-0.07-1.1-0.11-0.045,0-.087-0.01-0.13-0.01-0.591-.06-1.161-0.12-1.706-0.18,0-.01.008-0.03,0.013-0.04a8.084,8.084,0,0,1,2.791-4.01,16.852,16.852,0,0,1,8.149,0,8.012,8.012,0,0,1,2.8,4.01c0,0.01.008,0.03,0.013,0.04C464.561,4248.49,464.352,4248.52,464.13,4248.54Zm-36.123-21.71v19.65h0a4.277,4.277,0,0,0,4.269,4.27h12.671a0.857,0.857,0,0,0,.625-1.44,4.315,4.315,0,0,1-.487-1.98H432.27a0.851,0.851,0,0,1-.854-0.85,4.656,4.656,0,0,1,3.527-4.52l2.287-.57a9.382,9.382,0,0,1-2.431-.86,0.861,0.861,0,0,1-.411-0.69,0.846,0.846,0,0,1,.34-0.73s1.142-1.03,1.142-4.52c0-4.52,3.391-6.05,4.94-6.05a2.818,2.818,0,0,1,2.2.74h0.031c1.8,0,2.711,1.79,2.711,5.31,0,3.5,1.153,4.53,1.165,4.54a0.873,0.873,0,0,1,.305.73,0.863,0.863,0,0,1-.4.67,9.041,9.041,0,0,1-2.43.86l2.292,0.57a4.675,4.675,0,0,1,1.985,1.06,0.878,0.878,0,0,1,.21.29l0.41,0.91a0.8,0.8,0,0,0,.141-0.11,8.739,8.739,0,0,1,2.868-2.75,18.656,18.656,0,0,1,11.2,0,8.708,8.708,0,0,1,2.867,2.75,0.865,0.865,0,0,0,.816.35,3.09,3.09,0,0,1,.883-0.02,0.861,0.861,0,0,0,.943-0.85v-16.76H428.007Zm24.76,3.42h5.124a0.855,0.855,0,0,1,0,1.71h-5.124A0.855,0.855,0,0,1,452.767,4230.25Zm11.956,6.83H452.767a0.855,0.855,0,0,1,0-1.71h11.956a0.861,0.861,0,0,1,.854.86A0.852,0.852,0,0,1,464.723,4237.08Zm0-5.12h-3.416a0.855,0.855,0,0,1,0-1.71h3.416A0.855,0.855,0,0,1,464.723,4231.96Z" transform="translate(-428 -4220)"/>
</svg>
