<svg xmlns="http://www.w3.org/2000/svg" width="39" height="39" viewBox="0 0 39 39">
  <metadata><?xpacket begin="﻿" id="W5M0MpCehiHzreSzNTczkc9d"?>
<x:xmpmeta xmlns:x="adobe:ns:meta/" x:xmptk="Adobe XMP Core 5.6-c138 79.159824, 2016/09/14-01:09:01        ">
   <rdf:RDF xmlns:rdf="http://www.w3.org/1999/02/22-rdf-syntax-ns#">
      <rdf:Description rdf:about=""/>
   </rdf:RDF>
</x:xmpmeta>
                                                                                                    
                                                                                                    
                                                                                                    
                                                                                                    
                                                                                                    
                                                                                                    
                                                                                                    
                                                                                                    
                                                                                                    
                                                                                                    
                                                                                                    
                                                                                                    
                                                                                                    
                                                                                                    
                                                                                                    
                                                                                                    
                                                                                                    
                                                                                                    
                                                                                                    
                                                                                                    
                           
<?xpacket end="w"?></metadata>
<defs>
    <style>
      .cls-1 {
        fill: #fff;
        fill-rule: evenodd;
      }
    </style>
  </defs>
  <path id="Forma_1" data-name="Forma 1" class="cls-1" d="M669.719,4233.36a12.671,12.671,0,0,0-3.443-6.39l-7.251-7.26a12.591,12.591,0,0,0-6.474-3.47c-2.675-.71-10.46-0.15-16.142,5.72a19.523,19.523,0,0,0,27.884,27.33C669.542,4244.04,670.607,4236.47,669.719,4233.36Zm-12.31-12.03,7.251,7.26c0.214,0.21.373,0.46,0.565,0.69a11.079,11.079,0,0,1-5.835-2.67,10.879,10.879,0,0,1-2.672-5.85A8.032,8.032,0,0,1,657.409,4221.33Zm1.089,18.85a3.428,3.428,0,1,1-3.427-3.43A3.424,3.424,0,0,1,658.5,4240.18Zm-2.477-10.79-9.14,13.71a1.143,1.143,0,0,1-1.9-1.27l9.14-13.71A1.143,1.143,0,0,1,656.021,4229.39Zm-13.518,1.65a3.428,3.428,0,1,1,3.427,3.43A3.424,3.424,0,0,1,642.5,4231.04Zm18.559,15.02a14.96,14.96,0,1,1-6.585-24.93,17.593,17.593,0,0,0,.662,2.65,12.652,12.652,0,0,0-13.527,2.83,12.376,12.376,0,0,0,0,17.85,12.6,12.6,0,0,0,20.592-13.6,18.262,18.262,0,0,0,2.651.66A15.121,15.121,0,0,1,661.062,4246.06ZM645.93,4229.9a1.14,1.14,0,1,0,1.143,1.14A1.141,1.141,0,0,0,645.93,4229.9Zm9.141,9.14a1.14,1.14,0,1,0,1.142,1.14A1.141,1.141,0,0,0,655.071,4239.04Z" transform="translate(-631 -4216)"/>
</svg>
