<svg xmlns="http://www.w3.org/2000/svg" width="38" height="42" viewBox="0 0 38 42">
  <metadata><?xpacket begin="﻿" id="W5M0MpCehiHzreSzNTczkc9d"?>
<x:xmpmeta xmlns:x="adobe:ns:meta/" x:xmptk="Adobe XMP Core 5.6-c138 79.159824, 2016/09/14-01:09:01        ">
   <rdf:RDF xmlns:rdf="http://www.w3.org/1999/02/22-rdf-syntax-ns#">
      <rdf:Description rdf:about=""/>
   </rdf:RDF>
</x:xmpmeta>
                                                                                                    
                                                                                                    
                                                                                                    
                                                                                                    
                                                                                                    
                                                                                                    
                                                                                                    
                                                                                                    
                                                                                                    
                                                                                                    
                                                                                                    
                                                                                                    
                                                                                                    
                                                                                                    
                                                                                                    
                                                                                                    
                                                                                                    
                                                                                                    
                                                                                                    
                                                                                                    
                           
<?xpacket end="w"?></metadata>
<defs>
    <style>
      .cls-1 {
        fill: #fff;
        fill-rule: evenodd;
      }
    </style>
  </defs>
  <path id="Forma_1" data-name="Forma 1" class="cls-1" d="M459.009,4026.37a6.061,6.061,0,0,1-4.223-1.68,3.859,3.859,0,0,0-5.516,0,6.148,6.148,0,0,1-8.446,0,3.859,3.859,0,0,0-5.516,0,6.063,6.063,0,0,1-4.223,1.68,6.23,6.23,0,0,1-4.283-1.68,7.272,7.272,0,0,0-.8-0.6V4032h38v-7.95a8.95,8.95,0,0,0-.827.64,5.9,5.9,0,0,1-4.164,1.68h0ZM426,4015.68v5.9a7.086,7.086,0,0,1,2.268,1.36,3.911,3.911,0,0,0,5.56,0,6.161,6.161,0,0,1,8.457,0,3.861,3.861,0,0,0,5.518,0,6.149,6.149,0,0,1,8.447,0,3.818,3.818,0,0,0,2.759,1.16,3.675,3.675,0,0,0,2.7-1.16,7.17,7.17,0,0,1,2.292-1.4v-5.86H426Zm4.75-11.63h28.5v9.22h-28.5v-9.22Zm5.9-7.32a2.383,2.383,0,0,0,1.248-2.05c0-1.29-2.363-4.68-2.363-4.68s-2.393,3.39-2.393,4.68a2.345,2.345,0,0,0,1.205,2.05v4.9h2.3v-4.9Zm9.5-.04a2.3,2.3,0,0,0,1.176-2.01c0-1.29-2.363-4.68-2.363-4.68s-2.393,3.39-2.393,4.68a2.423,2.423,0,0,0,1.277,2.09v4.86h2.3v-4.94h0Zm9.5,0.04a2.382,2.382,0,0,0,1.247-2.05c0-1.29-2.363-4.68-2.363-4.68s-2.393,3.39-2.393,4.68a2.344,2.344,0,0,0,1.206,2.05v4.9h2.3v-4.9h0Z" transform="translate(-426 -3990)"/>
</svg>
