<svg xmlns="http://www.w3.org/2000/svg" width="41" height="45.97" viewBox="0 0 41 45.97">
  <metadata><?xpacket begin="﻿" id="W5M0MpCehiHzreSzNTczkc9d"?>
<x:xmpmeta xmlns:x="adobe:ns:meta/" x:xmptk="Adobe XMP Core 5.6-c138 79.159824, 2016/09/14-01:09:01        ">
   <rdf:RDF xmlns:rdf="http://www.w3.org/1999/02/22-rdf-syntax-ns#">
      <rdf:Description rdf:about=""/>
   </rdf:RDF>
</x:xmpmeta>
                                                                                                    
                                                                                                    
                                                                                                    
                                                                                                    
                                                                                                    
                                                                                                    
                                                                                                    
                                                                                                    
                                                                                                    
                                                                                                    
                                                                                                    
                                                                                                    
                                                                                                    
                                                                                                    
                                                                                                    
                                                                                                    
                                                                                                    
                                                                                                    
                                                                                                    
                                                                                                    
                           
<?xpacket end="w"?></metadata>
<defs>
    <style>
      .cls-1 {
        fill: #fff;
        fill-rule: evenodd;
      }
    </style>
  </defs>
  <path id="Forma_1" data-name="Forma 1" class="cls-1" d="M654.151,3991.58a1.594,1.594,0,0,0-2.4-1.36l-1.843,1.1-1.842-1.1a1.587,1.587,0,0,0-1.629,0l-1.842,1.1-1.842-1.1a1.585,1.585,0,0,0-1.628,0l-1.842,1.1-1.841-1.1a1.594,1.594,0,0,0-2.4,1.36v5.51h19.112v-5.51Zm1.887,8.05H633.587a1.585,1.585,0,0,0-1.587,1.58v27.47c0,4.04,2.442,7.32,6.487,7.32H650.7a6.991,6.991,0,0,0,6.922-7.32v-27.47A1.585,1.585,0,0,0,656.038,3999.63Zm-15.591,30.65a1.6,1.6,0,0,1-2.244,0,1.581,1.581,0,0,1-.465-1.12,1.6,1.6,0,0,1,.465-1.12,1.6,1.6,0,0,1,2.244,0,1.6,1.6,0,0,1,.465,1.12A1.577,1.577,0,0,1,640.447,4030.28Zm0-5.25a1.587,1.587,0,0,1-2.709-1.12,1.587,1.587,0,0,1,3.174,0A1.608,1.608,0,0,1,640.447,4025.03Zm0-5.26a1.6,1.6,0,0,1-2.244,0,1.581,1.581,0,0,1-.465-1.12,1.6,1.6,0,0,1,.465-1.12,1.6,1.6,0,0,1,2.244,0,1.59,1.59,0,0,1,.465,1.12A1.573,1.573,0,0,1,640.447,4019.77Zm5.271,10.51a1.6,1.6,0,0,1-2.245,0,1.577,1.577,0,0,1-.465-1.12,1.6,1.6,0,0,1,.465-1.12,1.6,1.6,0,0,1,2.245,0,1.594,1.594,0,0,1,.464,1.12A1.576,1.576,0,0,1,645.718,4030.28Zm0-5.25a1.587,1.587,0,0,1-2.709-1.12,1.587,1.587,0,0,1,3.174,0A1.608,1.608,0,0,1,645.717,4025.03Zm0-5.26a1.6,1.6,0,0,1-2.244,0,1.577,1.577,0,0,1-.465-1.12,1.6,1.6,0,0,1,.465-1.12,1.6,1.6,0,0,1,2.244,0,1.59,1.59,0,0,1,.465,1.12A1.573,1.573,0,0,1,645.717,4019.77Zm5.735,9.39a1.587,1.587,0,0,1-3.174,0v-5.25a1.587,1.587,0,1,1,3.174,0v5.25Zm-3.175-10.51a1.6,1.6,0,0,1,.465-1.12,1.6,1.6,0,0,1,2.245,0,1.6,1.6,0,0,1,.465,1.12,1.577,1.577,0,0,1-.465,1.12,1.6,1.6,0,0,1-2.245,0A1.581,1.581,0,0,1,648.277,4018.65Zm6.366-5.58a1.588,1.588,0,0,1-1.588,1.59H636.231a1.588,1.588,0,0,1-1.588-1.59v-7.19a1.586,1.586,0,0,1,1.588-1.58h16.824a1.586,1.586,0,0,1,1.588,1.58v7.19Zm16.77-6.51H660.555v4.62H673v-3.04A1.585,1.585,0,0,0,671.413,4006.56Zm-10.858,18.93h10.858a1.585,1.585,0,0,0,1.587-1.58v-8.3H660.555v9.88Z" transform="translate(-632 -3990.03)"/>
</svg>
