<svg xmlns="http://www.w3.org/2000/svg" width="49" height="49" viewBox="0 0 49 49">
  <metadata><?xpacket begin="﻿" id="W5M0MpCehiHzreSzNTczkc9d"?>
<x:xmpmeta xmlns:x="adobe:ns:meta/" x:xmptk="Adobe XMP Core 5.6-c138 79.159824, 2016/09/14-01:09:01        ">
   <rdf:RDF xmlns:rdf="http://www.w3.org/1999/02/22-rdf-syntax-ns#">
      <rdf:Description rdf:about=""/>
   </rdf:RDF>
</x:xmpmeta>
                                                                                                    
                                                                                                    
                                                                                                    
                                                                                                    
                                                                                                    
                                                                                                    
                                                                                                    
                                                                                                    
                                                                                                    
                                                                                                    
                                                                                                    
                                                                                                    
                                                                                                    
                                                                                                    
                                                                                                    
                                                                                                    
                                                                                                    
                                                                                                    
                                                                                                    
                                                                                                    
                           
<?xpacket end="w"?></metadata>
<defs>
    <style>
      .cls-1 {
        fill: #fff;
        fill-rule: evenodd;
      }
    </style>
  </defs>
  <path id="Forma_1" data-name="Forma 1" class="cls-1" d="M995.051,616.252a4.008,4.008,0,1,0,4.008,4.008A4.012,4.012,0,0,0,995.051,616.252Zm0,5.344a1.336,1.336,0,1,1,1.336-1.336A1.338,1.338,0,0,1,995.051,621.6Zm10.689,5.344a4.008,4.008,0,1,0,4.01,4.008A4.014,4.014,0,0,0,1005.74,626.94Zm0,5.344a1.336,1.336,0,1,1,1.33-1.336A1.339,1.339,0,0,1,1005.74,632.284Zm0.74-15.807a1.333,1.333,0,0,0-1.85.371l-10.69,16.031a1.336,1.336,0,0,0,2.223,1.482l10.687-16.032A1.338,1.338,0,0,0,1006.48,616.477Zm20.81-21.778h-5.43a1.343,1.343,0,0,0-.94.387l-5.83,5.765v-4.816a1.339,1.339,0,0,0-1.34-1.336H989.708a4.013,4.013,0,0,0-4.008,4.008v37.585a4.012,4.012,0,0,0,4.008,4.007h37.582a4.014,4.014,0,0,0,4.01-4.007V598.707A4.014,4.014,0,0,0,1027.29,594.7Zm-6.77,4.537v3.479h-3.51Zm8.11,37.056a1.338,1.338,0,0,1-1.34,1.335h-12.2v-1.335a1.335,1.335,0,1,0-2.67,0v1.335H989.708a1.337,1.337,0,0,1-1.336-1.335V614.917a1.345,1.345,0,0,1,1.336-1.345c12.232,0.012,4.808.011,22.712,0v9.36a1.335,1.335,0,1,0,2.67,0V621.6h6.77a1.338,1.338,0,0,0,1.34-1.336v-6.679h4.09a1.339,1.339,0,0,1,1.34,1.336v21.375Zm-11.62-17.368,3.51-3.479v3.479h-3.51Zm11.62-7.786a4.02,4.02,0,0,0-1.34-.229h-5.43a1.351,1.351,0,0,0-.94.386l-5.83,5.765v-4.815a1.338,1.338,0,0,0-1.34-1.336h-12.66l5.77-8.8a1.339,1.339,0,0,0-2.24-1.466l-6.728,10.263h-8.184a3.993,3.993,0,0,0-1.336.229V598.707a1.338,1.338,0,0,1,1.336-1.336h22.712v9.352a1.335,1.335,0,1,0,2.67,0v-1.336h6.77a1.338,1.338,0,0,0,1.34-1.336v-6.68h4.09a1.339,1.339,0,0,1,1.34,1.336v12.431Zm-14.88,15.8a1.336,1.336,0,0,0-1.33,1.336v2.672a1.335,1.335,0,1,0,2.67,0v-2.672A1.338,1.338,0,0,0,1013.75,626.94Zm10.87-2.672h-5.52a1.336,1.336,0,1,0,0,2.672h5.52A1.336,1.336,0,1,0,1024.62,624.268Zm0,5.344h-5.52a1.336,1.336,0,1,0,0,2.672h5.52A1.336,1.336,0,1,0,1024.62,629.612Zm-29.569-29.569a4.008,4.008,0,1,0,4.008,4.008A4.012,4.012,0,0,0,995.051,600.043Zm0,5.344a1.336,1.336,0,1,1,1.336-1.336A1.338,1.338,0,0,1,995.051,605.387Z" transform="translate(-983.999 -593)"/>
</svg>
