<svg xmlns="http://www.w3.org/2000/svg" width="48.812" height="48.812" viewBox="0 0 48.812 48.812">
  <metadata><?xpacket begin="﻿" id="W5M0MpCehiHzreSzNTczkc9d"?>
<x:xmpmeta xmlns:x="adobe:ns:meta/" x:xmptk="Adobe XMP Core 5.6-c138 79.159824, 2016/09/14-01:09:01        ">
   <rdf:RDF xmlns:rdf="http://www.w3.org/1999/02/22-rdf-syntax-ns#">
      <rdf:Description rdf:about=""/>
   </rdf:RDF>
</x:xmpmeta>
                                                                                                    
                                                                                                    
                                                                                                    
                                                                                                    
                                                                                                    
                                                                                                    
                                                                                                    
                                                                                                    
                                                                                                    
                                                                                                    
                                                                                                    
                                                                                                    
                                                                                                    
                                                                                                    
                                                                                                    
                                                                                                    
                                                                                                    
                                                                                                    
                                                                                                    
                                                                                                    
                           
<?xpacket end="w"?></metadata>
<defs>
    <style>
      .cls-1 {
        fill: #0e1c36;
        fill-rule: evenodd;
      }
    </style>
  </defs>
  <path id="Forma_1" data-name="Forma 1" class="cls-1" d="M817.611,605.537h-2.959a7.147,7.147,0,1,0-12.064-7.575,35.806,35.806,0,0,1-1.886,3.3,4.281,4.281,0,0,0-6.4,0,35.789,35.789,0,0,1-1.885-3.3,7.148,7.148,0,1,0-12.065,7.575h-2.958a4.294,4.294,0,0,0-4.289,4.289v2.859a4.3,4.3,0,0,0,2.859,4.045v21.88a4.368,4.368,0,0,0,4.385,4.29h34.312a4.369,4.369,0,0,0,4.385-4.29V616.73a4.3,4.3,0,0,0,2.859-4.045v-2.859A4.294,4.294,0,0,0,817.611,605.537Zm-15.856-.9a29.234,29.234,0,0,0,3.371-5.358,4.289,4.289,0,1,1,3.811,6.259h-1.305a10.688,10.688,0,0,0,2.282-3.046l0.3-.6a1.43,1.43,0,1,0-2.558-1.278l-0.3.6a7.776,7.776,0,0,1-5.782,4.231A4.237,4.237,0,0,0,801.755,604.636Zm-5.675-.693a1.429,1.429,0,0,1,2.839,0,1.434,1.434,0,0,0,0,.314,1.43,1.43,0,0,1-2.844,0A1.434,1.434,0,0,0,796.08,603.943Zm-10.018-6.984a4.278,4.278,0,0,1,3.811,2.319,29.188,29.188,0,0,0,3.372,5.358,4.237,4.237,0,0,0,.18.807,7.775,7.775,0,0,1-5.782-4.231l-0.3-.6a1.43,1.43,0,1,0-2.558,1.278l0.3,0.6a10.673,10.673,0,0,0,2.283,3.046h-1.306A4.289,4.289,0,0,1,786.062,596.959Zm4.289,43.081H780.344a1.518,1.518,0,0,1-1.525-1.43V616.974h11.532V640.04Zm0-25.925H777.389a1.431,1.431,0,0,1-1.43-1.43v-2.859a1.432,1.432,0,0,1,1.43-1.43h12.962v5.719Zm11.438,25.925h-2.86v-1.43a1.43,1.43,0,0,0-2.859,0v1.43h-2.859V608.4h2.859v1.43a1.43,1.43,0,1,0,2.859,0V608.4h2.86V640.04Zm14.392-1.43a1.519,1.519,0,0,1-1.525,1.43H804.648V616.974h11.533V638.61Zm2.86-25.925a1.432,1.432,0,0,1-1.43,1.43H804.648V608.4h12.963a1.432,1.432,0,0,1,1.43,1.43v2.859Z" transform="translate(-773.094 -594.094)"/>
</svg>
