<svg xmlns="http://www.w3.org/2000/svg" width="49.372" height="49.367" viewBox="0 0 50.38 50.375">
  <metadata><?xpacket begin="﻿" id="W5M0MpCehiHzreSzNTczkc9d"?>
<x:xmpmeta xmlns:x="adobe:ns:meta/" x:xmptk="Adobe XMP Core 5.6-c138 79.159824, 2016/09/14-01:09:01        ">
   <rdf:RDF xmlns:rdf="http://www.w3.org/1999/02/22-rdf-syntax-ns#">
      <rdf:Description rdf:about=""/>
   </rdf:RDF>
</x:xmpmeta>
                                                                                                    
                                                                                                    
                                                                                                    
                                                                                                    
                                                                                                    
                                                                                                    
                                                                                                    
                                                                                                    
                                                                                                    
                                                                                                    
                                                                                                    
                                                                                                    
                                                                                                    
                                                                                                    
                                                                                                    
                                                                                                    
                                                                                                    
                                                                                                    
                                                                                                    
                                                                                                    
                           
<?xpacket end="w"?></metadata>
<defs>
    <style>
      .cls-1 {
        fill: #fff;
        fill-rule: evenodd;
      }
    </style>
  </defs>
  <path class="cls-1" d="M1213.64,619.814a4.81,4.81,0,0,1-1.52,3.064,1.056,1.056,0,0,0-.32,1.035l0.43,1.716a1.063,1.063,0,0,0,.77.764l3.76,0.939a3.484,3.484,0,0,1,1.43.743,1.051,1.051,0,0,0,1.35-1.612,5.669,5.669,0,0,0-2.27-1.172l-3.15-.786-0.14-.529a6.925,6.925,0,0,0,1.64-3.253,1.963,1.963,0,0,0,1.05-1.5l0.23-1.822a1.944,1.944,0,0,0-.47-1.531,1.85,1.85,0,0,0-.38-0.338l0.05-1.116,0.19-.193a2.671,2.671,0,0,0,.12-3.574,4.383,4.383,0,0,0-3.96-1.846,6.594,6.594,0,0,0-3.64.922c-4.33.151-4.83,2.48-4.83,4.238,0,0.347.06,1,.12,1.537a1.8,1.8,0,0,0-.42.361,1.937,1.937,0,0,0-.48,1.539l0.23,1.828a1.911,1.911,0,0,0,1.16,1.531,7,7,0,0,0,1.55,3.135l-0.15.617-3.15.786a5.713,5.713,0,0,0-4.34,5.556,1.05,1.05,0,0,0,1.05,1.05h14.82a1.05,1.05,0,1,0,0-2.1h-13.61a3.6,3.6,0,0,1,2.59-2.468l3.76-.939a1.058,1.058,0,0,0,.77-0.764l0.44-1.792a1.025,1.025,0,0,0-.3-1.018,4.762,4.762,0,0,1-1.45-3.007,0.958,0.958,0,0,0-1.05-.846l-0.28-1.674a1.049,1.049,0,0,0,.79-0.355,1.087,1.087,0,0,0,.26-0.828c-0.08-.633-0.21-1.778-0.21-2.15,0-1.086,0-2.112,3.07-2.144a1.048,1.048,0,0,0,.6-0.2,4.5,4.5,0,0,1,2.7-.715c1.62,0,2.05.671,2.21,0.9,0.42,0.655.25,0.84,0.13,0.966l-0.45.456a1.013,1.013,0,0,0-.31.691l-0.11,2.287a0.823,0.823,0,0,0,.21.692,0.854,0.854,0,0,0,.69.253l-0.14,1.705A1.039,1.039,0,0,0,1213.64,619.814Zm11.11-4.715h6.3a1.05,1.05,0,1,0,0-2.1h-6.3A1.05,1.05,0,1,0,1224.75,615.1Zm14.7-16.8h-39.9a5.251,5.251,0,0,0-5.25,5.249v27.3a5.253,5.253,0,0,0,5.25,5.251h15.54a1.05,1.05,0,1,0,0-2.1h-15.54a3.152,3.152,0,0,1-3.15-3.151V606.7h46.2v20.6a1.05,1.05,0,1,0,2.1,0V603.549A5.251,5.251,0,0,0,1239.45,598.3Zm3.15,6.3h-46.2v-1.051a3.151,3.151,0,0,1,3.15-3.149h39.9a3.151,3.151,0,0,1,3.15,3.149V604.6h0Zm-3.15,10.5a1.05,1.05,0,1,0,0-2.1h-4.2a1.05,1.05,0,1,0,0,2.1h4.2Zm5.25,16.8a1.474,1.474,0,0,0-1.59-1.491,5.119,5.119,0,0,0-2.2.719,10.894,10.894,0,0,0-3.92-4.687,21.433,21.433,0,0,0-11.89,0,10.952,10.952,0,0,0-3.91,4.687,5.119,5.119,0,0,0-2.2-.719,1.642,1.642,0,0,0-1.02.311,1.428,1.428,0,0,0-.57,1.18,4.122,4.122,0,0,0,1.42,2.9,0.993,0.993,0,0,0,.38.2,12.8,12.8,0,0,0-.75,4.252c0,1.569.14,4.245,1.05,5.612V646.6a2.075,2.075,0,0,0,2.1,2.1h2.1a2.075,2.075,0,0,0,2.1-2.1v-0.711a19.738,19.738,0,0,0,10.5,0V646.6a2.075,2.075,0,0,0,2.1,2.1h2.1a2.075,2.075,0,0,0,2.1-2.1v-1.738c0.9-1.367,1.05-4.043,1.05-5.612a12.8,12.8,0,0,0-.75-4.252,0.941,0.941,0,0,0,.38-0.2A4.117,4.117,0,0,0,1244.7,631.9Zm-18.66-3.578a18.453,18.453,0,0,1,5.01-.622,18.688,18.688,0,0,1,5.01.618,9.952,9.952,0,0,1,3.38,4.775c-1.98.278-6.65,0.908-8.39,0.908s-6.41-.63-8.39-0.908A9.915,9.915,0,0,1,1226.04,628.321Zm-5.93,4.807a2.617,2.617,0,0,1-.3-0.355,4.158,4.158,0,0,1,.4.212C1220.18,633.033,1220.14,633.078,1220.11,633.128Zm3.59,13.471h-2.1v-1.05h2.1v1.05Zm16.8,0h-2.1v-1.05h2.1v1.05Zm0.48-3.15h-3.63a1.149,1.149,0,0,0-.33.053,18.39,18.39,0,0,1-11.94,0,1.063,1.063,0,0,0-.11-0.009,0.954,0.954,0,0,0-.22-0.046h-3.64a12.094,12.094,0,0,1-.56-4.2,9.543,9.543,0,0,1,.06-1.048c1.41,0.039,3.09.516,3.09,1.045a1.05,1.05,0,1,0,2.1,0c0-2.566-3.47-3.038-4.78-3.126a8.506,8.506,0,0,1,.42-1.086s0,0,.01,0c0.29,0.044,7.22,1.061,9.6,1.061s9.31-1.017,9.6-1.061c0.01,0,.01,0,0.01,0a8.506,8.506,0,0,1,.42,1.086c-1.32.088-4.78,0.562-4.78,3.126a1.05,1.05,0,1,0,2.1,0c0-.539,1.67-1,3.09-1.046,0.03,0.359.06,0.715,0.06,1.046A11.782,11.782,0,0,1,1240.98,643.449Zm1.01-10.323c-0.03-.048-0.07-0.1-0.1-0.141,0.12-.073.26-0.149,0.39-0.214A2.357,2.357,0,0,1,1241.99,633.126ZM1224.75,621.4h14.7a1.05,1.05,0,1,0,0-2.1h-14.7A1.05,1.05,0,1,0,1224.75,621.4Zm8.4,16.8h-4.2a1.05,1.05,0,1,0,0,2.1h4.2A1.05,1.05,0,1,0,1233.15,638.2Z" transform="translate(-1194.31 -598.313)"/>
</svg>
