<svg xmlns="http://www.w3.org/2000/svg" width="190.781" height="69.937" viewBox="0 0 190.781 69.937">
  <defs>
    <style>
      .cls-1 {
        fill: #ab8571;
        fill-rule: evenodd;
      }
    </style>
  </defs>
  <path id="Дом_сдан" data-name="Дом         сдан" class="cls-1" d="M629.513,600.127c-5.74,2.056-14.421,8.091-14.421,15.722,0,0.7.49,1.612,0.49,2.313,0,0.98,1.47,1.756,2.59,3.981-0.98.976-4.831,2.35-4.831,3.61,0,0.77,1.4,1.136,1.961,1.058,2.38-.33,2.38-2.08,4.76-2.41,1.19-.166,3.991.426,5.881,0.724,1.47,0.216,5.88-.046,5.81.8,0,1.33-6.58,5.463-6.37,5.294-3.711,2.2-6.791,6.4-10.221,7.789a2.805,2.805,0,0,0-1.751,2.693,1.275,1.275,0,0,0,1.681,1.167c1.96-.272,6.44-5.024,7.07-5.111,1.541-1.894,4.131-2.534,6.511-4.894,2.94-2.368,7.911-8.309,9.591-8.542a116.941,116.941,0,0,0,22.612-8.458c5.321-1.368,11.482-7.334,14-7.684,0.7-.1.56,0.553,0.28,0.942-1.61,2.813-2.45,4.54-3.991,7.344-0.77,1.507-3.85,4.735-5.46,7.129-1.61,1.553-3.5,4.056-5.531,5.317-4.76,2.9-6.09,2.946-9.941,4.67a20.334,20.334,0,0,1-6.37,1.934,17.8,17.8,0,0,1-11.062-1.895,0.612,0.612,0,0,0-.49-0.072,1.136,1.136,0,0,0-.91,1.176c0,1.75,4.831,2.9,6.581,3.007a25.038,25.038,0,0,0,7.281.39,4.772,4.772,0,0,0,2.03-.842,47.6,47.6,0,0,0,22.682-14.558c1.26-1.435,2.311-3.471,3.571-4.906,2.8-3.819,6.16-9.4,6.93-14.963a13.712,13.712,0,0,0,1.331-6.275,5.322,5.322,0,0,0-3.151-4.744c-0.7-.323-1.61-1.6-2.38-2.12a16.5,16.5,0,0,0-8.331-1.854l-5.11.709c-1.191.165-1.891,0.192-2.8,0.319-5.04.7-10.011,2.789-14.841,4.579-4.271,1.573-8.541,3.5-12.742,5.269A6.507,6.507,0,0,0,629.513,600.127Zm32.834-3.576c1.61-1.484,2.59-2.81,2.59-3.37a1.773,1.773,0,0,0-1.82-1.147c-1.331.184-6.791,5.562-7.071,5.811-1.54,1.124-1.68,1.774-3.5,2.936-2.451,1.53-19.533,12.861-23.313,15.276-2.31,1.441-5.11,3.02-7.491,4.26a7.362,7.362,0,0,1-2.73-4.8,24.607,24.607,0,0,1,.49-3.008c1.12-5.056,8.891-9.635,13.161-12.187,1.751-.8,10.922-5.016,12.742-5.689a77.412,77.412,0,0,1,14.071-3.7c3.781-.525,8.191-1,11.341.876a4.873,4.873,0,0,1,1.891,1.768,0.842,0.842,0,0,1-.42.688c-5.181,1.909-7.071,3.642-11.622,6.233a3.333,3.333,0,0,1-1.19.376c-0.63.087-.98-0.074-0.77-0.664Zm0.7,16.775c-0.42.2-5.531,2.587-7.981,3.487-4.131,1.413-7.911,3.338-11.831,3.882-0.7.1-1.4,0.054-1.4-.366,0-1.89,4.131-3.933,6.791-6.823,2.1-1.551,3.29-4.026,5.461-5.588a23.759,23.759,0,0,0,3.57-2.6,76.36,76.36,0,0,1,10.221-5.969,22.511,22.511,0,0,1,5.741-2.057c1.61-.223,3.01.143,3.01,2.033,0,1.96-2.1,4.562-3.43,6.076a42.266,42.266,0,0,1-6.581,5.954Zm-16.732-1.669c-0.7.867-1.33,1.094-2.1,1.9-1.891,1.873-3.851,3.685-5.671,5.478-1.68,1.633-3.01,3.5-5.32,3.818-3.081.428-3.361-.163-6.3-0.316a7.656,7.656,0,0,1-2.59-1.18c5.39-3.829,11.061-6.716,15.611-10.077,3.151-2.328,5.741-3.737,9.451-6.282,1.33-.885,2.52-1.33,3.781-2.205-1.261,1.5-2.381,3.271-3.641,4.846ZM695.1,624.069l-0.14-.26c-1.05.075-1.82,1.372-2.94,1.528-0.7.1-1.47,0.344-2.17,0.441l-0.21.029a11.183,11.183,0,0,0,3.08-7.428,0.622,0.622,0,0,0-.56-0.763,6.038,6.038,0,0,0-3.01,1.468,2.758,2.758,0,0,0-2.171-.679,34823.065,34823.065,0,0,1-7.841,3.328c-1.82,1.443-1.61,2.254-2.45,4.051-1.05,2.246-4.06,4.344-4.06,7.214,0,1.54.84,2.824,2.52,2.591,2.03-.282,7.771-3.319,9.451-4.812,2.31-2.071,2.52-2.87,5.6-3.788C691.742,626.5,694.4,625.706,695.1,624.069Zm-6.721-.747a3.158,3.158,0,0,1-.35,1.308c-2.24,4.582-4.69,5.622-9.031,7.414a6.032,6.032,0,0,1-1.54.494,1.064,1.064,0,0,1-1.33-.936c0-2.59,6.441-9.924,8.891-10.264C685.721,621.24,688.381,622.551,688.381,623.322Zm5.109,4.471c-0.77,1.227.14,2.5,0.63,3.063,0.42,0.432,2.52.14,3.08,0.063,2.94-.408,5.321-2.279,7.981-3.7,1.4-.894,1.82-1.3,3.08-2.248,0.98-.626,1.54-1.333,2.52-1.889,3.711-2.615,5.041-4.62,8.261-7.727-1.82,3.613-3.57,6.446-5.32,9.839-0.7,1.147-1.33,2.565-1.12,3.026a3.508,3.508,0,0,0,2.03.978c1.26-.175,2.17-1.561,2.94-2.368,0.98-.906,2.1-1.972,3.15-2.958,1.751-1.643,2.591-2.249,4.411-3.972a7.052,7.052,0,0,0-.49,2.868c0.28,1.222,1.33,1.706,2.66,1.521,1.4-.194,9.731-6.18,9.731-6.32a0.689,0.689,0,0,0-.63-0.263c-0.98.766-5.25,3.179-6.791,3.393-0.77.106-1.19-.115-1.19-0.815,0-2.241,1.82-3.683,3.081-5.048,0.77-.737,1.75-1.713,1.75-2.693a1.1,1.1,0,0,0-1.4-.646,16.78,16.78,0,0,0-3.5,2.8,70.383,70.383,0,0,1-10.921,9.636c1.89-3.693,2.59-4.77,4.621-8.692,1.05-2.106,1.54-3.574,3.29-5.077a2.931,2.931,0,0,0,.77-3.117c-0.21-.391-0.21-0.531-0.7-0.463-1.05.146-3.5,2.656-4.41,3.692-2.451,2.72-2.941,3.278-5.531,5.808a30.612,30.612,0,0,1-3.71,3.525c-3.081,2.248-4.131,3.514-7.491,5.52-2.521,1.61-3.641,2.4-6.441,3.064-1.4.334-1.68-.327-2.38-1A1.7,1.7,0,0,0,693.49,627.793Zm34.755,11.486a29.2,29.2,0,0,0-8.471,3.206,22.948,22.948,0,0,0-5.671,4.707c-0.42.619-2.03,2.522-2.24,2.971-0.7,1.428-1.89,3.273-1.89,5.093,0,1.05.56,3,4.9,2.4a43.863,43.863,0,0,0,6.3-2.205c1.33-.674,7.211-4.151,9.241-5.553,1.89-1.382,3.01-2.167,4.41-3.272,0.56-.5.631-1.137-0.14-0.75a92.842,92.842,0,0,1-8.54,5.665c-1.961,1.252-5.321,2.349-7.211,3.241-1.12.365-3.011,0.908-3.291,0.947s-2.45-.081-2.45-1.551c0-1.4,1.26-3.745,2.8-5.569a21.743,21.743,0,0,1,3.431-3.416c2.52-1.96,5.32-3.4,7.281-3.671,0.21-.029.56-0.077,0.56,0.2,0,0.63-.84.746-1.26,1.225a2.622,2.622,0,0,0-.771,1.437c0,0.63,2.241,1.089,3.291.523a7.9,7.9,0,0,0,2.1-1.691,3.311,3.311,0,0,0,.77-1.787C731.4,639.542,729.785,639.066,728.245,639.279Zm23.1-37.718a11.131,11.131,0,0,0-4.2,1.493,44.222,44.222,0,0,0-7.631,6.729c-0.42.758-2.94,6.639-1.82,11.454,0.28,1.151.91,1.764,1.12,2.785,0.28,1.081,5.461,4.422,5.951,4.635a18.6,18.6,0,0,0,7.771,1.161c0.35-.048.56,0.063,0.84-0.746-4.691-1.45-11.551-1.548-13.162-8.465-1.4-5.966,3.221-15.078,10.922-16.147,4.9-.68,10.781.6,11.691,6.919,0.35,2.681.91,5.894-.42,8.879-1.19,2.755-2.1,6.732-3.571,9.316a72.657,72.657,0,0,1-8.26,11.438c-3.291,3.326-9.451,7.892-11.622,8.193a2.877,2.877,0,0,1-.56.148,0.915,0.915,0,0,1-1.12-.685c-0.42-1.832,2.94-6.359,4.411-6.563,0.42-.058,1.19.605,1.61,0.547a2.643,2.643,0,0,0,1.89-2.713c-0.28-1.221-.35-1.631-1.4-1.485-3.571.5-9.521,7.551-9.8,9.13a9.384,9.384,0,0,0-.21,2.48,4.31,4.31,0,0,0,3.71,2.425c4.9-.68,14.492-10.132,15.332-10.808,3.01-3.848,8.751-11.786,8.681-12.266-0.07-.27,5.32-13.059,4.06-18.625C763.385,601.64,758.764,600.531,751.344,601.561Zm28.349,38.07-0.35-.231c-1.33.6-2.03,1.822-3.57,2.035a2.231,2.231,0,0,1-2.73-2.351c0-2.17,4.06-5.464,4.06-6.934,0-.77-0.98-0.634-1.54-0.557-1.19.166-2.24,1.711-3.641,1.906-0.91.126-1.19-.955-3.08-0.693a5.6,5.6,0,0,0-1.05.216c-2.17.721-12.041,10.632-12.041,12.662,0,2.66,2.52,2.59,4.62,2.3,4.271-.593,6.161-5.125,8.821-5.494a1.085,1.085,0,0,1,.91.433c0.84,0.584,3.571.625,4.691,0.47C775.843,643.246,779.483,640.711,779.693,639.631Zm-9.031-3.717c0,1.82-7.07,9.032-8.891,9.284-0.77.107-1.54-.066-1.54-0.976a4.231,4.231,0,0,1,.21-1.289c0.07-.29,7.561-7.56,7.981-7.758a3.062,3.062,0,0,1,.77-0.177A1.14,1.14,0,0,1,770.662,635.914Zm33.461-8.494a0.759,0.759,0,0,0-.98-0.7c-1.19.165-2.59,2.25-3.57,3.086-3.081,2.738-7.421,6.35-11.411,6.274,2.1-3.092,4.2-6.253,4.2-7.024a1.411,1.411,0,0,0-1.47-.776c-0.77.107-2.52,2.8-3.08,3.508A39.351,39.351,0,0,1,780.6,638.6c-0.7.447-3.991,2.374-4.061,3.084a1.1,1.1,0,0,0,.7.183c0.421-.058,5.741-3.6,6.581-4.134-0.7,1.778-4.06,4.974-4.06,6.794,0,0.49-.49,1.189-0.07,1.62a2.3,2.3,0,0,0,2.24-.311c1.12-1,2.73-4.439,2.8-4.519,0.63-1.067,1.54-2.383,2.451-3.77,2.52,0.21,4.9-1.17,6.79-2.062-0.84,1.586-2.31,5.291-2.31,6.971a1.57,1.57,0,0,0,1.47,1.546c1.75-.243,10.151-5.259,10.711-6.877l-0.63-.192c-2.31,1.16-4.06,3.083-6.58,3.433a2.092,2.092,0,0,1-.981-0.144l-0.28-.521C795.442,636.046,804.123,628.191,804.123,627.42Z" transform="translate(-613.344 -587.813)"/>
</svg>
