<svg id="Слой_1" data-name="Слой 1" xmlns="http://www.w3.org/2000/svg" xmlns:xlink="http://www.w3.org/1999/xlink" viewBox="0 0 123.9 93.54"><defs><style>.cls-1{fill:none;}.cls-2{fill:#212428;}.cls-3{clip-path:url(#clip-path);}</style><clipPath id="clip-path" transform="translate(0 0)"><rect class="cls-1" width="123.9" height="93.54"/></clipPath></defs><title>logo</title><polygon class="cls-2" points="9.01 74.22 9.01 78.08 1.57 78.08 1.57 74.22 0 74.22 0 83.66 1.57 83.66 1.57 79.38 9.01 79.38 9.01 83.66 10.59 83.66 10.59 74.22 9.01 74.22"/><g class="cls-3"><path class="cls-2" d="M13.85,77.05h6.47V82.5H13.85V77.05Zm6,6.6a2.26,2.26,0,0,0,1.5-.38,2.06,2.06,0,0,0,.4-1.44V77.75a2.13,2.13,0,0,0-.38-1.44,2.17,2.17,0,0,0-1.52-.4H14.2a2.17,2.17,0,0,0-1.41.38,2.13,2.13,0,0,0-.4,1.46v4.17a2,2,0,0,0,.4,1.37,2.25,2.25,0,0,0,1.5.37h5.59Z" transform="translate(0 0)"/><path class="cls-2" d="M30.12,81.64a0.72,0.72,0,0,1-.88.86h-4.5V80.16h4.55a0.9,0.9,0,0,1,.62.18,1,1,0,0,1,.2.69v0.6Zm-5.37-4.59h4.5a1,1,0,0,1,.68.16,0.67,0.67,0,0,1,.15.48v0.69a0.59,0.59,0,0,1-.16.49,1,1,0,0,1-.66.13h-4.5v-2Zm6.78,1.26v-0.9a1.49,1.49,0,0,0-.35-1.1,1.92,1.92,0,0,0-1.35-.42H23.28v7.75h6.05a3.14,3.14,0,0,0,1.74-.4,1.32,1.32,0,0,0,.51-1.11v-1A1.35,1.35,0,0,0,31,79.91a1.86,1.86,0,0,0-.8-0.26,1.93,1.93,0,0,0,1-.37,1.26,1.26,0,0,0,.37-1" transform="translate(0 0)"/><path class="cls-2" d="M37.2,77l2.07,3.67H35.19Zm2.67,4.83,1,1.79h1.63L37.92,75.9H36.58L32.1,83.65h1.5l1-1.79h5.28Z" transform="translate(0 0)"/><path class="cls-2" d="M45.84,79.5a0.87,0.87,0,0,1-.6-0.16,0.77,0.77,0,0,1-.16-0.53v-1a0.77,0.77,0,0,1,.22-0.64,0.9,0.9,0,0,1,.6-0.15H50V79.5H45.84ZM45,83.65l2.87-3H50v3h1.46V75.9H45.18a1.72,1.72,0,0,0-1.22.38,1.66,1.66,0,0,0-.35,1.11v1.68a1.57,1.57,0,0,0,.31,1.06,1.63,1.63,0,0,0,1.32.46h1l-3.22,3.05h2Z" transform="translate(0 0)"/><polygon class="cls-2" points="75.34 83.65 75.34 74.22 64.94 74.22 64.94 83.65 66.51 83.65 66.51 75.52 73.77 75.52 73.77 83.65 75.34 83.65"/><path class="cls-2" d="M78.69,77.05h4.44a0.92,0.92,0,0,1,.69.18,0.75,0.75,0,0,1,.18.55v1a0.69,0.69,0,0,1-.2.57,1.12,1.12,0,0,1-.68.16H78.69V77.05Zm5.08,3.56a1.84,1.84,0,0,0,1.35-.4,1.45,1.45,0,0,0,.35-1.08V77.4a1.38,1.38,0,0,0-.35-1.08,1.71,1.71,0,0,0-1.35-.42H77.23v7.75h1.46v-3h5.08Z" transform="translate(0 0)"/><polygon class="cls-2" points="94.5 77.06 94.5 75.9 86.69 75.9 86.69 83.66 94.57 83.66 94.57 82.5 88.16 82.5 88.16 80.2 91.98 80.2 91.98 79.05 88.16 79.05 88.16 77.06 94.5 77.06"/><path class="cls-2" d="M103.84,78.48V77.75a2.16,2.16,0,0,0-.37-1.43,2.13,2.13,0,0,0-1.54-.42H97.38a2.23,2.23,0,0,0-1.5.38,2.16,2.16,0,0,0-.38,1.46V82a1.86,1.86,0,0,0,.29,1.22,1.83,1.83,0,0,0,1.44.48h4.85a2,2,0,0,0,1.35-.38,1.79,1.79,0,0,0,.4-1.3V80.91l-1.46-.27V82.5H97V77.05h5.41v1.66Z" transform="translate(0 0)"/><polygon class="cls-2" points="105.18 75.9 105.18 83.65 106.64 83.65 106.64 80.2 112.82 80.2 112.82 83.65 114.28 83.65 114.28 75.9 112.82 75.9 112.82 79.05 106.64 79.05 106.64 75.9 105.18 75.9"/><path class="cls-2" d="M118.33,77.05h4.11V79.5h-4.17a0.87,0.87,0,0,1-.6-0.16,0.77,0.77,0,0,1-.16-0.53v-1a0.77,0.77,0,0,1,.22-0.64,0.91,0.91,0,0,1,.6-0.15m-1.94-.77A1.67,1.67,0,0,0,116,77.4v1.68a1.57,1.57,0,0,0,.31,1.06,1.63,1.63,0,0,0,1.32.46h1l-3.22,3.05h2l2.87-3h2.12v3h1.46V75.9h-6.29a1.73,1.73,0,0,0-1.22.38" transform="translate(0 0)"/><polygon class="cls-2" points="58.95 78.15 58.2 76.63 57.45 78.15 55.78 78.39 56.99 79.58 56.7 81.25 58.2 80.46 59.7 81.25 59.42 79.58 60.63 78.39 58.95 78.15"/><path class="cls-2" d="M1.82,91.95l-1.38-1.8H0v2.78H0.43V90.66a1.27,1.27,0,0,0,.2.4l1.11,1.42H1.87L2.94,91a1.34,1.34,0,0,0,.18-0.39,1.85,1.85,0,0,0,0,.39v1.88H3.58V90.14H3.09Z" transform="translate(0 0)"/><polygon class="cls-2" points="7.69 91.27 5.47 91.27 5.47 90.14 4.95 90.14 4.95 92.93 5.47 92.93 5.47 91.69 7.69 91.69 7.69 92.93 8.21 92.93 8.21 90.14 7.69 90.14 7.69 91.27"/><path class="cls-2" d="M12.4,92.51H10.07v-2H12.4v2Zm-0.16-2.37h-2a0.78,0.78,0,0,0-.51.14,0.76,0.76,0,0,0-.14.53v1.5a0.7,0.7,0,0,0,.14.49,0.81,0.81,0,0,0,.54.13h2a0.81,0.81,0,0,0,.54-0.14,0.74,0.74,0,0,0,.15-0.52V90.81a0.77,0.77,0,0,0-.14-0.52,0.78,0.78,0,0,0-.54-0.14" transform="translate(0 0)"/><polygon class="cls-2" points="14.26 92.93 14.78 92.93 14.78 90.56 16.92 90.56 16.92 90.14 14.26 90.14 14.26 92.93"/><path class="cls-2" d="M20.86,92.51H18.53v-2h2.32v2ZM20.7,90.14h-2a0.78,0.78,0,0,0-.51.14,0.76,0.76,0,0,0-.14.53v1.5a0.71,0.71,0,0,0,.14.49,0.81,0.81,0,0,0,.54.13h2a0.82,0.82,0,0,0,.54-0.14,0.74,0.74,0,0,0,.15-0.52V90.81a0.55,0.55,0,0,0-.68-0.66" transform="translate(0 0)"/><path class="cls-2" d="M26.3,91.79a0.24,0.24,0,0,1-.07.2,0.37,0.37,0,0,1-.23.06H25V90.81h1a0.35,0.35,0,0,1,.25.07,0.27,0.27,0,0,1,.06.19v0.72Zm-1.84.26h-1A0.37,0.37,0,0,1,23.21,92a0.24,0.24,0,0,1-.07-0.2V91.07a0.27,0.27,0,0,1,.07-0.19,0.35,0.35,0,0,1,.25-0.07h1v1.25Zm1.76-1.66H25V90H24.45v0.41H23.22a0.62,0.62,0,0,0-.49.16,0.5,0.5,0,0,0-.12.38v1a0.48,0.48,0,0,0,.14.4,0.62,0.62,0,0,0,.47.13h1.23v0.46H25V92.47h1.23a0.62,0.62,0,0,0,.47-0.13,0.48,0.48,0,0,0,.14-0.4v-1a0.49,0.49,0,0,0-.12-0.38,0.62,0.62,0,0,0-.48-0.16" transform="translate(0 0)"/><path class="cls-2" d="M30.69,91.42H28.56V90.14H28v1a0.74,0.74,0,0,0,.14.52,0.81,0.81,0,0,0,.53.14h2v0.68H28.51V92.09l-0.49.1v0.08a0.74,0.74,0,0,0,.15.52,0.81,0.81,0,0,0,.54.14h1.84a0.83,0.83,0,0,0,.54-0.14,0.77,0.77,0,0,0,.14-0.52V90.14H30.69v1.27Z" transform="translate(0 0)"/><polygon class="cls-2" points="35.3 91.27 33.08 91.27 33.08 90.14 32.55 90.14 32.55 92.93 33.08 92.93 33.08 91.69 35.3 91.69 35.3 92.93 35.82 92.93 35.82 90.14 35.3 90.14 35.3 91.27"/><polygon class="cls-2" points="40.2 90.14 39.47 90.14 37.71 91.34 37.71 90.14 37.19 90.14 37.19 92.93 37.71 92.93 37.71 91.68 39.57 92.93 40.43 92.93 38.15 91.49 40.2 90.14"/><polygon class="cls-2" points="44.52 90.14 44 90.14 44 92.51 42.03 92.51 42.03 90.14 41.5 90.14 41.5 92.93 44.49 92.93 44.52 93.54 44.98 93.54 44.98 92.51 44.52 92.51 44.52 90.14"/><path class="cls-2" d="M47,92a3.62,3.62,0,0,0-.31.32c0-.18,0-0.34,0-0.45V90.14H46.14v2.78h0.42L48.7,91A2.6,2.6,0,0,0,49,90.72c0,0.09,0,.32,0,0.43v1.77H49.5V90.14H49.08Z" transform="translate(0 0)"/><path class="cls-2" d="M53.68,92.51H51.36v-2h2.32v2Zm-0.16-2.37h-2a0.78,0.78,0,0,0-.51.14,0.76,0.76,0,0,0-.14.53v1.5a0.7,0.7,0,0,0,.14.49,0.81,0.81,0,0,0,.54.13h2a0.81,0.81,0,0,0,.54-0.14,0.74,0.74,0,0,0,.14-0.52V90.81a0.77,0.77,0,0,0-.14-0.52,0.78,0.78,0,0,0-.54-0.14" transform="translate(0 0)"/><polygon class="cls-2" points="58.28 91.27 56.06 91.27 56.06 90.14 55.54 90.14 55.54 92.93 56.06 92.93 56.06 91.69 58.28 91.69 58.28 92.93 58.8 92.93 58.8 90.14 58.28 90.14 58.28 91.27"/><path class="cls-2" d="M61,91.87l0.72-1.32,0.74,1.32H61Zm0.5-1.73-1.61,2.78h0.54l0.36-.64h1.9l0.36,0.64h0.58L62,90.14H61.53Z" transform="translate(0 0)"/><polygon class="cls-2" points="66.08 90.14 64.54 92.93 65.11 92.93 66.31 90.62 67.54 92.93 68.14 92.93 66.56 90.14 66.08 90.14"/><path class="cls-2" d="M71.73,92.2a0.38,0.38,0,0,1-.07.25,0.34,0.34,0,0,1-.24.07H69.8V91.6h1.61a0.34,0.34,0,0,1,.24.07,0.38,0.38,0,0,1,.07.25V92.2Zm0.33-.9a0.92,0.92,0,0,0-.55-0.11H69.8v-1H69.28v2.78h2.17A1.12,1.12,0,0,0,72,92.8a0.47,0.47,0,0,0,.22-0.42V91.73a0.5,0.5,0,0,0-.2-0.43" transform="translate(0 0)"/><polygon class="cls-2" points="76.22 91.27 74 91.27 74 90.14 73.48 90.14 73.48 92.93 74 92.93 74 91.69 76.22 91.69 76.22 92.93 76.75 92.93 76.75 90.14 76.22 90.14 76.22 91.27"/><rect class="cls-2" x="81.73" y="90.14" width="0.53" height="2.78"/><path class="cls-2" d="M80.47,92.2a0.38,0.38,0,0,1-.07.25,0.34,0.34,0,0,1-.24.07H78.64V91.6h1.52a0.34,0.34,0,0,1,.24.07,0.38,0.38,0,0,1,.07.25V92.2Zm0.33-.9a0.92,0.92,0,0,0-.55-0.11H78.64v-1H78.11v2.78h2.07a1.12,1.12,0,0,0,.59-0.12A0.47,0.47,0,0,0,81,92.38V91.73a0.5,0.5,0,0,0-.2-0.43" transform="translate(0 0)"/><path class="cls-2" d="M84.44,92a3.62,3.62,0,0,0-.31.32c0-.18,0-0.34,0-0.45V90.14H83.63v2.78H84L86.18,91a2.6,2.6,0,0,0,.29-0.31c0,0.09,0,.32,0,0.43v1.77H87V90.14H86.56Z" transform="translate(0 0)"/><path class="cls-2" d="M85.3,89.75A1,1,0,0,0,86,89.5a1,1,0,0,0,.22-0.57H85.84a0.47,0.47,0,0,1-.13.3,0.7,0.7,0,0,1-.81,0,0.48,0.48,0,0,1-.13-0.3H84.35a1,1,0,0,0,.22.57,1,1,0,0,0,.74.25" transform="translate(0 0)"/><polygon class="cls-2" points="92.81 90.14 92.08 90.14 90.32 91.34 90.32 90.14 89.79 90.14 89.79 92.93 90.32 92.93 90.32 91.68 92.18 92.93 93.04 92.93 90.75 91.49 92.81 90.14"/><path class="cls-2" d="M96.85,92.51H94.53v-2h2.32v2Zm-0.16-2.37h-2a0.78,0.78,0,0,0-.51.14,0.76,0.76,0,0,0-.14.53v1.5a0.7,0.7,0,0,0,.14.49,0.81,0.81,0,0,0,.54.13h2a0.81,0.81,0,0,0,.54-0.14,0.74,0.74,0,0,0,.14-0.52V90.81a0.77,0.77,0,0,0-.14-0.52,0.78,0.78,0,0,0-.54-0.14" transform="translate(0 0)"/><path class="cls-2" d="M100.52,91.95l-1.39-1.8H98.71v2.78h0.43V90.66a1.25,1.25,0,0,0,.2.4l1.11,1.42h0.14L101.65,91a1.35,1.35,0,0,0,.19-0.39,1.77,1.77,0,0,0,0,.39v1.88h0.49V90.14H101.8Z" transform="translate(0 0)"/><polygon class="cls-2" points="103.65 92.93 104.18 92.93 104.18 90.56 106.32 90.56 106.32 92.93 106.85 92.93 106.85 90.14 103.65 90.14 103.65 92.93"/><polygon class="cls-2" points="109.53 90.14 107.98 92.93 108.55 92.93 109.75 90.62 110.98 92.93 111.58 92.93 110 90.14 109.53 90.14"/><polygon class="cls-2" points="113.24 91.69 114.62 91.69 114.62 91.27 113.24 91.27 113.24 90.56 115.52 90.56 115.52 90.14 112.72 90.14 112.72 92.93 115.55 92.93 115.55 92.51 113.24 92.51 113.24 91.69"/><polygon class="cls-2" points="119.72 90.14 118.99 90.14 117.23 91.34 117.23 90.14 116.7 90.14 116.7 92.93 117.23 92.93 117.23 91.68 119.08 92.93 119.94 92.93 117.66 91.49 119.72 90.14"/><path class="cls-2" d="M123.22,90.14h-1.63a0.8,0.8,0,0,0-.54.14,0.78,0.78,0,0,0-.14.53v1.51a0.51,0.51,0,0,0,.62.61h1.74a0.73,0.73,0,0,0,.49-0.14,0.64,0.64,0,0,0,.15-0.47V91.94l-0.53-.1v0.67h-1.94v-2h1.94v0.6l0.53-.09V90.81a0.55,0.55,0,0,0-.68-0.66" transform="translate(0 0)"/><path class="cls-2" d="M0.81,65.66l9.81-.79v5.45H0.81V65.66Zm0-1.31,9.81-.9v0.61l-9.81.79v-0.5ZM2.52,23.77l2.13-1.22V61.47l-2.13.19V23.77Zm4.25-2.45L8.9,20.1v41l-2.13.19V21.32Zm4.66-4.19,1.31,0.76V62.44l-1.31.12V17.14ZM23.38,62.28V63L11.43,64V63.38Zm-8.1-45.86,2.13-1.22V60.3l-2.13.19V16.42ZM19.53,14l2.13-1.22V59.91l-2.13.19V14Zm4.66-4.18,1.31,0.76V61.27l-1.31.12V9.79ZM36.12,61.11V62L24.19,63V62.21ZM28,9.08l2.13-1.22V59.13L28,59.32V9.08Zm4.25-2.45L34.41,5.4V58.74l-2.13.19V6.63Zm-8.1,57.16,11.93-1v7.5H24.19V63.79ZM11.43,70.33V64.81l11.94-1v6.47H11.43ZM44,62.2v8.13h-7V62.77Zm-7-1.16,7-.64v1l-7,.56V61Zm0-58.64,7,4.05V59.58l-7,.64V2.4ZM48,61.88l3.77-.3a233.09,233.09,0,0,1,35.54,0l35.75,2.87v5.92H48V61.88Zm-1.63-.69v-1l1.33-.12,4.08-.37a204,204,0,0,1,35.53,0l35.75,3.28v0.67L87.4,60.73a233.92,233.92,0,0,0-35.67,0l-4.14.33Zm0-17.34V39.52L51.88,38l1-.26v4.62l-1.16.26Zm0-9.49,5.49-1.76,0.94-.3v4.61l-1.18.32L46.4,38.68V34.36Zm0-5.16,5.51-2,0.92-.34v4.6l-1.19.37L46.4,33.51V29.2Zm0-5.16,5.53-2.28,0.91-.37V26l-1.21.43L46.4,28.33V24Zm0-5.16,5.54-2.54,0.89-.41v4.58L51.61,21,46.4,23.16V18.88ZM60.29,53.39v4.89c-2.94.13-5.82,0.33-8.56,0.59l-3.7.34V54.78l3.79-.52c2.71-.38,5.56-0.67,8.47-0.87M53.65,37.55A63.39,63.39,0,0,1,60.9,36.2v4.9c-2.48.26-4.91,0.63-7.26,1.11V37.55Zm0-5.49a55.26,55.26,0,0,1,7.26-1.57v4.9a64.42,64.42,0,0,0-7.26,1.33V32.06Zm0-5.49a49.28,49.28,0,0,1,7.26-1.8v4.91a56.35,56.35,0,0,0-7.26,1.53V26.57Zm0-5.49a44.7,44.7,0,0,1,7.26-2V24a50.31,50.31,0,0,0-7.26,1.75V21.08Zm0-5.49a41.26,41.26,0,0,1,7.26-2.25v4.9a45.63,45.63,0,0,0-7.26,2V15.59ZM61.72,36.1a70.82,70.82,0,0,1,8.13-.46v5c-2.73,0-5.45.12-8.13,0.38V36.1Zm0-5.73a60.77,60.77,0,0,1,8.13-.53v5a71.51,71.51,0,0,0-8.13.45V30.37Zm0-5.73A53.13,53.13,0,0,1,69.84,24v5h-0.6a62.06,62.06,0,0,0-7.53.52V24.64Zm0-5.73a47.34,47.34,0,0,1,8.13-.68v5h-0.6a54.46,54.46,0,0,0-7.53.6V18.91Zm0-5.73a42.72,42.72,0,0,1,8.13-.76v5h-0.6a48.67,48.67,0,0,0-7.53.68V13.17ZM78,53.32v4.92c-5.17-.2-10.51-0.21-15.7,0V53.27a142.23,142.23,0,0,1,15.7,0M70.66,35.65a70.19,70.19,0,0,1,8.11.57v4.89c-2.67-.28-5.39-0.44-8.11-0.47v-5Zm0-5.81a60.32,60.32,0,0,1,8.11.66V35.4a71.35,71.35,0,0,0-8.11-.56v-5Zm0-5.81a53.07,53.07,0,0,1,8.11.76v4.9A61.25,61.25,0,0,0,70.66,29V24Zm0-5.81a47.12,47.12,0,0,1,8.11.86V24a54,54,0,0,0-8.11-.74v-5Zm0-5.81a42.59,42.59,0,0,1,8.11,1v4.89a48.23,48.23,0,0,0-8.11-.83v-5Zm8.93,23.91a62,62,0,0,1,7.26,1.47v4.62c-2.34-.51-4.77-0.92-7.26-1.21V36.33Zm0-5.69a54.14,54.14,0,0,1,7.26,1.71V37a63.14,63.14,0,0,0-7.26-1.44V30.64Zm0-5.69a48.45,48.45,0,0,1,7.26,2v4.6a54.93,54.93,0,0,0-7.26-1.68V24.94Zm0-5.69a44.21,44.21,0,0,1,7.26,2.21V26a49.24,49.24,0,0,0-7.26-1.91V19.25Zm0-5.69A41,41,0,0,1,86.84,16v4.57a44.94,44.94,0,0,0-7.26-2.15V13.55Zm13.89,41.5v4.33l-6.07-.56c-2.28-.21-4.65-0.37-7.08-0.5V53.47c2.39,0.18,4.73.43,7,.74ZM87.66,38l6.43,1.77v4.28l-6.43-1.47V38Zm0-5.41,6.43,2.06v4.27l-6.43-1.77V32.6Zm0-5.41,6.43,2.36v4.26l-6.43-2.06V27.19Zm0-5.41,6.43,2.65v4.25l-6.43-2.36V21.78Zm0-5.41,6.43,2.95v4.23L87.66,20.9V16.37ZM94.9,40l5.66,1.56v4l-5.66-1.3V40Zm0-5.08,5.66,1.82v4L94.9,39.16V34.93Zm0-5.08,5.66,2.08v4L94.9,34.07V29.85Zm0-5.08,5.66,2.33v4L94.9,29V24.77Zm0-5.08,5.66,2.59v3.94L94.9,23.89v-4.2Zm10.94,37.06v3.76l-10.33-.95V55.34Zm-4.46-15,4.94,1.36v3.72l-4.94-1.13V41.79Zm0-4.78,4.94,1.58V42.3l-4.94-1.36V37Zm0-4.78L106.32,34v3.7l-4.94-1.58V32.22Zm0-4.78,4.94,2v3.69l-4.94-1.81V27.44Zm0-4.78,4.94,2.26V28.6l-4.94-2v-3.9Zm5.75,20.71,4.27,1.17V48l-4.27-1V43.37Zm0-4.52,4.27,1.37V43.7l-4.27-1.17V38.85Zm0-4.52,4.27,1.56v3.47L107.13,38V34.33Zm0-4.52,4.27,1.76V35l-4.27-1.56V29.82Zm0-4.52,4.27,2v3.44l-4.27-1.76V25.3Zm8.32,32.78V61.4l-7.85-.72V57Zm-3.24-13.31,3.65,1v3.28l-3.65-.84V44.77Zm0-4.29,3.65,1.17v3.28l-3.65-1V40.48Zm0-4.29,3.65,1.34V40.8l-3.65-1.17V36.2Zm0-4.28,3.65,1.5v3.25l-3.65-1.34V31.91Zm0-4.28,3.65,1.67v3.24L112.21,31v-3.4ZM116.67,46l3.07,0.84v3.11l-3.07-.7V46Zm0-4.08,3.07,1V46l-3.07-.85V41.91Zm0-4.08L119.75,39V42l-3.07-1V37.83Zm0-4.08L119.75,35v3.07L116.67,37V33.75Zm0-4.08,2.41,1.1,0.67,0.31v3.06l-3.07-1.27v-3.2Zm3.89,17.39,2.52,0.69v3l-2.52-.58V47.06Zm0-3.9L123.08,44v2.94l-2.52-.69V43.16Zm0-3.9,2.52,0.93v2.93l-2.52-.81v-3Zm0-3.9,2.52,1v2.92l-2.52-.92v-3Zm0-3.9,0.64,0.29,1.88,0.86v2.91l-2.52-1v-3Zm2.52,30.65-6-.55V58.3l6,0.83v3Zm0.82,8.23V32.08l-2.12-1V29.45l2.12-.57V24.56l-36.33-20a36.92,36.92,0,0,0-36,.22l-6,3.29V55l1.63,0.44v3.88l-1.63.15v2.64l1.63-.13v8.39H44.77V6L36.53,1.22l-11,6.4v2l-1.72-1L12.75,15v2L11,16,0,22.31V71.63H123.9v-1.3Z" transform="translate(0 0)"/><rect class="cls-2" y="86.25" width="123.9" height="1.3"/></g></svg>