<svg id="Слой_1" data-name="Слой 1" xmlns="http://www.w3.org/2000/svg" viewBox="0 0 142.23 84.43"><defs><style>.cls-1{fill:#ea5934;}.cls-2{fill:#fff;}</style></defs><title>Векторный смарт-объект2</title><polygon class="cls-1" points="0 84.43 142.23 84.43 142.23 0 0 0 0 84.43 0 84.43"/><path class="cls-2" d="M569.51,629.37a0.84,0.84,0,0,1-.43.08h-3.35a0.86,0.86,0,0,1-.42-0.08,0.45,0.45,0,0,1-.14-0.41V613.8a0.45,0.45,0,0,1,.14-0.41,0.87,0.87,0,0,1,.42-0.08h3.35a0.85,0.85,0,0,1,.43.08,0.48,0.48,0,0,1,.12.41v5.35h1.45a2.84,2.84,0,0,0,1.46-.38,2.92,2.92,0,0,0,1.09-1.67l1.08-3.38a0.43,0.43,0,0,1,.21-0.34,0.83,0.83,0,0,1,.31-0.06h3.41a0.31,0.31,0,0,1,.35.18,0.76,0.76,0,0,1,0,.34l-1.14,4a5.51,5.51,0,0,1-.75,1.71,3,3,0,0,1-1.43,1.12l0,0.06a4,4,0,0,1,1.11.46,3.12,3.12,0,0,1,.72.63,3.2,3.2,0,0,1,.48.8c0.12,0.3.23,0.61,0.34,0.94l1.57,5.32a1,1,0,0,1,0,.35c0,0.13-.15.2-0.4,0.2h-3.54a0.87,0.87,0,0,1-.29-0.06,0.4,0.4,0,0,1-.23-0.31L574,624.34a2.27,2.27,0,0,0-1-1.37,3.16,3.16,0,0,0-1.61-.38h-1.75V629a0.48,0.48,0,0,1-.12.41h0Zm-2.79-28.7a2.54,2.54,0,0,1,.59.28,1.61,1.61,0,0,1,.39.36,1.65,1.65,0,0,1,.24.45q0.09,0.25.17,0.56l0.85,3.19a0.3,0.3,0,0,1,0,.17,0.17,0.17,0,0,1-.2.1h-2.06l-0.15,0a0.22,0.22,0,0,1-.12-0.17l-0.87-2.89a1.93,1.93,0,0,0-.24-0.54,1.07,1.07,0,0,0-.34-0.33,1.32,1.32,0,0,0-.47-0.16,4.31,4.31,0,0,0-.63,0h-0.62v3.94a0.22,0.22,0,0,1-.06.19,0.39,0.39,0,0,1-.2,0H560.9a0.4,0.4,0,0,1-.19,0,0.2,0.2,0,0,1-.06-0.19v-9.19a0.2,0.2,0,0,1,.06-0.19,0.39,0.39,0,0,1,.19,0H563a0.39,0.39,0,0,1,.19,0,0.18,0.18,0,0,1,0,.19v3.41h0.66l0.43,0a1.16,1.16,0,0,0,.43-0.14,1.26,1.26,0,0,0,.38-0.34,1.85,1.85,0,0,0,.28-0.63l0.63-2.32a0.19,0.19,0,0,1,.12-0.17l0.16,0h2a0.17,0.17,0,0,1,.2.1,0.31,0.31,0,0,1,0,.17l-0.66,2.46a3,3,0,0,1-.45,1,2.39,2.39,0,0,1-.75.71v0.07h0Zm14.58-.14a2.2,2.2,0,0,1,.65.42,2.33,2.33,0,0,1,.44.56,2.41,2.41,0,0,1,.25.65,3,3,0,0,1,.08.67,2.76,2.76,0,0,1-1,2.14,3.25,3.25,0,0,1-1.07.61,4,4,0,0,1-1.33.21h-3.58a0.91,0.91,0,0,1-.73-0.21,1.15,1.15,0,0,1-.17-0.69v-7.82a1.16,1.16,0,0,1,.17-0.68,0.88,0.88,0,0,1,.73-0.23h3.58a4.63,4.63,0,0,1,1.16.14,2.6,2.6,0,0,1,.94.44,2.18,2.18,0,0,1,.63.77,2.5,2.5,0,0,1,.23,1.13,2.06,2.06,0,0,1-.29,1,2.17,2.17,0,0,1-.73.78v0.08h0ZM580,602.65a0.92,0.92,0,0,0-.24-0.65,0.91,0.91,0,0,0-.69-0.25h-1.61v1.8h1.61a1.08,1.08,0,0,0,.45-0.08,0.76,0.76,0,0,0,.29-0.22A0.8,0.8,0,0,0,580,603a1.15,1.15,0,0,0,0-.3h0Zm-2.55-2.94h1.44a1,1,0,0,0,.51-0.14,0.57,0.57,0,0,0,.23-0.54,0.62,0.62,0,0,0-.18-0.48,0.72,0.72,0,0,0-.5-0.17h-1.49v1.32h0Zm16.43,4.2h-2.71l-0.45,1.58a0.63,0.63,0,0,1-.13.23,0.45,0.45,0,0,1-.31.08h-2a0.17,0.17,0,0,1-.17-0.08,0.28,0.28,0,0,1,0-.19l2.71-8.52a1.26,1.26,0,0,1,.44-0.71,1.41,1.41,0,0,1,.73-0.16h1.11l0.43,0a0.84,0.84,0,0,1,.33.1,0.81,0.81,0,0,1,.26.25,1.88,1.88,0,0,1,.21.47l2.71,8.53a0.28,0.28,0,0,1,0,.17,0.16,0.16,0,0,1-.19.1H594.8a0.79,0.79,0,0,1-.28,0,0.26,0.26,0,0,1-.15-0.19l-0.45-1.65h0Zm-2.13-2h1.57l-0.26-1.07-0.44-2h-0.11l-0.47,2-0.29,1h0Zm13.54,3.65a0.35,0.35,0,0,1,0,.22,0.43,0.43,0,0,1-.28.06h-2a0.26,0.26,0,0,1-.32-0.28v-8.45a1.2,1.2,0,0,1,.16-0.64,0.8,0.8,0,0,1,.73-0.27h3.5a4.09,4.09,0,0,1,1.44.23,2.94,2.94,0,0,1,1.05.65,2.78,2.78,0,0,1,.65,1,3.34,3.34,0,0,1,.22,1.22,4.53,4.53,0,0,1,0,.55,3.14,3.14,0,0,1-.17.69,3.31,3.31,0,0,1-.38.72,2.52,2.52,0,0,1-.67.65,3.57,3.57,0,0,1-1,.47,5.46,5.46,0,0,1-1.49.18h-1.35v3h0Zm2.46-6.08a1.52,1.52,0,0,0,0-.32,1,1,0,0,0-.14-0.34,0.88,0.88,0,0,0-.3-0.26,1,1,0,0,0-.5-0.11h-1.49v2.08h1.49a0.86,0.86,0,0,0,.73-0.32,1.16,1.16,0,0,0,.25-0.72h0Zm15.53-1.4a0.27,0.27,0,0,1-.29.32h-2.35v7.16a0.39,0.39,0,0,1,0,.23,0.39,0.39,0,0,1-.28.06h-2a0.27,0.27,0,0,1-.32-0.29v-7.16h-2.3a0.27,0.27,0,0,1-.29-0.32v-1.54a0.39,0.39,0,0,1,.06-0.28,0.39,0.39,0,0,1,.23,0H623a0.39,0.39,0,0,1,.23,0,0.39,0.39,0,0,1,.06.28V598h0Zm10,5.88h-2.71l-0.45,1.58a0.62,0.62,0,0,1-.13.23,0.45,0.45,0,0,1-.31.08h-2a0.17,0.17,0,0,1-.17-0.08,0.28,0.28,0,0,1,0-.19l2.71-8.52a1.25,1.25,0,0,1,.44-0.71,1.41,1.41,0,0,1,.73-0.16h1.11l0.43,0a0.84,0.84,0,0,1,.33.1,0.81,0.81,0,0,1,.26.25,1.87,1.87,0,0,1,.21.47l2.71,8.53a0.28,0.28,0,0,1,0,.17,0.16,0.16,0,0,1-.19.1h-2.08a0.79,0.79,0,0,1-.28,0,0.26,0.26,0,0,1-.15-0.19l-0.45-1.65h0Zm-2.13-2h1.57l-0.26-1.07-0.44-2H632l-0.47,2-0.29,1h0Zm18.46-5.71a0.88,0.88,0,0,1,.73.23,1.15,1.15,0,0,1,.17.68v8.43a0.39,0.39,0,0,1,0,.23,0.39,0.39,0,0,1-.28.06h-2a0.27,0.27,0,0,1-.32-0.29v-7.11h-2.23l0,0.66q-0.1,1.51-.2,2.66a8.2,8.2,0,0,1-.41,2,3.81,3.81,0,0,1-.89,1.44,4.72,4.72,0,0,1-1.67,1,1,1,0,0,1-.32.08A0.3,0.3,0,0,1,642,606l-0.7-1.42a0.33,0.33,0,0,1-.06-0.23,0.45,0.45,0,0,1,.19-0.17,3,3,0,0,0,.83-0.6,2.41,2.41,0,0,0,.5-0.87,6.07,6.07,0,0,0,.27-1.34q0.08-.8.15-2l0.11-2.31a2,2,0,0,1,0-.39,0.64,0.64,0,0,1,.13-0.29,0.56,0.56,0,0,1,.27-0.17,1.56,1.56,0,0,1,.46-0.05h5.45Zm-2,41.67a2,2,0,0,0-1.29-.35h-1.5a3.87,3.87,0,0,0-.66,0,1.54,1.54,0,0,0-.46.15,1.46,1.46,0,0,0-.38.31,5,5,0,0,0-.4.51l-1.75,2.86q-0.74,1.2-1.32,2.09c-0.12.2-.24,0.4-0.37,0.58s-0.27.41-.43,0.69l-0.63,1-1,1.61h-0.15V622.59h1.75a3.16,3.16,0,0,1,1.61.38,2.27,2.27,0,0,1,1,1.37l1.45,4.73a0.4,0.4,0,0,0,.23.31,0.87,0.87,0,0,0,.29.06h3.54c0.25,0,.38-0.07.4-0.2a1.11,1.11,0,0,0,0-.35l-1.57-5.32c-0.1-.33-0.21-0.64-0.34-0.94a3.18,3.18,0,0,0-.48-0.8,3.23,3.23,0,0,0-.72-0.63,4.06,4.06,0,0,0-1.11-.46l0-.06a3,3,0,0,0,1.43-1.12,5.45,5.45,0,0,0,.75-1.71l1.14-4a0.8,0.8,0,0,0,0-.34,0.31,0.31,0,0,0-.35-0.19H643a0.85,0.85,0,0,0-.31.06,0.44,0.44,0,0,0-.22.34l-1.07,3.38a2.91,2.91,0,0,1-1.09,1.67,2.84,2.84,0,0,1-1.46.38h-1.44V613.8a0.49,0.49,0,0,0-.12-0.42,0.86,0.86,0,0,0-.43-0.08H633.5a0.88,0.88,0,0,0-.41.08,0.45,0.45,0,0,0-.14.42v38.09a2.14,2.14,0,0,0,.32,1.29,1.71,1.71,0,0,0,1.4.43h1.45a2.57,2.57,0,0,0,1.11-.18,2.37,2.37,0,0,0,.8-0.83q0.74-1.11,1.45-2.23l1.41-2.23c0.45-.7.89-1.4,1.31-2.11s0.87-1.42,1.34-2.14h0.15v9.22a0.48,0.48,0,0,0,.12.42,1,1,0,0,0,.46.08h3.32a0.74,0.74,0,0,0,.43-0.09,0.49,0.49,0,0,0,.12-0.4V639.2a1.72,1.72,0,0,0-.43-1.37h0Zm-27.56,15.65a1,1,0,0,1-.57.11h-3.11a0.58,0.58,0,0,1-.68-0.62V637.87a0.57,0.57,0,0,1,.68-0.59h3.11a1,1,0,0,1,.57.11,0.62,0.62,0,0,1,.14.48v5.31h5.81v-5.31a0.57,0.57,0,0,1,.69-0.59h3.13a1,1,0,0,1,.56.11,0.66,0.66,0,0,1,.12.48V653a0.71,0.71,0,0,1-.12.51,1,1,0,0,1-.56.11h-3.13a0.58,0.58,0,0,1-.69-0.62v-6.24h-5.81V653a0.66,0.66,0,0,1-.14.51h0Zm-14.49-12.59a10.9,10.9,0,0,0-1.71.19,16.14,16.14,0,0,0-2.08.5,0.8,0.8,0,0,1-.53.09,0.48,0.48,0,0,1-.25-0.28l-0.75-2.08a1.31,1.31,0,0,1-.14-0.54,0.53,0.53,0,0,1,.39-0.33,11.69,11.69,0,0,1,2.78-.93,15.26,15.26,0,0,1,3.18-.34,8.59,8.59,0,0,1,4.6,1.07,3.63,3.63,0,0,1,1.71,3.31,3.43,3.43,0,0,1-.68,2.08,5.26,5.26,0,0,1-1.68,1.49v0.13a4.22,4.22,0,0,1,2.1,1.41,3.6,3.6,0,0,1,.76,2.28,4.34,4.34,0,0,1-.59,2.28,5.07,5.07,0,0,1-1.58,1.63,7.43,7.43,0,0,1-2.33,1,11.82,11.82,0,0,1-2.82.33q-0.75,0-1.57-.06c-0.55,0-1.1-.11-1.65-0.19a13.53,13.53,0,0,1-1.6-.34,11.68,11.68,0,0,1-1.43-.5,0.5,0.5,0,0,1-.35-0.34,1.31,1.31,0,0,1,0-.44l0.81-2.27a0.49,0.49,0,0,1,.25-0.31,1.08,1.08,0,0,1,.59.06,17.72,17.72,0,0,0,2.38.54,13.39,13.39,0,0,0,2.07.2,3.89,3.89,0,0,0,2.52-.62,1.83,1.83,0,0,0,.71-1.4,1.36,1.36,0,0,0-.82-1.24,6.57,6.57,0,0,0-2.75-.47,1.64,1.64,0,0,1-.89-0.25,0.87,0.87,0,0,1-.29-0.75v-0.93a0.79,0.79,0,0,1,.33-0.73,1.9,1.9,0,0,1,.89-0.23,5.31,5.31,0,0,0,2.27-.51,1.27,1.27,0,0,0,.71-1.13,1.06,1.06,0,0,0-.73-1.09,5.23,5.23,0,0,0-1.85-.28h0Zm-19.13-23.74a8.23,8.23,0,0,1,1.22-.25,9.07,9.07,0,0,1,1.13-.09,5.27,5.27,0,0,1,1.56.22,2.62,2.62,0,0,1,1.18.74,3.41,3.41,0,0,1,.73,1.38,7.76,7.76,0,0,1,.25,2.12,5.19,5.19,0,0,1-1,3.56,3.28,3.28,0,0,1-2.52,1c-0.33,0-.71,0-1.13-0.06a8.89,8.89,0,0,1-1.44-.28v-8.39h0Zm9,20.3H594a4,4,0,0,0-.66,0,1.53,1.53,0,0,0-.46.15,1.5,1.5,0,0,0-.38.31,5.25,5.25,0,0,0-.4.51l-1.75,2.86q-0.74,1.2-1.32,2.09c-0.12.2-.25,0.4-0.37,0.58s-0.27.42-.43,0.69l-0.63,1-1,1.61h-0.15v-18a16,16,0,0,0,1.77.29c0.52,0,1.09.08,1.71,0.08a7.35,7.35,0,0,0,3.22-.66,6.34,6.34,0,0,0,2.27-1.8,7.63,7.63,0,0,0,1.33-2.66,11.9,11.9,0,0,0,.43-3.24,13.07,13.07,0,0,0-.4-3.29,7,7,0,0,0-1.31-2.66,6.31,6.31,0,0,0-2.4-1.78,9.05,9.05,0,0,0-3.67-.66,23.4,23.4,0,0,0-3.49.28,12.32,12.32,0,0,0-3.3,1,1.21,1.21,0,0,0-.51.41,1.13,1.13,0,0,0-.11.54v36.71a2.14,2.14,0,0,0,.32,1.29,1.71,1.71,0,0,0,1.4.43h1.44a2.57,2.57,0,0,0,1.11-.18,2.38,2.38,0,0,0,.8-0.83q0.74-1.11,1.44-2.23l1.42-2.23q0.67-1,1.31-2.11t1.34-2.14h0.15v9.22a0.48,0.48,0,0,0,.12.41,0.94,0.94,0,0,0,.46.08h3.32a0.73,0.73,0,0,0,.43-0.09,0.49,0.49,0,0,0,.12-0.4V639.17a1.72,1.72,0,0,0-.43-1.37,2,2,0,0,0-1.29-.35h0Zm-29.91,9.13h-1.24a3,3,0,0,0-1.65.43,2.38,2.38,0,0,0-1,1.43l-1.46,4.78a0.4,0.4,0,0,1-.23.31,0.87,0.87,0,0,1-.3.06h-3.6c-0.25,0-.39-0.07-0.4-0.2a1,1,0,0,1,0-.36l1.58-5.37c0.1-.33.22-0.65,0.34-0.95a3.19,3.19,0,0,1,.48-0.81,3.14,3.14,0,0,1,.73-0.64,4.05,4.05,0,0,1,1.12-.47l0-.06a3.06,3.06,0,0,1-1.45-1.13,5.55,5.55,0,0,1-.76-1.72l-1.15-4.07a0.78,0.78,0,0,1,0-.34,0.31,0.31,0,0,1,.36-0.19h3.48a0.71,0.71,0,0,1,.29.06,0.53,0.53,0,0,1,.23.34l1.06,3.42a3.13,3.13,0,0,0,1.1,1.72,2.78,2.78,0,0,0,1.51.42h0.93v-5.47a0.49,0.49,0,0,1,.12-0.42,0.86,0.86,0,0,1,.43-0.08h3.39a0.89,0.89,0,0,1,.42.08,0.46,0.46,0,0,1,.14.42v5.47H571a2.77,2.77,0,0,0,1.51-.42,3.13,3.13,0,0,0,1.1-1.72l1.06-3.42a0.53,0.53,0,0,1,.23-0.34,0.7,0.7,0,0,1,.29-0.06h3.48a0.31,0.31,0,0,1,.36.19,0.77,0.77,0,0,1,0,.34l-1.15,4.07a5.5,5.5,0,0,1-.76,1.72,3,3,0,0,1-1.44,1.13l0,0.06a4.09,4.09,0,0,1,1.12.47,3,3,0,0,1,1.21,1.44c0.12,0.3.24,0.62,0.34,0.95L580,653a1,1,0,0,1,0,.36c0,0.14-.16.2-0.4,0.2H576a0.88,0.88,0,0,1-.3-0.06,0.4,0.4,0,0,1-.23-0.31L574,648.43a2.49,2.49,0,0,0-1-1.43,3,3,0,0,0-1.65-.43h-1.24v6.52a0.46,0.46,0,0,1-.14.42,0.9,0.9,0,0,1-.42.08h-3.39a0.87,0.87,0,0,1-.43-0.08,0.49,0.49,0,0,1-.12-0.42v-6.52h0ZM649.9,613.8a0.47,0.47,0,0,1,.56-0.49h3.31a0.81,0.81,0,0,1,.48.09,0.53,0.53,0,0,1,.11.4v9.41h0.15l1-1.61,0.63-1c0.16-.28.31-0.51,0.43-0.69s0.25-.38.37-0.59q0.58-.89,1.32-2.09l1.75-2.86a5.17,5.17,0,0,1,.4-0.51,1.49,1.49,0,0,1,.39-0.31,1.51,1.51,0,0,1,.46-0.15,3.88,3.88,0,0,1,.66,0h1.5a2,2,0,0,1,1.29.35,1.72,1.72,0,0,1,.43,1.37V629a0.49,0.49,0,0,1-.12.4,0.75,0.75,0,0,1-.43.09h-3.32a0.93,0.93,0,0,1-.46-0.08,0.48,0.48,0,0,1-.12-0.41v-9.22h-0.15q-0.71,1.08-1.34,2.14T657.83,624l-1.41,2.23q-0.71,1.12-1.45,2.23a2.38,2.38,0,0,1-.8.83,2.58,2.58,0,0,1-1.11.18h-1.44a1.7,1.7,0,0,1-1.4-.43,2.13,2.13,0,0,1-.32-1.29V613.8h0Zm-24.83,12a7.92,7.92,0,0,0,1.92-.23,16,16,0,0,0,1.61-.47,1,1,0,0,1,.54-0.11,0.6,0.6,0,0,1,.26.38l0.86,2.31a1,1,0,0,1,.14.49,0.56,0.56,0,0,1-.35.37,9.26,9.26,0,0,1-2.89,1,17.11,17.11,0,0,1-2.8.26,7,7,0,0,1-5.5-2.09Q617,625.6,617,621.42a11,11,0,0,1,.54-3.55,7.74,7.74,0,0,1,1.52-2.69,6.44,6.44,0,0,1,2.41-1.69,8.35,8.35,0,0,1,3.18-.58,12.47,12.47,0,0,1,2.55.26,9.47,9.47,0,0,1,2.31.78,0.8,0.8,0,0,1,.45.34,0.9,0.9,0,0,1-.11.52L629,617.18a0.56,0.56,0,0,1-.34.37,1.57,1.57,0,0,1-.61-0.09q-0.8-.24-1.57-0.4a7.55,7.55,0,0,0-1.48-.15,3,3,0,0,0-1.55.37,3,3,0,0,0-1,1,4.4,4.4,0,0,0-.58,1.43,7.83,7.83,0,0,0-.18,1.74,9.22,9.22,0,0,0,.15,1.75,3.57,3.57,0,0,0,.55,1.38,2.67,2.67,0,0,0,1.06.91,3.82,3.82,0,0,0,1.67.32h0Zm-15.22-3.66h-2.43a7.49,7.49,0,0,0-.92.06,2.48,2.48,0,0,0-.91.29,2,2,0,0,0-.69.66,2.15,2.15,0,0,0-.28,1.17,1.61,1.61,0,0,0,.72,1.51,3.8,3.8,0,0,0,2,.43l0.49,0,0.66-.06,0.72-.12a4,4,0,0,0,.68-0.2v-3.72h0Zm4.46,5.32a1.88,1.88,0,0,1-.11.68,1.14,1.14,0,0,1-.54.52,8.62,8.62,0,0,1-1.52.55,14.81,14.81,0,0,1-1.66.34q-0.84.12-1.7,0.19c-0.57,0-1.12.06-1.63,0.06a12.58,12.58,0,0,1-3.45-.4,6,6,0,0,1-2.19-1.09,3.73,3.73,0,0,1-1.16-1.63,6.2,6.2,0,0,1,.06-4.21,4.73,4.73,0,0,1,1.2-1.74,5.58,5.58,0,0,1,2-1.15,8.89,8.89,0,0,1,2.87-.41h3.38v-0.49a3.62,3.62,0,0,0-.09-0.83,1.42,1.42,0,0,0-.38-0.69,2.17,2.17,0,0,0-.82-0.48,4.29,4.29,0,0,0-1.38-.18c-0.31,0-.66,0-1,0s-0.78.07-1.17,0.12-0.77.11-1.14,0.18-0.7.15-1,.23a0.83,0.83,0,0,1-.55,0,0.57,0.57,0,0,1-.21-0.4l-0.49-2.15a0.7,0.7,0,0,1,0-.48,0.58,0.58,0,0,1,.32-0.23,15,15,0,0,1,2.9-.71,21.84,21.84,0,0,1,3-.21q3.34,0,4.9,1.43a5.46,5.46,0,0,1,1.56,4.23v8.91h0Z" transform="translate(-539.3 -582.92)"/></svg>