<svg width="60" height="59" viewBox="0 0 60 59" fill="none" xmlns="http://www.w3.org/2000/svg">
<g clip-path="url(#clip0)">
<path d="M3.31817 44.6356L19.5426 28.4112L2.25654 11.1252C1.8218 10.6904 1.8218 9.98549 2.25654 9.55064L11.4511 0.356128C11.8859 -0.0784989 12.5906 -0.0784989 13.0256 0.356128L30.3116 17.6422L45.6521 2.30171C45.6524 2.30137 45.6529 2.30104 45.6532 2.3007L45.8058 2.14818C45.9708 1.98331 46.1837 1.87432 46.4139 1.8368L57.6084 0.0146831C57.9625 -0.0427624 58.3214 0.0732419 58.5745 0.326292C58.8277 0.579453 58.9437 0.938933 58.8861 1.29229L57.0641 12.4868C57.0266 12.7171 56.9177 12.9298 56.7528 13.0949L56.6002 13.2475C56.5999 13.2479 56.5996 13.2483 56.5992 13.2486L41.2587 28.5892L58.5447 45.8753C58.9794 46.31 58.9794 47.0149 58.5447 47.4498L49.3502 56.6443C49.1328 56.8616 48.8479 56.9704 48.563 56.9704C48.2781 56.9704 47.9932 56.8616 47.7758 56.6443L30.4896 39.3582L14.2651 55.5827C13.3509 56.4968 12.1354 57.0002 10.8426 57.0002C9.5499 57.0002 8.33441 56.4968 7.42029 55.5827L3.31828 51.4805C2.40405 50.5664 1.90062 49.3509 1.90062 48.0582C1.90062 46.7654 2.40405 45.5499 3.31817 44.6356ZM12.2383 2.71785L4.61826 10.3378L7.17771 12.8973L10.0587 10.0162C10.4934 9.58182 11.1981 9.58159 11.6332 10.0162C12.0679 10.451 12.0679 11.1559 11.6332 11.5907L8.75223 14.4718L12.4993 18.2189L14.6275 16.0908C15.0623 15.6561 15.767 15.6561 16.202 16.0908C16.6367 16.5255 16.6367 17.2304 16.202 17.6653L14.0738 19.7934L17.8209 23.5405L20.702 20.6596C21.1369 20.2249 21.8416 20.2249 22.2765 20.6596C22.7113 21.0943 22.7113 21.7992 22.2765 22.2341L19.3955 25.115L21.1172 26.8367L28.7372 19.2167L12.2383 2.71785ZM46.4394 4.66343L10.7476 40.3554L12.0606 41.6683L47.7524 5.97644L46.4394 4.66343ZM56.44 2.46068L48.6531 3.72816L55.1727 10.2478L56.44 2.46068ZM33.7858 39.5054L35.9139 37.3771C36.3486 36.9427 37.0533 36.9425 37.4885 37.3771C37.9232 37.8118 37.9232 38.5168 37.4885 38.9516L35.3603 41.0799L39.1074 44.827L41.9885 41.9459C42.4233 41.5113 43.128 41.5113 43.563 41.9459C43.9977 42.3807 43.9977 43.0856 43.563 43.5204L40.6819 46.4015L44.429 50.1486L46.5573 48.0205C46.9921 47.5858 47.6968 47.5858 48.1318 48.0205C48.5665 48.4552 48.5665 49.1601 48.1318 49.595L46.0035 51.7231L48.563 54.2826L56.183 46.6626L39.6842 30.1637L32.0642 37.7837L33.7858 39.5054ZM18.5456 48.1533L54.2375 12.4614L49.3268 7.55096L13.635 43.2428L15.658 45.2659L45.6521 15.2718C46.0869 14.8372 46.7916 14.8372 47.2266 15.2718C47.6613 15.7066 47.6613 16.4115 47.2266 16.8463L17.2326 46.8403L18.5456 48.1533ZM4.89269 49.906L8.99481 54.0083C9.48845 54.5019 10.1446 54.7736 10.8428 54.7736C11.5409 54.7736 12.1972 54.5019 12.6908 54.0082L16.9712 49.7278L9.17316 41.9298L4.8928 46.2101C4.39906 46.7038 4.1273 47.3601 4.1273 48.0582C4.1273 48.7563 4.39894 49.4125 4.89269 49.906Z" fill="#FF650C"/>
<path d="M48.1953 12.9939C48.2098 12.9227 48.231 12.8526 48.2588 12.7857C48.2866 12.7179 48.3211 12.6533 48.3612 12.5932C48.4013 12.5319 48.448 12.4751 48.4993 12.4239C48.5505 12.3727 48.6082 12.3259 48.6685 12.2858C48.7298 12.2459 48.7943 12.2112 48.8611 12.1834C48.9279 12.1556 48.9979 12.1334 49.0693 12.1201C49.2129 12.091 49.3609 12.091 49.5046 12.1201C49.5758 12.1334 49.6459 12.1556 49.7126 12.1834C49.7795 12.2112 49.8441 12.2459 49.9052 12.2858C49.9653 12.3259 50.0232 12.3727 50.0744 12.4239C50.1258 12.4751 50.1725 12.5319 50.2125 12.5932C50.2526 12.6533 50.2871 12.7179 50.3149 12.7857C50.3427 12.8526 50.3639 12.9226 50.3784 12.9939C50.3928 13.0651 50.4006 13.1386 50.4006 13.211C50.4006 13.2832 50.3928 13.3568 50.3784 13.4281C50.3639 13.4993 50.3427 13.5694 50.3149 13.6362C50.2871 13.704 50.2526 13.7686 50.2125 13.8287C50.1725 13.89 50.1258 13.9468 50.0744 13.9981C50.0232 14.0493 49.9655 14.096 49.9052 14.136C49.844 14.1761 49.7794 14.2106 49.7126 14.2384C49.6458 14.2662 49.5758 14.2885 49.5046 14.3019C49.4322 14.3163 49.3597 14.3241 49.2863 14.3241C49.214 14.3241 49.1415 14.3163 49.0693 14.3019C48.9979 14.2885 48.9278 14.2662 48.8611 14.2384C48.7942 14.2106 48.7297 14.1761 48.6685 14.136C48.6084 14.096 48.5505 14.0493 48.4993 13.9981C48.448 13.9468 48.4013 13.89 48.3612 13.8287C48.3211 13.7686 48.2866 13.704 48.2588 13.6362C48.231 13.5693 48.2098 13.4993 48.1953 13.4281C48.1809 13.3567 48.1732 13.2832 48.1732 13.211C48.1732 13.1386 48.1809 13.065 48.1953 12.9939Z" fill="#FF650C"/>
</g>
<defs>
<clipPath id="clip0">
<rect width="59" height="59" fill="white" transform="translate(0.666626)"/>
</clipPath>
</defs>
</svg>
