<svg xmlns="http://www.w3.org/2000/svg" viewBox="0 0 475.11 85.45"><defs><style>.cls-1{fill:#231f20;}</style></defs><title>logo</title><g id="Слой_2" data-name="Слой 2"><g id="_2D_Tagline" data-name="2D Tagline"><g id="_Группа_" data-name="&lt;Группа&gt;"><g id="_Группа_2" data-name="&lt;Группа&gt;"><g id="_Группа_3" data-name="&lt;Группа&gt;"><g id="_Группа_4" data-name="&lt;Группа&gt;"><g id="_Группа_5" data-name="&lt;Группа&gt;"><g id="_Группа_6" data-name="&lt;Группа&gt;"><path id="_Контур_" data-name="&lt;Контур&gt;" class="cls-1" d="M86.21,4,83.61,7.89c17.49,7.19,24.55,20.25,24.55,34.24,0,7-1.89,13.32-5.58,13.32H56.73c-6.25,0-8.11-2.22-5.3-7.78,5-9.89,20-28.82,29.3-40.21,1.35-1.67,2.46-4.28-2.4-5.58S65.32,0,58.51,0C24,0,0,18.65,0,42.68,0,64.8,20.84,85.45,58.43,85.45c16.61,0,37-4.67,48.53-17.76H97C85.75,77.86,71.06,80.18,58.51,80.18,28.18,80.18,9,64.43,9,42.68,9,22.62,30.72,4.61,58.14,4.61c3.28,0,4.35.71.88,5-7,8.71-19.54,26-25.42,36.06C27.29,56.5,33.73,65.3,47.89,65.3h57.35c3.54,0,5.56-2,7.62-5.68a34.84,34.84,0,0,0,4.24-16.94C117.1,26.38,104.87,11.39,86.21,4Z"/></g></g></g></g><g id="_Группа_7" data-name="&lt;Группа&gt;"><g id="_Группа_8" data-name="&lt;Группа&gt;"><g id="_Группа_9" data-name="&lt;Группа&gt;"><g id="_Группа_10" data-name="&lt;Группа&gt;"><g id="_Группа_11" data-name="&lt;Группа&gt;"><path id="_Составной_контур_" data-name="&lt;Составной контур&gt;" class="cls-1" d="M460.45,39.54H421.56c1.26-5,5.13-8.39,12.37-8.39h37.21V22.8H431.58c-22.55,0-27.92,16-27.92,25.09h48.17c6.61,0,6.61,8.91.23,8.91l-53.25,0v-34h-16v34H356.17C349,56.81,346,53.39,346,48.11c0-6.37,0-25.31,0-25.31H320.34l-23,14.46L277.58,22.8h-57c-16.49,0-28.21,9.63-29.57,21.68h10.7a24.82,24.82,0,0,0-9.46,12.42H158.61c-6.35,0-9.32-3.31-9.32-9.52V22.8H133.2V43.7c0,13.27,7.25,21.62,23.57,21.62H269.08l23.07-14.54L312,65.31h23.72L304.89,42.75,330,27V50.85c0,7.41,9.6,14.46,18.33,14.46H460.54C480,65.31,479.92,39.54,460.45,39.54ZM266.2,56.89H211.7c.56-4.56,2.92-9.09,10.35-9.09h33.79V39.49h-45c.78-3.44,4.28-8.33,12.38-8.33H259V26.55l25.65,18.74Z"/></g></g></g></g></g></g></g></g></g></svg>